<?xml version="1.0" encoding="utf-8"?>
<!-- Generator: Adobe Illustrator 16.0.0, SVG Export Plug-In . SVG Version: 6.00 Build 0)  -->
<!DOCTYPE svg PUBLIC "-//W3C//DTD SVG 1.1//EN" "http://www.w3.org/Graphics/SVG/1.1/DTD/svg11.dtd">
<svg version="1.1"
	 id="svg3081" xmlns:dc="http://purl.org/dc/elements/1.1/" xmlns:cc="http://creativecommons.org/ns#" xmlns:rdf="http://www.w3.org/1999/02/22-rdf-syntax-ns#" xmlns:svg="http://www.w3.org/2000/svg" xmlns:sodipodi="http://sodipodi.sourceforge.net/DTD/sodipodi-0.dtd" xmlns:inkscape="http://www.inkscape.org/namespaces/inkscape" sodipodi:docname="Documento nuevo 3" inkscape:version="0.48.5 r10040"
	 xmlns="http://www.w3.org/2000/svg" xmlns:xlink="http://www.w3.org/1999/xlink" x="0px" y="0px" width="100px" height="100px"
	 viewBox="0 0 100 100" enable-background="new 0 0 100 100" xml:space="preserve">
<sodipodi:namedview  showgrid="false" inkscape:cy="114.69393" inkscape:cx="95.994782" inkscape:zoom="0.98994949" borderopacity="1.0" bordercolor="#666666" pagecolor="#ffffff" id="base" inkscape:window-maximized="1" inkscape:window-y="27" inkscape:current-layer="layer1" inkscape:window-x="0" inkscape:pageshadow="2" inkscape:document-units="px" inkscape:pageopacity="0.0" inkscape:window-height="702" inkscape:window-width="1366">
	</sodipodi:namedview>
<g id="layer1" transform="translate(0,-805.00224)" inkscape:label="Capa 1" inkscape:groupmode="layer">
	<path id="path16" inkscape:connector-curvature="0" fill="#65A430" d="M3.834,841.417l10.424,1.88c0,0,14.299,9.762,20.941,24.643
		l-3.776,8.961L3.834,841.417"/>
	<path id="path20" inkscape:connector-curvature="0" fill="#65A430" d="M99.045,813.577l-3.426,7.765
		c0,0-29.309,17.223-62.715,83.66C32.904,905.002,39.646,832.696,99.045,813.577"/>
	<path id="path26" inkscape:connector-curvature="0" fill="#7FCC2A" d="M-0.955,849.04l4.789-7.623c0,0,11.359,4.019,27.779,26.847
		c0,0,27.968-56.938,66.32-63.262l1.111,8.575c0,0-41.717,21.049-66.141,91.425C32.904,905.002,25.053,869.168-0.955,849.04"/>
</g>
</svg>
