<?xml version="1.0" encoding="utf-8"?>
<!-- Generator: Adobe Illustrator 16.0.0, SVG Export Plug-In . SVG Version: 6.00 Build 0)  -->
<!DOCTYPE svg PUBLIC "-//W3C//DTD SVG 1.1//EN" "http://www.w3.org/Graphics/SVG/1.1/DTD/svg11.dtd">
<svg version="1.1" id="Capa_1" xmlns="http://www.w3.org/2000/svg" xmlns:xlink="http://www.w3.org/1999/xlink" x="0px" y="0px"
	 width="150px" height="75px" viewBox="0 0 150 75" enable-background="new 0 0 150 75" xml:space="preserve">
<path fill="#0066AD" d="M144.862,49.533c0,7.736-6.27,14.005-14.005,14.005H18.814c-7.732,0-14.004-6.269-14.004-14.005V25.897
	c0-7.735,6.272-14.005,14.004-14.005h112.043c7.735,0,14.005,6.27,14.005,14.005V49.533z"/>
<g>
	<path fill="#FFFFFF" d="M14.328,39.693v-0.053c0-3.882,3.002-7.143,7.092-7.143c2.586,0,4.19,0.958,5.459,2.355l-1.941,2.097
		c-0.957-1.01-1.967-1.708-3.545-1.708c-2.279,0-3.935,1.967-3.935,4.348v0.051c0,2.434,1.682,4.398,4.089,4.398
		c1.475,0,2.563-0.697,3.545-1.706l1.891,1.862c-1.347,1.502-2.925,2.562-5.59,2.562C17.33,46.757,14.328,43.575,14.328,39.693z"/>
	<path fill="#FFFFFF" d="M28.728,39.693v-0.053c0-3.908,3.107-7.143,7.299-7.143s7.271,3.183,7.271,7.092v0.051
		c0,3.882-3.104,7.116-7.322,7.116C31.808,46.757,28.728,43.575,28.728,39.693z M40.167,39.693v-0.053
		c0-2.407-1.733-4.399-4.192-4.399c-2.511,0-4.114,1.967-4.114,4.348v0.051c0,2.381,1.733,4.398,4.166,4.398
		C38.563,44.039,40.167,42.048,40.167,39.693z"/>
	<path fill="#FFFFFF" d="M46.493,32.783h3.132v2.122c0.881-1.294,2.148-2.407,4.271-2.407c3.079,0,4.864,2.07,4.864,5.253v8.697
		h-3.13v-7.765c0-2.123-1.062-3.339-2.925-3.339c-1.811,0-3.08,1.269-3.08,3.391v7.713h-3.132V32.783z"/>
	<path fill="#FFFFFF" d="M63.197,42.669v-7.196h-1.735v-2.69h1.735v-3.752h3.131v3.752h3.674v2.69h-3.674v6.704
		c0,1.216,0.621,1.708,1.681,1.708c0.7,0,1.32-0.155,1.942-0.466v2.562c-0.778,0.442-1.657,0.698-2.822,0.698
		C64.827,46.679,63.197,45.671,63.197,42.669z"/>
	<path fill="#FFFFFF" d="M73.219,27.71h3.364v2.976h-3.364V27.71z M73.349,32.783h3.13v13.666h-3.13V32.783z"/>
	<path fill="#FFFFFF" d="M80.573,32.783h3.134v2.122c0.876-1.294,2.146-2.407,4.268-2.407c3.078,0,4.865,2.07,4.865,5.253v8.697
		h-3.131v-7.765c0-2.123-1.061-3.339-2.922-3.339c-1.812,0-3.08,1.269-3.08,3.391v7.713h-3.134V32.783z"/>
	<path fill="#FFFFFF" d="M96.476,41.479v-8.696h3.134v7.763c0,2.123,1.06,3.339,2.924,3.339c1.812,0,3.078-1.269,3.078-3.391v-7.711
		h3.13v13.666h-3.13v-2.124c-0.88,1.294-2.148,2.407-4.269,2.407C98.263,46.731,96.476,44.662,96.476,41.479z"/>
	<path fill="#FFFFFF" d="M121.046,46.448v-1.684c-0.93,1.113-2.354,1.967-4.425,1.967c-2.587,0-4.863-1.475-4.863-4.218v-0.053
		c0-3.026,2.354-4.478,5.534-4.478c1.658,0,2.719,0.234,3.779,0.57v-0.26c0-1.888-1.188-2.923-3.361-2.923
		c-1.527,0-2.669,0.337-3.91,0.853l-0.852-2.509c1.498-0.673,2.976-1.138,5.201-1.138c4.034,0,6.002,2.121,6.002,5.77v8.102H121.046
		z M121.124,40.728c-0.802-0.311-1.915-0.543-3.131-0.543c-1.967,0-3.133,0.802-3.133,2.122v0.051c0,1.294,1.166,2.018,2.641,2.018
		c2.072,0,3.623-1.163,3.623-2.87V40.728z"/>
	<path fill="#FFFFFF" d="M127.889,32.783h3.133v3.081c0.852-2.045,2.432-3.444,4.839-3.339v3.313h-0.181
		c-2.744,0-4.658,1.787-4.658,5.408v5.204h-3.133V32.783z"/>
</g>
</svg>
