<?xml version="1.0" encoding="utf-8"?>
<!-- Generator: Adobe Illustrator 16.0.0, SVG Export Plug-In . SVG Version: 6.00 Build 0)  -->
<!DOCTYPE svg PUBLIC "-//W3C//DTD SVG 1.1//EN" "http://www.w3.org/Graphics/SVG/1.1/DTD/svg11.dtd">
<svg version="1.1" id="Capa_1" xmlns="http://www.w3.org/2000/svg" xmlns:xlink="http://www.w3.org/1999/xlink" x="0px" y="0px"
	 width="47.875px" height="55px" viewBox="0 0 47.875 55" enable-background="new 0 0 47.875 55" xml:space="preserve">
<g>
	<path fill="#ECC400" d="M30.947,23.127v5.305c0,0.784,0,2.164,0,2.764c0,0-0.188,0.783-0.377,1.38
		c-0.221,0.784-0.598,1.946-1.004,2.543c-0.377,0.595-1.947,2.354-2.543,2.948c-0.598,0.408-2.762,1.382-3.546,1.791
		c-0.409,0-1.192,0.188-1.79,0.188v8.253h3.17c0.377,0,0.598,0.409,0.598,0.786v1.568c0,0.408-0.221,0.816-0.598,0.816H15.6
		c-0.409,0-0.597-0.408-0.597-0.816v-1.568c0-0.377,0.188-0.786,0.597-0.786h3.138v-8.253c-0.188,0-0.376,0-0.376,0
		s-0.597,0-1.38-0.188c-0.786-0.409-1.79-0.784-2.574-1.193c-0.597-0.188-2.354-1.977-2.951-2.542
		c-0.407-0.599-1.38-2.763-1.569-3.547c-0.408-0.597-0.596-3.358-0.596-4.144v-5.305c0-0.784,0.188-1.977,0.596-2.763l0.785-2.354
		c0.187-0.784,0.595-0.784,0.595,0.188v2.165c0,0.786,0,1.979,0,2.763v5.306c0,0.783,0,1.976,0,2.572
		c0.188,0.784,0.786,2.764,1.163,3.139c0.218,0.598,1.6,1.979,1.977,2.543c0.596,0.22,2.354,1.192,2.949,1.381
		c0.597,0.22,2.355,0.408,2.355,0.408c0.22,0,0.22,0,0.408,0h0.188c0.22,0,0.22,0,0.22,0c0.188,0,0.783-0.188,1.38-0.188
		c0.564,0,2.542-0.815,3.139-1.004c0.408-0.377,1.977-1.759,2.354-2.165c0.408-0.598,1.381-2.354,1.567-2.951
		c0-0.564,0.222-2.95,0.222-3.734v-5.305c0-0.784,0-1.977,0-2.763v-2.165c0-0.973,0.188-0.973,0.598-0.188l0.783,2.354
		C30.76,21.15,30.947,22.343,30.947,23.127L30.947,23.127z M27.996,28.619L27.996,28.619v-0.564H22.88
		c-0.783,0-1.193-0.597-1.193-1.193c0-0.595,0.41-1.192,1.193-1.192h5.116v-1.76H22.88c-0.783,0-1.193-0.595-1.193-1.16
		c0-0.628,0.41-1.193,1.193-1.193h5.116v-1.788H22.88c-0.783,0-1.193-0.565-1.193-1.163c0-0.783,0.41-1.191,1.193-1.191h5.116
		v-1.758H22.88c-0.783,0-1.193-0.597-1.193-1.191c0-0.786,0.41-1.161,1.193-1.161h5.116v-1.79H22.88
		c-0.783,0-1.193-0.596-1.193-1.161c0-0.785,0.41-1.193,1.193-1.193h5.116c0-4.144-3.357-7.689-7.469-7.689v34.84
		C24.639,36.311,27.996,32.764,27.996,28.619L27.996,28.619z M20.119,36.498L20.119,36.498V1.47c-4.331,0-7.688,3.357-7.688,7.689
		h5.116c0.595,0,1.191,0.408,1.191,1.193c0,0.565-0.596,1.161-1.191,1.161H12.43v1.79h5.116c0.595,0,1.191,0.375,1.191,1.161
		c0,0.595-0.596,1.191-1.191,1.191H12.43v1.758h5.116c0.595,0,1.191,0.408,1.191,1.191c0,0.598-0.596,1.163-1.191,1.163H12.43v1.788
		h5.116c0.595,0,1.191,0.565,1.191,1.193c0,0.565-0.596,1.16-1.191,1.16H12.43v1.759h5.116c0.595,0,1.191,0.598,1.191,1.192
		c0,0.597-0.596,1.193-1.191,1.193H12.43v0.564C12.43,32.95,15.788,36.311,20.119,36.498L20.119,36.498z"/>
</g>
<path fill="#010101" d="M35.431,39.853v2.64h-1.132c-0.833,0-1.508,0.675-1.508,1.508v7.543c0,0.833,0.675,1.508,1.508,1.508h12.067
	c0.834,0,1.509-0.675,1.509-1.508V44c0-0.833-0.675-1.508-1.509-1.508h-1.131v-2.64c0-2.708-2.195-4.902-4.902-4.902
	S35.431,37.145,35.431,39.853z M37.316,42.492v-2.64c0-1.667,1.35-3.017,3.017-3.017s3.017,1.35,3.017,3.017v2.64H37.316z
	 M38.824,46.641c0-0.834,0.676-1.509,1.509-1.509s1.509,0.675,1.509,1.509c0,0.531-0.275,0.999-0.69,1.267
	c0,0,0.147,0.891,0.313,1.938c0,0.313-0.252,0.565-0.565,0.565h-1.131c-0.313,0-0.565-0.253-0.565-0.565l0.313-1.938
	C39.1,47.64,38.824,47.172,38.824,46.641z"/>
</svg>
