<?xml version="1.0" encoding="utf-8"?>
<!-- Generator: Adobe Illustrator 16.0.0, SVG Export Plug-In . SVG Version: 6.00 Build 0)  -->
<!DOCTYPE svg PUBLIC "-//W3C//DTD SVG 1.1//EN" "http://www.w3.org/Graphics/SVG/1.1/DTD/svg11.dtd">
<svg version="1.1" id="Capa_1" xmlns="http://www.w3.org/2000/svg" xmlns:xlink="http://www.w3.org/1999/xlink" x="0px" y="0px"
	 width="47.875px" height="55px" viewBox="0 0 47.875 55" enable-background="new 0 0 47.875 55" xml:space="preserve">
<path fill="#ECC400" d="M44.712,23.578l-4.056-4.054V9.594c0-1.538-1.259-2.797-2.797-2.797h-2.797
	c-1.538,0-2.797,1.259-2.797,2.797v1.546l-5.594-5.587C25.906,4.83,25.21,4,23.875,4c-1.334,0-2.034,0.83-2.797,1.553L3.038,23.578
	C2.165,24.488,1.5,25.151,1.5,26.375c0,1.573,1.208,2.797,2.797,2.797h2.797v16.781c0,1.537,1.259,2.797,2.797,2.797h8.391V34.766
	c0-1.537,1.259-2.797,2.797-2.797h5.594c1.538,0,2.797,1.26,2.797,2.797V48.75h8.391c1.538,0,2.797-1.26,2.797-2.797V29.172h2.797
	c1.589,0,2.797-1.224,2.797-2.797C46.25,25.151,45.584,24.488,44.712,23.578z"/>
</svg>
