<?xml version="1.0" encoding="utf-8"?>
<!-- Generator: Adobe Illustrator 16.0.0, SVG Export Plug-In . SVG Version: 6.00 Build 0)  -->
<!DOCTYPE svg PUBLIC "-//W3C//DTD SVG 1.1//EN" "http://www.w3.org/Graphics/SVG/1.1/DTD/svg11.dtd">
<svg version="1.1" id="Capa_1" xmlns="http://www.w3.org/2000/svg" xmlns:xlink="http://www.w3.org/1999/xlink" x="0px" y="0px"
	 width="55px" height="55px" viewBox="0 0 55 55" enable-background="new 0 0 55 55" xml:space="preserve">
<g id="Expanded">
	<g>
		<g>
			<path fill="#FFFFFF" d="M47.208,51.47H32.222V37.555h-8.563V51.47H8.673V28.991c0-0.591,0.478-1.07,1.07-1.07
				c0.592,0,1.07,0.479,1.07,1.07v20.337h10.705V35.413h12.845v13.915h10.704V30.061c0-0.588,0.479-1.069,1.071-1.069
				c0.591,0,1.069,0.481,1.069,1.069V51.47z"/>
		</g>
		<g>
			<path fill="#FFFFFF" d="M52.561,28.991c-0.267,0-0.532-0.098-0.74-0.297L27.94,5.853L4.06,28.694
				c-0.427,0.407-1.104,0.395-1.514-0.032c-0.409-0.428-0.393-1.105,0.034-1.515L27.94,2.89L53.3,27.147
				c0.427,0.409,0.441,1.086,0.034,1.515C53.123,28.881,52.842,28.991,52.561,28.991z"/>
		</g>
		<g>
			<path fill="#FFFFFF" d="M43.997,16.146c-0.592,0-1.07-0.48-1.07-1.07V8.653h-6.423c-0.592,0-1.07-0.48-1.07-1.07
				c0-0.591,0.479-1.071,1.07-1.071h8.563v8.564C45.067,15.667,44.589,16.146,43.997,16.146z"/>
		</g>
	</g>
</g>
</svg>
