<?xml version="1.0" encoding="utf-8"?>
<!-- Generator: Adobe Illustrator 16.0.0, SVG Export Plug-In . SVG Version: 6.00 Build 0)  -->
<!DOCTYPE svg PUBLIC "-//W3C//DTD SVG 1.1//EN" "http://www.w3.org/Graphics/SVG/1.1/DTD/svg11.dtd">
<svg version="1.1" id="Capa_1" xmlns="http://www.w3.org/2000/svg" xmlns:xlink="http://www.w3.org/1999/xlink" x="0px" y="0px"
	 width="264.75px" height="74.43px" viewBox="0 0 264.75 74.43" enable-background="new 0 0 264.75 74.43" xml:space="preserve">
<g id="Capa_2">
</g>
<g>
	<rect x="54.557" y="4.329" fill="#FFFFFF" width="1.492" height="63.913"/>
	<g>
		<g>
			<path fill="#FFFFFF" d="M26.632,28.634V64.78l0.755-0.41l0.172-0.1c0.024-0.015,0.052-0.025,0.079-0.044l0.018-0.013
				c0.016-0.007,0.022-0.013,0.021-0.011l0.063-0.035c0.018-0.016,0.04-0.021,0.062-0.036l0.27-0.154
				c0.019-0.012,0.041-0.021,0.06-0.035c0.033-0.019,0.064-0.038,0.098-0.057l0.168-0.099c0.018-0.017,0.039-0.022,0.056-0.033
				l0.208-0.126c0.015-0.007,0.029-0.021,0.044-0.024l0.045-0.023c0.021-0.018,0.044-0.025,0.065-0.04
				c0.023-0.018,0.044-0.026,0.056-0.034l0.089-0.06l0.036-0.021c0.064-0.04,0.129-0.08,0.194-0.121l0.055-0.035
				c0.032-0.019,0.066-0.039,0.103-0.063l0.027-0.021c0.116-0.072,0.229-0.145,0.36-0.229l0.449-0.294l0.002-0.002
				c0.012-0.012,0.023-0.021,0.035-0.024l0.043-0.028c0.014-0.009,0.026-0.017,0.04-0.022c0.125-0.083,0.248-0.168,0.363-0.25
				l0.153-0.104c0.015-0.01,0.028-0.021,0.043-0.028c0.125-0.091,0.25-0.179,0.364-0.262c0.015-0.009,0.028-0.02,0.044-0.027
				l0.001-0.006v0.011l0.581-0.438c0.036-0.023,0.074-0.057,0.109-0.083l0.034-0.021l0.007-0.013
				c0.05-0.032,0.102-0.072,0.154-0.114l0.067-0.056c0.104-0.082,0.208-0.163,0.32-0.251l0.077-0.063
				c0.08-0.064,0.16-0.128,0.238-0.193l0.267-0.222c0.036-0.029,0.072-0.063,0.108-0.092l0.045-0.039
				c0.117-0.103,0.231-0.197,0.342-0.296l0.028-0.024c0.125-0.111,0.249-0.223,0.372-0.335l0.081-0.074l0.001-0.002
				c0.019-0.02,0.04-0.038,0.061-0.057l0.329-0.311V59.23c0.098-0.093,0.195-0.187,0.289-0.282c0.068-0.063,0.135-0.132,0.19-0.188
				c0.012-0.011,0.022-0.022,0.046-0.047l0.197-0.203c0.031-0.033,0.063-0.065,0.095-0.101l0.095-0.104
				c0.061-0.063,0.12-0.128,0.167-0.183c0.021-0.021,0.04-0.039,0.05-0.057l0.161-0.182c0.011-0.01,0.018-0.018,0.029-0.031
				c0.054-0.062,0.108-0.124,0.174-0.202l0.016-0.018c0.04-0.048,0.082-0.097,0.122-0.144l0.058-0.068
				c0.023-0.025,0.045-0.054,0.067-0.081l0.101-0.124c0.054-0.064,0.104-0.129,0.146-0.188c0.016-0.018,0.029-0.03,0.051-0.06
				l0.154-0.204c0.049-0.061,0.097-0.124,0.144-0.188c0.006-0.009,0.01-0.016,0.012-0.019l0.055-0.073
				c0.029-0.038,0.056-0.077,0.089-0.121c0.009-0.017,0.018-0.026,0.038-0.055l0.137-0.191c0.027-0.039,0.055-0.079,0.083-0.118
				l0.124-0.188c0.022-0.033,0.045-0.063,0.062-0.097l0.164-0.256c1.287-2.063,1.94-4.185,1.94-6.309v-20.52H26.632V28.634z
				 M27.517,63.926L27.517,63.926L27.517,63.926L27.517,63.926z M31.079,61.651L31.079,61.651L31.079,61.651L31.079,61.651z
				 M34.778,58.503L34.778,58.503L34.778,58.503L34.778,58.503z"/>
			<path fill="#FFFFFF" d="M12.005,37.998l0.099,0.134c0.13,0.18,0.254,0.342,0.379,0.496l0.016,0.018
				c0.408,0.55,0.843,1.058,1.326,1.533l0.334,0.345c0.041,0.037,0.977,0.896,1.977,1.564c0.023,0.017,2.249,1.428,3.693,2.229
				c0.018,0.012,1.606,0.968,2.871,1.854l0.313,0.219c0.513,0.386,0.979,0.774,1.425,1.188l0.956,0.893V28.635H12.005V37.998z"/>
			<path fill="#FFFFFF" d="M20.577,45.893l-0.193-0.124c-0.046-0.024-0.089-0.056-0.135-0.084l-0.125-0.078
				c-0.127-0.079-0.255-0.159-0.382-0.232l-0.065-0.039c-0.078-0.048-0.155-0.099-0.233-0.146l-0.233-0.141
				c-0.167-0.1-0.333-0.198-0.498-0.297l-0.244-0.146l-0.163,0.274l0.141-0.287c-0.548-0.323-1.166-0.689-1.776-1.073
				c-1.168-0.733-2.69-1.771-4.076-3.259l-0.553-0.59v8.606c0,2.026,0.519,4.042,1.544,5.993l0.013,0.023
				c0.127,0.241,0.261,0.479,0.395,0.705c0.072,0.12,0.145,0.236,0.214,0.346l2.608,4.516l0.791-0.456l0.006,0.007
				c0.052,0.049,0.101,0.097,0.153,0.145c0.224,0.208,0.454,0.415,0.685,0.615c2.351,2.044,4.783,3.494,6.41,4.353l0.468,0.246
				V50.324l-0.062-0.09C23.994,48.531,22.462,47.108,20.577,45.893z"/>
		</g>
		<path fill="#91142B" d="M20.405,46.163l-0.194-0.126c-0.067-0.044-0.135-0.084-0.2-0.125c-0.147-0.094-0.29-0.186-0.437-0.271
			c-0.02-0.014-0.043-0.022-0.064-0.041c-0.117-0.07-0.234-0.139-0.352-0.21c-0.204-0.122-0.405-0.243-0.612-0.366
			c-0.081-0.049-0.162-0.096-0.244-0.145c-0.007-0.004-0.015-0.008-0.021-0.013c-0.591-0.354-1.189-0.704-1.781-1.078
			c-1.432-0.901-2.846-1.921-4.142-3.313c0,4.209,0,7.801,0,7.801c0,1.979,0.509,3.94,1.509,5.849
			c0.004,0.008,0.008,0.016,0.011,0.021c0.125,0.231,0.252,0.461,0.388,0.69c0.071,0.118,0.143,0.23,0.216,0.351l2.253,3.903
			l0.196,0.336l0.337-0.195c0.108-0.062,0.24-0.138,0.385-0.223c0.044,0.043,0.089,0.085,0.134,0.128
			c0.064,0.06,0.128,0.121,0.194,0.183c0.22,0.203,0.446,0.407,0.678,0.607c2.413,2.098,4.919,3.559,6.349,4.312V55.26v-0.499V53.69
			v-0.851V50.43C23.623,48.566,22.062,47.231,20.405,46.163z"/>
		<g>
			<path fill="#00416F" d="M22.877,31.854v-0.383h-0.378h-0.002H21.56h-0.001h-0.216l-0.111,0.189l-1.39,2.344l0,0H19.84
				l-0.845-2.22l-0.359-0.942l-0.352,0.942l-0.847,2.255l0,0l0,0l-1.413-2.379l-0.11-0.189h-0.217h-0.001H14.76h-0.001h-0.38v0.383
				v8.416v0.021c0.126,0.116,0.252,0.229,0.38,0.341v-0.021v-8.759h0.001h0.936h0.001l1.633,2.757l0.103,0.181l0.082,0.131
				l0.616,1.043l0.081,0.133l0.104,0.179l0.312,0.525l0.191-0.325l0.002,0.001l0.001-0.001l0.493,1.31l-0.581,1.011L18.63,38.97
				h-0.001l0,0l-0.104-0.177l-0.704-1.226l-0.104-0.181l-0.078-0.134L17.034,36.2l-0.078-0.14l-0.105-0.182l-1.038-1.798H15.79
				v4.078l-0.942,2.521L14.842,40.7c0.128,0.104,0.255,0.214,0.383,0.314l0.006-0.013l0.557-1.487l0.121-0.315l0.158-0.423
				l0.744-1.981h0.002l0,0l0.606,1.05l-1.351,3.539l-0.075,0.2l-0.006,0.01c0.107,0.078,0.215,0.151,0.322,0.228l0.004-0.013
				l0.11-0.289l1.29-3.373h0.001h0.001l0.483,0.838v0.002l0.004,0.003l0.104,0.18l0.327,0.55l0.326-0.551l0.106-0.179v-0.004
				l0.002-0.003l0.484-0.842h0.001l0,0l1.099,2.907l0.441,1.167V44.7v0.015c0.126,0.079,0.254,0.158,0.378,0.238V44.94v-5.586
				v-0.337v-0.455v-4.478h-0.022l-0.885,1.533v-0.001v0.001l-0.482-1.271l1.482-2.498h0.001H22.5h0.002V45.62v0.017
				c0.127,0.088,0.252,0.18,0.378,0.271V45.89V31.85h-0.003V31.854z M16.367,36.659l-0.282,0.758v-0.005l-0.002,0.005v-1.952
				l0.002,0.002v-0.002l0.351,0.61l0.091,0.154L16.367,36.659z M18.542,36.051L18.542,36.051H18.54l-0.072-0.122l0.083-0.216v0.003
				l0.001-0.003l0.007,0.021l0.002,0.007v0.005l0.064,0.155L18.542,36.051z M20.251,36.157l0.057,0.146l0.074,0.199l0.623,1.627
				v2.781l-0.001-0.002v0.003L19.749,37.6l-0.074-0.201l-0.056-0.146l-0.487-1.3l-0.053-0.147L19,35.607l-0.363-0.972l-0.285,0.752
				v-0.001l-0.001,0.001l-0.619-1.049l0.906-2.417l0,0l0,0l0.999,2.619l0.074,0.193l0.056,0.146L20.251,36.157z"/>
			<path fill="#3E5983" d="M12.323,28.954v8.938l0.039,0.051c0.122,0.168,0.245,0.328,0.37,0.484v-0.002
				c0.419,0.567,0.861,1.072,1.322,1.532v-8.813H16.1l1.271,2.146l1.264-3.372l1.271,3.34l1.253-2.114h2.045v14.988
				c0.49,0.371,0.976,0.77,1.45,1.209l0.419,0.392V28.953L12.323,28.954L12.323,28.954z"/>
			<path fill="#3E5983" d="M20.764,44.504v-2.232l-1.276-3.376l-0.149,0.255L18.63,40.35l-0.718-1.204l-0.142-0.247l-1.183,3.101
				c0.846,0.563,1.727,1.071,2.626,1.595C19.727,43.889,20.244,44.189,20.764,44.504z"/>
		</g>
		<g>
			<polygon fill="#FFFFFF" points="22.88,45.91 22.88,45.895 22.88,31.854 22.88,31.471 22.877,31.471 22.498,31.471 22.495,31.471 
				21.559,31.471 21.558,31.471 21.343,31.471 21.341,31.471 21.231,31.66 19.841,34.003 18.996,31.784 18.635,30.841 
				18.635,30.843 18.634,30.841 18.28,31.785 17.436,34.039 16.025,31.66 15.913,31.471 15.913,31.471 15.696,31.471 15.695,31.471 
				14.76,31.471 14.758,31.471 14.377,31.471 14.374,31.471 14.374,31.854 14.374,40.27 14.374,40.291 14.052,39.959 14.052,31.149 
				16.098,31.149 17.37,33.295 18.633,29.923 19.905,33.262 21.158,31.149 23.203,31.149 23.203,46.136 			"/>
			<path fill="#FFFFFF" d="M16.588,41.997l1.182-3.103l0.142,0.248l0.718,1.205l0.709-1.2l0.149-0.255l1.276,3.376V44.5l0.324,0.211
				V44.7v-2.486l-0.442-1.167l-1.098-2.907l-0.483,0.842l-0.002,0.002L19.06,38.99l-0.105,0.178l-0.326,0.553l-0.001-0.001v0.001
				l-0.329-0.551l-0.105-0.18l-0.001-0.003v-0.002l-0.483-0.839l-1.288,3.374l-0.112,0.289l-0.003,0.014L16.588,41.997z"/>
			<polygon fill="#FFFFFF" points="20.38,36.503 20.307,36.303 20.249,36.157 19.764,34.881 19.71,34.735 19.633,34.539 
				18.637,31.921 17.731,34.338 18.352,35.385 18.637,34.633 18.637,34.634 18.637,34.633 19.002,35.606 19.079,35.802 
				19.134,35.95 19.619,37.249 19.676,37.398 19.75,37.599 21.003,40.909 21.003,38.13 			"/>
			<path fill="#FFFFFF" d="M22.495,45.623V31.853h-0.936l-1.482,2.497l0.481,1.271l0.884-1.531h0.001h0.023h0.003v4.478v0.456v0.336
				v5.587v0.016c0.342,0.22,0.685,0.442,1.025,0.684L22.495,45.623L22.495,45.623z"/>
			<polygon fill="#FFFFFF" points="18.561,35.748 18.559,35.743 18.558,35.74 18.551,35.718 18.469,35.93 18.542,36.051 
				18.625,35.906 			"/>
			<polygon fill="#FFFFFF" points="20.588,36.186 20.653,36.37 21.003,37.281 21.003,35.466 20.805,35.809 			"/>
			<polygon fill="#FFFFFF" points="16.525,36.234 16.433,36.075 16.084,35.468 16.084,37.412 16.367,36.659 			"/>
			<path fill="#FFFFFF" d="M15.987,41.583l0.076-0.199l1.352-3.538l-0.606-1.05l-0.745,1.987L15.906,39.2l-0.121,0.315l-0.558,1.487
				l-0.005,0.014c0.249,0.197,0.501,0.395,0.759,0.573L15.987,41.583z"/>
			<polygon fill="#FFFFFF" points="14.758,40.631 14.758,40.615 14.758,31.854 14.76,31.854 15.695,31.854 15.696,31.854 
				17.33,34.611 17.432,34.789 17.514,34.919 18.13,35.961 18.21,36.095 18.314,36.274 18.626,36.8 18.817,36.475 18.819,36.477 
				18.819,36.475 19.313,37.782 18.732,38.793 18.628,38.969 18.626,38.968 18.626,38.969 18.523,38.793 17.819,37.57 
				17.715,37.389 17.637,37.255 17.031,36.202 16.953,36.066 16.848,35.885 15.81,34.085 15.787,34.085 15.787,38.163 
				14.844,40.688 14.838,40.7 			"/>
		</g>
		<g>
			<path fill="#EBC200" d="M33.077,54.311c0-0.104-0.084-0.188-0.191-0.188c-0.105,0-0.189,0.085-0.189,0.188v5.602v0.49
				c0.075-0.063,0.151-0.126,0.229-0.188c0.051-0.042,0.099-0.085,0.152-0.127v-0.504L33.077,54.311L33.077,54.311z"/>
			<path fill="#EBC200" d="M33.809,55.026c0-0.104-0.084-0.188-0.189-0.188c-0.103,0-0.188,0.083-0.188,0.188v4.24v0.512
				c0.128-0.108,0.254-0.226,0.376-0.339v-0.521L33.809,55.026L33.809,55.026z"/>
			<path fill="#EBC200" d="M32.341,53.595c0-0.104-0.084-0.189-0.188-0.189c-0.106,0-0.189,0.09-0.189,0.189v6.911v0.479
				c0.125-0.097,0.252-0.192,0.376-0.296v-0.488L32.341,53.595L32.341,53.595z"/>
			<g>
				<path fill="#EBC200" d="M26.95,28.953v35.29l0.282-0.155c0.041-0.022,0.083-0.046,0.123-0.068
					c0.014-0.008,0.027-0.014,0.041-0.021c0.029-0.021,0.059-0.033,0.089-0.056c0.015-0.006,0.027-0.015,0.042-0.021
					c0.04-0.021,0.08-0.047,0.123-0.07c0.014-0.007,0.027-0.016,0.041-0.021c0.03-0.021,0.06-0.033,0.09-0.057
					c0.018-0.011,0.036-0.021,0.055-0.028c0.026-0.021,0.056-0.031,0.084-0.051c0.018-0.012,0.036-0.021,0.053-0.029
					c0.042-0.021,0.081-0.046,0.123-0.07c0.023-0.014,0.047-0.027,0.066-0.04c0.024-0.015,0.049-0.028,0.071-0.041
					c0.025-0.015,0.05-0.029,0.075-0.043c0.023-0.016,0.046-0.028,0.067-0.042c0.046-0.027,0.091-0.054,0.137-0.084
					c0.019-0.009,0.038-0.021,0.058-0.033c0.03-0.018,0.057-0.035,0.088-0.054c0.019-0.01,0.036-0.021,0.055-0.033
					c0.03-0.019,0.059-0.036,0.092-0.057c0.003-0.004,0.009-0.006,0.013-0.007c0.071-0.044,0.139-0.086,0.208-0.132
					c0.014-0.012,0.026-0.02,0.042-0.024c0.034-0.021,0.069-0.043,0.102-0.065c0.014-0.008,0.026-0.016,0.038-0.021
					c0.116-0.073,0.229-0.147,0.347-0.225c0.009-0.009,0.021-0.017,0.032-0.021c0.041-0.024,0.079-0.051,0.118-0.077
					c0.001-0.001,0.004-0.002,0.006-0.003c0.086-0.057,0.169-0.111,0.258-0.168c0.002-0.004,0.004-0.004,0.006-0.008
					c0.042-0.023,0.08-0.053,0.122-0.08c0.01-0.007,0.019-0.012,0.029-0.021c0.127-0.084,0.25-0.169,0.379-0.26
					c0.008-0.005,0.015-0.009,0.022-0.015c0.042-0.029,0.084-0.062,0.125-0.088c0.007-0.004,0.014-0.012,0.019-0.019
					c0.129-0.089,0.259-0.182,0.387-0.271c0.011-0.006,0.021-0.02,0.033-0.022c0.041-0.026,0.084-0.061,0.126-0.09l0,0
					c0.126-0.094,0.254-0.188,0.381-0.285V60.79v-8.197h-0.084c-0.018,0.001-0.035,0.001-0.051,0.001h-0.086
					c-0.122,0-0.233-0.042-0.325-0.113c-0.087,0.071-0.2,0.113-0.322,0.113h-0.086c-0.123,0-0.236-0.042-0.324-0.113
					c-0.09,0.071-0.202,0.113-0.326,0.113h-0.085c-0.122,0-0.235-0.042-0.325-0.113c-0.087,0.071-0.201,0.113-0.323,0.113h-0.085
					c-0.124,0-0.235-0.042-0.325-0.113c-0.09,0.071-0.202,0.113-0.326,0.113H28.44c-0.283,0-0.516-0.229-0.516-0.516v-1.874
					c0-0.283,0.232-0.518,0.516-0.518h0.085c0.124,0,0.236,0.044,0.326,0.115c0.089-0.071,0.201-0.115,0.325-0.115h0.085
					c0.122,0,0.236,0.044,0.323,0.115c0.086-0.069,0.192-0.111,0.309-0.115h0.252L28.7,48.042l1.935-5.663v-0.035H30.07v-0.327
					h0.564V41.36h0.382h0.373v0.657h0.995l0.241-9.79h-1.292V31.79h1.304l0.038-1.149h0.448l0.037,1.149h1.309v0.435h-1.294
					l0.242,9.79h0.993v-0.68v-0.002h0.376h0.379v0.682h0.565v0.326h-0.565v0.035l1.934,5.664l-1.444,1.65h0.252
					c0.107,0.014,0.203,0.054,0.283,0.114c0.089-0.072,0.201-0.116,0.323-0.116h0.086c0.125,0,0.236,0.044,0.324,0.116
					c0.09-0.072,0.202-0.116,0.325-0.116h0.088c0.282,0,0.515,0.231,0.515,0.519v1.874c0,0.28-0.233,0.516-0.515,0.516h-0.088
					c-0.123,0-0.235-0.042-0.325-0.114c-0.087,0.072-0.199,0.114-0.324,0.114H36.51c-0.122,0-0.234-0.042-0.323-0.114
					c-0.089,0.072-0.201,0.114-0.324,0.114h-0.087c-0.122,0-0.235-0.042-0.324-0.114c-0.088,0.072-0.201,0.114-0.324,0.114h-0.086
					c-0.123,0-0.236-0.042-0.324-0.114c-0.088,0.072-0.2,0.114-0.324,0.114h-0.086c-0.017,0-0.035-0.001-0.053-0.001h-0.082
					l0.002,5.967v0.529c0.129-0.123,0.256-0.245,0.382-0.371l0,0c0.066-0.065,0.131-0.131,0.196-0.197
					c0.011-0.011,0.021-0.021,0.036-0.035c0.053-0.056,0.104-0.105,0.158-0.16c0.011-0.016,0.023-0.024,0.036-0.037
					c0.063-0.065,0.125-0.136,0.187-0.199c0,0,0,0,0.001,0c0.059-0.064,0.118-0.127,0.174-0.19c0.014-0.014,0.027-0.024,0.04-0.044
					c0.052-0.057,0.101-0.107,0.15-0.167c0.011-0.011,0.019-0.021,0.024-0.024c0.059-0.065,0.116-0.133,0.173-0.196
					c0.008-0.012,0.018-0.021,0.027-0.032c0.046-0.056,0.091-0.106,0.138-0.164c0.013-0.016,0.026-0.031,0.04-0.046
					c0.054-0.063,0.106-0.128,0.158-0.191c0.001,0,0.001-0.002,0.002-0.003c0.053-0.063,0.104-0.13,0.154-0.193
					c0.014-0.019,0.027-0.031,0.04-0.047c0.041-0.058,0.081-0.104,0.122-0.157c0.011-0.017,0.023-0.028,0.034-0.046
					c0.049-0.064,0.099-0.128,0.146-0.193c0.008-0.01,0.013-0.019,0.021-0.025c0.039-0.059,0.082-0.109,0.121-0.168
					c0.013-0.02,0.026-0.034,0.041-0.056c0.038-0.055,0.076-0.104,0.113-0.16c0.006-0.012,0.017-0.021,0.024-0.033
					c0.045-0.063,0.089-0.129,0.132-0.191c0.01-0.021,0.021-0.033,0.033-0.05c0.031-0.053,0.065-0.104,0.098-0.151
					c0.012-0.019,0.023-0.038,0.036-0.055c0.041-0.065,0.083-0.131,0.124-0.196c1.254-2.008,1.888-4.069,1.888-6.135V28.953H26.95z"
					/>
			</g>
			<path fill="#EBC200" d="M30.685,50.063c-0.105,0-0.188,0.085-0.188,0.188v1.789c0,0.103,0.083,0.188,0.188,0.188
				c0.104,0,0.188-0.086,0.188-0.188v-1.79C30.873,50.147,30.789,50.063,30.685,50.063z"/>
			<path fill="#EBC200" d="M32.153,50.063c-0.106,0-0.189,0.085-0.189,0.188v1.789c0,0.103,0.083,0.188,0.189,0.188
				c0.104,0,0.188-0.086,0.188-0.188v-1.79C32.341,50.147,32.257,50.063,32.153,50.063z"/>
			<path fill="#EBC200" d="M29.951,50.063c-0.104,0-0.188,0.085-0.188,0.188v1.789c0,0.103,0.084,0.188,0.188,0.188
				s0.189-0.086,0.189-0.188v-1.79C30.14,50.147,30.055,50.063,29.951,50.063z"/>
			<path fill="#EBC200" d="M31.419,50.063c-0.104,0-0.188,0.085-0.188,0.188v1.789c0,0.103,0.084,0.188,0.188,0.188
				c0.105,0,0.188-0.086,0.188-0.188v-1.79C31.607,50.147,31.524,50.063,31.419,50.063z"/>
			<path fill="#EBC200" d="M36.555,52.227c0.106,0,0.19-0.086,0.19-0.188v-1.79c0-0.104-0.084-0.188-0.19-0.188
				c-0.104,0-0.188,0.086-0.188,0.188v1.79C36.368,52.142,36.451,52.227,36.555,52.227z"/>
			<path fill="#EBC200" d="M37.29,52.227c0.105,0,0.19-0.086,0.19-0.188v-1.79c0-0.104-0.085-0.188-0.19-0.188
				c-0.104,0-0.189,0.086-0.189,0.188v1.79C37.101,52.142,37.187,52.227,37.29,52.227z"/>
			<path fill="#EBC200" d="M29.217,50.063c-0.104,0-0.189,0.085-0.189,0.188v1.789c0,0.103,0.085,0.188,0.189,0.188
				c0.105,0,0.19-0.086,0.19-0.188v-1.79C29.407,50.147,29.322,50.063,29.217,50.063z"/>
			<path fill="#EBC200" d="M28.484,50.063c-0.105,0-0.19,0.085-0.19,0.188v1.789c0,0.103,0.085,0.188,0.19,0.188
				c0.104,0,0.188-0.086,0.188-0.188v-1.79C28.673,50.147,28.588,50.063,28.484,50.063z"/>
			<path fill="#EBC200" d="M34.356,52.227c0.103,0,0.188-0.086,0.188-0.188v-1.79c0-0.104-0.085-0.188-0.188-0.188
				c-0.107,0-0.19,0.086-0.19,0.188v1.79C34.165,52.142,34.249,52.227,34.356,52.227z"/>
			<path fill="#EBC200" d="M33.62,50.063c-0.103,0-0.188,0.085-0.188,0.188v1.789c0,0.103,0.085,0.188,0.188,0.188
				c0.104,0,0.189-0.086,0.189-0.188v-1.79C33.809,50.147,33.724,50.063,33.62,50.063z"/>
			<path fill="#EBC200" d="M35.633,52.039c0,0.103,0.083,0.188,0.189,0.188c0.104,0,0.189-0.086,0.189-0.188V50.25
				c0-0.104-0.085-0.188-0.189-0.188c-0.106,0-0.189,0.085-0.189,0.188V52.039z"/>
			<path fill="#EBC200" d="M32.886,50.063c-0.105,0-0.189,0.085-0.189,0.188v1.789c0,0.103,0.084,0.188,0.189,0.188
				c0.106,0,0.191-0.086,0.191-0.188v-1.79C33.077,50.147,32.993,50.063,32.886,50.063z"/>
			<path fill="#EBC200" d="M35.089,50.063c-0.104,0-0.188,0.085-0.188,0.188v1.789c0,0.103,0.084,0.188,0.188,0.188
				c0.105,0,0.19-0.086,0.19-0.188v-1.79C35.279,50.147,35.194,50.063,35.089,50.063z"/>
			<g>
				<polygon fill="#EBC200" points="31.375,42.359 29.994,47.728 31.172,48.841 32.143,48.841 32.362,42.35 31.375,42.35 				"/>
				<polygon fill="#EBC200" points="34.397,42.359 34.397,42.355 33.412,42.355 33.633,48.841 34.603,48.841 35.779,47.728 				"/>
			</g>
			<path fill="#00416F" d="M34.177,52.595h0.082c0.018,0.001,0.037,0.001,0.054,0.001h0.086c0.124,0,0.235-0.042,0.324-0.113
				c0.088,0.071,0.201,0.113,0.324,0.113h0.085c0.124,0,0.236-0.042,0.325-0.113c0.089,0.071,0.203,0.113,0.324,0.113h0.087
				c0.123,0,0.236-0.042,0.325-0.113c0.089,0.071,0.2,0.113,0.322,0.113h0.087c0.124,0,0.236-0.042,0.324-0.113
				c0.09,0.071,0.202,0.113,0.324,0.113h0.088c0.283,0,0.515-0.231,0.515-0.516v-1.874c0-0.283-0.232-0.518-0.515-0.518H37.25
				c-0.123,0-0.234,0.044-0.324,0.115c-0.087-0.071-0.2-0.115-0.324-0.115h-0.087c-0.122,0-0.233,0.044-0.322,0.115
				c-0.079-0.063-0.176-0.104-0.283-0.114h-0.252l1.444-1.65l-1.934-5.663v-0.035h0.565v-0.327h-0.565v-0.682H34.79h-0.376v0.002
				v0.68H33.42l-0.241-9.79h1.293V31.79h-1.308l-0.037-1.149H32.68l-0.043,1.149h-1.304v0.435h1.292l-0.241,9.79h-0.995v-0.657
				h-0.373h-0.382v0.657H30.07v0.326h0.564v0.035l-1.936,5.664l1.446,1.648h-0.252c-0.117,0.005-0.224,0.047-0.309,0.116
				c-0.087-0.072-0.201-0.116-0.323-0.116h-0.085c-0.124,0-0.234,0.044-0.324,0.116c-0.09-0.072-0.202-0.116-0.325-0.116H28.44
				c-0.283,0-0.516,0.231-0.516,0.519v1.874c0,0.28,0.232,0.516,0.516,0.516h0.086c0.123,0,0.235-0.042,0.325-0.114
				c0.088,0.072,0.2,0.114,0.324,0.114h0.085c0.122,0,0.236-0.042,0.323-0.114c0.09,0.072,0.203,0.114,0.325,0.114h0.086
				c0.124,0,0.234-0.042,0.326-0.114c0.087,0.072,0.2,0.114,0.323,0.114h0.086c0.124,0,0.235-0.042,0.322-0.114
				c0.091,0.072,0.202,0.114,0.325,0.114h0.086c0.017,0,0.035-0.001,0.051-0.001h0.083v8.197v0.479
				c0.061-0.046,0.121-0.091,0.182-0.137c0.005-0.006,0.013-0.01,0.016-0.014c0.055-0.043,0.114-0.087,0.171-0.135l0,0v-0.479
				v-6.911c0-0.104,0.083-0.19,0.19-0.19c0.103,0,0.188,0.09,0.188,0.19v6.606v0.488c0.028-0.021,0.056-0.046,0.085-0.065
				c0.087-0.071,0.176-0.146,0.261-0.212c0.004-0.004,0.008-0.011,0.01-0.015v-0.49v-5.603c0-0.104,0.085-0.188,0.189-0.188
				c0.106,0,0.191,0.084,0.191,0.188v5.273v0.504c0-0.001,0-0.001,0-0.001c0.119-0.104,0.233-0.203,0.351-0.309
				c0.001,0,0.004-0.004,0.004-0.004v-0.511v-4.24c0-0.104,0.086-0.188,0.188-0.188c0.104,0,0.188,0.083,0.188,0.188v3.896v0.52
				c0.001-0.001,0.004-0.003,0.005-0.004c0.06-0.055,0.12-0.111,0.178-0.168c0.003,0,0.009-0.004,0.011-0.008
				c0.059-0.055,0.117-0.11,0.176-0.164c0-0.001,0-0.003,0.002-0.003V58.56L34.177,52.595z M37.101,50.25
				c0-0.104,0.086-0.188,0.189-0.188c0.105,0,0.19,0.085,0.19,0.188v1.789c0,0.103-0.085,0.188-0.19,0.188
				c-0.104,0-0.189-0.086-0.189-0.188V50.25z M36.368,50.25c0-0.104,0.083-0.188,0.188-0.188c0.106,0,0.189,0.085,0.189,0.188v1.789
				c0,0.103-0.083,0.188-0.189,0.188c-0.105,0-0.188-0.086-0.188-0.188V50.25z M28.673,52.039c0,0.103-0.085,0.188-0.188,0.188
				c-0.105,0-0.19-0.086-0.19-0.188V50.25c0-0.104,0.085-0.188,0.19-0.188c0.104,0,0.188,0.085,0.188,0.188V52.039z M29.407,52.039
				c0,0.103-0.085,0.188-0.19,0.188c-0.104,0-0.189-0.086-0.189-0.188V50.25c0-0.104,0.085-0.188,0.189-0.188
				c0.105,0,0.19,0.085,0.19,0.188V52.039z M30.14,52.039c0,0.103-0.085,0.188-0.189,0.188s-0.188-0.086-0.188-0.188V50.25
				c0-0.104,0.084-0.188,0.188-0.188s0.189,0.085,0.189,0.188V52.039z M30.873,52.039c0,0.103-0.084,0.188-0.188,0.188
				c-0.105,0-0.188-0.086-0.188-0.188V50.25c0-0.104,0.083-0.188,0.188-0.188c0.104,0,0.188,0.085,0.188,0.188V52.039z
				 M31.607,52.039c0,0.103-0.083,0.188-0.188,0.188c-0.104,0-0.188-0.086-0.188-0.188V50.25c0-0.104,0.084-0.188,0.188-0.188
				c0.105,0,0.188,0.085,0.188,0.188V52.039z M32.341,52.039c0,0.103-0.084,0.188-0.188,0.188c-0.106,0-0.189-0.086-0.189-0.188
				V50.25c0-0.104,0.083-0.188,0.189-0.188c0.104,0,0.188,0.085,0.188,0.188V52.039z M32.143,48.841h-0.971l-1.178-1.113
				l1.381-5.369V42.35h0.985L32.143,48.841z M33.077,52.039c0,0.103-0.084,0.188-0.191,0.188c-0.105,0-0.189-0.086-0.189-0.188
				V50.25c0-0.104,0.084-0.188,0.189-0.188c0.106,0,0.191,0.085,0.191,0.188V52.039z M35.279,52.039c0,0.103-0.085,0.188-0.19,0.188
				c-0.104,0-0.188-0.086-0.188-0.188V50.25c0-0.104,0.084-0.188,0.188-0.188c0.105,0,0.19,0.085,0.19,0.188V52.039z M35.823,50.063
				c0.104,0,0.189,0.085,0.189,0.188v1.789c0,0.103-0.085,0.188-0.189,0.188c-0.106,0-0.189-0.086-0.189-0.188v-1.79
				C35.633,50.147,35.717,50.063,35.823,50.063z M33.412,42.355h0.985v0.004l1.382,5.369l-1.176,1.113h-0.97L33.412,42.355z
				 M33.809,52.039c0,0.103-0.084,0.188-0.189,0.188c-0.103,0-0.188-0.086-0.188-0.188V50.25c0-0.104,0.085-0.188,0.188-0.188
				c0.104,0,0.189,0.085,0.189,0.188V52.039z M34.165,50.25c0-0.104,0.083-0.188,0.19-0.188c0.103,0,0.188,0.085,0.188,0.188v1.789
				c0,0.103-0.085,0.188-0.188,0.188c-0.107,0-0.19-0.086-0.19-0.188V50.25z"/>
		</g>
		<g>
			<path fill="#00416F" d="M44.931,50.742c0.116-0.019,0.221-0.084,0.28-0.188c0.06-0.101,0.069-0.226,0.026-0.336
				c-0.785-1.971-1.76-4.422-2.222-6.851c-0.115-0.633-0.209-1.252-0.28-1.853c-0.149-1.302-0.165-2.556-0.054-3.721
				c0.115-1.171,0.491-2.212,0.89-3.313c0.034-0.097,0.07-0.19,0.106-0.291c0.847-2.363,1.145-4.445,0.907-6.362
				c-0.226-1.839-0.731-3.101-1.695-4.208l-0.252-0.412c-0.695-1.004-1.672-1.858-2.754-2.408c-0.029-0.015-0.057-0.026-0.084-0.04
				c-0.023-0.009-0.047-0.019-0.061-0.029c-0.005-0.001-0.01-0.004-0.016-0.006c-0.803-0.381-1.635-0.584-2.407-0.584
				c-0.884,0-2.118,0.255-2.979,1.472l-0.005,0.009c-0.016,0.021-0.03,0.042-0.046,0.064c-0.018,0.023-0.034,0.044-0.046,0.063
				c-0.045,0.068-0.066,0.158-0.056,0.244l0.347,2.227c-0.383,0.017-0.697,0.023-1.122,0.023c-0.602,0-1.233-0.021-1.927-0.056
				c-0.006,0-0.014,0-0.019,0c-0.379,0-0.387,0.452-0.455,0.726c-0.035,0.136-0.083,0.269-0.117,0.398
				c-0.054,0.214-0.105,0.431-0.156,0.644c-0.013,0.051-0.023,0.101-0.036,0.146c-0.001,0.002-0.001,0.006-0.001,0.008
				c-0.004,0.002-0.01,0.005-0.013,0.007c-0.005,0-0.012,0.001-0.017,0.004l-0.043,0.011c-0.458,0.135-0.891,0.262-1.315,0.438
				c-1.065,0.44-2.282,0.663-3.618,0.663c-2.514,0-4.602-0.802-4.624-0.813c-0.004,0-0.008-0.001-0.012-0.003
				c-0.164-0.062-0.326-0.114-0.486-0.17c-0.002-0.01-0.002-0.019-0.004-0.023c-0.133-0.55-0.269-1.098-0.396-1.646
				c-0.041-0.178-0.195-0.3-0.374-0.3c-0.004,0-0.011,0-0.018,0c-0.673,0.034-1.3,0.054-1.917,0.054
				c-0.344,0-0.681-0.004-1.005-0.021l0.092-1.006l0.127-1.271c0.008-0.079-0.009-0.157-0.047-0.229l-0.002-0.002
				c-0.006-0.013-0.016-0.026-0.024-0.038c-0.005-0.008-0.013-0.016-0.016-0.021c-0.014-0.021-0.03-0.044-0.049-0.069
				c-0.672-0.95-1.734-1.473-2.987-1.473c-0.768,0-1.591,0.189-2.379,0.558c-0.004,0-0.006,0.001-0.008,0.002
				c-0.018,0.01-0.038,0.021-0.056,0.027c-0.032,0.015-0.067,0.032-0.103,0.049c-0.217,0.104-0.434,0.229-0.666,0.381
				c-0.772,0.5-1.422,1.148-1.944,1.906c-0.17,0.248-0.334,0.5-0.514,0.745c-0.119,0.162-0.249,0.313-0.354,0.481
				c-0.127,0.202-0.251,0.422-0.386,0.692c-0.242,0.463-0.438,0.941-0.58,1.428c-0.571,1.938-0.371,3.945-0.103,5.288
				c0.183,0.91,0.506,1.781,0.817,2.623c0.289,0.786,0.589,1.595,0.762,2.409c0.38,1.788,0.397,3.703,0.055,5.688
				c-0.219,1.26-0.578,2.539-1.061,3.813l-0.632-0.019c-0.002,0-0.006,0-0.008,0c-0.16,0-0.302,0.102-0.357,0.246
				c-0.502,1.343-0.707,2.604-0.603,3.743c0.105,1.155,0.526,2.241,1.25,3.225c0.073,0.099,0.189,0.151,0.308,0.151
				c0.015,0,0.029-0.001,0.044-0.003l0.813-0.092c0.76,2.063,1.811,3.956,3.127,5.619c1.312,1.655,2.94,3.152,4.837,4.449
				l-0.49,1.225c-0.068,0.171-0.006,0.364,0.147,0.463c2.984,1.916,6.322,2.928,9.663,2.928c3.482,0,6.766-1.127,9.5-3.262
				c0.116-0.091,0.169-0.239,0.138-0.383l-0.22-0.983c1.136-0.77,2.182-1.607,3.111-2.51c0.941-0.911,1.792-1.906,2.524-2.955
				c0.734-1.049,1.376-2.188,1.906-3.382c0.528-1.191,0.964-2.478,1.295-3.815l0.772-0.134L44.931,50.742z M37.325,22.441
				c0.806,0,1.723,0.16,2.664,0.463c-0.063,0.008-0.134,0.016-0.231,0.021l-0.074,0.004c-0.362,0.021-0.771,0.048-1.202,0.048
				c-0.709,0-1.471-0.054-2.287-0.402C36.521,22.486,36.902,22.441,37.325,22.441z M13.859,22.479c0.464,0,0.878,0.052,1.227,0.156
				c-0.843,0.32-1.714,0.361-2.339,0.361c-0.457,0-0.888-0.027-1.269-0.056h-0.007V22.94c-0.047-0.001-0.091-0.005-0.136-0.007
				c-0.035-0.002-0.068-0.005-0.103-0.007C12.168,22.635,13.072,22.479,13.859,22.479z M40.131,42.797
				c0.269,1.578,0.716,3.237,1.331,4.928c-0.028,0.021-0.054,0.041-0.078,0.065c-0.073,0.079-0.107,0.185-0.098,0.292
				c0.067,0.775-0.009,1.589-0.23,2.468c-1.618,5.973-5.457,10.496-10.808,12.735c-0.361,0.148-0.231,0.651-0.163,0.938
				c0.026,0.113,0.053,0.229,0.079,0.339c-1.461,0.587-2.955,0.884-4.442,0.884c-1.494,0-3.032-0.298-4.577-0.885l0.005-0.018
				c0.001-0.008,0.004-0.019,0.008-0.022l0.096-0.409c0.197-0.603-0.227-0.718-0.227-0.718c-5.456-2.222-9.089-6.493-10.803-12.688
				c-0.115-0.426-0.623-0.261-0.917-0.195c-0.287,0.06-0.582,0.063-0.87,0.1c-0.008,0.002-0.131,0.021-0.131,0.021
				c-0.13-0.567-0.158-1.146-0.078-1.715h1.113c0.147,0,0.282-0.089,0.345-0.223c0.563-1.189,1.017-2.354,1.348-3.457
				c0.583-1.924,0.803-3.896,0.639-5.696c-0.108-1.218-0.453-2.362-0.787-3.476c-0.203-0.674-0.414-1.375-0.566-2.068
				c-0.674-3.11-0.755-5.673-0.252-8.031c2.061,0.757,4.065,0.997,5.606,1.119c0.049,0.26,0.088,0.499,0.106,0.634
				c0.03,0.187,0.191,0.324,0.378,0.324c0.008,0,0.017,0,0.022,0c0.026,0,0.054-0.002,0.083-0.002
				c0.03-0.002,0.063-0.002,0.099-0.006c0.073-0.003,0.158-0.008,0.234-0.008c0.031,0,0.063,0,0.096,0.001
				c0.035,0.001,0.072,0.001,0.109,0.003c0.131,0.004,0.242,0.012,0.341,0.021c1.278,0.103,2.471,0.556,3.733,1.033
				c0.118,0.045,0.233,0.09,0.35,0.134c1.357,0.517,2.762,1.052,4.586,1.052c0.001,0,0.001,0,0.005,0
				c1.325-0.016,2.541-0.382,3.825-0.77c0.146-0.043,0.294-0.092,0.444-0.136c1.623-0.481,3.298-0.982,5.126-0.982
				c0.219,0,0.449,0.007,0.681,0.021c0.011,0,0.019,0,0.028,0c0.094,0,0.189-0.035,0.259-0.101c0.079-0.072,0.123-0.173,0.123-0.28
				v-1.086c1.921-0.198,3.446-0.531,4.884-1.063c0.205,0.896,0.304,1.699,0.34,2.76c0.05,1.434-0.098,2.979-0.439,4.598
				c-0.135,0.629-0.315,1.271-0.489,1.891c-0.236,0.84-0.484,1.703-0.625,2.583C39.668,39.599,39.918,41.518,40.131,42.797z
				 M43.851,50.554c0.035-0.226,0.062-0.442,0.083-0.649c0.09,0.226,0.201,0.428,0.342,0.575L43.851,50.554z"/>
			<g>
				<path fill="#EBC200" d="M43.851,50.554l0.426-0.074c-0.142-0.147-0.252-0.354-0.342-0.575
					C43.914,50.112,43.885,50.328,43.851,50.554z"/>
				<path fill="#EBC200" d="M19.94,25.247l-0.046-0.189c-0.329,0.259-1.141,0.335-2.048,0.419c-0.117,0.011-0.237,0.021-0.357,0.033
					c0.267,0.022,0.533,0.057,0.799,0.106c0.616,0.106,1.228,0.281,1.858,0.486L19.94,25.247z"/>
				<path fill="#EBC200" d="M16.697,21.994c-0.022-0.03-0.04-0.062-0.061-0.083c-0.599-0.855-1.545-1.323-2.682-1.323
					c-0.738,0-1.497,0.188-2.219,0.521c-0.053,0.024-0.104,0.053-0.154,0.074c-0.216,0.108-0.425,0.229-0.632,0.361
					c-0.402,0.258-0.784,0.563-1.128,0.913c-0.245,0.238-0.473,0.501-0.682,0.773c-0.071,0.099-0.141,0.189-0.205,0.288
					c0.01-0.007,0.022-0.011,0.037-0.021c0.412-0.222,0.832-0.413,1.25-0.585c0.164-0.067,0.329-0.131,0.491-0.19
					c0.044-0.014,0.087-0.03,0.128-0.045c0.043-0.017,0.089-0.032,0.134-0.046c1.035-0.348,2.048-0.538,2.958-0.538
					c0.687,0,1.266,0.107,1.718,0.315c0.068,0.025,0.131,0.063,0.193,0.097c0.034,0.019,0.069,0.039,0.101,0.056
					c0.031,0.024,0.062,0.044,0.09,0.063c0.083,0.063,0.161,0.125,0.231,0.195c0.121,0.127,0.222,0.268,0.292,0.417
					c0.005,0.011,0.011,0.021,0.015,0.026l0.03-0.313l0.097-0.962h-0.002V21.994L16.697,21.994z"/>
				<path fill="#EBC200" d="M8.606,51.525c0.069,0.163,0.15,0.325,0.232,0.48c0.15,0.271,0.352,0.578,0.508,0.802
					c0.058-0.104-0.004-0.418-0.049-0.651c-0.076-0.376-0.172-0.857,0.008-1.267l-0.896,0.105
					C8.466,51.176,8.531,51.354,8.606,51.525z"/>
				<path fill="#EBC200" d="M31.243,25.969c0.702-0.171,1.376-0.273,2.076-0.313c-1.018-0.139-1.66-0.267-1.996-0.502L31.117,26
					c0.021-0.004,0.042-0.014,0.063-0.019C31.198,25.98,31.221,25.975,31.243,25.969z"/>
				<path fill="#EBC200" d="M43.6,48.651c-0.001-0.105-0.006-0.216-0.017-0.32c-0.006-0.095-0.016-0.188-0.025-0.279h-0.009h-1.561
					h-0.106h-0.111h-0.107c0.002,0.033,0.005,0.063,0.007,0.096c0.059,0.796-0.023,1.619-0.245,2.501
					c-1.494,5.521-4.783,9.608-9.042,12.021c0.286-0.147,0.574-0.3,0.872-0.418c0.209-0.084,0.45-0.188,0.676-0.188
					c0.172-0.006,0.344,0.051,0.503,0.12c0.124,0.052,0.221,0.144,0.254,0.276l0.044,0.19c0.001,0.004,0.001,0.004,0.001,0.009
					l0.079,0.354l0.048,0.205c4.453-3.044,7.266-7.117,8.556-12.354V50.86c0.006-0.034,0.01-0.063,0.018-0.104
					c0.005-0.032,0.009-0.066,0.016-0.104c0.006-0.031,0.011-0.068,0.018-0.104c0.086-0.538,0.132-1.021,0.14-1.476
					C43.607,48.929,43.607,48.79,43.6,48.651z"/>
				<path fill="#EBC200" d="M20.749,64.195c-0.376,0-0.917-0.271-1.766-0.725l-0.012-0.008l-0.016-0.007
					c-0.294-0.156-0.622-0.33-0.926-0.477c0.907,0.571,1.823,1.049,2.731,1.423c0.011,0.008,0.018,0.013,0.026,0.015
					c0.001,0,0.001,0.003,0.002,0.003l0.056-0.231C20.814,64.191,20.782,64.195,20.749,64.195z"/>
				<path fill="#EBC200" d="M9.116,53.456l-0.478,0.055c1.494,4.017,4.039,7.222,7.719,9.753l0.269-0.666
					c0.018-0.048,0.046-0.088,0.082-0.124c0.125-0.126,0.331-0.144,0.498-0.144c0.452,0,1.21,0.402,1.946,0.797
					c0.633,0.337,1.287,0.686,1.597,0.686c0.103,0,0.125-0.035,0.134-0.063c-0.111-0.047-0.222-0.096-0.333-0.144
					c-5.351-2.291-8.939-6.567-10.659-12.683c-0.012-0.04-0.023-0.083-0.034-0.123c-0.022,0.001-0.028,0.015-0.055,0.036
					c-0.315,0.295-0.224,0.772-0.13,1.242c0.073,0.377,0.143,0.73-0.027,0.963C9.646,53.043,9.408,53.393,9.116,53.456z"/>
				<path fill="#EBC200" d="M32.084,63.039c-0.426,0.224-0.853,0.479-1.313,0.625c-0.017,0.005-0.035,0.009-0.053,0.016
					c-0.004,0.002-0.008,0.002-0.016,0.003c-0.013,0.002-0.025,0.007-0.041,0.01c-0.005,0.003-0.011,0.004-0.017,0.01
					c-0.013,0.001-0.028,0.005-0.042,0.008c-0.006,0-0.011,0.002-0.016,0.003c-0.018,0.004-0.039,0.008-0.056,0.011
					c-0.005,0-0.006,0-0.011,0.001c-0.015,0.001-0.032,0.003-0.049,0.004c-0.006,0-0.011,0-0.018,0.003
					c-0.013,0-0.026,0-0.041,0.002c-0.007,0-0.012,0-0.018,0s-0.008,0.001-0.014,0.001c-0.01,0-0.019-0.001-0.029-0.001
					c-0.006-0.002-0.012-0.002-0.018-0.002c-0.019,0-0.038-0.003-0.057-0.004l0.119,0.328l0.123,0.366
					c0.958-0.419,1.912-0.967,2.847-1.642c0.138-0.101,0.279-0.199,0.417-0.31C33.365,62.571,32.64,62.745,32.084,63.039z"/>
				<path fill="#EBC200" d="M34.572,63.681l-0.005-0.026l-0.025-0.108l-0.02-0.102l-0.081-0.351l-0.073-0.329l-0.005-0.028
					l-0.046-0.193c-0.015,0.016-0.033,0.021-0.049,0.039c-0.035,0.024-0.073,0.056-0.109,0.085c-1.143,0.888-2.305,1.589-3.49,2.104
					c-0.005,0.006-0.011,0.007-0.015,0.009c-0.026,0.013-0.051,0.021-0.081,0.032c-0.002,0.002-0.009,0.005-0.014,0.005
					c-0.024,0.018-0.054,0.024-0.078,0.035c-0.006,0-0.013,0.003-0.018,0.005c-0.032,0.018-0.064,0.025-0.097,0.038
					c-1.521,0.62-3.073,0.938-4.646,0.938c-1.573,0-3.169-0.315-4.775-0.938c-0.036-0.014-0.075-0.023-0.113-0.042
					c-0.007-0.003-0.014-0.006-0.018-0.008c-0.024-0.009-0.047-0.021-0.073-0.032c-0.007-0.001-0.016-0.006-0.022-0.007
					c-0.022-0.012-0.047-0.021-0.072-0.03c-0.01-0.005-0.014-0.007-0.02-0.009c-1.163-0.479-2.333-1.118-3.497-1.919
					c-0.042-0.027-0.084-0.056-0.126-0.088c-0.009-0.006-0.017-0.011-0.025-0.018l-0.083,0.201l-0.215,0.538l-0.039,0.097
					l-0.04,0.099l-0.026,0.068l-0.5,1.249c2.92,1.877,6.187,2.863,9.456,2.863c3.393,0,6.598-1.097,9.267-3.18L34.572,63.681z"/>
				<path fill="#EBC200" d="M8.953,52.906c-0.161-0.233-0.326-0.487-0.45-0.72c-0.09-0.169-0.174-0.34-0.247-0.511
					c-0.093-0.213-0.168-0.425-0.231-0.636c-0.004-0.002-0.004-0.011-0.006-0.014c-0.01-0.026-0.018-0.058-0.026-0.088
					c0-0.007,0-0.009,0-0.012c-0.009-0.029-0.018-0.059-0.026-0.088c0-0.005,0-0.006-0.002-0.017
					c-0.006-0.021-0.014-0.052-0.018-0.07c-0.156-0.646-0.187-1.298-0.088-1.954c0.002-0.024,0.008-0.053,0.011-0.076
					c0.007-0.036,0.015-0.069,0.021-0.103c0.006-0.032,0.01-0.067,0.018-0.104c0.125-0.604,0.359-1.209,0.7-1.813l-0.913-0.021
					L7.588,46.68l-0.1-0.002l-0.045-0.002l-0.649-0.014c-0.971,2.581-0.771,4.742,0.598,6.603l0.832-0.098l0.642-0.073l0.207-0.025
					C9.034,53.023,8.994,52.965,8.953,52.906z"/>
				<path fill="#EBC200" d="M35.82,26.137c-0.036-0.004-0.075-0.009-0.108-0.012c-0.592-0.07-1.16-0.108-1.695-0.108
					c-1.048,0-1.913,0.135-2.683,0.323c-0.066,0.015-0.135,0.035-0.202,0.049c-0.045,0.015-0.089,0.026-0.135,0.035
					c-0.021,0.01-0.042,0.017-0.062,0.02c-0.016,0.009-0.031,0.013-0.05,0.019c-0.022,0.006-0.047,0.014-0.071,0.021
					c-0.014,0.003-0.023,0.009-0.038,0.015c-0.458,0.133-0.902,0.261-1.316,0.434c-0.07,0.03-0.142,0.058-0.215,0.086
					c-0.022,0.007-0.044,0.017-0.068,0.024c-0.05,0.02-0.098,0.035-0.151,0.055c-0.023,0.008-0.051,0.017-0.074,0.026
					c-0.051,0.016-0.102,0.03-0.154,0.049c-0.022,0.007-0.043,0.014-0.065,0.021c-0.073,0.021-0.144,0.043-0.215,0.064
					c-0.01,0.002-0.019,0.004-0.028,0.007c-0.063,0.018-0.125,0.035-0.188,0.049c-0.027,0.006-0.05,0.014-0.076,0.021
					c-0.049,0.013-0.097,0.021-0.147,0.031c-0.026,0.012-0.054,0.017-0.077,0.021c-0.052,0.012-0.102,0.021-0.152,0.033
					c-0.023,0.003-0.046,0.007-0.065,0.013c-0.072,0.015-0.145,0.027-0.215,0.04c-0.016,0.002-0.03,0.004-0.046,0.007
					c-0.056,0.009-0.116,0.021-0.172,0.027c-0.026,0.003-0.051,0.007-0.075,0.011c-0.05,0.008-0.096,0.014-0.146,0.021
					c-0.027,0.005-0.052,0.008-0.077,0.012c-0.053,0.007-0.105,0.012-0.156,0.018c-0.02,0.002-0.04,0.002-0.06,0.005
					c-0.071,0.008-0.141,0.016-0.211,0.021c-0.016,0.001-0.034,0.002-0.05,0.004c-0.055,0.004-0.111,0.008-0.164,0.011
					c-0.023,0.001-0.048,0.003-0.073,0.004c-0.049,0.003-0.097,0.006-0.145,0.009c-0.024,0-0.047,0.002-0.071,0.003
					c-0.054,0.003-0.11,0.005-0.164,0.005c-0.017,0.004-0.03,0.004-0.047,0.004c-0.068,0.001-0.137,0.001-0.207,0.001
					c-0.001,0-0.008,0-0.012,0c-0.046,0-0.092,0-0.14,0c-0.012,0-0.022-0.001-0.036-0.001c-0.042,0-0.085,0-0.128-0.004
					c-0.013,0-0.026,0-0.037-0.001c-0.054-0.001-0.104-0.001-0.156-0.006c-0.009,0-0.02,0-0.03,0
					c-0.042-0.001-0.086-0.002-0.127-0.008c-0.014,0-0.028,0-0.039-0.001c-0.053-0.003-0.103-0.005-0.152-0.009
					c-0.006,0-0.015,0-0.021,0c-0.043-0.002-0.087-0.006-0.131-0.009c-0.013-0.001-0.026-0.003-0.042-0.004
					c-0.048-0.002-0.095-0.008-0.144-0.013c-0.004,0-0.006,0-0.009-0.001c-0.047-0.005-0.094-0.011-0.141-0.015
					c-0.013-0.002-0.027-0.002-0.042-0.004c-0.04-0.005-0.081-0.008-0.124-0.013c-0.007-0.001-0.014-0.002-0.021-0.003
					c-0.046-0.005-0.093-0.014-0.138-0.019c-0.015-0.003-0.028-0.004-0.042-0.006c-0.036-0.005-0.072-0.009-0.109-0.014
					c-0.011-0.001-0.022-0.003-0.033-0.005c-0.044-0.008-0.089-0.016-0.131-0.021c-0.014-0.002-0.027-0.005-0.04-0.008
					c-0.034-0.004-0.068-0.01-0.101-0.015c-0.014,0-0.025-0.003-0.039-0.007c-0.042-0.008-0.083-0.015-0.125-0.021
					c-0.013-0.003-0.025-0.004-0.036-0.007c-0.033-0.004-0.064-0.01-0.097-0.019c-0.012-0.005-0.025-0.006-0.039-0.009
					c-0.041-0.007-0.08-0.014-0.12-0.021c-0.011-0.001-0.022-0.003-0.033-0.005c-0.03-0.011-0.061-0.018-0.091-0.021
					c-0.013-0.002-0.028-0.005-0.039-0.008c-0.039-0.008-0.076-0.017-0.113-0.023c-0.009,0-0.02-0.004-0.028-0.005
					c-0.03-0.005-0.059-0.013-0.089-0.02c-0.014-0.002-0.027-0.005-0.042-0.008c-0.028-0.008-0.059-0.018-0.088-0.021
					c-0.013-0.001-0.024-0.004-0.034-0.007c-0.031-0.005-0.063-0.016-0.092-0.021c-0.013-0.003-0.028-0.006-0.041-0.008
					c-0.023-0.007-0.05-0.013-0.077-0.02c-0.009-0.002-0.019-0.005-0.028-0.009c-0.032-0.009-0.063-0.017-0.094-0.023
					c-0.014-0.002-0.025-0.004-0.038-0.007c-0.021-0.005-0.045-0.014-0.066-0.021c-0.011-0.002-0.021-0.006-0.031-0.009
					c-0.03-0.008-0.059-0.015-0.088-0.021c-0.013-0.001-0.022-0.008-0.035-0.014c-0.02-0.005-0.042-0.009-0.059-0.015
					c-0.011-0.003-0.021-0.006-0.033-0.008c-0.027-0.006-0.053-0.019-0.079-0.021c-0.011-0.003-0.021-0.005-0.031-0.008
					c-0.017-0.005-0.034-0.011-0.054-0.017c-0.01-0.005-0.02-0.007-0.031-0.01c-0.021-0.009-0.046-0.017-0.072-0.021
					c-0.007-0.002-0.015-0.005-0.022-0.008c-0.017-0.004-0.034-0.01-0.052-0.018c-0.009-0.002-0.019-0.006-0.027-0.01
					c-0.019-0.006-0.038-0.01-0.056-0.017c-0.009-0.004-0.017-0.008-0.026-0.009c-0.015-0.006-0.032-0.011-0.048-0.018
					c-0.007-0.002-0.015-0.004-0.023-0.008c-0.015-0.005-0.029-0.009-0.044-0.015c-0.007-0.002-0.015-0.004-0.021-0.007
					c-0.016-0.007-0.032-0.011-0.047-0.019c-0.007-0.002-0.014-0.004-0.02-0.006c-0.012-0.004-0.023-0.009-0.035-0.013
					c-0.005-0.001-0.011-0.005-0.016-0.006c-0.015-0.004-0.028-0.012-0.043-0.018c-0.005-0.001-0.009-0.002-0.016-0.004
					c-0.01-0.003-0.019-0.006-0.03-0.011c-0.003-0.001-0.007-0.001-0.009-0.002c-0.015-0.005-0.024-0.011-0.035-0.016
					c-0.004-0.001-0.009-0.001-0.013-0.002c-0.006-0.002-0.013-0.005-0.019-0.009c-0.004,0-0.008-0.001-0.012-0.004
					c-0.008-0.002-0.016-0.005-0.022-0.008c-0.001-0.003-0.005-0.003-0.006-0.004c-0.006-0.001-0.012-0.002-0.016-0.004
					c-0.001,0-0.003,0-0.006-0.001c-0.006-0.004-0.01-0.005-0.013-0.007c-0.001,0-0.001,0-0.001,0
					c-0.006-0.001-0.007-0.005-0.01-0.005h-0.001h-0.003c-0.161-0.058-0.326-0.113-0.489-0.17c-1.138-0.395-2.317-0.739-3.528-0.739
					c-0.272,0-0.533,0.019-0.795,0.05c-0.073,0.012-0.146,0.021-0.222,0.032c-0.026,0.006-0.053,0.01-0.082,0.017
					c0.082,0.237,0.166,0.646,0.231,1.001c0.07,0.373,0.117,0.688,0.117,0.688c0.062-0.004,0.122-0.004,0.184-0.007
					c0.083-0.006,0.169-0.009,0.255-0.009c0.069,0,0.141,0.002,0.21,0.002c0.122,0.005,0.244,0.012,0.365,0.021
					c1.332,0.106,2.552,0.569,3.837,1.059c1.485,0.563,2.897,1.159,4.803,1.159c1.422-0.018,2.733-0.462,4.166-0.888
					C31.629,28.509,33.338,28,35.213,28c0.236,0,0.474,0.01,0.709,0.021v-1.13v-0.099V26.69v-0.104v-0.244v-0.1v-0.074V26.15
					C35.886,26.147,35.854,26.141,35.82,26.137z"/>
				<path fill="#EBC200" d="M8.779,23.871c-0.064,0.063-0.265,0.271-0.525,0.688c-0.135,0.217-0.256,0.438-0.37,0.665
					c-0.229,0.438-0.415,0.895-0.554,1.361c-0.479,1.625-0.423,3.456-0.094,5.104c0.348,1.729,1.211,3.313,1.578,5.029
					c0.408,1.921,0.391,3.896,0.058,5.833c-0.244,1.382-0.623,2.656-1.032,3.755l0.776,0.021c0.133,0.007,0.252,0.073,0.319,0.188
					h0.019l-0.01,0.021c0.059,0.111,0.057,0.25-0.006,0.36c-0.305,0.542-0.521,1.089-0.641,1.624h1.042
					c0.519-1.094,0.98-2.245,1.327-3.399c0.54-1.784,0.796-3.696,0.627-5.56c-0.17-1.909-0.946-3.645-1.345-5.498
					c-0.595-2.737-0.841-5.481-0.241-8.247c-0.006-0.002-0.011-0.003-0.018-0.005c-0.011-0.005-0.024-0.01-0.038-0.015
					c-0.167-0.065-0.341-0.139-0.543-0.23c-0.097-0.043-0.172-0.125-0.205-0.225c-0.035-0.1-0.024-0.211,0.025-0.304l0.807-1.497
					L8.779,23.871z"/>
				<path fill="#EBC200" d="M15.66,22.846c-0.002,0-0.006-0.003-0.008-0.005c-0.001,0-0.001-0.001-0.003-0.001
					c-0.978,0.467-2.029,0.539-2.831,0.539c-0.475,0-0.913-0.029-1.301-0.053c-0.272-0.021-0.509-0.033-0.708-0.037
					c1.516,0.521,3.168,0.842,5.052,0.978c0.045,0.001,0.087,0.004,0.13,0.006c0.018,0.002,0.036,0.003,0.055,0.005l0.072,0.003
					l0.111,0.012c0.069,0.002,0.137,0.008,0.206,0.011c0.013-0.01,0.025-0.018,0.042-0.026c0.043-0.022,0.029-0.281,0.025-0.332
					c-0.007-0.112-0.037-0.229-0.086-0.336c-0.092-0.199-0.245-0.403-0.41-0.554C15.913,22.969,15.782,22.879,15.66,22.846z"/>
				<path fill="#EBC200" d="M40.617,23.232c-0.031-0.005-0.073-0.009-0.109-0.009c-0.031-0.002-0.072-0.002-0.111-0.002
					c-0.002,0-0.004,0-0.004,0c-0.013,0-0.028-0.004-0.038-0.004c-0.209,0-0.288,0.019-0.583,0.037
					c-0.394,0.021-0.839,0.052-1.319,0.052c-0.853,0-1.816-0.078-2.837-0.601c-0.03-0.021-0.061-0.033-0.092-0.055
					c-0.11,0.067-0.208,0.146-0.292,0.229c-0.153,0.152-0.261,0.328-0.325,0.522c-0.042,0.138-0.065,0.278-0.065,0.435
					c0,0.065,0.01,0.134,0.029,0.199c0.01,0.049,0.023,0.134,0.072,0.163c0,0.001,0,0.002,0.002,0.003
					c2.115-0.115,3.807-0.284,5.491-0.871c0.034-0.017,0.067-0.023,0.101-0.034c0.032-0.014,0.062-0.023,0.093-0.034
					c0.018-0.01,0.041-0.017,0.062-0.021C40.672,23.237,40.645,23.234,40.617,23.232z"/>
				<path fill="#EBC200" d="M37.331,22.011c0.905,0.043,1.924,0.188,2.959,0.539c0.048,0.013,0.092,0.029,0.138,0.043
					c0.041,0.015,0.082,0.032,0.122,0.045c0.237,0.087,0.477,0.184,0.717,0.285c0.34,0.146,0.682,0.311,1.021,0.491
					c0.01,0.004,0.021,0.011,0.035,0.016c-0.068-0.1-0.14-0.196-0.214-0.291c-0.65-0.84-1.492-1.533-2.397-1.993
					c-0.05-0.022-0.104-0.048-0.153-0.068c-0.735-0.354-1.505-0.551-2.242-0.551c-0.805,0-1.906,0.235-2.668,1.313
					c-0.018,0.024-0.037,0.054-0.056,0.083c-0.012,0.012-0.021,0.021-0.029,0.037l0.121,1.203c0.082-0.202,0.203-0.391,0.361-0.549
					C35.045,22.615,35.836,21.937,37.331,22.011z"/>
				<path fill="#EBC200" d="M42.479,23.777c0.087,0.063,0.124,0.103,0.124,0.103c1.032,1.188,1.42,2.503,1.604,4.005
					c0.258,2.097-0.183,4.217-0.888,6.188c-0.447,1.237-0.887,2.374-1.018,3.697c-0.12,1.267-0.089,2.54,0.054,3.8
					c0.074,0.628,0.171,1.262,0.286,1.876c0.325,1.711,0.891,3.405,1.495,5.015c0.016,0.034,0.028,0.072,0.042,0.109
					c0.233,0.615,0.473,1.217,0.706,1.802l-0.019,0.004l-0.027,0.004c-0.486-0.035-0.707-1.038-0.842-1.71
					c-0.006-0.021-0.009-0.038-0.015-0.06c-0.004-0.104-0.009-0.21-0.017-0.311c-0.007-0.101-0.016-0.195-0.028-0.291
					c-0.022-0.191-0.186-0.336-0.378-0.336h-0.009h-1.561h-0.106h-0.033c-0.589-1.604-1.056-3.256-1.341-4.938
					c-0.275-1.642-0.421-3.327-0.156-4.976c0.242-1.506,0.792-2.963,1.107-4.454c0.329-1.541,0.506-3.116,0.451-4.693
					c-0.035-1.023-0.129-1.88-0.361-2.883c0.013-0.005,0.023-0.01,0.04-0.015c0.006-0.001,0.013-0.004,0.018-0.008
					c0.15-0.063,0.466-0.192,0.664-0.28c0,0,0.258-0.11,0.056-0.48l-0.804-1.481L42.479,23.777z"/>
				<path fill="#EBC200" d="M40.791,23.612c-0.01,0.009-0.019,0.013-0.031,0.016l-0.015,0.006c-0.022,0.008-0.041,0.017-0.061,0.021
					c-0.008,0.004-0.018,0.011-0.027,0.014c-0.03,0.011-0.057,0.02-0.084,0.024c-0.002,0.002-0.003,0.003-0.007,0.003
					c-1.647,0.583-3.27,0.771-5.515,0.896c-0.005,0-0.013,0.001-0.018,0.001c-0.008,0-0.014-0.001-0.019-0.001
					c-0.012,0-0.021,0.001-0.029,0.001c-0.512,0.028-1.036,0.041-1.577,0.041c-0.625,0-1.261-0.021-1.946-0.053l-0.004,0.015
					l-0.027,0.12c0.11,0.331,1.319,0.489,2.299,0.616c0.78,0.101,1.596,0.153,2.331,0.472c0.137,0.058,0.243,0.198,0.243,0.354
					v0.018v0.174v0.205c1.678-0.174,3.324-0.483,4.972-1.123c0.021-0.011,0.043-0.018,0.066-0.026
					c0.012-0.004,0.021-0.01,0.036-0.014c0.026-0.012,0.054-0.021,0.087-0.034c0.175-0.071,0.353-0.146,0.529-0.227l-0.888-1.638
					L40.791,23.612z"/>
				<path fill="#EBC200" d="M19.824,24.754l-0.024-0.09c-0.685,0.035-1.318,0.05-1.935,0.05c-0.456,0-0.901-0.009-1.334-0.029
					c-0.108-0.004-0.216-0.01-0.323-0.018c-0.061-0.003-0.122-0.006-0.183-0.01c-0.062-0.007-0.123-0.011-0.184-0.014
					c-1.951-0.14-3.69-0.479-5.267-1.038c-0.033-0.012-0.067-0.021-0.1-0.031c-0.009-0.009-0.019-0.011-0.028-0.015
					c-0.022-0.009-0.041-0.018-0.064-0.021c-0.001-0.002-0.002-0.002-0.004-0.002c-0.036-0.018-0.07-0.026-0.107-0.04
					c-0.02-0.008-0.043-0.017-0.065-0.023l-0.03,0.063l-0.044,0.077l-0.866,1.604c0.179,0.08,0.351,0.154,0.528,0.224
					c0.032,0.016,0.062,0.023,0.09,0.035c0.034,0.018,0.068,0.023,0.1,0.038c0.047,0.021,0.091,0.034,0.135,0.049
					c1.815,0.684,3.63,0.971,5.482,1.118c-0.028-0.131-0.044-0.265-0.065-0.395c-0.012-0.083-0.037-0.161-0.057-0.24
					c-0.01-0.034-0.018-0.067-0.022-0.102c-0.021-0.122,0.03-0.228,0.108-0.309c0.074-0.077,0.173-0.134,0.264-0.173
					c0.012-0.005,0.022-0.009,0.036-0.014c0.048-0.021,0.098-0.032,0.149-0.043c0.04-0.01,0.082-0.019,0.125-0.024
					c0.449-0.088,1.017-0.165,1.573-0.217h0.026c0.275-0.026,0.553-0.058,0.826-0.104C18.562,25.072,19.547,24.929,19.824,24.754z"
					/>
			</g>
			<g>
				<path fill="#00416F" d="M15.842,25.284c-0.068-0.007-0.129,0.005-0.188,0.021c-0.057,0.021-0.11,0.045-0.152,0.085
					c-0.042,0.037-0.076,0.083-0.102,0.135c-0.029,0.063-0.04,0.119-0.046,0.188c-0.004,0.064,0.007,0.131,0.026,0.187
					c0.021,0.06,0.05,0.104,0.087,0.146c0.003,0.003,0.007,0.005,0.011,0.009c-0.01-0.034-0.018-0.067-0.022-0.101
					c-0.021-0.123,0.03-0.229,0.108-0.31c0.003-0.015,0.008-0.021,0.015-0.035c0.012-0.03,0.03-0.063,0.055-0.086
					c0.025-0.021,0.055-0.042,0.089-0.052c0.033-0.015,0.07-0.016,0.112-0.016c0.012,0,0.019,0.001,0.03,0.002
					c0.048-0.021,0.098-0.032,0.149-0.043c0.04-0.007,0.082-0.019,0.125-0.024c-0.032-0.023-0.069-0.049-0.11-0.063
					C15.97,25.302,15.906,25.289,15.842,25.284z"/>
				<g>
					<path fill="#00416F" d="M10.164,24.097l0.27,0.097l-0.007,0.599h0.003l0.375-0.458l0.27,0.097l-0.292,0.805l-0.181-0.063
						l0.225-0.618l0,0l-0.439,0.541l-0.132-0.048l0.021-0.693h-0.005l-0.224,0.617l-0.179-0.063L10.164,24.097z"/>
					<path fill="#00416F" d="M11.233,24.473l0.56,0.168l-0.05,0.167l-0.377-0.115l-0.045,0.154l0.355,0.105l-0.046,0.167
						l-0.36-0.105l-0.048,0.167l0.397,0.119l-0.049,0.165l-0.583-0.173L11.233,24.473z"/>
					<path fill="#00416F" d="M11.943,24.688l0.279,0.066l0.059,0.588h0.002l0.327-0.495l0.276,0.067l-0.202,0.832l-0.186-0.043
						l0.157-0.644h-0.002l-0.376,0.585l-0.14-0.035l-0.053-0.688h-0.002l-0.158,0.636l-0.187-0.043L11.943,24.688z"/>
					<path fill="#00416F" d="M13.05,24.948l0.572,0.108l-0.033,0.171l-0.385-0.074l-0.03,0.154l0.366,0.073l-0.033,0.17l-0.367-0.07
						l-0.034,0.171l0.409,0.077L13.481,25.9l-0.592-0.111L13.05,24.948z"/>
					<path fill="#00416F" d="M13.779,25.086l0.252,0.036l0.277,0.642h0.004l0.086-0.589l0.188,0.029l-0.124,0.845l-0.244-0.035
						l-0.284-0.655l-0.001-0.002l-0.088,0.605l-0.188-0.028L13.779,25.086z"/>
					<path fill="#00416F" d="M14.895,25.403l-0.244-0.023l0.018-0.165l0.675,0.063l-0.017,0.167l-0.246-0.022l-0.068,0.688
						l-0.187-0.018L14.895,25.403z"/>
				</g>
			</g>
			<g>
				<path fill="#00416F" d="M21.124,27.204l0.206,0.061l0.157,1.257l-0.276-0.082l-0.026-0.264l-0.437-0.127l-0.161,0.207
					l-0.273-0.077L21.124,27.204z M21.124,27.554l-0.236,0.309l0.271,0.079L21.124,27.554z"/>
				<path fill="#00416F" d="M22.475,27.893c-0.015-0.032-0.036-0.059-0.063-0.083c-0.031-0.021-0.063-0.036-0.095-0.044
					c-0.016-0.004-0.034-0.008-0.055-0.009c-0.021,0-0.042,0-0.058,0.005c-0.021,0.001-0.036,0.01-0.053,0.022
					c-0.014,0.012-0.022,0.022-0.031,0.049c-0.01,0.035-0.006,0.061,0.018,0.086c0.017,0.023,0.045,0.053,0.079,0.076
					c0.035,0.021,0.075,0.048,0.115,0.07c0.042,0.022,0.078,0.059,0.108,0.087c0.03,0.036,0.057,0.076,0.071,0.122
					c0.014,0.045,0.01,0.104-0.011,0.167c-0.017,0.063-0.045,0.112-0.079,0.152c-0.038,0.038-0.081,0.068-0.129,0.086
					c-0.051,0.021-0.103,0.029-0.155,0.029c-0.059,0-0.115-0.014-0.173-0.026c-0.071-0.021-0.141-0.051-0.192-0.092
					c-0.056-0.039-0.103-0.094-0.143-0.158l0.23-0.142c0.016,0.041,0.042,0.076,0.074,0.104c0.038,0.03,0.07,0.05,0.112,0.063
					c0.021,0.008,0.042,0.011,0.061,0.012c0.027,0.001,0.042-0.001,0.066-0.006c0.017-0.005,0.033-0.014,0.046-0.023
					c0.017-0.012,0.024-0.023,0.031-0.051c0.01-0.03,0.004-0.062-0.015-0.085c-0.021-0.028-0.05-0.055-0.086-0.08
					c-0.032-0.021-0.069-0.052-0.114-0.079c-0.039-0.023-0.075-0.057-0.109-0.092c-0.032-0.033-0.055-0.077-0.068-0.12
					c-0.015-0.045-0.015-0.098,0.002-0.161c0.019-0.059,0.046-0.105,0.085-0.145c0.034-0.041,0.079-0.068,0.126-0.087
					c0.048-0.021,0.102-0.03,0.156-0.03c0.056,0,0.115,0.008,0.166,0.023c0.064,0.018,0.123,0.046,0.174,0.083
					c0.056,0.029,0.101,0.077,0.135,0.134L22.475,27.893z"/>
				<path fill="#00416F" d="M23.669,28.291c-0.017-0.036-0.04-0.067-0.071-0.089c-0.031-0.025-0.07-0.043-0.116-0.061
					c-0.047-0.012-0.094-0.018-0.137-0.009c-0.045,0.004-0.088,0.021-0.124,0.046c-0.038,0.025-0.073,0.063-0.103,0.095
					c-0.027,0.042-0.047,0.088-0.062,0.142c-0.015,0.055-0.018,0.104-0.015,0.148c0.005,0.053,0.016,0.099,0.037,0.138
					c0.019,0.035,0.044,0.07,0.083,0.102c0.03,0.028,0.067,0.049,0.113,0.059c0.051,0.02,0.097,0.021,0.146,0.011
					c0.044-0.016,0.086-0.033,0.12-0.063l0.163,0.208c-0.063,0.053-0.137,0.087-0.218,0.104c-0.084,0.014-0.162,0.007-0.24-0.019
					c-0.089-0.021-0.167-0.058-0.233-0.104c-0.066-0.053-0.121-0.106-0.159-0.178c-0.041-0.063-0.065-0.136-0.077-0.216
					c-0.011-0.082-0.004-0.165,0.02-0.26c0.024-0.09,0.066-0.166,0.11-0.231c0.055-0.063,0.113-0.11,0.177-0.146
					c0.07-0.039,0.144-0.063,0.229-0.068c0.082-0.005,0.165,0.001,0.253,0.025c0.031,0.011,0.064,0.021,0.1,0.038
					c0.028,0.014,0.062,0.032,0.09,0.054c0.03,0.021,0.057,0.046,0.082,0.078c0.024,0.03,0.046,0.063,0.063,0.101L23.669,28.291z"/>
				<path fill="#00416F" d="M24.146,28.087l0.781,0.114l-0.033,0.232l-0.528-0.078l-0.032,0.219l0.5,0.065l-0.035,0.238L24.3,28.806
					l-0.034,0.233l0.559,0.083l-0.035,0.229l-0.813-0.116L24.146,28.087z"/>
				<path fill="#00416F" d="M25.196,28.234l0.35,0.011l0.482,0.812h0.001l0.017-0.804H26.3l-0.018,1.163l-0.338-0.005l-0.493-0.839
					h-0.006L25.433,29.4l-0.254-0.004L25.196,28.234z"/>
				<path fill="#00416F" d="M26.555,28.234l0.381-0.05c0.094-0.01,0.183-0.015,0.269-0.004c0.085,0.011,0.162,0.035,0.233,0.073
					c0.065,0.038,0.126,0.09,0.167,0.161c0.05,0.064,0.078,0.153,0.092,0.262c0.013,0.09,0.003,0.176-0.021,0.252
					c-0.028,0.075-0.065,0.141-0.122,0.199c-0.052,0.053-0.114,0.1-0.191,0.135c-0.074,0.037-0.154,0.057-0.241,0.069l-0.415,0.055
					L26.555,28.234z M26.933,29.117l0.129-0.021c0.059-0.005,0.112-0.017,0.162-0.037c0.05-0.018,0.09-0.043,0.126-0.076
					c0.029-0.03,0.054-0.068,0.07-0.122c0.017-0.048,0.02-0.104,0.011-0.17c-0.007-0.054-0.026-0.102-0.052-0.142
					c-0.026-0.038-0.06-0.072-0.098-0.093c-0.04-0.021-0.086-0.038-0.134-0.045c-0.052-0.011-0.104-0.011-0.156,0l-0.149,0.019
					L26.933,29.117z"/>
				<path fill="#00416F" d="M27.828,28.044l0.764-0.211l0.062,0.228l-0.518,0.145l0.061,0.21l0.485-0.139l0.06,0.229l-0.485,0.134
					l0.062,0.229l0.545-0.147l0.063,0.229l-0.792,0.215L27.828,28.044z"/>
				<path fill="#00416F" d="M28.902,27.724l0.434-0.124c0.058-0.016,0.115-0.028,0.167-0.033c0.052-0.004,0.104,0.003,0.152,0.021
					c0.045,0.013,0.084,0.041,0.12,0.076c0.036,0.036,0.062,0.088,0.082,0.15c0.021,0.079,0.021,0.15-0.003,0.223
					c-0.027,0.063-0.078,0.117-0.151,0.153l0.417,0.393l-0.295,0.085l-0.36-0.378l-0.122,0.03l0.125,0.446l-0.245,0.073
					L28.902,27.724z M29.285,28.115l0.143-0.044c0.024-0.004,0.044-0.013,0.072-0.021c0.022-0.005,0.042-0.021,0.062-0.035
					c0.016-0.012,0.028-0.03,0.036-0.048c0.01-0.021,0.01-0.048,0-0.076c-0.01-0.031-0.02-0.05-0.036-0.063
					c-0.017-0.018-0.031-0.022-0.054-0.024c-0.019-0.002-0.042-0.002-0.066,0c-0.025,0.001-0.048,0.005-0.068,0.014l-0.161,0.045
					L29.285,28.115z"/>
				<path fill="#00416F" d="M30.031,27.404l0.766-0.2l0.061,0.227l-0.518,0.137l0.057,0.209l0.489-0.131l0.057,0.23l-0.488,0.13
					l0.064,0.229l0.542-0.146l0.063,0.229l-0.793,0.21L30.031,27.404z"/>
			</g>
			<g>
				<path fill="#00416F" d="M36.802,25.286c-0.019-0.021-0.04-0.027-0.07-0.036c-0.027-0.003-0.053-0.007-0.076-0.002
					c-0.014,0.002-0.026,0.005-0.038,0.009c-0.016,0.007-0.031,0.013-0.041,0.021c-0.014,0.014-0.023,0.021-0.03,0.028
					c-0.006,0.015-0.009,0.029-0.006,0.043c0.006,0.027,0.015,0.044,0.036,0.056c0.022,0.015,0.045,0.021,0.078,0.026
					c0.031,0.005,0.062,0.011,0.098,0.015c0.037,0.009,0.069,0.021,0.101,0.029c0.03,0.014,0.057,0.035,0.081,0.063
					c0.023,0.024,0.042,0.063,0.046,0.111c0.004,0.05,0.003,0.095-0.008,0.127c-0.018,0.038-0.035,0.07-0.063,0.101
					c-0.028,0.025-0.062,0.049-0.095,0.063c-0.042,0.021-0.083,0.03-0.123,0.036c-0.057,0.008-0.108,0.004-0.159-0.005
					c-0.052-0.01-0.099-0.031-0.144-0.065l0.112-0.158c0.024,0.021,0.053,0.033,0.084,0.048c0.031,0.011,0.061,0.013,0.092,0.011
					c0.016-0.002,0.03-0.007,0.046-0.013c0.016-0.006,0.027-0.018,0.041-0.021c0.008-0.009,0.019-0.02,0.026-0.033
					c0.005-0.013,0.008-0.021,0.005-0.041c-0.004-0.022-0.018-0.043-0.037-0.058c-0.023-0.01-0.049-0.021-0.08-0.021
					c-0.029-0.01-0.063-0.02-0.102-0.021c-0.036-0.004-0.068-0.013-0.101-0.029c-0.032-0.013-0.061-0.036-0.083-0.058
					c-0.023-0.025-0.041-0.063-0.045-0.111c-0.004-0.047-0.001-0.087,0.012-0.124c0.014-0.038,0.033-0.063,0.059-0.096
					c0.028-0.026,0.061-0.049,0.099-0.064c0.037-0.018,0.075-0.025,0.119-0.032c0.046-0.008,0.094-0.007,0.141,0.003
					c0.05,0.007,0.09,0.021,0.13,0.051L36.802,25.286z"/>
				<path fill="#00416F" d="M37.035,25.042l0.576-0.101l0.024,0.177l-0.388,0.063l0.028,0.155l0.364-0.063l0.032,0.171l-0.367,0.063
					l0.03,0.168l0.409-0.067l0.031,0.176l-0.599,0.103L37.035,25.042z"/>
				<path fill="#00416F" d="M37.76,24.921l0.279-0.063l0.308,0.51h0.005l0.074-0.592l0.281-0.058l0.18,0.837l-0.187,0.04
					l-0.138-0.644h-0.004l-0.081,0.688l-0.141,0.03l-0.349-0.599l-0.002,0.003l0.137,0.642l-0.185,0.039L37.76,24.921z"/>
				<path fill="#00416F" d="M38.854,24.68l0.307-0.082c0.044-0.01,0.088-0.017,0.126-0.02c0.039,0,0.078,0.002,0.109,0.015
					c0.038,0.013,0.067,0.032,0.092,0.06c0.026,0.028,0.044,0.067,0.054,0.116c0.015,0.048,0.019,0.091,0.011,0.126
					c-0.007,0.038-0.021,0.069-0.042,0.093c-0.028,0.03-0.053,0.056-0.092,0.067c-0.033,0.021-0.073,0.034-0.116,0.046l-0.132,0.036
					l0.083,0.321l-0.181,0.05L38.854,24.68z M39.13,24.984l0.123-0.029c0.018-0.002,0.03-0.013,0.048-0.021
					c0.014-0.007,0.027-0.017,0.038-0.022c0.007-0.013,0.014-0.022,0.02-0.037c0.004-0.02,0.002-0.034-0.003-0.056
					c-0.004-0.021-0.015-0.033-0.027-0.048c-0.014-0.009-0.027-0.017-0.045-0.02c-0.017-0.002-0.035-0.002-0.054,0
					c-0.019,0.003-0.038,0.006-0.055,0.013l-0.091,0.024L39.13,24.984z"/>
				<path fill="#00416F" d="M39.573,24.49l0.558-0.162l0.051,0.162l-0.378,0.113l0.045,0.153l0.361-0.105l0.048,0.163l-0.357,0.107
					l0.053,0.167l0.396-0.118l0.051,0.166l-0.582,0.172L39.573,24.49z"/>
				<path fill="#00416F" d="M40.277,24.277l0.311-0.104c0.043-0.014,0.084-0.023,0.123-0.03c0.042-0.004,0.079,0,0.113,0.008
					c0.033,0.012,0.064,0.027,0.091,0.057c0.024,0.021,0.047,0.062,0.064,0.104c0.017,0.062,0.021,0.111,0.007,0.163
					c-0.019,0.049-0.054,0.09-0.106,0.119l0.323,0.271l-0.217,0.073l-0.28-0.269L40.619,24.7l0.109,0.319l-0.178,0.063
					L40.277,24.277z M40.567,24.552l0.107-0.036c0.019-0.004,0.032-0.011,0.05-0.019c0.015-0.011,0.034-0.021,0.047-0.026
					c0.01-0.01,0.021-0.025,0.028-0.038c0.002-0.017,0.002-0.036-0.007-0.06c-0.005-0.021-0.017-0.034-0.027-0.042
					c-0.014-0.012-0.026-0.021-0.044-0.021c-0.015-0.001-0.029-0.001-0.047,0.001c-0.019,0.005-0.035,0.01-0.05,0.017l-0.118,0.041
					L40.567,24.552z"/>
			</g>
		</g>
		<g>
			<g>
				<g>
					<path fill="#00416F" d="M17.531,19.25L17.33,19.28l-1.817,0.271l-1.233-1.36l-0.136-0.147l-0.201,0.027l-1.816,0.271
						l-1.113-1.229l-0.256-0.279l-0.283,0.257l-0.503,0.455L9.689,17.8l0.257,0.282l1.492,1.646l0.138,0.15l0.201-0.029l1.817-0.271
						l1.234,1.355l0.136,0.151l0.201-0.032l1.818-0.27l0.943,1.042l0.209,0.229l-0.095,0.163c-0.187,0.324-0.235,0.7-0.139,1.063
						c0.097,0.36,0.328,0.662,0.652,0.852c0.212,0.124,0.453,0.188,0.699,0.188c0.416,0,0.807-0.187,1.069-0.498
						c0.216,0.304,0.57,0.498,0.971,0.498H29.7c0.405,0,0.762-0.198,0.976-0.512c0.265,0.32,0.661,0.512,1.081,0.512
						c0.246,0,0.487-0.063,0.699-0.188c0.323-0.188,0.555-0.487,0.652-0.852c0.098-0.359,0.047-0.736-0.138-1.063l-0.05-0.086
						l0.157-0.172l0.943-1.043l1.816,0.271l0.203,0.029l0.135-0.146l1.235-1.357l1.816,0.27l0.202,0.03l0.137-0.15l1.494-1.646
						l0.256-0.283l-0.283-0.255l-0.503-0.458l-0.283-0.254l-0.256,0.281l-1.113,1.226l-1.817-0.27l-0.201-0.03l-0.135,0.147
						l-1.233,1.36l-1.396-0.21l0.007-0.011l1.016-1.53l1.836-0.002h0.205l0.113-0.17l1.018-1.531l1.24-0.002v0.271l0.38,0.001
						l1.489,0.008h0.381l0.001-0.382l0.006-1.235l0.004-0.381l-0.382-0.003L39.921,14.5l-0.383-0.001v0.289l-1.819,0.004
						l-0.204,0.001l-0.111,0.169l-1.019,1.53l-1.834,0.003h-0.205l-0.114,0.168l-1.016,1.525h-0.145l-0.086,0.001l0.154-0.396
						l0.48-1.233l1.792-0.396l0.2-0.044l0.074-0.19l0.665-1.713l1.617-0.357l0.373-0.083l-0.083-0.374l-0.147-0.658l-0.081-0.373
						l-0.374,0.083l-2.17,0.479l-0.198,0.045l-0.075,0.19l-0.663,1.711l-1.792,0.396l-0.147,0.03l1.188-0.55l0.186-0.083
						l0.033-0.204l0.284-1.814l1.137-0.524l0.103,0.226l0.346-0.158l1.355-0.616l0.346-0.16l-0.16-0.35l-0.513-1.125l-0.16-0.345
						l-0.346,0.16l-1.357,0.619l-0.346,0.159l0.129,0.279l-1.657,0.771l-0.188,0.085l-0.033,0.201l-0.284,1.813L31.01,14.46
						l-0.187,0.084l-0.032,0.202l-0.218,1.404c-0.077-0.083-0.164-0.15-0.261-0.211c-0.062-0.039-0.196-0.104-0.399-0.104
						c-0.072,0-0.146,0.01-0.218,0.024l2.018-2.771l0.081-0.11l-0.006-0.138l-0.11-1.833l1.316-1L33.3,9.78l-0.231-0.303
						l-0.412-0.541l-0.231-0.305L32.121,8.86l-1.771,1.347l-0.162,0.124l0.012,0.2l0.114,1.908l-0.256,0.388
						c-0.186-0.146-0.384-0.277-0.595-0.4l-0.145-0.506l-0.556-1.958l1.075-1.258l0.247-0.29l-0.289-0.248l-0.517-0.44l-0.292-0.248
						l-0.244,0.29l-1.443,1.691l-0.13,0.152l0.053,0.197l0.55,1.938c-0.386-0.104-0.791-0.177-1.205-0.224l0.089-0.174l-0.095-0.176
						l-0.866-1.62l0.78-1.46l0.11-0.204l-0.13-0.188l-0.838-1.225L25.588,6.19l-0.147-1.479l-0.04-0.381l-0.379,0.039l-1.229,0.123
						l-0.379,0.034l0.038,0.383l0.149,1.479l0.038,0.38l0.379-0.039l0.025-0.002l0.858,1.253l-0.745,1.395l-0.095,0.18l0.095,0.18
						l0.935,1.747c-0.453,0.021-0.895,0.076-1.322,0.164l-0.245-0.269l-1.336-1.472L22.591,8.3l0.09-0.37l-0.37-0.092l-0.659-0.165
						L21.281,7.58l-0.09,0.37l-0.542,2.152l-0.049,0.2l0.138,0.151l1.508,1.664c-0.509,0.224-0.964,0.498-1.34,0.81l-0.34,0.283
						V13.12l0,0v-0.687V12.23L20.4,12.116l-1.527-1.021V9.821h0.221v-0.38V7.953V7.57h-0.381h-1.235h-0.383v0.386v1.486v0.38h0.335
						v1.846v0.202l0.17,0.111L19.127,13v1.836v0.204l0.171,0.11l1.282,0.858c-0.137,0.104-0.25,0.235-0.332,0.387L20,16.312
						l-1.64-0.587l-0.446-1.782l-0.049-0.194l-0.193-0.068l-1.73-0.618l-0.402-1.604l-0.092-0.371l-0.371,0.094l-0.66,0.165
						l-0.37,0.092l0.092,0.371l0.542,2.156l0.05,0.197l0.191,0.064l1.73,0.618l0.446,1.78l0.05,0.193l0.192,0.07l1.431,0.511
						c-0.139,0.138-0.26,0.285-0.363,0.449l-0.278-0.027l-1.559-0.149l-0.866-1.618l-0.094-0.18l-0.204-0.021l-1.827-0.178
						l-0.6-1.123l0.283-0.157l-0.187-0.334l-0.727-1.3l-0.188-0.332l-0.332,0.186l-1.079,0.604l-0.334,0.186l0.186,0.334l0.73,1.303
						l0.186,0.333l0.204-0.113l0.854,1.598l0.093,0.183l0.205,0.019l1.828,0.179l0.865,1.62l0.097,0.183l0.203,0.019l1.694,0.188
						L17.531,19.25z M28.352,15.387c0.134-0.629,0.506-1.18,1.03-1.545L28.352,15.387z M32.526,20.427
						c0.167-0.237,0.288-0.503,0.356-0.788h0.359L32.526,20.427z M31.922,16.86l0.208-1.322l0.418-0.194l-0.067,0.175l-0.485,1.245
						l-0.082,0.21L31.922,16.86z M21.008,13.573c0.96,0.396,1.583,1.321,1.583,2.359c0,0.037-0.001,0.076-0.003,0.12l-0.002,0.015
						l-0.012,0.231c-0.103-0.026-0.208-0.056-0.306-0.088V15.94v-0.337V15.4l-0.169-0.109L20.57,14.27V13.54l0,0v-0.147
						L21.008,13.573z"/>
					<path fill="#EBC200" d="M37.719,15.175l-1.128,1.698l-2.041,0.005l-1.13,1.7h-0.454c0.016,0.096,0.051,0.309,0.02,0.681
						l0.8-0.002l1.128-1.7l2.04-0.005l1.13-1.698l1.827-0.004v0.271l1.489,0.007l0.007-1.235l-1.489-0.008l-0.003,0.288
						L37.719,15.175z"/>
					<path fill="#EBC200" d="M34.829,15.212l-1.993,0.438l-0.607,1.578c0.123,0.121,0.296,0.279,0.484,0.618l0.625-1.611
						l1.991-0.438l0.74-1.9l1.814-0.398l-0.147-0.663l-2.17,0.479L34.829,15.212z"/>
					<path fill="#EBC200" d="M30.888,16.627c0,0,0.449,0.046,0.659,0.172l0.239-1.525l1.85-0.854l0.316-2.021l1.672-0.771
						l0.103,0.226l1.355-0.62l-0.515-1.124l-1.355,0.62l0.13,0.282l-2.004,0.925l-0.317,2.021l-1.851,0.854L30.888,16.627z"/>
					<path fill="#EBC200" d="M17.813,11.664l1.697,1.132v2.04l1.355,0.906c0.064-0.02,0.139-0.024,0.224-0.024
						c0.151,0,0.302,0.031,0.446,0.093c0.114,0.047,0.234,0.089,0.351,0.132v-0.338l-1.698-1.132v-1.098l-0.011-0.004l0.011-0.012
						v-0.929L18.492,11.3V9.442h0.22V7.954h-1.235v1.486h0.335L17.813,11.664L17.813,11.664z"/>
					<polygon fill="#EBC200" points="13.739,19.173 15.111,20.682 17.126,20.382 18.208,21.576 18.565,20.959 17.386,19.657 
						15.367,19.958 13.998,18.447 11.978,18.749 10.73,17.371 10.227,17.827 11.721,19.473 					"/>
					<polygon fill="#EBC200" points="37.264,19.306 35.893,20.818 33.877,20.517 32.793,21.711 32.436,21.092 33.615,19.792 
						35.633,20.094 37.007,18.582 39.024,18.884 40.273,17.506 40.775,17.962 39.282,19.609 					"/>
					<path fill="#EBC200" d="M16.977,14.554l0.496,1.979l1.503,0.533c0.265-0.188,0.568-0.323,0.899-0.396l-1.833-0.656
						l-0.495-1.978l-1.921-0.688l-0.452-1.804l-0.659,0.165l0.539,2.151L16.977,14.554z"/>
					<path fill="#EBC200" d="M28.956,12.021l-0.612-2.156l1.207-1.409l-0.517-0.441l-1.443,1.69l0.573,2.021
						C28.165,11.725,28.645,11.823,28.956,12.021z"/>
					<path fill="#EBC200" d="M23.243,11.632l-1.473-1.621l0.45-1.804l-0.659-0.166l-0.541,2.158l1.512,1.661
						C22.894,11.694,23.243,11.632,23.243,11.632z"/>
					<polygon fill="#EBC200" points="29.182,15.923 31.408,12.868 31.285,10.83 32.766,9.707 32.359,9.167 30.586,10.509 
						30.708,12.546 28.251,16.221 					"/>
					<path fill="#EBC200" d="M24.231,6.328l1.117,1.63l-0.852,1.596l0.955,1.788c0.033,0,0.067-0.002,0.102-0.002
						c0.226,0,0.448,0.008,0.669,0.021l0.005-0.01l-0.962-1.799l0.876-1.64L25,6.249l0.21-0.021l-0.147-1.479L23.83,4.873
						l0.152,1.479L24.231,6.328z"/>
					<path fill="#EBC200" d="M11.876,14.737l1.038,1.938l2.031,0.199l0.962,1.8l2.031,0.199l0.004,0.009
						c0.019-0.237,0.072-0.465,0.152-0.677l-1.76-0.172l-0.963-1.803l-2.03-0.194l-0.872-1.636l0.275-0.15l-0.728-1.299
						l-1.079,0.604l0.727,1.299L11.876,14.737z"/>
					<g>
						<path fill="#EBC200" d="M32.761,22.615l-1.092-1.879c0.54-0.353,0.897-0.96,0.897-1.646c0-1.085-0.879-1.967-1.966-1.967
							c-0.031,0-0.063,0.004-0.093,0.005V16.96c0-0.07-0.01-0.142-0.031-0.218c-0.058-0.201-0.187-0.369-0.363-0.476
							c-0.011-0.008-0.078-0.049-0.198-0.049c-0.081,0-0.168,0.021-0.258,0.058c-0.504,0.216-1.058,0.385-1.637,0.513
							c-0.807,0.179-1.665,0.273-2.522,0.273c-0.908,0-1.817-0.104-2.662-0.306c-0.528-0.125-1.033-0.285-1.497-0.479
							c-0.083-0.032-0.167-0.054-0.25-0.054c-0.126,0-0.205,0.043-0.216,0.049c-0.173,0.106-0.298,0.272-0.353,0.471
							c-0.017,0.055-0.032,0.131-0.032,0.229v0.148c-0.026-0.001-0.052-0.006-0.079-0.006c-1.086,0-1.964,0.882-1.964,1.968
							c0,0.688,0.357,1.3,0.897,1.646v0.003l-1.088,1.876c-0.084,0.146-0.106,0.313-0.063,0.478s0.146,0.297,0.29,0.38
							c0.096,0.055,0.203,0.085,0.314,0.085c0.007,0,0.017-0.001,0.024-0.001c0.049,0.144,0.147,0.263,0.278,0.339
							c0.095,0.055,0.203,0.083,0.313,0.083c0.225,0,0.431-0.12,0.542-0.311l0.533-0.918v0.404c0,0.438,0.361,0.789,0.805,0.789
							h8.41c0.445,0,0.806-0.357,0.806-0.806v-0.34V22.7l0.555,0.955c0.11,0.188,0.319,0.312,0.543,0.312
							c0.108,0,0.216-0.029,0.311-0.083c0.131-0.076,0.229-0.196,0.277-0.339c0.009,0,0.017,0.001,0.026,0.001
							c0.111,0,0.219-0.03,0.313-0.085c0.143-0.083,0.247-0.218,0.29-0.38C32.867,22.927,32.844,22.759,32.761,22.615z
							 M18.975,23.029c-0.038,0.065-0.106,0.104-0.18,0.104c-0.039,0-0.071-0.009-0.104-0.027c-0.048-0.024-0.082-0.068-0.094-0.125
							c-0.015-0.054-0.008-0.105,0.02-0.153l1.086-1.871c0.015,0.007,0.029,0.012,0.043,0.021c0.119,0.044,0.238,0.081,0.359,0.105
							L18.975,23.029z M20.503,21.856l-0.913,1.6c-0.038,0.063-0.104,0.104-0.179,0.104c-0.036,0-0.07-0.009-0.102-0.028
							c-0.047-0.023-0.082-0.067-0.096-0.125c-0.015-0.054-0.007-0.104,0.021-0.154l1.215-2.127c0.018,0,0.036,0,0.054,0V21.856
							L20.503,21.856z M20.503,18.618c-0.259,0-0.467,0.209-0.467,0.466c0,0.188,0.115,0.358,0.294,0.433
							c0.057,0.023,0.116,0.034,0.173,0.034v0.381c-0.106,0-0.212-0.019-0.316-0.061c-0.324-0.129-0.532-0.439-0.532-0.788
							c0-0.472,0.38-0.853,0.848-0.853V18.618z M20.503,17.793c-0.712,0-1.293,0.581-1.293,1.292c0,0.524,0.321,1,0.814,1.198
							c0.155,0.063,0.317,0.093,0.479,0.093v0.42c-0.215,0-0.43-0.042-0.635-0.123c-0.654-0.265-1.077-0.887-1.077-1.588
							c0-0.942,0.769-1.71,1.712-1.71V17.793z M29.938,17.436v0.354v1.009v0.379v0.766v0.438h-0.093H29.52h-0.375h-0.711h-0.135
							c-0.206,0.055-0.351,0.229-0.372,0.449c-0.008,0.103,0.024,0.189,0.053,0.251l0.001,0.002l0.001,0.002
							c0.001,0.004,0.004,0.007,0.007,0.011l0.847,1.469l0.36,0.59h-0.719h-0.621h-0.069l0,0h-0.709h-3.099h-0.373h-0.338H23.2
							h-0.677h-0.72l0.36-0.59l0.841-1.46c0.014-0.021,0.024-0.048,0.032-0.076l0.025-0.088c0.008-0.023,0.011-0.058,0.011-0.086
							c0-0.229-0.146-0.417-0.37-0.475h-0.139h-0.7h-0.388h-0.316h-0.094l-0.002-0.438v-0.77V18.8v-1.013v-0.369v-0.201l0.544,0.176
							c0.076,0.024,0.156,0.046,0.24,0.071l0.052,0.015c0.212,0.063,0.434,0.119,0.66,0.168l0.724,0.162l0.776,0.077
							c0.257,0.025,0.494,0.042,0.728,0.056l0.496,0.024l0.45-0.001l0.483-0.022c0.236-0.013,0.476-0.027,0.73-0.056l0.784-0.08
							l0.715-0.16c0.228-0.049,0.453-0.104,0.673-0.17l0.034-0.011c0.086-0.025,0.166-0.048,0.244-0.071l0.544-0.175v0.22h-0.002
							V17.436z M30.503,19.552c0.257,0,0.468-0.209,0.468-0.467c0-0.19-0.117-0.36-0.295-0.436c-0.056-0.021-0.117-0.03-0.172-0.03
							v-0.386c0.107,0,0.211,0.021,0.315,0.063c0.322,0.131,0.532,0.438,0.532,0.787c0,0.469-0.379,0.848-0.847,0.848L30.503,19.552
							L30.503,19.552z M30.503,20.376c0.16,0,0.321-0.032,0.479-0.093c0.494-0.198,0.812-0.674,0.812-1.198
							c0-0.712-0.579-1.292-1.291-1.292v-0.419c0.943,0,1.708,0.768,1.708,1.71c0,0.701-0.42,1.324-1.075,1.588
							c-0.206,0.082-0.418,0.123-0.634,0.123L30.503,20.376L30.503,20.376z M31.793,23.404c-0.016,0.057-0.049,0.1-0.095,0.125
							c-0.033,0.021-0.066,0.027-0.104,0.027c-0.072,0-0.142-0.04-0.178-0.103l-0.912-1.601v-0.73c0.018,0,0.036-0.001,0.054-0.001
							l1.214,2.128C31.8,23.295,31.806,23.349,31.793,23.404z M32.408,22.981c-0.013,0.056-0.048,0.101-0.095,0.125
							c-0.032,0.021-0.066,0.027-0.103,0.027c-0.073,0-0.142-0.039-0.179-0.104l-1.13-1.945c0.12-0.025,0.24-0.063,0.356-0.105
							c0.016-0.008,0.031-0.015,0.046-0.021l1.085,1.871C32.416,22.872,32.424,22.927,32.408,22.981z"/>
						<path fill="#00416F" d="M29.15,17.462l-0.034,0.011c-0.221,0.063-0.446,0.121-0.673,0.17l-0.714,0.16l-0.784,0.08
							c-0.254,0.024-0.493,0.042-0.73,0.056l-0.483,0.022l-0.45,0.001l-0.497-0.024c-0.233-0.013-0.471-0.026-0.728-0.056
							l-0.777-0.077l-0.725-0.162c-0.225-0.05-0.447-0.104-0.659-0.168l-0.052-0.015c-0.084-0.025-0.164-0.048-0.24-0.071
							l-0.544-0.176v0.201v0.371v1.013v0.372v0.769l0.002,0.438h0.094h0.316h0.388h0.7h0.142c0.224,0.058,0.37,0.244,0.37,0.475
							c0,0.029-0.004,0.063-0.011,0.086l-0.025,0.088c-0.008,0.028-0.018,0.057-0.032,0.077l-0.841,1.459l-0.36,0.59h0.719H23.2
							h0.068h0.338h0.373h3.1h0.709l0,0h0.069h0.621h0.72l-0.36-0.59l-0.847-1.469c-0.003-0.003-0.006-0.007-0.007-0.011
							l-0.001-0.001l-0.003-0.005c-0.028-0.061-0.061-0.148-0.053-0.255c0.021-0.218,0.166-0.394,0.372-0.445h-0.003h0.003h0.135
							h0.711h0.376h0.325h0.093v-0.438v-0.766v-0.378v-1.009v-0.354v-0.221l-0.544,0.175C29.317,17.414,29.236,17.437,29.15,17.462z
							"/>
						<path fill="#EBC200" d="M23.911,19.208l0.23-0.228l-0.23-0.223c-0.223-0.218-0.574-0.348-0.941-0.348
							c-0.366,0-0.719,0.129-0.942,0.348l-0.231,0.223l0.231,0.228c0.222,0.217,0.577,0.347,0.942,0.347
							C23.337,19.554,23.689,19.425,23.911,19.208z"/>
						<path fill="#EBC200" d="M29.202,18.984l-0.23-0.224c-0.222-0.217-0.575-0.347-0.941-0.347c-0.366,0-0.719,0.129-0.942,0.347
							l-0.231,0.224l0.231,0.228c0.224,0.216,0.575,0.347,0.942,0.347c0.367,0,0.719-0.129,0.941-0.347L29.202,18.984z"/>
						<path fill="#EBC200" d="M24.324,20.376c0.029,0.047,0.081,0.074,0.137,0.074h2.093c0.056,0,0.108-0.028,0.137-0.076
							c0.03-0.046,0.035-0.105,0.011-0.154l-1.05-1.788c-0.027-0.057-0.084-0.093-0.145-0.093l0,0c-0.064,0-0.122,0.037-0.146,0.095
							l-1.047,1.788C24.29,20.271,24.294,20.33,24.324,20.376z"/>
						<path fill="#00416F" d="M31.351,19.085c0-0.351-0.209-0.656-0.532-0.787c-0.104-0.041-0.208-0.063-0.315-0.063v0.386
							c0.056,0,0.117,0.012,0.173,0.03c0.179,0.072,0.295,0.242,0.295,0.436c0,0.258-0.21,0.467-0.468,0.467v0.381
							C30.971,19.932,31.351,19.554,31.351,19.085z"/>
						<path fill="#00416F" d="M19.655,19.085c0,0.347,0.208,0.658,0.532,0.788c0.104,0.041,0.209,0.061,0.316,0.061v-0.38
							c-0.057,0-0.116-0.012-0.173-0.035c-0.18-0.071-0.294-0.242-0.294-0.433c0-0.257,0.208-0.466,0.467-0.466v-0.387
							C20.035,18.236,19.655,18.617,19.655,19.085z"/>
						<path fill="#00416F" d="M18.791,19.085c0,0.701,0.423,1.324,1.077,1.588c0.206,0.082,0.42,0.123,0.635,0.123v-0.42
							c-0.161,0-0.323-0.032-0.479-0.093c-0.494-0.198-0.814-0.674-0.814-1.198c0-0.712,0.581-1.292,1.293-1.292v-0.419
							C19.559,17.374,18.791,18.142,18.791,19.085z"/>
						<path fill="#00416F" d="M19.747,20.975c-0.015-0.008-0.029-0.014-0.043-0.02l-1.087,1.871
							c-0.028,0.046-0.035,0.102-0.021,0.152c0.014,0.057,0.048,0.102,0.095,0.125c0.033,0.021,0.064,0.027,0.103,0.027
							c0.074,0,0.141-0.039,0.18-0.104l1.131-1.946C19.985,21.055,19.865,21.019,19.747,20.975z"/>
						<path fill="#00416F" d="M19.233,23.246c-0.027,0.049-0.034,0.104-0.02,0.154c0.015,0.057,0.049,0.1,0.096,0.125
							c0.032,0.021,0.066,0.027,0.102,0.027c0.075,0,0.141-0.04,0.179-0.103l0.913-1.601V21.12c-0.018,0-0.036-0.001-0.054-0.001
							L19.233,23.246z"/>
						<path fill="#00416F" d="M32.213,19.085c0-0.942-0.766-1.71-1.709-1.71v0.419c0.712,0,1.292,0.581,1.292,1.292
							c0,0.524-0.319,1-0.813,1.198c-0.158,0.063-0.318,0.093-0.479,0.093v0.42c0.215,0,0.429-0.042,0.635-0.123
							C31.791,20.408,32.213,19.786,32.213,19.085z"/>
						<path fill="#00416F" d="M31.303,20.954c-0.015,0.007-0.03,0.012-0.046,0.021c-0.116,0.044-0.236,0.081-0.356,0.105l1.13,1.945
							c0.036,0.065,0.105,0.104,0.179,0.104c0.036,0,0.07-0.009,0.103-0.027c0.048-0.024,0.083-0.068,0.095-0.125
							c0.016-0.054,0.007-0.105-0.02-0.153L31.303,20.954z"/>
						<path fill="#00416F" d="M30.557,21.119c-0.018,0-0.036,0.001-0.054,0.001v0.73l0.912,1.601
							c0.037,0.063,0.106,0.103,0.178,0.103c0.038,0,0.072-0.009,0.104-0.028c0.047-0.023,0.08-0.068,0.095-0.125
							c0.014-0.055,0.007-0.104-0.022-0.153L30.557,21.119z"/>
					</g>
				</g>
				<g>
					<path fill="#EBC200" d="M25.528,21.357c-0.931,0-1.715,0.452-1.96,1.072h3.92C27.243,21.808,26.46,21.357,25.528,21.357z"/>
				</g>
			</g>
			<g>
				<path fill="#EBC200" d="M27.711,15.338c-0.356,0-0.541,0.188-0.69,0.338c-0.124,0.126-0.215,0.219-0.404,0.219
					c-0.191,0-0.281-0.092-0.405-0.219c-0.087-0.088-0.185-0.185-0.322-0.253c0.002-0.129,0.003-0.299,0.006-0.466
					c0.002-0.207,0.003-0.413,0.007-0.524c0.023-0.839,0.227-1.872,1.056-2.021c0.363-0.065,0.711,0.175,0.778,0.532
					c0.05,0.271-0.128,0.527-0.397,0.576c-0.194,0.035-0.38-0.093-0.414-0.287c-0.025-0.132,0.061-0.262,0.196-0.281
					c0.05-0.016,0.098,0.004,0.136,0.035c0.079,0.072,0.202,0.067,0.276-0.013c0.077-0.08,0.072-0.203-0.01-0.277
					c-0.125-0.115-0.304-0.169-0.475-0.137c-0.347,0.063-0.579,0.396-0.514,0.744c0.074,0.406,0.467,0.676,0.875,0.604
					c0.484-0.091,0.805-0.555,0.713-1.031c-0.105-0.576-0.658-0.957-1.234-0.854c-0.802,0.147-1.269,0.873-1.363,2.106
					c-0.095-1.234-0.563-1.959-1.363-2.106c-0.574-0.104-1.129,0.277-1.236,0.854c-0.088,0.479,0.231,0.939,0.713,1.031
					c0.408,0.071,0.799-0.194,0.875-0.604c0.064-0.347-0.166-0.68-0.515-0.744c-0.146-0.024-0.29,0.003-0.411,0.087
					c-0.091,0.063-0.112,0.187-0.052,0.273s0.184,0.112,0.275,0.052c0.033-0.021,0.077-0.035,0.116-0.021
					c0.134,0.021,0.222,0.148,0.198,0.281c-0.035,0.192-0.222,0.322-0.415,0.287c-0.269-0.049-0.448-0.309-0.397-0.576
					c0.067-0.357,0.416-0.602,0.777-0.532c0.829,0.149,1.03,1.187,1.055,2.021c0.003,0.112,0.004,0.317,0.006,0.524
					c0.003,0.166,0.005,0.335,0.008,0.463c-0.138,0.064-0.236,0.167-0.324,0.255c-0.13,0.133-0.214,0.219-0.406,0.219
					c-0.189,0-0.274-0.085-0.404-0.219c-0.146-0.15-0.333-0.338-0.688-0.338c-0.109,0-0.196,0.088-0.196,0.197
					c0,0.104,0.087,0.192,0.196,0.192c0.191,0,0.277,0.089,0.407,0.226c0.146,0.146,0.331,0.336,0.685,0.336
					c0.357,0,0.54-0.188,0.687-0.336c0.131-0.137,0.217-0.226,0.407-0.226c0.188,0,0.279,0.091,0.405,0.226
					c0.146,0.146,0.33,0.336,0.688,0.336c0.355,0,0.541-0.188,0.689-0.336c0.125-0.135,0.215-0.226,0.405-0.226
					c0.107,0,0.195-0.088,0.195-0.192C27.907,15.426,27.819,15.338,27.711,15.338z"/>
				<path fill="#EBC200" d="M24.382,15.56c-0.24,0-0.494-0.229-0.625-0.572c-0.07-0.175-0.095-0.356-0.076-0.518
					c0.024-0.194,0.126-0.341,0.274-0.398c0.042-0.015,0.087-0.021,0.133-0.021c0.244,0,0.494,0.229,0.627,0.572
					c0.161,0.416,0.074,0.812-0.198,0.916C24.473,15.551,24.429,15.56,24.382,15.56z M24.07,14.395
					c-0.019,0.022-0.059,0.206,0.039,0.456c0.094,0.245,0.238,0.355,0.288,0.362c0.026-0.032,0.059-0.21-0.035-0.457
					C24.264,14.5,24.114,14.395,24.07,14.395z"/>
				<path fill="#EBC200" d="M26.671,15.56c-0.047,0-0.093-0.009-0.136-0.021c-0.273-0.104-0.356-0.5-0.197-0.916
					c0.158-0.409,0.497-0.649,0.763-0.552c0.149,0.061,0.247,0.204,0.271,0.398c0.02,0.158-0.005,0.342-0.074,0.518
					C27.165,15.329,26.913,15.56,26.671,15.56z M26.971,14.385c-0.033,0.006-0.182,0.115-0.281,0.371
					c-0.092,0.242-0.063,0.417-0.032,0.461c0.054-0.012,0.194-0.124,0.286-0.364C27.043,14.598,27.004,14.416,26.971,14.385z"/>
			</g>
		</g>
		<g>
			<path fill="#FFFFFF" d="M16.927,51.869c0.018-0.013,0.037-0.021,0.056-0.027c0.116-0.069,0.239-0.107,0.362-0.121
				c0.066-0.006,0.132-0.006,0.197,0.003c0.246,0.032,0.472,0.177,0.614,0.415c0.001,0.002,0.003,0.004,0.004,0.007l2.471,4.28
				v0.001c-0.186,0.039-0.365,0.106-0.534,0.202c-0.041,0.021-1.826,1.055-2.861,1.655l-2.853-4.943l1.929-1.114L16.927,51.869z"/>
			<g>
				<polygon fill="#EBC200" points="22.408,49.194 25.006,53.694 25.006,52.843 22.775,48.981 				"/>
				<path fill="#EBC200" d="M21.882,56.568c-0.242,0.144-0.408,0.374-0.456,0.646l-0.019,0.104l-0.104-0.034
					c-0.261-0.097-0.547-0.066-0.786,0.067c-0.074,0.043-1.418,0.818-2.44,1.409c-0.15,0.088-0.294,0.171-0.425,0.247
					c0.044,0.043,0.089,0.085,0.134,0.128c0.064,0.063,0.127,0.121,0.194,0.183c1.038-0.601,2.707-1.563,2.744-1.586
					c0.066-0.04,0.253-0.103,0.292-0.09l0.41,0.154l0.33,0.125l0.059-0.354l0.072-0.433c0.006-0.039,0.156-0.168,0.221-0.204
					c0.04-0.021,1.882-1.088,2.901-1.674v-0.499C24.059,55.312,21.972,56.515,21.882,56.568z"/>
				<polygon points="18.16,52.147 18.156,52.14 18.158,52.147 20.631,56.428 20.632,56.426 				"/>
				
					<rect x="15.764" y="54.133" transform="matrix(0.8661 -0.4998 0.4998 0.8661 -24.8639 15.8714)" fill="#91142B" width="2.862" height="0.432"/>
				
					<rect x="16.364" y="55.165" transform="matrix(0.8662 -0.4998 0.4998 0.8662 -25.2957 16.3058)" fill="#91142B" width="2.863" height="0.43"/>
				
					<rect x="16.969" y="56.205" transform="matrix(0.8663 -0.4996 0.4996 0.8663 -25.7252 16.7358)" fill="#91142B" width="2.86" height="0.432"/>
				<path fill="#00416F" d="M20.68,58.456c-0.035-0.061-0.06-0.116-0.082-0.179c-0.287,0.164-0.67,0.39-1.05,0.605
					c0.027,0.058,0.057,0.115,0.089,0.169c0.003,0.009,0.009,0.016,0.013,0.021l-0.479,0.443l0.32,0.406l0.546-0.356
					c0.178,0.177,0.379,0.313,0.596,0.426l-0.162,0.631l0.489,0.168l0.269-0.599c0.236,0.052,0.485,0.063,0.731,0.035l0.206,0.615
					l0.504-0.123l-0.096-0.643c0.114-0.045,0.226-0.102,0.337-0.16c0.106-0.063,0.206-0.13,0.302-0.206l0.506,0.406l0.358-0.374
					l-0.429-0.486c0.146-0.201,0.259-0.422,0.339-0.652l0.648,0.066l0.101-0.507L24.11,57.99c0.015-0.238-0.006-0.483-0.066-0.729
					l0.583-0.294l-0.191-0.479l-0.625,0.19c-0.005-0.01-0.01-0.018-0.014-0.026c-0.033-0.057-0.068-0.106-0.104-0.157
					c-0.378,0.218-0.764,0.438-1.05,0.604c0.041,0.049,0.079,0.102,0.112,0.157c0.329,0.566,0.131,1.301-0.44,1.631
					C21.739,59.22,21.008,59.026,20.68,58.456z"/>
				<path fill="#EBC200" d="M18.302,44.881c0.006,0.203,0.054,0.437,0.168,0.7l0.151,0.452l0.353-0.432c0,0,0.087-0.078,0.183-0.214
					c-0.204-0.122-0.406-0.245-0.612-0.367C18.466,44.977,18.385,44.929,18.302,44.881z"/>
				<path fill="#EBC200" d="M16.759,51.452c-0.027,0.017-0.06,0.028-0.09,0.047c0.001,0,0.001,0,0.001,0
					C16.698,51.485,16.73,51.469,16.759,51.452z"/>
				<path fill="#91142B" d="M16.966,52.846l0.279,0.336l-1.781,1.024l-0.216-0.374L16.966,52.846z"/>
				<path fill="#EBC200" d="M22.753,57.258c-0.033-0.057-0.071-0.108-0.112-0.157c0.286-0.165,0.671-0.388,1.05-0.604
					c0.036,0.052,0.071,0.104,0.104,0.159c0.004,0.011,0.009,0.02,0.014,0.024l0.625-0.188l0.191,0.479l-0.583,0.294
					c0.06,0.241,0.082,0.486,0.066,0.729l0.626,0.176l-0.101,0.508l-0.648-0.066c-0.08,0.23-0.193,0.45-0.339,0.651l0.429,0.487
					l-0.358,0.374l-0.506-0.406c-0.096,0.076-0.196,0.144-0.302,0.206c-0.111,0.062-0.223,0.116-0.337,0.16l0.096,0.642
					l-0.504,0.124l-0.206-0.615c-0.245,0.025-0.494,0.016-0.731-0.032l-0.269,0.596l-0.489-0.168L20.631,60
					c-0.217-0.109-0.417-0.249-0.596-0.423l-0.546,0.354l-0.32-0.406l0.479-0.442c-0.004-0.007-0.01-0.018-0.013-0.021
					c-0.033-0.054-0.063-0.107-0.089-0.169c0.379-0.22,0.764-0.438,1.05-0.604c0.021,0.059,0.047,0.114,0.082,0.175
					c0.328,0.565,1.059,0.765,1.633,0.433C22.884,58.558,23.082,57.828,22.753,57.258z"/>
				<path fill="#FFFFFF" d="M18.548,51.921l2.472,4.283c0.125-0.146,0.274-0.269,0.442-0.361c0.04-0.023,1.827-1.056,2.863-1.653
					l-2.853-4.938l-2.428,1.397l-0.019,0.017l-0.034,0.014l-0.004,0.003c-0.012,0.008-0.026,0.02-0.04,0.024
					c-0.025,0.017-0.051,0.028-0.075,0.047c-0.426,0.245-0.564,0.744-0.327,1.164C18.547,51.918,18.547,51.918,18.548,51.921z
					 M23.48,53.735L21,55.165l-0.214-0.374l2.477-1.435L23.48,53.735z M22.88,52.696l-2.479,1.435l-0.215-0.373l2.48-1.436
					L22.88,52.696z M22.28,51.656L19.8,53.09l-0.213-0.373l2.478-1.432L22.28,51.656z M21.464,50.245l0.216,0.375l-2.479,1.429
					l-0.215-0.373L21.464,50.245z"/>
				<polygon fill="#FFFFFF" points="18.545,51.915 18.548,51.921 21.02,56.204 21.02,56.204 18.548,51.921 				"/>
				
					<rect x="19.502" y="51.967" transform="matrix(0.8662 -0.4997 0.4997 0.8662 -23.2747 17.4427)" fill="#91142B" width="2.863" height="0.432"/>
				
					<rect x="20.103" y="53.013" transform="matrix(0.8662 -0.4997 0.4997 0.8662 -23.7147 17.8802)" fill="#91142B" width="2.861" height="0.429"/>
				
					<rect x="20.704" y="54.046" transform="matrix(0.8662 -0.4997 0.4997 0.8662 -24.1529 18.3213)" fill="#91142B" width="2.863" height="0.432"/>
				
					<rect x="20.117" y="49.717" transform="matrix(-0.5008 -0.8656 0.8656 -0.5008 -13.7597 94.3614)" fill="#91142B" width="0.431" height="2.862"/>
				<path fill="#EBC200" d="M21.637,48.636l-2.818,1.628l-0.173,0.099c-0.399,0.231-0.63,0.621-0.662,1.032
					c-0.11-0.053-0.226-0.088-0.347-0.105l0.237-1.099c0.125-0.008,0.336-0.016,0.588-0.111c0.057-0.024,0.128-0.063,0.197-0.108
					c0.065-0.034,0.133-0.086,0.204-0.146c0.007-0.007,0.018-0.02,0.03-0.028c0.164-0.154,0.278-0.347,0.367-0.533
					c0.048-0.111,0.098-0.226,0.128-0.332c0.012-0.043,0.026-0.08,0.041-0.125c0.04-0.163,0.064-0.271,0.064-0.271
					s-0.079-0.01-0.199,0.004c-0.048,0.007-0.101,0.01-0.16,0.021c-0.132,0.024-0.29,0.069-0.444,0.151
					c-0.103,0.052-0.197,0.126-0.303,0.217c-0.152,0.146-0.271,0.332-0.355,0.501l0.143-0.73c0.075-0.018,0.174-0.016,0.29-0.032
					c0.081-0.021,0.167-0.039,0.269-0.075c0.095-0.041,0.182-0.085,0.274-0.141c0.068-0.056,0.134-0.098,0.194-0.156
					c0.004-0.011,0.016-0.018,0.016-0.024c0.091-0.077,0.158-0.173,0.219-0.27c0.119-0.191,0.204-0.394,0.264-0.563
					c0.041-0.11,0.065-0.201,0.071-0.274c0.03-0.084,0.028-0.133,0.028-0.133s-0.059-0.006-0.165,0.005
					c-0.057,0.01-0.126,0.012-0.195,0.021c-0.087,0.021-0.183,0.046-0.286,0.087c-0.15,0.065-0.314,0.14-0.461,0.289
					c-0.147,0.146-0.266,0.327-0.345,0.502l0.15-0.747c0.144-0.004,0.42-0.025,0.708-0.17c0.104-0.066,0.212-0.132,0.313-0.234
					c0.022-0.021,0.041-0.049,0.063-0.066c0.012-0.013,0.026-0.031,0.047-0.042c0.123-0.148,0.211-0.314,0.279-0.471
					c0.043-0.105,0.076-0.195,0.103-0.275c-0.146-0.089-0.29-0.184-0.436-0.271c-0.02-0.016-0.043-0.024-0.064-0.04
					c-0.074,0.024-0.148,0.06-0.223,0.104c-0.096,0.054-0.191,0.121-0.279,0.205c-0.178,0.178-0.305,0.39-0.402,0.596
					c-0.049,0.124-0.089,0.232-0.12,0.336l-0.06-0.019c0.013-0.093,0.02-0.2,0.022-0.325c-0.005-0.231-0.027-0.49-0.12-0.729
					c-0.059-0.113-0.111-0.207-0.183-0.296c-0.125-0.167-0.278-0.281-0.411-0.375c-0.083-0.05-0.161-0.081-0.206-0.104
					c-0.001,0-0.077-0.03-0.078-0.037l-0.034,0.188c-0.026,0.154-0.053,0.399-0.038,0.66c0.018,0.149,0.048,0.299,0.09,0.448
					c0.002,0.007,0,0.021,0.013,0.021c0.007,0.028,0.012,0.063,0.025,0.085c0.059,0.141,0.146,0.266,0.233,0.368
					c0.192,0.226,0.422,0.342,0.542,0.396l-0.155,0.749c-0.006-0.194-0.041-0.406-0.119-0.601c-0.069-0.167-0.173-0.307-0.273-0.414
					c-0.077-0.072-0.15-0.139-0.222-0.188c-0.072-0.052-0.129-0.085-0.2-0.112c-0.096-0.063-0.163-0.088-0.163-0.088
					s-0.016,0.065-0.039,0.161c-0.016,0.072-0.021,0.166-0.032,0.277c-0.017,0.194-0.019,0.434,0.023,0.66
					c0.026,0.101,0.05,0.198,0.09,0.302c0.005,0.002,0.007,0.008,0.012,0.013c0.033,0.084,0.072,0.146,0.122,0.217
					c0.066,0.102,0.138,0.188,0.22,0.256c0.072,0.068,0.147,0.128,0.216,0.173c0.083,0.051,0.158,0.089,0.21,0.104l-0.146,0.746
					c-0.011-0.179-0.049-0.362-0.115-0.55c-0.002-0.019-0.01-0.028-0.019-0.046c-0.039-0.112-0.1-0.204-0.157-0.29
					c-0.112-0.146-0.239-0.256-0.359-0.34c-0.049-0.028-0.088-0.063-0.136-0.086c-0.121-0.063-0.207-0.099-0.207-0.099
					s-0.037,0.126-0.058,0.313c0.001,0.049-0.002,0.096-0.015,0.146c-0.001,0.109-0.007,0.233,0.001,0.36
					c0.011,0.188,0.045,0.396,0.123,0.586c0.016,0.021,0.024,0.052,0.041,0.063c0.034,0.084,0.075,0.146,0.119,0.214
					c0.048,0.063,0.097,0.125,0.152,0.169c0.173,0.178,0.363,0.271,0.46,0.316l-0.219,1.123c-0.229-0.003-0.46,0.06-0.678,0.187
					c-0.028,0.017-0.06,0.03-0.09,0.047c0,0,0,0-0.001,0c-0.109-0.16-0.217-0.32-0.326-0.48l0.054-1.179
					c-0.108-0.419-0.316-0.771-0.456-0.994C15.408,48,14.968,46.89,14.727,46.12c-0.074,0.084-0.32,0.566-0.381,0.677
					c0.021-0.161,0.11-0.78,0.285-0.938c-0.17-0.729-0.356-1.455-0.326-2.228c0.015-0.366,0.012-0.646-0.493-0.178
					c-0.517,0.477-0.442,1.189-0.387,1.573c-0.146-0.192-0.176-0.794-0.187-1.01c-1.104,1.559-0.059,4.366,1.001,6.267
					c0.084,0.118,0.326,0.446,0.417,0.548l1.406,0.405c0.105,0.151,0.208,0.301,0.309,0.438c0.094,0.127,0.186,0.248,0.274,0.36
					c0.187,0.229,0.362,0.434,0.522,0.59c0.018,0.018,0.037,0.035,0.054,0.053c0.215,0.197,0.397,0.31,0.534,0.31
					c-0.129-0.159-0.257-0.324-0.379-0.492c-0.049-0.064-0.097-0.134-0.144-0.196c-0.103-0.14-0.206-0.283-0.306-0.424
					c0.019-0.014,0.037-0.021,0.057-0.029c0.116-0.068,0.239-0.106,0.362-0.12c0.067-0.006,0.132-0.006,0.198,0.002
					c0.247,0.033,0.472,0.178,0.614,0.416c0,0.002,0.002,0.003,0.004,0.007l2.471,4.279l-0.001,0.003
					c-0.185,0.037-0.365,0.105-0.533,0.201c-0.041,0.021-1.827,1.054-2.862,1.654l-2.853-4.941l1.929-1.114
					c-0.09-0.109-0.183-0.229-0.275-0.357l-2.268,1.31l0.459,0.794l2.139,3.706l0.704,1.221c0.086-0.048,0.185-0.104,0.292-0.17
					c0.154-0.088,0.331-0.188,0.517-0.299c1.037-0.599,2.407-1.391,2.442-1.411c0.174-0.102,0.361-0.154,0.55-0.173
					c0.088-0.007,0.177-0.005,0.264,0.005c0.035-0.081,0.076-0.157,0.125-0.229c0.108-0.154,0.25-0.288,0.424-0.395
					c0.047-0.021,2.372-1.362,3.252-1.875L21.637,48.636z M15.365,50.366c-1.502-2.281-2.038-4.785-1.529-6.332
					c-0.268,1.625,0.565,4.334,2.037,6.511L15.365,50.366z M21.461,55.843c-0.167,0.097-0.316,0.219-0.442,0.361l0,0l-2.472-4.283
					c-0.001-0.002-0.001-0.003-0.003-0.006c-0.237-0.42-0.099-0.919,0.327-1.164c0.024-0.019,0.05-0.03,0.076-0.047
					c0.014-0.013,0.027-0.021,0.04-0.024l0.004-0.003l0.034-0.014l0.018-0.017l2.428-1.397l2.853,4.938
					C23.288,54.788,21.502,55.82,21.461,55.843z"/>
			</g>
		</g>
	</g>
</g>
<g enable-background="new    ">
	<path fill="#FFFFFF" d="M68.367,18.747v-0.055c0-5.447,4.079-9.909,9.882-9.909c3.531,0,5.667,1.231,7.5,2.983l-2.163,2.491
		c-1.533-1.424-3.175-2.382-5.365-2.382c-3.668,0-6.323,3.012-6.323,6.762v0.055c0,3.75,2.655,6.816,6.323,6.816
		c2.354,0,3.86-0.958,5.502-2.491l2.163,2.189c-1.999,2.081-4.188,3.395-7.774,3.395C72.527,28.602,68.367,24.249,68.367,18.747z"/>
	<path fill="#FFFFFF" d="M87.968,21.129v-0.055c0-4.134,3.285-7.556,7.72-7.556c4.435,0,7.692,3.367,7.692,7.501v0.055
		c0,4.105-3.285,7.527-7.747,7.527C91.226,28.602,87.968,25.236,87.968,21.129z M100.068,21.129v-0.055
		c0-2.546-1.834-4.654-4.435-4.654c-2.655,0-4.352,2.081-4.352,4.6v0.055c0,2.519,1.834,4.653,4.407,4.653
		C98.371,25.728,100.068,23.62,100.068,21.129z"/>
	<path fill="#FFFFFF" d="M106.749,13.821h3.312v2.189c0.931-1.286,2.19-2.491,4.407-2.491c2.081,0,3.531,1.013,4.298,2.546
		c1.177-1.533,2.71-2.546,4.9-2.546c3.148,0,5.064,1.998,5.064,5.529v9.226h-3.313v-8.212c0-2.3-1.068-3.531-2.93-3.531
		c-1.806,0-3.093,1.259-3.093,3.586v8.157h-3.313v-8.239c0-2.245-1.095-3.504-2.929-3.504c-1.834,0-3.093,1.368-3.093,3.613v8.13
		h-3.312V13.821z"/>
	<path fill="#FFFFFF" d="M132.592,23.018v-9.197h3.313v8.212c0,2.244,1.121,3.531,3.093,3.531c1.916,0,3.257-1.342,3.257-3.586
		v-8.157h3.313v14.453h-3.313v-2.245c-0.93,1.369-2.271,2.546-4.516,2.546C134.48,28.574,132.592,26.385,132.592,23.018z"/>
	<path fill="#FFFFFF" d="M149.729,13.821h3.313v2.244c0.932-1.369,2.273-2.546,4.518-2.546c3.258,0,5.146,2.19,5.146,5.558v9.197
		h-3.313v-8.212c0-2.245-1.123-3.531-3.094-3.531c-1.916,0-3.258,1.341-3.258,3.586v8.157h-3.313V13.821z"/>
	<path fill="#FFFFFF" d="M166.756,8.454h3.561v3.148h-3.561V8.454z M166.895,13.821h3.311v14.453h-3.311V13.821z"/>
	<path fill="#FFFFFF" d="M173.738,21.129v-0.055c0-4.106,3.176-7.556,7.5-7.556c2.738,0,4.436,1.013,5.777,2.491l-2.055,2.218
		c-1.012-1.068-2.08-1.808-3.75-1.808c-2.408,0-4.16,2.081-4.16,4.6v0.055c0,2.573,1.779,4.653,4.324,4.653
		c1.561,0,2.711-0.739,3.75-1.807l2,1.971c-1.424,1.588-3.094,2.71-5.914,2.71C176.914,28.602,173.738,25.236,173.738,21.129z"/>
	<path fill="#FFFFFF" d="M199.006,28.274v-1.779c-0.986,1.177-2.49,2.08-4.682,2.08c-2.736,0-5.146-1.56-5.146-4.462v-0.055
		c0-3.202,2.492-4.735,5.859-4.735c1.752,0,2.873,0.246,3.996,0.602v-0.273c0-1.998-1.26-3.093-3.559-3.093
		c-1.615,0-2.82,0.355-4.133,0.903l-0.904-2.655c1.588-0.712,3.148-1.205,5.502-1.205c4.271,0,6.352,2.245,6.352,6.104v8.568
		H199.006z M199.088,22.224c-0.848-0.328-2.025-0.575-3.313-0.575c-2.08,0-3.313,0.849-3.313,2.245v0.055
		c0,1.369,1.232,2.136,2.793,2.136c2.189,0,3.832-1.232,3.832-3.039V22.224z"/>
	<path fill="#FFFFFF" d="M205.439,21.129v-0.055c0-4.106,3.176-7.556,7.5-7.556c2.738,0,4.436,1.013,5.777,2.491l-2.055,2.218
		c-1.012-1.068-2.08-1.808-3.75-1.808c-2.408,0-4.16,2.081-4.16,4.6v0.055c0,2.573,1.779,4.653,4.324,4.653
		c1.561,0,2.711-0.739,3.75-1.807l2,1.971c-1.424,1.588-3.094,2.71-5.914,2.71C208.615,28.602,205.439,25.236,205.439,21.129z"/>
	<path fill="#FFFFFF" d="M221.92,8.454h3.559v3.148h-3.559V8.454z M222.057,13.821h3.313v14.453h-3.313V13.821z"/>
	<path fill="#FFFFFF" d="M228.9,21.129v-0.055c0-4.134,3.285-7.556,7.721-7.556c4.434,0,7.691,3.367,7.691,7.501v0.055
		c0,4.105-3.285,7.527-7.746,7.527C232.158,28.602,228.9,25.236,228.9,21.129z M241,21.129v-0.055c0-2.546-1.834-4.654-4.434-4.654
		c-2.656,0-4.354,2.081-4.354,4.6v0.055c0,2.519,1.834,4.653,4.408,4.653C239.303,25.728,241,23.62,241,21.129z M238.209,7.496
		l3.012,1.342l-3.34,3.147h-2.574L238.209,7.496z"/>
	<path fill="#FFFFFF" d="M247.682,13.821h3.313v2.244c0.93-1.369,2.271-2.546,4.516-2.546c3.258,0,5.146,2.19,5.146,5.558v9.197
		h-3.313v-8.212c0-2.245-1.121-3.531-3.092-3.531c-1.916,0-3.258,1.341-3.258,3.586v8.157h-3.313V13.821z"/>
</g>
<text transform="matrix(1 0 0 1 240.2207 28.2737)" fill="#FFFFFF" font-family="'Gotham_MonoSpace_Numbers_Narrow-Book'" font-size="27.3765"> </text>
<g enable-background="new    ">
	<path fill="#FFFFFF" d="M67.929,58.333l2.025-2.409c1.834,1.588,3.668,2.491,6.05,2.491c2.081,0,3.395-0.958,3.395-2.409v-0.055
		c0-1.368-0.767-2.107-4.325-2.929c-4.079-0.985-6.378-2.19-6.378-5.722v-0.055c0-3.285,2.738-5.557,6.542-5.557
		c2.792,0,5.01,0.849,6.953,2.409l-1.807,2.545c-1.725-1.286-3.449-1.971-5.201-1.971c-1.971,0-3.121,1.013-3.121,2.272V47
		c0,1.479,0.876,2.135,4.544,3.011c4.052,0.985,6.16,2.437,6.16,5.612v0.055c0,3.586-2.82,5.721-6.844,5.721
		C72.993,61.399,70.228,60.386,67.929,58.333z"/>
	<path fill="#FFFFFF" d="M85.559,53.981v-0.055c0-4.134,3.285-7.556,7.72-7.556c4.435,0,7.692,3.367,7.692,7.501v0.055
		c0,4.105-3.285,7.527-7.747,7.527C88.816,61.453,85.559,58.087,85.559,53.981z M97.659,53.981v-0.055
		c0-2.546-1.834-4.654-4.435-4.654c-2.655,0-4.352,2.081-4.352,4.6v0.055c0,2.519,1.834,4.653,4.407,4.653
		C95.961,58.579,97.659,56.472,97.659,53.981z"/>
	<path fill="#FFFFFF" d="M103.545,53.981v-0.055c0-4.106,3.175-7.556,7.5-7.556c2.737,0,4.435,1.013,5.776,2.491l-2.053,2.218
		c-1.013-1.068-2.081-1.808-3.75-1.808c-2.409,0-4.161,2.081-4.161,4.6v0.055c0,2.573,1.779,4.653,4.325,4.653
		c1.561,0,2.71-0.739,3.75-1.807l1.998,1.971c-1.423,1.588-3.093,2.71-5.913,2.71C106.721,61.453,103.545,58.087,103.545,53.981z"/>
	<path fill="#FFFFFF" d="M120.026,41.306h3.558v3.148h-3.558V41.306z M120.163,46.672h3.312v14.453h-3.312V46.672z"/>
	<path fill="#FFFFFF" d="M136.643,61.125v-1.779c-0.985,1.177-2.491,2.08-4.682,2.08c-2.736,0-5.146-1.56-5.146-4.462v-0.055
		c0-3.202,2.492-4.735,5.859-4.735c1.752,0,2.873,0.246,3.996,0.602v-0.273c0-1.998-1.26-3.093-3.559-3.093
		c-1.615,0-2.82,0.355-4.134,0.903l-0.903-2.655c1.588-0.712,3.148-1.205,5.502-1.205c4.271,0,6.352,2.245,6.352,6.104v8.568
		H136.643z M136.725,55.075c-0.849-0.328-2.025-0.575-3.313-0.575c-2.08,0-3.313,0.849-3.313,2.245V56.8
		c0,1.369,1.232,2.136,2.793,2.136c2.189,0,3.832-1.232,3.832-3.039V55.075z"/>
	<path fill="#FFFFFF" d="M144.063,41.142h3.313v19.983h-3.313V41.142z"/>
</g>
</svg>
