<?xml version="1.0" encoding="utf-8"?>
<!-- Generator: Adobe Illustrator 16.0.0, SVG Export Plug-In . SVG Version: 6.00 Build 0)  -->
<!DOCTYPE svg PUBLIC "-//W3C//DTD SVG 1.1//EN" "http://www.w3.org/Graphics/SVG/1.1/DTD/svg11.dtd">
<svg version="1.1" id="Capa_1" xmlns="http://www.w3.org/2000/svg" xmlns:xlink="http://www.w3.org/1999/xlink" x="0px" y="0px"
	 width="229.555px" height="157.979px" viewBox="-38.044 -34.771 229.555 157.979"
	 enable-background="new -38.044 -34.771 229.555 157.979" xml:space="preserve">
<g id="Capa_2" display="none">
</g>
<g id="Capa_1_1_">
	<line fill="none" stroke="#FFFFFF" stroke-miterlimit="10" x1="-18.985" y1="117.568" x2="-7.609" y2="117.568"/>
	<line fill="none" stroke="#FFFFFF" stroke-miterlimit="10" x1="-32.209" y1="102.35" x2="-32.209" y2="89.321"/>
	<g>
		<line fill="none" stroke="#FFFFFF" stroke-miterlimit="10" x1="-32.209" y1="78.772" x2="-32.209" y2="72.548"/>
	</g>
	<g>
		<line fill="none" stroke="#FFFFFF" stroke-miterlimit="10" x1="-26.959" y1="117.957" x2="-33.182" y2="117.957"/>
		<line fill="none" stroke="#FFFFFF" stroke-miterlimit="10" x1="-32.404" y1="112.511" x2="-32.404" y2="118.735"/>
	</g>
	<line fill="none" stroke="#FFFFFF" stroke-miterlimit="10" x1="1.24" y1="117.568" x2="12.616" y2="117.568"/>
	<line fill="none" stroke="#FFFFFF" stroke-miterlimit="10" x1="19.909" y1="117.568" x2="31.285" y2="117.568"/>
	<line fill="none" stroke="#FFFFFF" stroke-miterlimit="10" x1="58.804" y1="117.568" x2="70.18" y2="117.568"/>
	<line fill="none" stroke="#FFFFFF" stroke-miterlimit="10" x1="77.473" y1="117.568" x2="88.849" y2="117.568"/>
	<line fill="none" stroke="#FFFFFF" stroke-miterlimit="10" x1="38.579" y1="117.568" x2="49.955" y2="117.568"/>
	<line fill="none" stroke="#FFFFFF" stroke-miterlimit="10" x1="97.114" y1="117.568" x2="108.491" y2="117.568"/>
	<g>
		<path fill="#FFFFFF" d="M43.744,83.076c0.907,2.148-0.109,4.652-2.259,5.56L1.283,105.608c-2.15,0.906-4.651-0.109-5.56-2.261
			l-21.277-50.399c-0.907-2.152,0.109-4.653,2.259-5.561l40.201-16.972c2.15-0.907,4.652,0.108,5.561,2.261L43.744,83.076z"/>
		<path fill="#009BDB" d="M41.586,83.988c0.406,0.96-0.052,2.084-1.011,2.49L0.373,103.45c-0.959,0.404-2.083-0.052-2.489-1.013
			l-21.278-50.4c-0.406-0.961,0.052-2.085,1.011-2.492l40.202-16.97c0.959-0.406,2.085,0.051,2.49,1.011L41.586,83.988z"/>
		<path fill="#FFFFFF" d="M0.143,33.477l-0.258-0.611c-0.297-0.707-1.115-1.032-1.813-0.738l-7.002,2.956
			c-0.696,0.294-1.035,1.107-0.737,1.814l0.258,0.613L0.143,33.477z"/>
		<path fill="#FFFFFF" d="M3.412,32.628l-2.533,1.07l-0.544,0.229L-9.22,37.96l-0.399,0.168l-2.676,1.13
			c-0.697,0.294-1.034,1.106-0.74,1.805l2.065,4.894c0.294,0.698,1.116,1.032,1.814,0.738l15.706-6.63
			c0.697-0.294,1.032-1.117,0.738-1.814l-2.066-4.895C4.927,32.658,4.109,32.334,3.412,32.628L3.412,32.628z"/>
		<path fill="#FFFFFF" d="M-8.114,60.717l-7.002,2.955c-0.187,0.081-0.404-0.007-0.484-0.194l-2.956-7.004
			c-0.075-0.178,0.013-0.396,0.199-0.476l7.002-2.956c0.188-0.079,0.405,0.009,0.481,0.189l2.957,7.003
			C-7.838,60.42-7.927,60.635-8.114,60.717L-8.114,60.717z M-15.065,62.848L-15.065,62.848l6.323-2.67l-2.669-6.321l-6.323,2.669
			L-15.065,62.848z"/>
		<path fill="#CCCCCC" d="M-12.717,61.316c-0.145,0.064-0.306,0.062-0.441-0.003l-2.177-1.004c-0.274-0.123-0.392-0.454-0.268-0.728
			c0.129-0.286,0.451-0.401,0.738-0.271l1.542,0.711l1.033-4.74c0.065-0.298,0.365-0.486,0.663-0.423
			c0.289,0.068,0.482,0.355,0.417,0.655l-1.179,5.413c-0.04,0.167-0.144,0.301-0.302,0.38C-12.7,61.31-12.708,61.313-12.717,61.316
			L-12.717,61.316z"/>
		<path fill="#FFFFFF" d="M0.792,78.135l-9.638,4.068c-0.255,0.106-0.555-0.015-0.665-0.271l-4.068-9.638
			c-0.107-0.256,0.014-0.557,0.269-0.664l9.638-4.069c0.255-0.107,0.558,0.014,0.665,0.27l4.068,9.638
			C1.17,77.726,1.045,78.029,0.792,78.135L0.792,78.135z M-8.775,81.074L-8.775,81.074l8.704-3.674l-3.675-8.703l-8.703,3.673
			L-8.775,81.074z"/>
		<path fill="#FEEE00" d="M-5.738,77.849c-0.144,0.062-0.307,0.059-0.442-0.003l-2.177-1.006c-0.277-0.134-0.396-0.463-0.27-0.736
			c0.133-0.278,0.454-0.394,0.737-0.272l1.545,0.721l1.033-4.743c0.065-0.297,0.365-0.485,0.664-0.42
			c0.29,0.067,0.481,0.355,0.417,0.653l-1.179,5.415c-0.039,0.167-0.144,0.301-0.301,0.377C-5.723,77.84-5.73,77.843-5.738,77.849
			L-5.738,77.849z"/>
		
			<rect x="-8.155" y="49.316" transform="matrix(0.9213 -0.3889 0.3889 0.9213 -18.9864 6.2051)" fill="#FFFFFF" width="27.981" height="1.375"/>
		
			<rect x="-1.21" y="65.763" transform="matrix(0.9213 -0.3889 0.3889 0.9213 -24.836 10.2011)" fill="#FEEE00" width="27.982" height="1.376"/>
		<path fill="#FFFFFF" d="M6.41,95.12l-7.003,2.955c-0.186,0.08-0.404-0.009-0.483-0.194l-2.957-7.004
			c-0.077-0.186,0.01-0.404,0.196-0.48l7.002-2.956c0.188-0.079,0.405,0.009,0.484,0.194l2.957,7.004
			C6.685,94.824,6.598,95.042,6.41,95.12L6.41,95.12z M-0.542,97.252L-0.542,97.252l6.323-2.669L3.113,88.26l-6.323,2.671
			L-0.542,97.252z"/>
		<path fill="#CCCCCC" d="M1.807,95.723c-0.144,0.061-0.306,0.061-0.445-0.013l-2.175-1.006c-0.274-0.124-0.394-0.452-0.268-0.726
			c0.134-0.277,0.454-0.393,0.737-0.271l1.547,0.72l1.033-4.743c0.065-0.298,0.365-0.484,0.662-0.421
			c0.29,0.068,0.482,0.357,0.417,0.656l-1.179,5.413c-0.042,0.16-0.144,0.301-0.302,0.377C1.823,95.713,1.815,95.72,1.807,95.723
			L1.807,95.723z"/>
		
			<rect x="6.367" y="83.712" transform="matrix(0.9213 -0.3889 0.3889 0.9213 -31.2199 14.5598)" fill="#FFFFFF" width="27.981" height="1.383"/>
	</g>
	<line fill="none" stroke="#FFFFFF" stroke-miterlimit="10" x1="115.784" y1="117.568" x2="127.16" y2="117.568"/>
	<line fill="none" stroke="#FFFFFF" stroke-miterlimit="10" x1="154.678" y1="117.568" x2="166.054" y2="117.568"/>
	<line fill="none" stroke="#FFFFFF" stroke-miterlimit="10" x1="134.453" y1="117.568" x2="145.83" y2="117.568"/>
	<g>
		<path fill="#595396" d="M135.255,1.992H31.226c-2.729,0-4.962,2.234-4.962,4.963v67.58c0,2.729,2.234,4.962,4.962,4.962h104.03
			c2.729,0,4.962-2.233,4.962-4.962V6.955C140.217,4.227,137.985,1.992,135.255,1.992z"/>
		<rect x="30.389" y="5.426" fill="#FEEE00" width="105.702" height="66.559"/>
		<rect x="9.406" y="74.522" fill="#BBF4F7" width="149.222" height="3.315"/>
		<polygon fill="#999999" points="113.357,77.837 54.678,77.837 9.406,77.837 11.469,79.497 54.678,79.497 113.357,79.497 
			156.565,79.497 158.628,77.837 		"/>
		<circle fill="#BABABA" cx="84.017" cy="3.625" r="0.831"/>
		<circle fill="#FFFFFF" cx="84.017" cy="3.625" r="0.616"/>
		<path fill="#FFFFFF" d="M97.367,74.522H69.125v2.528c0,0.325,0.27,0.593,0.596,0.593h27.048c0.33,0,0.598-0.268,0.598-0.593
			V74.522z"/>
		<path fill="#999999" d="M95.339,75.555H71.152c-0.154,0.596-0.28,0.724-0.28,0.877v0.038c0,0.154,0.126,0.281,0.28,0.281h24.188
			c0.155,0,0.283-0.127,0.283-0.281v-0.037C95.623,76.279,95.495,76.151,95.339,75.555z"/>
	</g>
	<circle fill="#3D398C" stroke="#FFFFFF" stroke-miterlimit="10" cx="-32.404" cy="59.713" r="5.64"/>
	<circle fill="#3D398C" stroke="#FFFFFF" stroke-miterlimit="10" cx="177.3" cy="117.568" r="5.64"/>
	<g>
		<circle fill="#FFFFFF" cx="49.942" cy="42.324" r="15.002"/>
		<text transform="matrix(1 0 0 1 45.7871 48.5967)" font-family="'MyriadPro-Bold'" font-size="18.6694">?</text>
	</g>
	<g>
		<circle fill="#FFFFFF" cx="118.094" cy="42.324" r="15.002"/>
		<text transform="matrix(1 0 0 1 113.939 48.5967)" font-family="'MyriadPro-Bold'" font-size="18.6694">?</text>
	</g>
	<g>
		<circle fill="#FFFFFF" cx="84.017" cy="42.324" r="15.002"/>
		<text transform="matrix(1 0 0 1 81.5161 48.5967)" font-family="'MyriadPro-Bold'" font-size="18.6694">!</text>
	</g>
	<g id="XMLID_1799_">
		
			<rect id="XMLID_1825_" x="144.187" y="43.99" transform="matrix(-0.9779 0.2089 -0.2089 -0.9779 299.1289 62.6688)" fill="#45485C" width="4.138" height="6.274"/>
		<path id="XMLID_1824_" fill="#FF9B00" d="M149.545,40.631c-0.313-1.46-1.75-2.394-3.215-2.081l-3.64,0.779
			c-1.462,0.312-2.395,1.75-2.082,3.211l0,0c0.316,1.464,1.754,2.396,3.215,2.082l3.641-0.778
			C148.926,43.535,149.857,42.095,149.545,40.631L149.545,40.631z"/>
		
			<rect id="XMLID_1823_" x="180.793" y="63.508" transform="matrix(0.3711 0.9286 -0.9286 0.3711 176.8806 -127.8885)" fill="#45485C" width="4.136" height="6.279"/>
		<path id="XMLID_1394_" fill="#FF9B00" d="M186.418,60.306c1.39-0.555,2.964,0.121,3.517,1.512l1.383,3.458
			c0.553,1.387-0.12,2.963-1.51,3.519l0,0c-1.389,0.553-2.963-0.121-3.52-1.51l-1.382-3.458
			C184.353,62.438,185.028,60.861,186.418,60.306L186.418,60.306z"/>
		
			<rect id="XMLID_1393_" x="165.836" y="45.811" transform="matrix(-0.8821 -0.4711 0.4711 -0.8821 294.2491 174.1406)" fill="#45485C" width="6.168" height="8.862"/>
		<path id="XMLID_1818_" fill="#0066AD" d="M168.839,50.413c-13.772-7.349-30.896-2.14-38.246,11.633
			c-7.347,13.774-2.141,30.897,11.633,38.246c13.775,7.349,30.898,2.141,38.247-11.634
			C187.822,74.884,182.612,57.762,168.839,50.413z M145.237,94.65c-10.656-5.687-14.688-18.935-9.002-29.593
			c5.687-10.66,18.937-14.689,29.595-9.004c10.658,5.688,14.689,18.937,9.001,29.595C169.145,96.306,155.893,100.335,145.237,94.65z
			"/>
		<circle id="XMLID_1391_" fill="#FFFFFF" cx="155.532" cy="75.352" r="21.872"/>
		<g id="XMLID_1804_">
			
				<rect id="XMLID_1816_" x="163.024" y="57.863" transform="matrix(-0.8837 -0.4681 0.4681 -0.8837 280.1407 189.8473)" fill="#45485C" width="1.266" height="4.511"/>
			
				<rect id="XMLID_1815_" x="146.765" y="88.331" transform="matrix(-0.8828 -0.4697 0.4697 -0.8828 234.9802 239.7843)" fill="#45485C" width="1.262" height="4.509"/>
			
				<rect id="XMLID_1390_" x="152.704" y="57.449" transform="matrix(-0.0338 -0.9994 0.9994 -0.0338 102.1456 214.9143)" fill="#45485C" width="4.509" height="1.265"/>
			
				<rect id="XMLID_1813_" x="153.869" y="91.981" transform="matrix(-0.0334 -0.9994 0.9994 -0.0334 68.7703 251.7388)" fill="#45485C" width="4.508" height="1.264"/>
			
				<rect id="XMLID_1812_" x="144.136" y="60.056" transform="matrix(-0.5287 -0.8488 0.8488 -0.5287 172.2726 217.0319)" fill="#45485C" width="4.509" height="1.265"/>
			
				<rect id="XMLID_1389_" x="162.416" y="89.397" transform="matrix(-0.5282 -0.8491 0.8491 -0.5282 175.2025 277.4068)" fill="#45485C" width="4.509" height="1.263"/>
			
				<rect id="XMLID_1810_" x="138.034" y="66.578" transform="matrix(-0.8824 -0.4705 0.4705 -0.8824 232.4563 192.5265)" fill="#45485C" width="4.512" height="1.265"/>
			
				<rect id="XMLID_1809_" x="168.524" y="82.852" transform="matrix(-0.8822 -0.4709 0.4709 -0.8822 282.1275 237.5493)" fill="#45485C" width="4.509" height="1.264"/>
			
				<rect id="XMLID_1388_" x="137.637" y="73.688" transform="matrix(-0.0324 -0.9995 0.9995 -0.0324 66.8496 216.6014)" fill="#45485C" width="1.265" height="4.508"/>
			
				<rect id="XMLID_1807_" x="172.161" y="72.51" transform="matrix(-0.0332 -0.9994 0.9994 -0.0332 103.8088 249.9449)" fill="#45485C" width="1.264" height="4.508"/>
			
				<rect id="XMLID_1806_" x="140.236" y="82.227" transform="matrix(-0.529 -0.8486 0.8486 -0.529 143.6871 248.7165)" fill="#45485C" width="1.265" height="4.509"/>
			
				<rect id="XMLID_1805_" x="169.559" y="63.968" transform="matrix(-0.5297 -0.8482 0.8482 -0.5297 204.1621 245.6554)" fill="#45485C" width="1.263" height="4.509"/>
		</g>
		<circle id="XMLID_1803_" fill="#FF9B00" cx="155.532" cy="75.353" r="2.972"/>
		<path id="XMLID_1802_" fill="#FF9B00" d="M177.787,45.778c0.921-1.725,0.266-3.872-1.458-4.795l-3.762-2.007
			c-1.727-0.92-3.875-0.267-4.796,1.458l-0.484,0.907c-0.922,1.725-0.269,3.874,1.46,4.795l3.759,2.007
			c1.728,0.921,3.875,0.268,4.795-1.458L177.787,45.778z"/>
		<polygon id="XMLID_1801_" fill="#FF9B00" points="157.58,73.646 156.056,63.781 153.514,73.215 155.532,75.352 		"/>
		<circle id="XMLID_1800_" fill="#FFFFFF" cx="155.535" cy="75.354" r="1.349"/>
	</g>
	<g>
		<path fill="#FFFFFF" d="M144.324-26.792h23.575c5.065,0,9.207,4.143,9.207,9.207v11.594c0,5.064-4.142,9.207-9.207,9.207h-16.348
			l-6.527,4.475c-1.173,0.806-2.768-0.036-2.768-1.459v-3.26c-4.076-0.946-7.141-4.609-7.141-8.962v-11.594
			C135.116-22.649,139.26-26.792,144.324-26.792z"/>
	</g>
	<circle fill="#FF4D7D" cx="146.484" cy="-3.879" r="2.816"/>
	<circle fill="#FF4D7D" cx="157.58" cy="-3.879" r="2.816"/>
	<circle fill="#FF4D7D" cx="168.674" cy="-3.879" r="2.818"/>
</g>
</svg>
