<?xml version="1.0" encoding="utf-8"?>
<!-- Generator: Adobe Illustrator 16.0.0, SVG Export Plug-In . SVG Version: 6.00 Build 0)  -->
<!DOCTYPE svg PUBLIC "-//W3C//DTD SVG 1.1//EN" "http://www.w3.org/Graphics/SVG/1.1/DTD/svg11.dtd">
<svg version="1.1" xmlns="http://www.w3.org/2000/svg" xmlns:xlink="http://www.w3.org/1999/xlink" x="0px" y="0px"
	 width="154.667px" height="99.458px" viewBox="0 0 154.667 99.458" enable-background="new 0 0 154.667 99.458"
	 xml:space="preserve">
<g id="Capa_2" display="none">
</g>
<g id="Capa_1">
	<line fill="none" stroke="#FFFFFF" stroke-miterlimit="10" x1="15.209" y1="92.79" x2="22.521" y2="92.79"/>
	<line fill="none" stroke="#FFFFFF" stroke-miterlimit="10" x1="6.709" y1="83.009" x2="6.709" y2="74.634"/>
	<g>
		<line fill="none" stroke="#FFFFFF" stroke-miterlimit="10" x1="6.709" y1="67.853" x2="6.709" y2="63.853"/>
	</g>
	<g>
		<line fill="none" stroke="#FFFFFF" stroke-miterlimit="10" x1="10.084" y1="93.04" x2="6.084" y2="93.04"/>
		<line fill="none" stroke="#FFFFFF" stroke-miterlimit="10" x1="6.584" y1="89.54" x2="6.584" y2="93.54"/>
	</g>
	<line fill="none" stroke="#FFFFFF" stroke-miterlimit="10" x1="28.209" y1="92.79" x2="35.521" y2="92.79"/>
	<line fill="none" stroke="#FFFFFF" stroke-miterlimit="10" x1="40.209" y1="92.79" x2="47.521" y2="92.79"/>
	<line fill="none" stroke="#FFFFFF" stroke-miterlimit="10" x1="65.209" y1="92.79" x2="72.521" y2="92.79"/>
	<line fill="none" stroke="#FFFFFF" stroke-miterlimit="10" x1="77.209" y1="92.79" x2="84.521" y2="92.79"/>
	<line fill="none" stroke="#FFFFFF" stroke-miterlimit="10" x1="52.209" y1="92.79" x2="59.521" y2="92.79"/>
	<line fill="none" stroke="#FFFFFF" stroke-miterlimit="10" x1="89.834" y1="92.79" x2="97.146" y2="92.79"/>
	<g>
		<path fill-rule="evenodd" clip-rule="evenodd" fill="#FFFFFF" d="M55.529,70.619c0.583,1.382-0.07,2.991-1.452,3.574
			l-25.84,10.909c-1.382,0.583-2.99-0.07-3.574-1.453L10.987,51.254c-0.583-1.383,0.07-2.991,1.452-3.574l25.84-10.909
			c1.382-0.583,2.99,0.07,3.574,1.453L55.529,70.619z"/>
		<path fill="#009BDB" d="M54.142,71.205c0.261,0.618-0.033,1.34-0.65,1.601l-25.84,10.909c-0.617,0.26-1.339-0.033-1.6-0.651
			L12.375,50.668c-0.261-0.617,0.033-1.34,0.65-1.601l25.84-10.908c0.617-0.261,1.34,0.033,1.601,0.65L54.142,71.205z"/>
		<path fill="#FFFFFF" d="M27.504,38.739l-0.166-0.393c-0.191-0.454-0.717-0.663-1.165-0.474l-4.501,1.9
			c-0.448,0.189-0.665,0.712-0.474,1.166l0.166,0.394L27.504,38.739z"/>
		<path fill="#FFFFFF" d="M29.605,38.194l-1.628,0.688l-0.35,0.147l-6.141,2.592l-0.257,0.108l-1.72,0.726
			c-0.448,0.189-0.665,0.711-0.476,1.16l1.328,3.146c0.189,0.448,0.717,0.663,1.166,0.474l10.095-4.262
			c0.448-0.189,0.663-0.718,0.474-1.166l-1.328-3.146C30.579,38.213,30.053,38.005,29.605,38.194L29.605,38.194z"/>
		<path fill="#FFFFFF" d="M22.197,56.248l-4.501,1.9c-0.12,0.051-0.26-0.005-0.311-0.125l-1.9-4.502
			c-0.048-0.115,0.008-0.255,0.128-0.306l4.501-1.9c0.121-0.051,0.26,0.006,0.309,0.122l1.9,4.501
			C22.374,56.057,22.317,56.196,22.197,56.248L22.197,56.248z M17.729,57.618L17.729,57.618l4.064-1.716l-1.716-4.064l-4.064,1.716
			L17.729,57.618z"/>
		<path fill="#CCCCCC" d="M19.238,56.634c-0.093,0.04-0.197,0.038-0.284-0.002l-1.399-0.646c-0.176-0.08-0.252-0.292-0.172-0.468
			c0.083-0.183,0.29-0.258,0.474-0.173l0.991,0.456l0.664-3.047c0.042-0.191,0.235-0.312,0.426-0.271
			c0.186,0.044,0.31,0.229,0.268,0.421l-0.758,3.48c-0.025,0.107-0.092,0.193-0.194,0.243
			C19.249,56.629,19.244,56.632,19.238,56.634L19.238,56.634z"/>
		<path fill="#FFFFFF" d="M27.921,67.444l-6.195,2.615c-0.164,0.069-0.357-0.01-0.427-0.174l-2.615-6.195
			c-0.069-0.164,0.009-0.358,0.173-0.427l6.195-2.615c0.164-0.069,0.358,0.009,0.427,0.173l2.615,6.195
			C28.164,67.181,28.084,67.375,27.921,67.444L27.921,67.444z M21.772,69.332L21.772,69.332l5.594-2.361l-2.362-5.594l-5.594,2.361
			L21.772,69.332z"/>
		<path fill="#FEEE00" d="M23.724,67.26c-0.092,0.039-0.197,0.038-0.284-0.002l-1.399-0.646c-0.178-0.086-0.255-0.298-0.174-0.474
			c0.086-0.178,0.292-0.252,0.474-0.174l0.993,0.462l0.664-3.048c0.042-0.191,0.235-0.312,0.427-0.27
			c0.186,0.043,0.309,0.229,0.268,0.42l-0.758,3.48c-0.025,0.107-0.092,0.193-0.194,0.243C23.734,67.255,23.729,67.257,23.724,67.26
			L23.724,67.26z"/>
		
			<rect x="22.17" y="48.921" transform="matrix(-0.9213 0.3889 -0.3889 -0.9213 79.0698 82.721)" fill-rule="evenodd" clip-rule="evenodd" fill="#FFFFFF" width="17.985" height="0.884"/>
		
			<rect x="26.634" y="59.495" transform="matrix(-0.9213 0.3889 -0.3889 -0.9213 91.7594 101.2986)" fill-rule="evenodd" clip-rule="evenodd" fill="#FEEE00" width="17.985" height="0.884"/>
		<path fill="#FFFFFF" d="M31.532,78.361l-4.501,1.9c-0.12,0.051-0.26-0.006-0.311-0.126l-1.9-4.501
			c-0.05-0.12,0.006-0.26,0.126-0.31l4.501-1.9c0.121-0.051,0.26,0.006,0.311,0.125l1.9,4.502
			C31.709,78.171,31.653,78.311,31.532,78.361L31.532,78.361z M27.064,79.732L27.064,79.732l4.064-1.716l-1.715-4.064l-4.064,1.716
			L27.064,79.732z"/>
		<path fill="#CCCCCC" d="M28.573,78.748c-0.092,0.039-0.196,0.039-0.286-0.008l-1.398-0.645c-0.176-0.081-0.253-0.292-0.172-0.468
			c0.086-0.178,0.292-0.252,0.474-0.174l0.994,0.463l0.664-3.048c0.042-0.191,0.235-0.312,0.426-0.271
			c0.186,0.044,0.31,0.23,0.268,0.422l-0.758,3.48c-0.027,0.102-0.092,0.193-0.194,0.242C28.584,78.743,28.579,78.746,28.573,78.748
			L28.573,78.748z"/>
		
			<rect x="31.504" y="71.03" transform="matrix(-0.9213 0.3889 -0.3889 -0.9213 105.6033 121.5732)" fill-rule="evenodd" clip-rule="evenodd" fill="#FFFFFF" width="17.985" height="0.889"/>
	</g>
	<line fill="none" stroke="#FFFFFF" stroke-miterlimit="10" x1="101.834" y1="92.79" x2="109.146" y2="92.79"/>
	<line fill="none" stroke="#FFFFFF" stroke-miterlimit="10" x1="126.834" y1="92.79" x2="134.146" y2="92.79"/>
	<line fill="none" stroke="#FFFFFF" stroke-miterlimit="10" x1="113.834" y1="92.79" x2="121.146" y2="92.79"/>
	<g>
		<path fill="#595396" d="M114.349,18.502H47.483c-1.754,0-3.19,1.436-3.19,3.19v43.437c0,1.754,1.436,3.19,3.19,3.19h66.866
			c1.754,0,3.189-1.436,3.189-3.19V21.692C117.539,19.938,116.104,18.502,114.349,18.502z"/>
		<rect x="46.945" y="20.709" fill="#FEEE00" width="67.941" height="42.781"/>
		<rect x="33.458" y="65.122" fill="#BBF4F7" width="95.915" height="2.131"/>
		<polygon fill="#999999" points="100.274,67.253 62.557,67.253 33.458,67.253 34.784,68.319 62.557,68.319 100.274,68.319 
			128.047,68.319 129.373,67.253 		"/>
		<circle fill="#BABABA" cx="81.416" cy="19.551" r="0.534"/>
		<circle fill="#FFFFFF" cx="81.416" cy="19.551" r="0.396"/>
		<path fill="#FFFFFF" d="M89.995,65.122H71.843v1.624c0,0.21,0.173,0.382,0.383,0.382h17.386c0.211,0,0.383-0.172,0.383-0.382
			V65.122z"/>
		<path fill="#999999" d="M88.693,65.786H73.146c-0.099,0.383-0.18,0.465-0.18,0.563v0.024c0,0.1,0.081,0.181,0.18,0.181h15.547
			c0.099,0,0.181-0.081,0.181-0.181V66.35C88.874,66.251,88.792,66.169,88.693,65.786z"/>
	</g>
	<circle fill="#3D398C" stroke="#FFFFFF" stroke-miterlimit="10" cx="6.584" cy="55.603" r="3.625"/>
	<circle fill="#3D398C" stroke="#FFFFFF" stroke-miterlimit="10" cx="141.375" cy="92.79" r="3.625"/>
	<g>
		<circle fill="#FFFFFF" cx="59.513" cy="44.426" r="9.643"/>
		<text transform="matrix(1 0 0 1 56.8428 48.457)" font-family="'MyriadPro-Bold'" font-size="12">?</text>
	</g>
	<g>
		<circle fill="#FFFFFF" cx="103.319" cy="44.426" r="9.643"/>
		<text transform="matrix(1 0 0 1 100.6484 48.457)" font-family="'MyriadPro-Bold'" font-size="12">?</text>
	</g>
	<g>
		<circle fill="#FFFFFF" cx="81.416" cy="44.426" r="9.643"/>
		<text transform="matrix(1 0 0 1 79.8081 48.457)" font-family="'MyriadPro-Bold'" font-size="12">!</text>
	</g>
	<g id="XMLID_1799_">
		
			<rect id="XMLID_1825_" x="120.094" y="45.501" transform="matrix(0.9779 -0.2089 0.2089 0.9779 -7.2471 26.4109)" fill="#45485C" width="2.66" height="4.033"/>
		<path id="XMLID_1824_" fill="#FF9B00" d="M123.534,43.338c-0.201-0.939-1.125-1.539-2.065-1.338l-2.34,0.501
			c-0.94,0.2-1.539,1.125-1.338,2.064l0,0c0.202,0.941,1.126,1.54,2.066,1.338l2.34-0.5
			C123.136,45.204,123.735,44.279,123.534,43.338L123.534,43.338z"/>
		
			<rect id="XMLID_1823_" x="143.609" y="58.047" transform="matrix(-0.3709 -0.9287 0.9287 -0.3709 142.9248 216.943)" fill="#45485C" width="2.659" height="4.035"/>
		<path id="XMLID_1394_" fill="#FF9B00" d="M147.235,55.984c0.893-0.356,1.905,0.078,2.261,0.971l0.888,2.223
			c0.356,0.892-0.077,1.905-0.97,2.262l0,0c-0.893,0.356-1.905-0.078-2.262-0.971l-0.889-2.223
			C145.908,57.354,146.342,56.341,147.235,55.984L147.235,55.984z"/>
		
			<rect id="XMLID_1393_" x="134.011" y="46.668" transform="matrix(0.8821 0.471 -0.471 0.8821 39.35 -58.216)" fill="#45485C" width="3.965" height="5.696"/>
		<path id="XMLID_1818_" fill="#0066AD" d="M135.936,49.625c-8.853-4.724-19.859-1.376-24.583,7.477
			c-4.723,8.853-1.376,19.859,7.477,24.583c8.854,4.723,19.86,1.376,24.583-7.477C148.137,65.354,144.789,54.349,135.936,49.625z
			 M120.765,78.059c-6.85-3.655-9.441-12.171-5.786-19.022c3.655-6.851,12.172-9.441,19.023-5.786
			c6.85,3.656,9.441,12.171,5.785,19.022C136.132,79.124,127.615,81.714,120.765,78.059z"/>
		<circle id="XMLID_1391_" fill="#FFFFFF" cx="127.383" cy="65.655" r="14.059"/>
		<g id="XMLID_1804_">
			
				<rect id="XMLID_1816_" x="132.203" y="54.409" transform="matrix(0.8831 0.4692 -0.4692 0.8831 41.7062 -55.6859)" fill="#45485C" width="0.814" height="2.899"/>
			
				<rect id="XMLID_1815_" x="121.75" y="74.002" transform="matrix(0.8823 0.4706 -0.4706 0.8823 49.8823 -48.6112)" fill="#45485C" width="0.812" height="2.898"/>
			
				<rect id="XMLID_1390_" x="125.563" y="54.151" transform="matrix(0.0337 0.9994 -0.9994 0.0337 177.2585 -74.2204)" fill="#45485C" width="2.898" height="0.813"/>
			
				<rect id="XMLID_1813_" x="126.305" y="76.346" transform="matrix(0.0334 0.9994 -0.9994 0.0334 200.202 -53.4915)" fill="#45485C" width="2.898" height="0.813"/>
			
				<rect id="XMLID_1812_" x="120.063" y="55.824" transform="matrix(0.5287 0.8488 -0.8488 0.5287 104.9911 -76.6389)" fill="#45485C" width="2.899" height="0.813"/>
			
				<rect id="XMLID_1389_" x="131.804" y="74.674" transform="matrix(0.5285 0.849 -0.849 0.5285 126.575 -77.7231)" fill="#45485C" width="2.898" height="0.812"/>
			
				<rect id="XMLID_1810_" x="116.137" y="60.022" transform="matrix(0.8823 0.4706 -0.4706 0.8823 42.2769 -48.2302)" fill="#45485C" width="2.899" height="0.813"/>
			
				<rect id="XMLID_1809_" x="135.73" y="70.476" transform="matrix(0.8822 0.4709 -0.4709 0.8822 49.5415 -56.248)" fill="#45485C" width="2.898" height="0.812"/>
			
				<rect id="XMLID_1388_" x="115.879" y="64.578" transform="matrix(0.0331 0.9995 -0.9995 0.0331 178.4317 -52.3777)" fill="#45485C" width="0.812" height="2.898"/>
			
				<rect id="XMLID_1807_" x="138.074" y="63.834" transform="matrix(0.0336 0.9994 -0.9994 0.0336 199.0687 -75.314)" fill="#45485C" width="0.813" height="2.899"/>
			
				<rect id="XMLID_1806_" x="117.552" y="70.076" transform="matrix(0.5282 0.8491 -0.8491 0.5282 116.3838 -66.4148)" fill="#45485C" width="0.813" height="2.898"/>
			
				<rect id="XMLID_1805_" x="136.402" y="58.335" transform="matrix(0.5289 0.8487 -0.8487 0.5289 115.1853 -87.942)" fill="#45485C" width="0.812" height="2.898"/>
		</g>
		<circle id="XMLID_1803_" fill="#FF9B00" cx="127.383" cy="65.655" r="1.911"/>
		<path id="XMLID_1802_" fill="#FF9B00" d="M141.687,46.646c0.592-1.109,0.171-2.489-0.938-3.082l-2.418-1.29
			c-1.109-0.592-2.489-0.172-3.081,0.937l-0.312,0.583c-0.593,1.109-0.173,2.49,0.938,3.082l2.417,1.29
			c1.11,0.592,2.49,0.172,3.082-0.937L141.687,46.646z"/>
		<polygon id="XMLID_1801_" fill="#FF9B00" points="128.699,64.558 127.719,58.218 126.086,64.282 127.383,65.655 		"/>
		<circle id="XMLID_1800_" fill="#FFFFFF" cx="127.384" cy="65.656" r="0.867"/>
	</g>
	<g>
		<path fill="#FFFFFF" d="M120.178,0h15.154c3.256,0,5.918,2.663,5.918,5.918v7.452c0,3.255-2.662,5.918-5.918,5.918h-10.508
			l-4.195,2.876c-0.754,0.518-1.78-0.023-1.78-0.938v-2.095c-2.62-0.608-4.59-2.963-4.59-5.761V5.918
			C114.259,2.663,116.923,0,120.178,0z"/>
	</g>
	<circle fill="#FF4D7D" cx="121.567" cy="14.728" r="1.81"/>
	<circle fill="#FF4D7D" cx="128.699" cy="14.728" r="1.81"/>
	<circle fill="#FF4D7D" cx="135.83" cy="14.728" r="1.811"/>
</g>
</svg>
