<?xml version="1.0" encoding="utf-8"?>
<!-- Generator: Adobe Illustrator 16.0.0, SVG Export Plug-In . SVG Version: 6.00 Build 0)  -->
<!DOCTYPE svg PUBLIC "-//W3C//DTD SVG 1.1//EN" "http://www.w3.org/Graphics/SVG/1.1/DTD/svg11.dtd">
<svg version="1.1" id="Capa_1" xmlns="http://www.w3.org/2000/svg" xmlns:xlink="http://www.w3.org/1999/xlink" x="0px" y="0px"
	 width="267.813px" height="175px" viewBox="0 0 267.813 175" enable-background="new 0 0 267.813 175" xml:space="preserve">
<g id="Capa_2" display="none">
</g>
<line fill="none" stroke="#FFFFFF" stroke-miterlimit="10" x1="22.235" y1="169.503" x2="35.507" y2="169.503"/>
<line fill="none" stroke="#FFFFFF" stroke-miterlimit="10" x1="6.806" y1="151.75" x2="6.806" y2="136.549"/>
<g>
	<line fill="none" stroke="#FFFFFF" stroke-miterlimit="10" x1="6.806" y1="124.243" x2="6.806" y2="116.98"/>
</g>
<g>
	<line fill="none" stroke="#FFFFFF" stroke-miterlimit="10" x1="12.932" y1="169.958" x2="5.672" y2="169.958"/>
	<line fill="none" stroke="#FFFFFF" stroke-miterlimit="10" x1="6.578" y1="163.604" x2="6.578" y2="170.866"/>
</g>
<line fill="none" stroke="#FFFFFF" stroke-miterlimit="10" x1="45.829" y1="169.503" x2="59.103" y2="169.503"/>
<line fill="none" stroke="#FFFFFF" stroke-miterlimit="10" x1="67.611" y1="169.503" x2="80.883" y2="169.503"/>
<line fill="none" stroke="#FFFFFF" stroke-miterlimit="10" x1="112.988" y1="169.503" x2="126.26" y2="169.503"/>
<line fill="none" stroke="#FFFFFF" stroke-miterlimit="10" x1="134.769" y1="169.503" x2="148.041" y2="169.503"/>
<line fill="none" stroke="#FFFFFF" stroke-miterlimit="10" x1="89.393" y1="169.503" x2="102.664" y2="169.503"/>
<line fill="none" stroke="#FFFFFF" stroke-miterlimit="10" x1="157.683" y1="169.503" x2="170.957" y2="169.503"/>
<g>
	<path fill="#FFFFFF" d="M98.418,129.264c1.058,2.506-0.127,5.427-2.636,6.485L48.881,155.55c-2.508,1.059-5.428-0.127-6.487-2.637
		l-24.823-58.8c-1.059-2.512,0.127-5.43,2.637-6.487l46.9-19.8c2.508-1.059,5.428,0.126,6.487,2.638L98.418,129.264z"/>
	<path fill="#009BDB" d="M95.901,130.327c0.475,1.12-0.06,2.432-1.18,2.906l-46.901,19.8c-1.12,0.472-2.43-0.062-2.903-1.181
		L20.091,93.051c-0.475-1.122,0.061-2.434,1.18-2.908l46.902-19.798c1.12-0.474,2.433,0.059,2.904,1.18L95.901,130.327z"/>
	<path fill="#FFFFFF" d="M47.551,71.398l-0.301-0.713c-0.348-0.824-1.302-1.204-2.115-0.861l-8.169,3.448
		c-0.813,0.343-1.207,1.292-0.86,2.117l0.301,0.715L47.551,71.398z"/>
	<path fill="#FFFFFF" d="M51.364,70.408l-2.955,1.249l-0.635,0.267l-11.146,4.705l-0.467,0.196l-3.122,1.318
		c-0.813,0.343-1.206,1.291-0.863,2.105l2.409,5.709c0.343,0.814,1.302,1.204,2.116,0.861l18.323-7.735
		c0.813-0.343,1.204-1.303,0.861-2.116l-2.411-5.71C53.132,70.442,52.178,70.065,51.364,70.408L51.364,70.408z"/>
	<path fill="#FFFFFF" d="M37.918,103.178l-8.17,3.447c-0.218,0.095-0.473-0.008-0.565-0.227l-3.448-8.172
		c-0.087-0.207,0.016-0.463,0.232-0.555l8.169-3.447c0.22-0.094,0.472,0.01,0.561,0.221l3.45,8.168
		C38.239,102.832,38.135,103.083,37.918,103.178L37.918,103.178z M29.808,105.664L29.808,105.664l7.376-3.114l-3.114-7.375
		l-7.376,3.114L29.808,105.664z"/>
	<path fill="#CCCCCC" d="M32.547,103.877c-0.168,0.075-0.357,0.07-0.516-0.005l-2.539-1.17c-0.318-0.146-0.457-0.53-0.313-0.851
		c0.151-0.332,0.526-0.468,0.861-0.314l1.799,0.829l1.205-5.53c0.075-0.348,0.426-0.566,0.772-0.493
		c0.337,0.08,0.563,0.415,0.486,0.765l-1.375,6.315c-0.046,0.194-0.167,0.351-0.354,0.443
		C32.567,103.87,32.558,103.873,32.547,103.877L32.547,103.877z"/>
	<path fill="#FFFFFF" d="M48.308,123.499l-11.244,4.747c-0.298,0.125-0.647-0.018-0.774-0.314l-4.747-11.244
		c-0.125-0.3,0.016-0.649,0.313-0.775l11.244-4.747c0.298-0.125,0.651,0.017,0.776,0.313l4.746,11.244
		C48.749,123.021,48.604,123.375,48.308,123.499L48.308,123.499z M37.147,126.927L37.147,126.927l10.154-4.286l-4.288-10.152
		l-10.153,4.285L37.147,126.927z"/>
	<path fill="#FEEE00" d="M40.69,123.166c-0.167,0.072-0.356,0.068-0.515-0.003l-2.54-1.175c-0.323-0.156-0.462-0.539-0.315-0.858
		c0.156-0.323,0.53-0.459,0.859-0.317l1.803,0.84l1.205-5.532c0.077-0.347,0.426-0.566,0.775-0.49
		c0.337,0.079,0.561,0.415,0.485,0.763l-1.376,6.317c-0.044,0.194-0.167,0.351-0.351,0.438
		C40.708,123.154,40.698,123.158,40.69,123.166L40.69,123.166z"/>
	
		<rect x="37.869" y="89.878" transform="matrix(-0.9213 0.3889 -0.3889 -0.9213 139.3831 153.1465)" fill="#FFFFFF" width="32.645" height="1.604"/>
	
		<rect x="45.973" y="109.066" transform="matrix(-0.9213 0.3889 -0.3889 -0.9213 162.4135 186.8638)" fill="#FEEE00" width="32.647" height="1.605"/>
	<path fill="#FFFFFF" d="M54.862,143.313l-8.17,3.447c-0.217,0.094-0.472-0.01-0.563-0.227l-3.45-8.17
		c-0.09-0.217,0.012-0.473,0.229-0.562l8.169-3.45c0.221-0.09,0.473,0.012,0.564,0.229l3.449,8.171
		C55.183,142.969,55.081,143.224,54.862,143.313L54.862,143.313z M46.753,145.802L46.753,145.802l7.376-3.113l-3.112-7.377
		l-7.377,3.115L46.753,145.802z"/>
	<path fill="#CCCCCC" d="M49.491,144.019c-0.167,0.07-0.355,0.07-0.52-0.016l-2.537-1.174c-0.32-0.145-0.459-0.526-0.313-0.846
		c0.156-0.323,0.529-0.459,0.859-0.315l1.805,0.839l1.206-5.533c0.076-0.348,0.427-0.564,0.772-0.49
		c0.337,0.08,0.563,0.416,0.486,0.766l-1.375,6.314c-0.05,0.188-0.167,0.352-0.353,0.439
		C49.511,144.006,49.502,144.015,49.491,144.019L49.491,144.019z"/>
	
		<rect x="54.815" y="130.006" transform="matrix(-0.9213 0.3889 -0.3889 -0.9213 187.5462 223.6655)" fill="#FFFFFF" width="32.646" height="1.614"/>
</g>
<line fill="none" stroke="#FFFFFF" stroke-miterlimit="10" x1="179.466" y1="169.503" x2="192.737" y2="169.503"/>
<line fill="none" stroke="#FFFFFF" stroke-miterlimit="10" x1="224.842" y1="169.503" x2="238.114" y2="169.503"/>
<line fill="none" stroke="#FFFFFF" stroke-miterlimit="10" x1="201.244" y1="169.503" x2="214.519" y2="169.503"/>
<path fill="#FFFFFF" d="M202.181,34.666H80.814c-3.183,0-5.789,2.606-5.789,5.791v78.842c0,3.184,2.606,5.789,5.789,5.789h121.368
	c3.184,0,5.789-2.605,5.789-5.789V40.456C207.97,37.272,205.366,34.666,202.181,34.666z"/>
<rect x="79.838" y="38.671" fill="#009BDB" width="123.317" height="77.652"/>
<rect x="55.358" y="119.284" fill="#CDCED3" width="174.092" height="3.868"/>
<polygon fill="#67666A" points="176.633,123.152 108.175,123.152 55.358,123.152 57.765,125.087 108.175,125.087 176.633,125.087 
	227.043,125.087 229.449,123.152 "/>
<circle fill="#BABABA" cx="142.404" cy="36.57" r="0.969"/>
<circle fill="#FFFFFF" cx="142.404" cy="36.57" r="0.719"/>
<path fill="#FFFFFF" d="M157.978,119.284h-32.949v2.95c0,0.379,0.314,0.69,0.695,0.69h31.557c0.385,0,0.696-0.313,0.696-0.69
	L157.978,119.284L157.978,119.284z"/>
<path fill="#999999" d="M155.614,120.488h-28.219c-0.18,0.695-0.327,0.846-0.327,1.022v0.046c0,0.18,0.147,0.328,0.327,0.328h28.219
	c0.182,0,0.33-0.148,0.33-0.328v-0.043C155.944,121.334,155.795,121.184,155.614,120.488z"/>
<circle fill="#009BDB" stroke="#FFFFFF" stroke-miterlimit="10" cx="6.578" cy="102.007" r="6.579"/>
<circle fill="#009BDB" stroke="#FFFFFF" stroke-miterlimit="10" cx="251.234" cy="169.504" r="6.58"/>
<circle fill="#FEEE00" cx="116.831" cy="80.859" r="23.756"/>
<text transform="matrix(1 0 0 1 110.2527 90.79)" fill="#211915" font-family="'MyriadPro-Bold'" font-size="29.5635">?</text>
<path fill="#FEEE00" d="M170.79,57.103c13.122,0,23.758,10.636,23.758,23.756c0,13.122-10.636,23.754-23.758,23.754
	c-13.117,0-23.757-10.633-23.757-23.754C147.033,67.739,157.673,57.103,170.79,57.103z"/>
<text transform="matrix(1 0 0 1 166.8323 90.79)" fill="#211915" font-family="'MyriadPro-Bold'" font-size="29.5635">!</text>
<rect id="XMLID_1825_" x="212.595" y="83.655" transform="matrix(0.978 -0.2087 0.2087 0.978 -13.4898 46.8048)" fill="#FFFFFF" width="4.828" height="7.32"/>
<path id="XMLID_1824_" fill="#FF9B00" d="M218.854,79.745c-0.365-1.704-2.042-2.793-3.751-2.428l-4.246,0.909
	c-1.706,0.363-2.794,2.042-2.429,3.746l0,0c0.369,1.708,2.046,2.795,3.75,2.428l4.247-0.907
	C218.132,83.132,219.217,81.452,218.854,79.745L218.854,79.745z"/>
<rect id="XMLID_1823_" x="255.318" y="106.439" transform="matrix(-0.3713 -0.9285 0.9285 -0.3713 251.1921 390.2901)" fill="#FFFFFF" width="4.826" height="7.326"/>
<path id="XMLID_1394_" fill="#FF9B00" d="M261.872,102.699c1.62-0.647,3.457,0.141,4.103,1.763l1.614,4.035
	c0.645,1.616-0.142,3.456-1.763,4.104l0,0c-1.619,0.646-3.456-0.142-4.105-1.762l-1.612-4.033
	C259.463,105.186,260.25,103.346,261.872,102.699L261.872,102.699z"/>
<rect id="XMLID_1393_" x="237.855" y="85.787" transform="matrix(0.8821 0.471 -0.471 0.8821 71.3099 -103.0127)" fill="#FFFFFF" width="7.196" height="10.339"/>
<path id="XMLID_1818_" fill="#009BDB" d="M241.363,91.157c-16.066-8.575-36.045-2.498-44.62,13.569
	c-8.57,16.07-2.498,36.048,13.571,44.622c16.072,8.573,36.049,2.496,44.622-13.574C263.509,119.707,257.43,99.73,241.363,91.157z
	 M213.826,142.767c-12.433-6.635-17.136-22.092-10.502-34.525c6.635-12.438,22.093-17.138,34.526-10.505
	c12.436,6.638,17.139,22.094,10.502,34.527C241.72,144.698,226.259,149.399,213.826,142.767z"/>
<path id="XMLID_1391_" fill="#FFFFFF" d="M225.838,94.734c14.096,0,25.52,11.427,25.52,25.518c0,14.095-11.424,25.519-25.52,25.519
	c-14.091,0-25.518-11.424-25.518-25.519C200.321,106.161,211.747,94.734,225.838,94.734z"/>
<g id="XMLID_1804_">
	
		<rect id="XMLID_1816_" x="234.587" y="99.847" transform="matrix(0.8836 0.4683 -0.4683 0.8836 75.3789 -98.2627)" fill="#45485C" width="1.477" height="5.262"/>
	
		<rect id="XMLID_1815_" x="215.603" y="135.394" transform="matrix(0.8827 0.4699 -0.4699 0.8827 90.2297 -85.4698)" fill="#45485C" width="1.471" height="5.26"/>
	
		<rect id="XMLID_1390_" x="222.535" y="99.369" transform="matrix(0.0338 0.9994 -0.9994 0.0338 317.6084 -128.3124)" fill="#45485C" width="5.261" height="1.476"/>
	
		<rect id="XMLID_1813_" x="223.897" y="139.661" transform="matrix(0.0334 0.9994 -0.9994 0.0334 359.2766 -90.6942)" fill="#45485C" width="5.26" height="1.474"/>
	
		<rect id="XMLID_1812_" x="212.547" y="102.416" transform="matrix(0.5286 0.8488 -0.8488 0.5286 188.9859 -134.0298)" fill="#45485C" width="5.261" height="1.476"/>
	
		<rect id="XMLID_1389_" x="233.867" y="136.634" transform="matrix(0.5282 0.8491 -0.8491 0.5282 228.2355 -136.0031)" fill="#45485C" width="5.26" height="1.473"/>
	
		<rect id="XMLID_1810_" x="205.422" y="110.018" transform="matrix(0.8824 0.4704 -0.4704 0.8824 76.563 -84.8548)" fill="#45485C" width="5.264" height="1.475"/>
	
		<rect id="XMLID_1809_" x="240.994" y="128.991" transform="matrix(0.8822 0.4709 -0.4709 0.8822 89.7904 -99.4379)" fill="#45485C" width="5.259" height="1.474"/>
	
		<rect id="XMLID_1388_" x="204.965" y="118.308" transform="matrix(0.0324 0.9995 -0.9995 0.0324 319.9106 -88.5771)" fill="#45485C" width="1.476" height="5.26"/>
	
		<rect id="XMLID_1807_" x="245.245" y="116.928" transform="matrix(0.0331 0.9995 -0.9995 0.0331 357.3292 -130.249)" fill="#45485C" width="1.474" height="5.261"/>
	
		<rect id="XMLID_1806_" x="207.996" y="128.268" transform="matrix(0.5294 0.8484 -0.8484 0.5294 209.2795 -115.483)" fill="#45485C" width="1.476" height="5.261"/>
	
		<rect id="XMLID_1805_" x="242.212" y="106.974" transform="matrix(0.5296 0.8482 -0.8482 0.5296 207.2415 -154.5199)" fill="#45485C" width="1.471" height="5.261"/>
</g>
<circle id="XMLID_1803_" fill="#FF9B00" cx="225.838" cy="120.252" r="3.468"/>
<path id="XMLID_1802_" fill="#FF9B00" d="M251.801,85.75c1.074-2.013,0.311-4.518-1.701-5.594l-4.389-2.342
	c-2.016-1.074-4.521-0.312-5.596,1.701l-0.563,1.058c-1.076,2.013-0.313,4.52,1.703,5.594l4.384,2.341
	c2.017,1.074,4.521,0.313,5.595-1.701L251.801,85.75z"/>
<polygon id="XMLID_1801_" fill="#FF9B00" points="228.227,118.261 226.448,106.752 223.484,117.759 225.838,120.251 "/>
<circle id="XMLID_1800_" fill="#FFFFFF" cx="225.841" cy="120.254" r="1.573"/>
<g>
	<path fill="#FFFFFF" d="M212.761,1.084h27.505c5.909,0,10.741,4.834,10.741,10.742v13.526c0,5.908-4.832,10.741-10.741,10.741
		h-19.072l-7.615,5.221c-1.367,0.94-3.229-0.042-3.229-1.703v-3.803c-4.756-1.104-8.331-5.377-8.331-10.456V11.826
		C202.019,5.918,206.855,1.084,212.761,1.084z"/>
</g>
<circle fill="#FF4D7D" cx="215.281" cy="27.816" r="3.285"/>
<circle fill="#FF4D7D" cx="228.227" cy="27.816" r="3.285"/>
<circle fill="#FF4D7D" cx="241.172" cy="27.816" r="3.287"/>
</svg>
