<?xml version="1.0" encoding="utf-8"?>
<!-- Generator: Adobe Illustrator 16.0.0, SVG Export Plug-In . SVG Version: 6.00 Build 0)  -->
<!DOCTYPE svg PUBLIC "-//W3C//DTD SVG 1.1//EN" "http://www.w3.org/Graphics/SVG/1.1/DTD/svg11.dtd">
<svg version="1.1" id="Capa_1" xmlns="http://www.w3.org/2000/svg" xmlns:xlink="http://www.w3.org/1999/xlink" x="0px" y="0px"
	 width="267.813px" height="175px" viewBox="-57.173 -43.282 267.813 175" enable-background="new -57.173 -43.282 267.813 175"
	 xml:space="preserve">
<g id="Capa_2" display="none">
</g>
<line fill="none" stroke="#FFFFFF" stroke-miterlimit="10" x1="-34.939" y1="125.127" x2="-21.667" y2="125.127"/>
<line fill="none" stroke="#FFFFFF" stroke-miterlimit="10" x1="-50.368" y1="107.374" x2="-50.368" y2="92.173"/>
<g>
	<line fill="none" stroke="#FFFFFF" stroke-miterlimit="10" x1="-50.368" y1="79.867" x2="-50.368" y2="72.605"/>
</g>
<g>
	<line fill="none" stroke="#FFFFFF" stroke-miterlimit="10" x1="-44.242" y1="125.582" x2="-51.502" y2="125.582"/>
	<line fill="none" stroke="#FFFFFF" stroke-miterlimit="10" x1="-50.595" y1="119.229" x2="-50.595" y2="126.49"/>
</g>
<line fill="none" stroke="#FFFFFF" stroke-miterlimit="10" x1="-11.344" y1="125.127" x2="1.929" y2="125.127"/>
<line fill="none" stroke="#FFFFFF" stroke-miterlimit="10" x1="10.437" y1="125.127" x2="23.709" y2="125.127"/>
<line fill="none" stroke="#FFFFFF" stroke-miterlimit="10" x1="55.814" y1="125.127" x2="69.086" y2="125.127"/>
<line fill="none" stroke="#FFFFFF" stroke-miterlimit="10" x1="77.595" y1="125.127" x2="90.867" y2="125.127"/>
<line fill="none" stroke="#FFFFFF" stroke-miterlimit="10" x1="32.219" y1="125.127" x2="45.49" y2="125.127"/>
<line fill="none" stroke="#FFFFFF" stroke-miterlimit="10" x1="100.509" y1="125.127" x2="113.783" y2="125.127"/>
<g>
	<path fill="#FFFFFF" d="M41.244,84.887c1.058,2.506-0.127,5.428-2.635,6.486l-46.902,19.801c-2.508,1.058-5.427-0.127-6.487-2.637
		l-24.823-58.8c-1.059-2.511,0.127-5.429,2.636-6.487L9.934,23.45c2.508-1.059,5.428,0.126,6.487,2.638L41.244,84.887z"/>
	<path fill="#009BDB" d="M38.727,85.951c0.474,1.12-0.06,2.432-1.18,2.906l-46.901,19.8c-1.12,0.472-2.43-0.061-2.904-1.181
		l-24.825-58.801c-0.474-1.122,0.061-2.434,1.18-2.908l46.902-19.798c1.12-0.474,2.433,0.059,2.905,1.18L38.727,85.951z"/>
	<path fill="#FFFFFF" d="M-9.623,27.022l-0.301-0.713c-0.347-0.824-1.301-1.204-2.115-0.861l-8.169,3.448
		c-0.813,0.343-1.207,1.292-0.86,2.117l0.301,0.715L-9.623,27.022z"/>
	<path fill="#FFFFFF" d="M-5.81,26.032l-2.955,1.249L-9.4,27.548l-11.146,4.705l-0.466,0.196l-3.123,1.318
		c-0.813,0.343-1.206,1.291-0.863,2.105l2.409,5.709c0.343,0.814,1.302,1.204,2.117,0.861l18.323-7.735
		c0.813-0.343,1.204-1.303,0.861-2.116l-2.411-5.71C-4.042,26.066-4.996,25.689-5.81,26.032L-5.81,26.032z"/>
	<path fill="#FFFFFF" d="M-19.256,58.802l-8.17,3.447c-0.217,0.095-0.472-0.008-0.565-0.227l-3.448-8.171
		c-0.087-0.208,0.015-0.463,0.232-0.555l8.169-3.448c0.22-0.093,0.472,0.01,0.561,0.221l3.45,8.169
		C-18.935,58.456-19.039,58.707-19.256,58.802L-19.256,58.802z M-27.366,61.288L-27.366,61.288l7.376-3.114l-3.114-7.375
		l-7.376,3.114L-27.366,61.288z"/>
	<path fill="#CCCCCC" d="M-24.627,59.501c-0.168,0.075-0.357,0.07-0.515-0.005l-2.539-1.17c-0.319-0.145-0.457-0.53-0.313-0.85
		c0.151-0.333,0.526-0.468,0.861-0.315l1.799,0.829l1.205-5.53c0.076-0.347,0.426-0.567,0.773-0.493
		c0.337,0.08,0.563,0.415,0.486,0.765l-1.375,6.315c-0.046,0.194-0.167,0.351-0.353,0.443
		C-24.607,59.494-24.616,59.497-24.627,59.501L-24.627,59.501z"/>
	<path fill="#FFFFFF" d="M-8.866,79.123L-20.11,83.87c-0.298,0.125-0.648-0.017-0.775-0.315l-4.747-11.244
		c-0.125-0.299,0.016-0.649,0.314-0.775l11.244-4.747c0.298-0.125,0.651,0.017,0.776,0.314l4.746,11.244
		C-8.425,78.646-8.57,78.999-8.866,79.123L-8.866,79.123z M-20.027,82.551L-20.027,82.551l10.154-4.286l-4.288-10.153l-10.153,4.285
		L-20.027,82.551z"/>
	<path fill="#FEEE00" d="M-16.484,78.79c-0.167,0.072-0.357,0.068-0.515-0.003l-2.54-1.174c-0.323-0.157-0.462-0.54-0.315-0.859
		c0.156-0.324,0.53-0.459,0.859-0.317l1.803,0.84l1.205-5.533c0.077-0.347,0.426-0.566,0.775-0.49
		c0.337,0.079,0.561,0.415,0.486,0.763l-1.376,6.317c-0.044,0.194-0.167,0.351-0.351,0.439
		C-16.466,78.779-16.475,78.782-16.484,78.79L-16.484,78.79z"/>
	
		<rect x="-19.305" y="45.501" transform="matrix(0.9213 -0.3889 0.3889 0.9213 -18.2412 2.4848)" fill="#FFFFFF" width="32.644" height="1.604"/>
	
		<rect x="-11.202" y="64.689" transform="matrix(0.9213 -0.3889 0.3889 0.9213 -25.0653 7.1466)" fill="#FEEE00" width="32.646" height="1.605"/>
	<path fill="#FFFFFF" d="M-2.312,98.938l-8.17,3.447c-0.217,0.094-0.472-0.01-0.564-0.227l-3.45-8.17
		c-0.09-0.217,0.012-0.473,0.229-0.561l8.169-3.45c0.22-0.091,0.472,0.011,0.564,0.228l3.449,8.171
		C-1.991,98.593-2.093,98.848-2.312,98.938L-2.312,98.938z M-10.421,101.426L-10.421,101.426l7.376-3.113l-3.112-7.378l-7.377,3.116
		L-10.421,101.426z"/>
	<path fill="#CCCCCC" d="M-7.682,99.643c-0.167,0.07-0.356,0.07-0.52-0.016l-2.537-1.174c-0.32-0.145-0.459-0.526-0.313-0.846
		c0.157-0.323,0.53-0.459,0.86-0.315l1.805,0.839l1.206-5.533c0.076-0.348,0.426-0.565,0.772-0.491
		c0.337,0.08,0.563,0.417,0.486,0.766l-1.375,6.315c-0.049,0.187-0.167,0.351-0.352,0.439C-7.663,99.63-7.672,99.639-7.682,99.643
		L-7.682,99.643z"/>
	
		<rect x="-2.362" y="85.63" transform="matrix(0.9213 -0.3889 0.3889 0.9213 -32.5134 12.2319)" fill="#FFFFFF" width="32.645" height="1.614"/>
</g>
<line fill="none" stroke="#FFFFFF" stroke-miterlimit="10" x1="122.292" y1="125.127" x2="135.563" y2="125.127"/>
<line fill="none" stroke="#FFFFFF" stroke-miterlimit="10" x1="167.668" y1="125.127" x2="180.94" y2="125.127"/>
<line fill="none" stroke="#FFFFFF" stroke-miterlimit="10" x1="144.071" y1="125.127" x2="157.345" y2="125.127"/>
<path fill="#FFFFFF" d="M145.007-9.71H23.64c-3.183,0-5.789,2.606-5.789,5.791v78.842c0,3.184,2.606,5.789,5.789,5.789h121.368
	c3.184,0,5.789-2.605,5.789-5.789V-3.92C150.796-7.104,148.193-9.71,145.007-9.71z"/>
<rect x="22.664" y="-5.705" fill="#009BDB" width="123.318" height="77.652"/>
<rect x="-1.816" y="74.908" fill="#CDCED3" width="174.092" height="3.868"/>
<polygon fill="#67666A" points="119.459,78.776 51.001,78.776 -1.816,78.776 0.591,80.711 51.001,80.711 119.459,80.711 
	169.869,80.711 172.276,78.776 "/>
<circle fill="#BABABA" cx="85.23" cy="-7.806" r="0.969"/>
<circle fill="#FFFFFF" cx="85.23" cy="-7.806" r="0.719"/>
<path fill="#FFFFFF" d="M100.804,74.908H67.855v2.95c0,0.379,0.314,0.691,0.695,0.691h31.557c0.384,0,0.696-0.313,0.696-0.691
	V74.908z"/>
<path fill="#999999" d="M98.44,76.113H70.221c-0.18,0.695-0.327,0.845-0.327,1.022v0.045c0,0.181,0.147,0.329,0.327,0.329H98.44
	c0.181,0,0.33-0.148,0.33-0.329v-0.042C98.77,76.958,98.621,76.808,98.44,76.113z"/>
<circle fill="#009BDB" stroke="#FFFFFF" stroke-miterlimit="10" cx="-50.595" cy="57.631" r="6.579"/>
<circle fill="#009BDB" stroke="#FFFFFF" stroke-miterlimit="10" cx="194.06" cy="125.128" r="6.58"/>
<circle fill="#FEEE00" cx="59.657" cy="36.483" r="23.756"/>
<text transform="matrix(1 0 0 1 53.0786 46.4141)" fill="#211915" font-family="'MyriadPro-Bold'" font-size="29.5635">?</text>
<path fill="#FEEE00" d="M113.616,12.727c13.123,0,23.758,10.636,23.758,23.756c0,13.122-10.635,23.755-23.758,23.755
	c-13.117,0-23.756-10.633-23.756-23.755C89.86,23.363,100.499,12.727,113.616,12.727z"/>
<text transform="matrix(1 0 0 1 109.6587 46.4141)" fill="#211915" font-family="'MyriadPro-Bold'" font-size="29.5635">!</text>
<rect id="XMLID_1825_" x="155.428" y="39.287" transform="matrix(-0.978 0.2088 -0.2088 -0.978 321.1722 51.9837)" fill="#FFFFFF" width="4.828" height="7.32"/>
<path id="XMLID_1824_" fill="#FF9B00" d="M161.68,35.369c-0.365-1.704-2.042-2.793-3.751-2.428l-4.246,0.909
	c-1.706,0.363-2.794,2.042-2.429,3.746l0,0c0.369,1.708,2.046,2.795,3.75,2.428l4.247-0.907
	C160.958,38.756,162.043,37.076,161.68,35.369L161.68,35.369z"/>
<rect id="XMLID_1823_" x="198.136" y="62.057" transform="matrix(0.3714 0.9285 -0.9285 0.3714 187.0946 -144.8923)" fill="#FFFFFF" width="4.826" height="7.326"/>
<path id="XMLID_1394_" fill="#FF9B00" d="M204.698,58.323c1.621-0.647,3.458,0.141,4.103,1.763l1.614,4.035
	c0.645,1.617-0.141,3.456-1.762,4.105l0,0c-1.62,0.645-3.456-0.142-4.106-1.762l-1.612-4.034
	C202.289,60.81,203.076,58.97,204.698,58.323L204.698,58.323z"/>
<rect id="XMLID_1393_" x="180.685" y="41.411" transform="matrix(-0.8821 -0.4711 0.4711 -0.8821 324.8915 174.4849)" fill="#FFFFFF" width="7.196" height="10.339"/>
<path id="XMLID_1818_" fill="#009BDB" d="M184.189,46.781c-16.067-8.575-36.045-2.498-44.62,13.57
	c-8.571,16.07-2.498,36.048,13.571,44.621c16.072,8.574,36.049,2.497,44.622-13.573C206.335,75.331,200.256,55.355,184.189,46.781z
	 M156.653,98.39c-12.433-6.634-17.136-22.091-10.502-34.525c6.634-12.437,22.092-17.137,34.526-10.504
	c12.436,6.637,17.139,22.093,10.502,34.527C184.546,100.322,169.085,105.024,156.653,98.39z"/>
<path id="XMLID_1391_" fill="#FFFFFF" d="M168.664,50.358c14.096,0,25.52,11.427,25.52,25.518c0,14.094-11.424,25.519-25.52,25.519
	c-14.091,0-25.517-11.425-25.517-25.519C143.147,61.785,154.573,50.358,168.664,50.358z"/>
<g id="XMLID_1804_">
	
		<rect id="XMLID_1816_" x="177.405" y="55.472" transform="matrix(-0.8837 -0.468 0.468 -0.8837 308.3849 192.8193)" fill="#45485C" width="1.477" height="5.262"/>
	
		<rect id="XMLID_1815_" x="158.437" y="91.017" transform="matrix(-0.8829 -0.4696 0.4696 -0.8829 255.7221 251.0771)" fill="#45485C" width="1.472" height="5.26"/>
	
		<rect id="XMLID_1390_" x="165.366" y="54.989" transform="matrix(-0.0338 -0.9994 0.9994 -0.0338 117.9765 225.51)" fill="#45485C" width="5.261" height="1.476"/>
	
		<rect id="XMLID_1813_" x="166.724" y="95.276" transform="matrix(-0.0334 -0.9994 0.9994 -0.0334 79.0538 268.4818)" fill="#45485C" width="5.26" height="1.475"/>
	
		<rect id="XMLID_1812_" x="155.368" y="58.031" transform="matrix(-0.5286 -0.8488 0.8488 -0.5286 191.6387 223.9521)" fill="#45485C" width="5.261" height="1.476"/>
	
		<rect id="XMLID_1389_" x="176.696" y="92.262" transform="matrix(-0.5281 -0.8492 0.8492 -0.5281 195.051 294.3913)" fill="#45485C" width="5.261" height="1.473"/>
	
		<rect id="XMLID_1810_" x="148.25" y="65.64" transform="matrix(-0.8824 -0.4705 0.4705 -0.8824 252.7875 195.941)" fill="#45485C" width="5.264" height="1.475"/>
	
		<rect id="XMLID_1809_" x="183.822" y="84.626" transform="matrix(-0.8823 -0.4708 0.4708 -0.8823 310.7664 248.4498)" fill="#45485C" width="5.259" height="1.475"/>
	
		<rect id="XMLID_1388_" x="147.788" y="73.935" transform="matrix(-0.0324 -0.9995 0.9995 -0.0324 76.8152 227.4944)" fill="#45485C" width="1.476" height="5.26"/>
	
		<rect id="XMLID_1807_" x="188.065" y="72.561" transform="matrix(-0.0331 -0.9995 0.9995 -0.0331 119.905 266.3787)" fill="#45485C" width="1.474" height="5.26"/>
	
		<rect id="XMLID_1806_" x="150.819" y="83.897" transform="matrix(-0.5294 -0.8484 0.8484 -0.5294 158.3842 260.9113)" fill="#45485C" width="1.476" height="5.261"/>
	
		<rect id="XMLID_1805_" x="185.031" y="62.595" transform="matrix(-0.5293 -0.8484 0.8484 -0.5293 228.7634 257.3574)" fill="#45485C" width="1.472" height="5.26"/>
</g>
<circle id="XMLID_1803_" fill="#FF9B00" cx="168.664" cy="75.876" r="3.468"/>
<path id="XMLID_1802_" fill="#FF9B00" d="M194.627,41.374c1.074-2.013,0.311-4.518-1.701-5.594l-4.389-2.342
	c-2.015-1.074-4.521-0.312-5.595,1.701l-0.564,1.058c-1.076,2.013-0.313,4.52,1.703,5.594l4.384,2.341
	c2.017,1.074,4.522,0.312,5.595-1.701L194.627,41.374z"/>
<polygon id="XMLID_1801_" fill="#FF9B00" points="171.053,73.885 169.275,62.376 166.31,73.383 168.664,75.875 "/>
<circle id="XMLID_1800_" fill="#FFFFFF" cx="168.667" cy="75.878" r="1.573"/>
<g>
	<path fill="#FFFFFF" d="M155.587-43.292h27.505c5.909,0,10.741,4.834,10.741,10.742v13.526c0,5.908-4.832,10.741-10.741,10.741
		H164.02l-7.615,5.221c-1.368,0.94-3.229-0.042-3.229-1.703v-3.803c-4.756-1.104-8.331-5.377-8.331-10.456v-13.526
		C144.845-38.458,149.681-43.292,155.587-43.292z"/>
</g>
<circle fill="#FF4D7D" cx="158.108" cy="-16.56" r="3.285"/>
<circle fill="#FF4D7D" cx="171.053" cy="-16.56" r="3.285"/>
<circle fill="#FF4D7D" cx="183.998" cy="-16.56" r="3.287"/>
<image overflow="visible" width="689" height="441" xlink:href="E:\#APRENDIZAJELIBRE\PROYECTOS EJECUCIÓN\JUEGO CS\logo2.png"  transform="matrix(0.6001 0 0 0.6001 -195.7573 -359.0015)">
</image>
</svg>
