<?xml version="1.0" encoding="utf-8"?>
<!-- Generator: Adobe Illustrator 16.0.0, SVG Export Plug-In . SVG Version: 6.00 Build 0)  -->
<!DOCTYPE svg PUBLIC "-//W3C//DTD SVG 1.1//EN" "http://www.w3.org/Graphics/SVG/1.1/DTD/svg11.dtd">
<svg version="1.1" xmlns="http://www.w3.org/2000/svg" xmlns:xlink="http://www.w3.org/1999/xlink" x="0px" y="0px"
	 width="841.89px" height="595.28px" viewBox="0 0 841.89 595.28" enable-background="new 0 0 841.89 595.28" xml:space="preserve">
<g id="Capa_2" display="none">
	
		<image display="inline" overflow="visible" width="276" height="177" xlink:href="C:\Users\USUARIO\juego_CS\img\logo2.png"  transform="matrix(0.6001 0 0 0.6001 -229.1875 111.9053)">
	</image>
</g>
<g id="Capa_1">
	<line fill="none" stroke="#FFFFFF" stroke-miterlimit="10" x1="-201.125" y1="209.343" x2="-193.813" y2="209.343"/>
	<line fill="none" stroke="#FFFFFF" stroke-miterlimit="10" x1="-209.625" y1="199.562" x2="-209.625" y2="191.187"/>
	<g>
		<line fill="none" stroke="#FFFFFF" stroke-miterlimit="10" x1="-209.625" y1="184.405" x2="-209.625" y2="180.405"/>
	</g>
	<g>
		<line fill="none" stroke="#FFFFFF" stroke-miterlimit="10" x1="-206.25" y1="209.593" x2="-210.25" y2="209.593"/>
		<line fill="none" stroke="#FFFFFF" stroke-miterlimit="10" x1="-209.75" y1="206.093" x2="-209.75" y2="210.093"/>
	</g>
	<line fill="none" stroke="#FFFFFF" stroke-miterlimit="10" x1="-188.125" y1="209.343" x2="-180.813" y2="209.343"/>
	<line fill="none" stroke="#FFFFFF" stroke-miterlimit="10" x1="-176.125" y1="209.343" x2="-168.813" y2="209.343"/>
	<line fill="none" stroke="#FFFFFF" stroke-miterlimit="10" x1="-151.125" y1="209.343" x2="-143.813" y2="209.343"/>
	<line fill="none" stroke="#FFFFFF" stroke-miterlimit="10" x1="-139.125" y1="209.343" x2="-131.813" y2="209.343"/>
	<line fill="none" stroke="#FFFFFF" stroke-miterlimit="10" x1="-164.125" y1="209.343" x2="-156.813" y2="209.343"/>
	<line fill="none" stroke="#FFFFFF" stroke-miterlimit="10" x1="-126.5" y1="209.343" x2="-119.188" y2="209.343"/>
	<g>
		<path fill-rule="evenodd" clip-rule="evenodd" fill="#FFFFFF" d="M-160.805,187.172c0.583,1.382-0.07,2.991-1.452,3.574
			l-25.84,10.909c-1.382,0.583-2.99-0.07-3.574-1.453l-13.676-32.395c-0.583-1.383,0.07-2.991,1.452-3.574l25.84-10.909
			c1.382-0.583,2.99,0.07,3.574,1.453L-160.805,187.172z"/>
		<path fill="#009BDB" d="M-162.192,187.757c0.261,0.618-0.033,1.34-0.65,1.601l-25.84,10.909c-0.617,0.26-1.339-0.033-1.6-0.651
			l-13.675-32.395c-0.261-0.617,0.033-1.34,0.65-1.601l25.84-10.908c0.617-0.261,1.34,0.033,1.601,0.65L-162.192,187.757z"/>
		<path fill="#FFFFFF" d="M-188.83,155.292l-0.166-0.393c-0.191-0.454-0.717-0.663-1.165-0.474l-4.501,1.9
			c-0.448,0.189-0.665,0.712-0.474,1.166l0.166,0.394L-188.83,155.292z"/>
		<path fill="#FFFFFF" d="M-186.729,154.747l-1.628,0.688l-0.35,0.147l-6.141,2.592l-0.257,0.108l-1.72,0.726
			c-0.448,0.189-0.665,0.711-0.476,1.16l1.328,3.146c0.189,0.448,0.717,0.663,1.166,0.474l10.095-4.262
			c0.448-0.189,0.663-0.718,0.474-1.166l-1.328-3.146C-185.755,154.766-186.281,154.558-186.729,154.747L-186.729,154.747z"/>
		<path fill="#FFFFFF" d="M-194.137,172.8l-4.501,1.9c-0.12,0.051-0.26-0.005-0.311-0.125l-1.9-4.502
			c-0.048-0.115,0.008-0.255,0.128-0.306l4.501-1.9c0.121-0.051,0.26,0.006,0.309,0.122l1.9,4.501
			C-193.96,172.61-194.017,172.749-194.137,172.8L-194.137,172.8z M-198.605,174.171L-198.605,174.171l4.064-1.716l-1.716-4.064
			l-4.064,1.716L-198.605,174.171z"/>
		<path fill="#CCCCCC" d="M-197.096,173.187c-0.093,0.04-0.197,0.038-0.284-0.002l-1.399-0.646c-0.176-0.08-0.252-0.292-0.172-0.468
			c0.083-0.183,0.29-0.258,0.474-0.173l0.991,0.456l0.664-3.047c0.042-0.191,0.235-0.312,0.426-0.271
			c0.186,0.044,0.31,0.229,0.268,0.421l-0.758,3.48c-0.025,0.107-0.092,0.193-0.194,0.243
			C-197.085,173.182-197.09,173.185-197.096,173.187L-197.096,173.187z"/>
		<path fill="#FFFFFF" d="M-188.413,183.997l-6.195,2.615c-0.164,0.069-0.357-0.01-0.427-0.174l-2.615-6.195
			c-0.069-0.164,0.009-0.358,0.173-0.427l6.195-2.615c0.164-0.069,0.358,0.009,0.427,0.173l2.615,6.195
			C-188.17,183.734-188.25,183.928-188.413,183.997L-188.413,183.997z M-194.562,185.884L-194.562,185.884l5.594-2.361l-2.362-5.594
			l-5.594,2.361L-194.562,185.884z"/>
		<path fill="#FEEE00" d="M-192.61,183.813c-0.092,0.039-0.197,0.038-0.284-0.002l-1.399-0.646
			c-0.178-0.086-0.255-0.298-0.174-0.474c0.086-0.178,0.292-0.252,0.474-0.174l0.993,0.462l0.664-3.048
			c0.042-0.191,0.235-0.312,0.427-0.27c0.186,0.043,0.309,0.229,0.268,0.42l-0.758,3.48c-0.025,0.107-0.092,0.193-0.194,0.243
			C-192.6,183.808-192.605,183.81-192.61,183.813L-192.61,183.813z"/>
		
			<rect x="-194.164" y="165.474" transform="matrix(-0.9213 0.3889 -0.3889 -0.9213 -291.2389 390.7854)" fill-rule="evenodd" clip-rule="evenodd" fill="#FFFFFF" width="17.985" height="0.884"/>
		
			<rect x="-189.7" y="176.048" transform="matrix(-0.9213 0.3889 -0.3889 -0.9213 -278.5445 409.3669)" fill-rule="evenodd" clip-rule="evenodd" fill="#FEEE00" width="17.985" height="0.884"/>
		<path fill="#FFFFFF" d="M-184.802,194.914l-4.501,1.9c-0.12,0.051-0.26-0.006-0.311-0.126l-1.9-4.501
			c-0.05-0.12,0.006-0.26,0.126-0.31l4.501-1.9c0.121-0.051,0.26,0.006,0.311,0.125l1.9,4.502
			C-184.625,194.724-184.681,194.863-184.802,194.914L-184.802,194.914z M-189.27,196.285L-189.27,196.285l4.064-1.716l-1.715-4.064
			l-4.064,1.716L-189.27,196.285z"/>
		<path fill="#CCCCCC" d="M-187.761,195.3c-0.092,0.039-0.196,0.039-0.286-0.008l-1.398-0.645c-0.176-0.081-0.253-0.292-0.172-0.468
			c0.086-0.178,0.292-0.252,0.474-0.174l0.994,0.463l0.664-3.048c0.042-0.191,0.235-0.312,0.426-0.271
			c0.186,0.044,0.31,0.23,0.268,0.422l-0.758,3.48c-0.027,0.102-0.092,0.193-0.194,0.242
			C-187.75,195.296-187.755,195.298-187.761,195.3L-187.761,195.3z"/>
		
			<rect x="-184.83" y="187.583" transform="matrix(-0.9213 0.3889 -0.3889 -0.9213 -264.7054 429.6376)" fill-rule="evenodd" clip-rule="evenodd" fill="#FFFFFF" width="17.985" height="0.889"/>
	</g>
	<line fill="none" stroke="#FFFFFF" stroke-miterlimit="10" x1="-114.5" y1="209.343" x2="-107.188" y2="209.343"/>
	<line fill="none" stroke="#FFFFFF" stroke-miterlimit="10" x1="-89.5" y1="209.343" x2="-82.188" y2="209.343"/>
	<line fill="none" stroke="#FFFFFF" stroke-miterlimit="10" x1="-102.5" y1="209.343" x2="-95.188" y2="209.343"/>
	<g>
		<path fill="#595396" d="M-101.985,135.055h-66.866c-1.754,0-3.19,1.436-3.19,3.19v43.437c0,1.754,1.436,3.19,3.19,3.19h66.866
			c1.754,0,3.189-1.436,3.189-3.19v-43.437C-98.795,136.491-100.23,135.055-101.985,135.055z"/>
		<rect x="-169.389" y="137.262" fill="#FEEE00" width="67.941" height="42.781"/>
		<rect x="-182.875" y="181.675" fill="#BBF4F7" width="95.914" height="2.131"/>
		<polygon fill="#999999" points="-116.06,183.806 -153.777,183.806 -182.875,183.806 -181.55,184.872 -153.777,184.872 
			-116.06,184.872 -88.287,184.872 -86.961,183.806 		"/>
		<circle fill="#BABABA" cx="-134.918" cy="136.104" r="0.534"/>
		<circle fill="#FFFFFF" cx="-134.918" cy="136.104" r="0.396"/>
		<path fill="#FFFFFF" d="M-126.339,181.675h-18.152v1.624c0,0.21,0.173,0.382,0.383,0.382h17.386c0.211,0,0.383-0.172,0.383-0.382
			V181.675z"/>
		<path fill="#999999" d="M-127.641,182.339h-15.547c-0.099,0.383-0.18,0.465-0.18,0.563v0.024c0,0.1,0.081,0.181,0.18,0.181h15.547
			c0.099,0,0.181-0.081,0.181-0.181v-0.024C-127.46,182.804-127.542,182.722-127.641,182.339z"/>
	</g>
	<circle fill="#3D398C" stroke="#FFFFFF" stroke-miterlimit="10" cx="-209.75" cy="172.155" r="3.625"/>
	<circle fill="#3D398C" stroke="#FFFFFF" stroke-miterlimit="10" cx="-74.958" cy="209.343" r="3.625"/>
	<g>
		<circle fill="#FFFFFF" cx="-156.821" cy="160.979" r="9.643"/>
		<text transform="matrix(1 0 0 1 -159.4912 165.0098)" font-family="'MyriadPro-Bold'" font-size="12">?</text>
	</g>
	<g>
		<circle fill="#FFFFFF" cx="-113.015" cy="160.979" r="9.643"/>
		<text transform="matrix(1 0 0 1 -115.6855 165.0098)" font-family="'MyriadPro-Bold'" font-size="12">?</text>
	</g>
	<g>
		<circle fill="#FFFFFF" cx="-134.918" cy="160.979" r="9.643"/>
		<text transform="matrix(1 0 0 1 -136.5259 165.0098)" font-family="'MyriadPro-Bold'" font-size="12">!</text>
	</g>
	<g id="XMLID_1799_">
		
			<rect id="XMLID_1825_" x="-96.24" y="162.054" transform="matrix(0.9779 -0.2089 0.2089 0.9779 -36.3642 -16.2054)" fill="#45485C" width="2.66" height="4.033"/>
		<path id="XMLID_1824_" fill="#FF9B00" d="M-92.8,159.891c-0.201-0.939-1.125-1.539-2.065-1.338l-2.34,0.501
			c-0.94,0.2-1.539,1.125-1.338,2.064l0,0c0.202,0.941,1.126,1.54,2.066,1.338l2.34-0.5
			C-93.198,161.756-92.599,160.832-92.8,159.891L-92.8,159.891z"/>
		
			<rect id="XMLID_1823_" x="-72.724" y="174.6" transform="matrix(-0.3709 -0.9287 0.9287 -0.3709 -261.8945 175.8315)" fill="#45485C" width="2.659" height="4.034"/>
		<path id="XMLID_1394_" fill="#FF9B00" d="M-69.099,172.537c0.893-0.356,1.905,0.078,2.261,0.971l0.888,2.223
			c0.357,0.892-0.078,1.905-0.97,2.262l0,0c-0.892,0.356-1.905-0.078-2.262-0.971l-0.888-2.223
			C-70.426,173.906-69.992,172.894-69.099,172.537L-69.099,172.537z"/>
		
			<rect id="XMLID_1393_" x="-82.323" y="163.221" transform="matrix(0.8822 0.4709 -0.4709 0.8822 68.7352 57.3951)" fill="#45485C" width="3.966" height="5.696"/>
		<path id="XMLID_1818_" fill="#0066AD" d="M-80.398,166.178c-8.853-4.724-19.86-1.376-24.583,7.477
			c-4.723,8.853-1.376,19.859,7.477,24.583c8.854,4.723,19.86,1.376,24.583-7.477C-68.197,181.907-71.545,170.901-80.398,166.178z
			 M-95.569,194.612c-6.85-3.655-9.441-12.171-5.786-19.022c3.655-6.851,12.172-9.441,19.023-5.786
			c6.851,3.656,9.441,12.171,5.786,19.022C-80.202,195.677-88.718,198.267-95.569,194.612z"/>
		<circle id="XMLID_1391_" fill="#FFFFFF" cx="-88.951" cy="182.208" r="14.059"/>
		<g id="XMLID_1804_">
			
				<rect id="XMLID_1816_" x="-84.131" y="170.962" transform="matrix(0.883 0.4694 -0.4694 0.883 71.1332 59.4753)" fill="#45485C" width="0.813" height="2.899"/>
			
				<rect id="XMLID_1815_" x="-94.584" y="190.555" transform="matrix(0.8823 0.4706 -0.4706 0.8823 79.2796 66.9138)" fill="#45485C" width="0.812" height="2.898"/>
			
				<rect id="XMLID_1390_" x="-90.772" y="170.704" transform="matrix(0.0334 0.9994 -0.9994 0.0334 84.6724 254.675)" fill="#45485C" width="2.898" height="0.812"/>
			
				<rect id="XMLID_1813_" x="-90.028" y="192.898" transform="matrix(0.0335 0.9994 -0.9994 0.0335 107.5868 275.3534)" fill="#45485C" width="2.898" height="0.813"/>
			
				<rect id="XMLID_1812_" x="-96.271" y="172.377" transform="matrix(0.5287 0.8488 -0.8488 0.5287 101.9699 161.9081)" fill="#45485C" width="2.899" height="0.813"/>
			
				<rect id="XMLID_1389_" x="-84.529" y="191.227" transform="matrix(0.5285 0.849 -0.849 0.5285 123.5125 160.8961)" fill="#45485C" width="2.898" height="0.812"/>
			
				<rect id="XMLID_1810_" x="-100.197" y="176.574" transform="matrix(0.8823 0.4706 -0.4706 0.8823 71.6742 67.3007)" fill="#45485C" width="2.899" height="0.813"/>
			
				<rect id="XMLID_1809_" x="-80.604" y="187.029" transform="matrix(0.8822 0.4709 -0.4709 0.8822 78.9392 59.3583)" fill="#45485C" width="2.898" height="0.812"/>
			
				<rect id="XMLID_1388_" x="-100.455" y="181.13" transform="matrix(0.0331 0.9995 -0.9995 0.0331 85.7376 276.5381)" fill="#45485C" width="0.812" height="2.898"/>
			
				<rect id="XMLID_1807_" x="-78.26" y="180.387" transform="matrix(0.0336 0.9994 -0.9994 0.0336 106.4981 253.5299)" fill="#45485C" width="0.813" height="2.899"/>
			
				<rect id="XMLID_1806_" x="-98.782" y="186.629" transform="matrix(0.5282 0.8491 -0.8491 0.5282 113.2868 172.2645)" fill="#45485C" width="0.813" height="2.898"/>
			
				<rect id="XMLID_1805_" x="-79.932" y="174.888" transform="matrix(0.5289 0.8487 -0.8487 0.5289 112.1893 150.5609)" fill="#45485C" width="0.812" height="2.898"/>
		</g>
		<circle id="XMLID_1803_" fill="#FF9B00" cx="-88.951" cy="182.208" r="1.911"/>
		<path id="XMLID_1802_" fill="#FF9B00" d="M-74.647,163.199c0.592-1.109,0.171-2.489-0.938-3.082l-2.418-1.29
			c-1.109-0.592-2.489-0.172-3.082,0.937l-0.311,0.583c-0.592,1.109-0.172,2.49,0.938,3.082l2.417,1.29
			c1.11,0.592,2.49,0.172,3.082-0.937L-74.647,163.199z"/>
		<polygon id="XMLID_1801_" fill="#FF9B00" points="-87.635,181.11 -88.615,174.771 -90.248,180.835 -88.951,182.208 		"/>
		<circle id="XMLID_1800_" fill="#FFFFFF" cx="-88.951" cy="182.208" r="0.867"/>
	</g>
	<g>
		<path fill="#FFFFFF" d="M-96.156,116.553h15.155c3.255,0,5.918,2.663,5.918,5.918v7.452c0,3.255-2.663,5.918-5.918,5.918H-91.51
			l-4.195,2.876c-0.754,0.518-1.78-0.023-1.78-0.938v-2.095c-2.62-0.608-4.59-2.963-4.59-5.761v-7.452
			C-102.075,119.216-99.411,116.553-96.156,116.553z"/>
	</g>
	<circle fill="#FF4D7D" cx="-94.767" cy="131.28" r="1.81"/>
	<circle fill="#FF4D7D" cx="-87.635" cy="131.28" r="1.81"/>
	<circle fill="#FF4D7D" cx="-80.504" cy="131.28" r="1.81"/>
</g>
</svg>
