<?xml version="1.0" encoding="utf-8"?>
<!-- Generator: Adobe Illustrator 16.0.0, SVG Export Plug-In . SVG Version: 6.00 Build 0)  -->
<!DOCTYPE svg PUBLIC "-//W3C//DTD SVG 1.1//EN" "http://www.w3.org/Graphics/SVG/1.1/DTD/svg11.dtd">
<svg version="1.1" id="Capa_1" xmlns="http://www.w3.org/2000/svg" xmlns:xlink="http://www.w3.org/1999/xlink" x="0px" y="0px"
	 width="267.813px" height="74.43px" viewBox="0 50.285 267.813 74.43" enable-background="new 0 50.285 267.813 74.43"
	 xml:space="preserve">
<g id="Capa_2" display="none">
</g>
<line fill="none" stroke="#FFFFFF" stroke-miterlimit="10" x1="9.479" y1="117.099" x2="14.232" y2="117.099"/>
<line fill="none" stroke="#FFFFFF" stroke-miterlimit="10" x1="3.953" y1="110.741" x2="3.953" y2="105.298"/>
<g>
	<line fill="none" stroke="#FFFFFF" stroke-miterlimit="10" x1="3.953" y1="100.891" x2="3.953" y2="98.289"/>
</g>
<g>
	<line fill="none" stroke="#FFFFFF" stroke-miterlimit="10" x1="6.147" y1="117.262" x2="3.547" y2="117.262"/>
	<line fill="none" stroke="#FFFFFF" stroke-miterlimit="10" x1="3.871" y1="114.986" x2="3.871" y2="117.588"/>
</g>
<line fill="none" stroke="#FFFFFF" stroke-miterlimit="10" x1="17.929" y1="117.099" x2="22.682" y2="117.099"/>
<line fill="none" stroke="#FFFFFF" stroke-miterlimit="10" x1="25.729" y1="117.099" x2="30.483" y2="117.099"/>
<line fill="none" stroke="#FFFFFF" stroke-miterlimit="10" x1="41.98" y1="117.099" x2="46.734" y2="117.099"/>
<line fill="none" stroke="#FFFFFF" stroke-miterlimit="10" x1="49.781" y1="117.099" x2="54.534" y2="117.099"/>
<line fill="none" stroke="#FFFFFF" stroke-miterlimit="10" x1="33.53" y1="117.099" x2="38.283" y2="117.099"/>
<line fill="none" stroke="#FFFFFF" stroke-miterlimit="10" x1="57.987" y1="117.099" x2="62.741" y2="117.099"/>
<g>
	<path fill="#FFFFFF" d="M36.762,102.688c0.379,0.897-0.045,1.942-0.944,2.322l-16.797,7.092c-0.898,0.379-1.944-0.046-2.323-0.945
		L7.808,90.1c-0.379-0.899,0.045-1.944,0.944-2.323l16.796-7.091c0.898-0.379,1.944,0.045,2.324,0.945L36.762,102.688z"/>
	<path fill="#009BDB" d="M35.861,103.069c0.17,0.401-0.021,0.871-0.422,1.041l-16.796,7.091c-0.401,0.169-0.87-0.022-1.04-0.423
		L8.711,89.72c-0.17-0.402,0.021-0.872,0.422-1.042l16.797-7.09c0.401-0.17,0.871,0.021,1.04,0.422L35.861,103.069z"/>
	<path fill="#FFFFFF" d="M18.545,81.965l-0.107-0.256c-0.125-0.295-0.466-0.431-0.758-0.308l-2.925,1.234
		c-0.292,0.122-0.433,0.462-0.308,0.759l0.108,0.256L18.545,81.965z"/>
	<path fill="#FFFFFF" d="M19.91,81.609l-1.058,0.448l-0.228,0.095l-3.992,1.686l-0.167,0.07l-1.118,0.473
		c-0.292,0.121-0.432,0.462-0.309,0.753l0.862,2.045c0.123,0.291,0.466,0.432,0.758,0.309l6.562-2.771
		c0.292-0.123,0.431-0.467,0.309-0.758l-0.863-2.045C20.544,81.622,20.202,81.486,19.91,81.609L19.91,81.609z"/>
	<path fill="#FFFFFF" d="M15.095,93.346L12.17,94.58c-0.078,0.034-0.169-0.002-0.203-0.081l-1.235-2.926
		c-0.031-0.075,0.005-0.167,0.083-0.199l2.925-1.234c0.079-0.033,0.169,0.003,0.201,0.079l1.236,2.926
		C15.21,93.223,15.173,93.312,15.095,93.346L15.095,93.346z M12.191,94.236L12.191,94.236l2.641-1.115l-1.115-2.642l-2.642,1.115
		L12.191,94.236z"/>
	<path fill="#CCCCCC" d="M13.172,93.597c-0.061,0.026-0.128,0.024-0.185-0.002l-0.909-0.419c-0.114-0.052-0.164-0.19-0.112-0.305
		c0.054-0.119,0.188-0.168,0.309-0.112l0.644,0.297l0.432-1.98c0.027-0.125,0.152-0.203,0.276-0.177
		c0.121,0.028,0.202,0.148,0.174,0.273l-0.492,2.262c-0.017,0.07-0.06,0.125-0.126,0.159C13.179,93.594,13.176,93.595,13.172,93.597
		L13.172,93.597z"/>
	<path fill="#FFFFFF" d="M18.817,100.624l-4.027,1.699c-0.106,0.045-0.231-0.006-0.277-0.112l-1.7-4.027
		c-0.044-0.106,0.006-0.231,0.112-0.277l4.027-1.7c0.106-0.045,0.233,0.006,0.278,0.112l1.7,4.027
		C18.974,100.452,18.923,100.579,18.817,100.624L18.817,100.624z M14.82,101.852L14.82,101.852l3.636-1.535l-1.536-3.636
		l-3.636,1.534L14.82,101.852z"/>
	<path fill="#FEEE00" d="M16.088,100.504c-0.06,0.026-0.127,0.025-0.185-0.001l-0.91-0.421c-0.116-0.055-0.166-0.192-0.113-0.307
		c0.056-0.115,0.19-0.164,0.308-0.114l0.646,0.301l0.432-1.981c0.027-0.123,0.152-0.202,0.278-0.175
		c0.12,0.028,0.2,0.148,0.173,0.272l-0.493,2.263c-0.016,0.07-0.06,0.126-0.125,0.157C16.095,100.5,16.092,100.502,16.088,100.504
		L16.088,100.504z"/>
	
		<rect x="15.078" y="88.583" transform="matrix(-0.9213 0.3889 -0.3889 -0.9213 74.7628 162.6066)" fill="#FFFFFF" width="11.691" height="0.575"/>
	
		<rect x="17.98" y="95.455" transform="matrix(-0.9213 0.3889 -0.3889 -0.9213 83.0086 174.683)" fill="#FEEE00" width="11.692" height="0.574"/>
	<path fill="#FFFFFF" d="M21.163,107.72l-2.926,1.234c-0.078,0.033-0.169-0.003-0.202-0.081l-1.235-2.926
		c-0.032-0.078,0.003-0.169,0.082-0.201l2.925-1.235c0.079-0.032,0.169,0.004,0.202,0.082l1.236,2.926
		C21.279,107.597,21.242,107.688,21.163,107.72L21.163,107.72z M18.26,108.611L18.26,108.611l2.642-1.115l-1.115-2.642l-2.642,1.115
		L18.26,108.611z"/>
	<path fill="#CCCCCC" d="M19.24,107.973c-0.06,0.025-0.127,0.025-0.186-0.006l-0.909-0.421c-0.115-0.052-0.165-0.188-0.112-0.303
		c0.056-0.116,0.19-0.164,0.308-0.112l0.646,0.3l0.432-1.981c0.027-0.124,0.153-0.202,0.276-0.176
		c0.121,0.029,0.202,0.149,0.174,0.274l-0.492,2.262c-0.018,0.066-0.06,0.126-0.126,0.157
		C19.247,107.968,19.244,107.971,19.24,107.973L19.24,107.973z"/>
	
		<rect x="21.147" y="102.954" transform="matrix(-0.9213 0.3889 -0.3889 -0.9213 92.012 187.8611)" fill="#FFFFFF" width="11.691" height="0.579"/>
</g>
<line fill="none" stroke="#FFFFFF" stroke-miterlimit="10" x1="65.788" y1="117.099" x2="70.541" y2="117.099"/>
<line fill="none" stroke="#FFFFFF" stroke-miterlimit="10" x1="82.039" y1="117.099" x2="86.792" y2="117.099"/>
<line fill="none" stroke="#FFFFFF" stroke-miterlimit="10" x1="73.588" y1="117.099" x2="78.342" y2="117.099"/>
<path fill="#FFFFFF" d="M73.924,68.811H30.458c-1.14,0-2.073,0.933-2.073,2.072v28.236c0,1.141,0.934,2.074,2.073,2.074h43.466
	c1.14,0,2.073-0.934,2.073-2.074V70.883C75.996,69.743,75.064,68.811,73.924,68.811z"/>
<rect x="30.109" y="70.244" fill="#009BDB" width="44.164" height="27.81"/>
<rect x="21.341" y="99.114" fill="#CDCED3" width="62.348" height="1.386"/>
<polygon fill="#67666A" points="64.774,100.5 40.257,100.5 21.341,100.5 22.203,101.192 40.257,101.192 64.774,101.192 
	82.827,101.192 83.689,100.5 "/>
<circle fill="#BABABA" cx="52.515" cy="69.492" r="0.347"/>
<circle fill="#FFFFFF" cx="52.515" cy="69.492" r="0.257"/>
<path fill="#FFFFFF" d="M58.093,99.114h-11.8v1.057c0,0.136,0.112,0.247,0.249,0.247h11.301c0.138,0,0.25-0.112,0.25-0.247V99.114
	L58.093,99.114z"/>
<path fill="#999999" d="M57.246,99.545H47.14c-0.064,0.25-0.117,0.304-0.117,0.366v0.017c0,0.065,0.053,0.118,0.117,0.118h10.106
	c0.065,0,0.119-0.053,0.119-0.118v-0.016C57.365,99.849,57.311,99.795,57.246,99.545z"/>
<circle fill="#009BDB" stroke="#FFFFFF" stroke-miterlimit="10" cx="3.871" cy="92.927" r="2.356"/>
<circle fill="#009BDB" stroke="#FFFFFF" stroke-miterlimit="10" cx="91.491" cy="117.1" r="2.356"/>
<circle fill="#FEEE00" cx="43.357" cy="85.354" r="8.508"/>
<text transform="matrix(1 0 0 1 41.0007 88.9092)" fill="#211915" font-family="'MyriadPro-Bold'" font-size="10.5877">?</text>
<path fill="#FEEE00" d="M62.681,76.846c4.7,0,8.509,3.809,8.509,8.508s-3.809,8.507-8.509,8.507c-4.697,0-8.508-3.808-8.508-8.507
	S57.984,76.846,62.681,76.846z"/>
<text transform="matrix(1 0 0 1 61.2639 88.9092)" fill="#211915" font-family="'MyriadPro-Bold'" font-size="10.5877">!</text>
<rect id="XMLID_1825_" x="77.653" y="86.354" transform="matrix(0.9779 -0.209 0.209 0.9779 -16.5858 18.3432)" fill="#FFFFFF" width="1.729" height="2.622"/>
<path id="XMLID_1824_" fill="#FF9B00" d="M79.895,84.954c-0.131-0.61-0.731-1-1.344-0.87l-1.521,0.326
	c-0.611,0.13-1,0.731-0.87,1.342l0,0c0.132,0.611,0.732,1,1.343,0.869l1.521-0.325C79.636,86.167,80.025,85.565,79.895,84.954
	L79.895,84.954z"/>
<rect id="XMLID_1823_" x="92.954" y="94.514" transform="matrix(-0.3713 -0.9285 0.9285 -0.3713 39.6757 218.5172)" fill="#FFFFFF" width="1.728" height="2.624"/>
<path id="XMLID_1394_" fill="#FF9B00" d="M95.301,93.175c0.58-0.231,1.238,0.051,1.469,0.631l0.578,1.445
	c0.23,0.579-0.051,1.237-0.631,1.471l0,0c-0.58,0.23-1.238-0.051-1.47-0.632l-0.578-1.444
	C94.438,94.065,94.719,93.406,95.301,93.175L95.301,93.175z"/>
<rect id="XMLID_1393_" x="86.7" y="87.118" transform="matrix(0.8821 0.471 -0.471 0.8821 52.2756 -30.956)" fill="#FFFFFF" width="2.577" height="3.702"/>
<path id="XMLID_1818_" fill="#009BDB" d="M87.956,89.041c-5.754-3.071-12.909-0.895-15.98,4.859
	c-3.07,5.756-0.895,12.91,4.86,15.981c5.756,3.07,12.91,0.894,15.98-4.862C95.887,99.266,93.71,92.111,87.956,89.041z
	 M78.094,107.524c-4.453-2.376-6.137-7.912-3.761-12.365c2.375-4.454,7.912-6.137,12.364-3.762
	c4.454,2.377,6.138,7.912,3.761,12.365C88.083,108.216,82.547,109.899,78.094,107.524z"/>
<path id="XMLID_1391_" fill="#FFFFFF" d="M82.396,90.322c5.048,0,9.139,4.092,9.139,9.139c0,5.048-4.091,9.139-9.139,9.139
	c-5.046,0-9.139-4.091-9.139-9.139C73.257,94.414,77.349,90.322,82.396,90.322z"/>
<g id="XMLID_1804_">
	
		<rect id="XMLID_1816_" x="85.529" y="92.153" transform="matrix(0.8831 0.4692 -0.4692 0.8831 53.7165 -29.3722)" fill="#45485C" width="0.529" height="1.884"/>
	
		<rect id="XMLID_1815_" x="78.73" y="104.884" transform="matrix(0.8825 0.4704 -0.4704 0.8825 59.0652 -24.7191)" fill="#45485C" width="0.527" height="1.884"/>
	
		<rect id="XMLID_1390_" x="81.213" y="91.982" transform="matrix(0.034 0.9994 -0.9994 0.034 171.5585 7.0064)" fill="#45485C" width="1.884" height="0.529"/>
	
		<rect id="XMLID_1813_" x="81.701" y="106.411" transform="matrix(0.0334 0.9994 -0.9994 0.0334 186.4955 20.5126)" fill="#45485C" width="1.884" height="0.529"/>
	
		<rect id="XMLID_1812_" x="77.636" y="93.073" transform="matrix(0.5286 0.8488 -0.8488 0.5286 116.2665 -22.7051)" fill="#45485C" width="1.883" height="0.528"/>
	
		<rect id="XMLID_1389_" x="85.271" y="105.328" transform="matrix(0.5278 0.8494 -0.8494 0.5278 130.3949 -23.3665)" fill="#45485C" width="1.884" height="0.527"/>
	
		<rect id="XMLID_1810_" x="75.084" y="95.795" transform="matrix(0.8825 0.4704 -0.4704 0.8825 54.1195 -24.4709)" fill="#45485C" width="1.885" height="0.529"/>
	
		<rect id="XMLID_1809_" x="87.823" y="102.591" transform="matrix(0.8823 0.4707 -0.4707 0.8823 58.8615 -29.675)" fill="#45485C" width="1.884" height="0.528"/>
	
		<rect id="XMLID_1388_" x="74.921" y="98.764" transform="matrix(0.0333 0.9994 -0.9994 0.0333 172.3356 21.2473)" fill="#45485C" width="0.529" height="1.884"/>
	
		<rect id="XMLID_1807_" x="89.346" y="98.27" transform="matrix(0.0333 0.9994 -0.9994 0.0333 185.7821 6.3468)" fill="#45485C" width="0.528" height="1.884"/>
	
		<rect id="XMLID_1806_" x="76.006" y="102.332" transform="matrix(0.5288 0.8487 -0.8487 0.5288 123.5865 -16.0734)" fill="#45485C" width="0.528" height="1.884"/>
	
		<rect id="XMLID_1805_" x="88.26" y="94.706" transform="matrix(0.529 0.8486 -0.8486 0.529 122.8635 -30.0725)" fill="#45485C" width="0.527" height="1.884"/>
</g>
<circle id="XMLID_1803_" fill="#FF9B00" cx="82.396" cy="99.461" r="1.242"/>
<path id="XMLID_1802_" fill="#FF9B00" d="M91.694,87.104c0.385-0.721,0.111-1.617-0.609-2.002l-1.572-0.84
	c-0.722-0.385-1.619-0.111-2.004,0.609l-0.202,0.379c-0.385,0.722-0.112,1.619,0.609,2.004l1.57,0.838
	c0.722,0.385,1.62,0.112,2.004-0.608L91.694,87.104z"/>
<polygon id="XMLID_1801_" fill="#FF9B00" points="83.251,98.748 82.615,94.626 81.552,98.568 82.396,99.46 "/>
<circle id="XMLID_1800_" fill="#FFFFFF" cx="82.397" cy="99.461" r="0.563"/>
<g>
	<path fill="#FFFFFF" d="M77.712,56.783h9.851c2.116,0,3.847,1.73,3.847,3.847v4.845c0,2.115-1.73,3.846-3.847,3.846h-6.83
		l-2.728,1.871c-0.49,0.336-1.156-0.016-1.156-0.611v-1.361c-1.703-0.395-2.983-1.926-2.983-3.744V60.63
		C73.865,58.514,75.597,56.783,77.712,56.783z"/>
</g>
<circle fill="#FF4D7D" cx="78.615" cy="66.356" r="1.177"/>
<circle fill="#FF4D7D" cx="83.251" cy="66.356" r="1.177"/>
<circle fill="#FF4D7D" cx="87.887" cy="66.356" r="1.177"/>
<rect x="105.557" y="56.543" fill="#FFFFFF" width="1.492" height="63.913"/>
<g>
	<path fill="#FFFFFF" d="M117.499,73.055h-3.752v-1.927h9.601v1.927h-3.752v9.905h-2.096V73.055z"/>
	<path fill="#FFFFFF" d="M122.891,78.531v-0.033c0-2.553,1.809-4.649,4.361-4.649c2.839,0,4.276,2.232,4.276,4.8
		c0,0.186-0.017,0.372-0.034,0.575h-6.558c0.22,1.454,1.25,2.265,2.569,2.265c0.997,0,1.707-0.373,2.417-1.065l1.2,1.065
		c-0.845,1.013-2.012,1.672-3.651,1.672C124.886,83.162,122.891,81.286,122.891,78.531z M129.5,77.872
		c-0.135-1.318-0.913-2.349-2.265-2.349c-1.251,0-2.129,0.963-2.315,2.349H129.5z"/>
	<path fill="#FFFFFF" d="M132.865,81.793l0.913-1.386c0.963,0.727,2.012,1.099,2.924,1.099c0.879,0,1.386-0.372,1.386-0.963v-0.034
		c0-0.692-0.946-0.929-1.994-1.251c-1.318-0.372-2.789-0.913-2.789-2.619v-0.034c0-1.69,1.403-2.721,3.177-2.721
		c1.115,0,2.332,0.389,3.279,1.015l-0.812,1.453c-0.862-0.524-1.774-0.845-2.519-0.845c-0.795,0-1.25,0.372-1.25,0.896v0.034
		c0,0.642,0.963,0.913,2.011,1.25c1.302,0.406,2.771,0.998,2.771,2.604v0.033c0,1.876-1.453,2.806-3.313,2.806
		C135.383,83.128,133.98,82.672,132.865,81.793z"/>
	<path fill="#FFFFFF" d="M142.297,80.492v-4.699h-1.132v-1.757h1.132v-2.451h2.045v2.451h2.4v1.757h-2.4v4.378
		c0,0.794,0.406,1.115,1.1,1.115c0.456,0,0.861-0.102,1.268-0.305v1.674c-0.508,0.287-1.082,0.457-1.843,0.457
		C143.363,83.112,142.297,82.453,142.297,80.492z"/>
	<path fill="#FFFFFF" d="M113.899,98.799v-0.034c0-2.957,2.011-4.631,4.141-4.631c1.471,0,2.4,0.744,3.043,1.572v-4.8h2.045v12.338
		h-2.045v-1.487c-0.659,0.93-1.589,1.673-3.043,1.673C115.944,103.43,113.899,101.757,113.899,98.799z M121.116,98.799v-0.034
		c0-1.724-1.217-2.855-2.586-2.855c-1.403,0-2.569,1.081-2.569,2.855v0.034c0,1.725,1.183,2.857,2.569,2.857
		C119.899,101.656,121.116,100.506,121.116,98.799z"/>
	<path fill="#FFFFFF" d="M125.191,98.815v-0.033c0-2.553,1.809-4.648,4.361-4.648c2.84,0,4.276,2.231,4.276,4.8
		c0,0.187-0.017,0.372-0.034,0.575h-6.558c0.22,1.454,1.25,2.266,2.569,2.266c0.997,0,1.707-0.373,2.417-1.065l1.2,1.065
		c-0.845,1.013-2.012,1.672-3.651,1.672C127.185,103.446,125.191,101.57,125.191,98.815z M131.8,98.156
		c-0.136-1.318-0.913-2.349-2.265-2.349c-1.251,0-2.13,0.963-2.315,2.349H131.8z"/>
	<path fill="#FFFFFF" d="M140.472,98.833v-0.034c0-2.535,1.961-4.665,4.631-4.665c1.689,0,2.738,0.626,3.566,1.538l-1.268,1.369
		c-0.626-0.659-1.285-1.115-2.315-1.115c-1.488,0-2.569,1.285-2.569,2.839v0.034c0,1.589,1.099,2.874,2.671,2.874
		c0.963,0,1.673-0.457,2.314-1.116l1.234,1.218c-0.879,0.979-1.91,1.672-3.65,1.672C142.433,103.446,140.472,101.368,140.472,98.833
		z"/>
	<path fill="#FFFFFF" d="M149.87,98.833v-0.034c0-2.552,2.028-4.665,4.767-4.665c2.737,0,4.749,2.079,4.749,4.631v0.034
		c0,2.535-2.028,4.647-4.783,4.647C151.882,103.446,149.87,101.368,149.87,98.833z M157.341,98.833v-0.034
		c0-1.571-1.132-2.873-2.738-2.873c-1.639,0-2.688,1.285-2.688,2.839v0.034c0,1.556,1.133,2.874,2.722,2.874
		C156.293,101.673,157.341,100.371,157.341,98.833z"/>
	<path fill="#FFFFFF" d="M161.466,94.32h2.045v1.386c0.575-0.845,1.403-1.572,2.789-1.572c2.011,0,3.178,1.353,3.178,3.431v5.68
		h-2.045v-5.07c0-1.386-0.693-2.181-1.91-2.181c-1.184,0-2.012,0.828-2.012,2.214v5.037h-2.045V94.32z"/>
	<path fill="#FFFFFF" d="M171.457,98.833v-0.034c0-2.552,2.028-4.665,4.767-4.665c2.737,0,4.749,2.079,4.749,4.631v0.034
		c0,2.535-2.028,4.647-4.783,4.647C173.469,103.446,171.457,101.368,171.457,98.833z M178.928,98.833v-0.034
		c0-1.571-1.133-2.873-2.738-2.873c-1.64,0-2.688,1.285-2.688,2.839v0.034c0,1.556,1.132,2.874,2.722,2.874
		C177.879,101.673,178.928,100.371,178.928,98.833z"/>
	<path fill="#FFFFFF" d="M182.563,98.833v-0.034c0-2.535,1.961-4.665,4.631-4.665c1.689,0,2.738,0.626,3.566,1.538l-1.268,1.369
		c-0.626-0.659-1.285-1.115-2.315-1.115c-1.488,0-2.569,1.285-2.569,2.839v0.034c0,1.589,1.099,2.874,2.671,2.874
		c0.963,0,1.673-0.457,2.314-1.116l1.234,1.218c-0.879,0.979-1.91,1.672-3.65,1.672C184.524,103.446,182.563,101.368,182.563,98.833
		z"/>
	<path fill="#FFFFFF" d="M192.74,91.007h2.197v1.944h-2.197V91.007z M192.823,94.32h2.045v8.924h-2.045V94.32z"/>
	<path fill="#FFFFFF" d="M197.539,94.32h2.045v1.352c0.575-0.794,1.353-1.538,2.723-1.538c1.284,0,2.18,0.626,2.653,1.572
		c0.727-0.946,1.673-1.572,3.024-1.572c1.944,0,3.127,1.234,3.127,3.414v5.696h-2.045v-5.07c0-1.42-0.659-2.181-1.809-2.181
		c-1.115,0-1.91,0.777-1.91,2.214v5.037h-2.045v-5.088c0-1.386-0.676-2.163-1.809-2.163c-1.132,0-1.91,0.845-1.91,2.23v5.021h-2.045
		V94.32z"/>
	<path fill="#FFFFFF" d="M213.633,91.007h2.196v1.944h-2.196V91.007z M213.717,94.32h2.045v8.924h-2.045V94.32z"/>
	<path fill="#FFFFFF" d="M217.943,98.815v-0.033c0-2.553,1.809-4.648,4.361-4.648c2.839,0,4.276,2.231,4.276,4.8
		c0,0.187-0.018,0.372-0.034,0.575h-6.559c0.221,1.454,1.251,2.266,2.569,2.266c0.998,0,1.707-0.373,2.417-1.065l1.2,1.065
		c-0.845,1.013-2.011,1.672-3.651,1.672C219.937,103.446,217.943,101.57,217.943,98.815z M224.551,98.156
		c-0.135-1.318-0.912-2.349-2.265-2.349c-1.25,0-2.129,0.963-2.315,2.349H224.551z"/>
	<path fill="#FFFFFF" d="M228.643,94.32h2.045v1.386c0.575-0.845,1.403-1.572,2.789-1.572c2.011,0,3.178,1.353,3.178,3.431v5.68
		h-2.045v-5.07c0-1.386-0.693-2.181-1.91-2.181c-1.184,0-2.012,0.828-2.012,2.214v5.037h-2.045V94.32z"/>
	<path fill="#FFFFFF" d="M239.545,100.776v-4.698h-1.132V94.32h1.132v-2.451h2.045v2.451h2.4v1.758h-2.4v4.378
		c0,0.794,0.406,1.114,1.1,1.114c0.456,0,0.861-0.102,1.268-0.304v1.674c-0.508,0.287-1.082,0.456-1.843,0.456
		C240.611,103.396,239.545,102.737,239.545,100.776z"/>
	<path fill="#FFFFFF" d="M245.31,98.833v-0.034c0-2.552,2.028-4.665,4.767-4.665s4.75,2.079,4.75,4.631v0.034
		c0,2.535-2.029,4.647-4.784,4.647C247.322,103.446,245.31,101.368,245.31,98.833z M252.781,98.833v-0.034
		c0-1.571-1.132-2.873-2.738-2.873c-1.639,0-2.688,1.285-2.688,2.839v0.034c0,1.556,1.133,2.874,2.722,2.874
		C251.733,101.673,252.781,100.371,252.781,98.833z"/>
	<path fill="#FFFFFF" d="M256.179,102.078l0.913-1.386c0.964,0.727,2.012,1.099,2.924,1.099c0.88,0,1.386-0.372,1.386-0.964v-0.034
		c0-0.692-0.946-0.929-1.994-1.251c-1.318-0.371-2.788-0.912-2.788-2.619v-0.034c0-1.689,1.402-2.721,3.177-2.721
		c1.116,0,2.333,0.389,3.279,1.015l-0.811,1.453c-0.863-0.524-1.775-0.845-2.519-0.845c-0.795,0-1.251,0.371-1.251,0.896v0.033
		c0,0.643,0.963,0.913,2.011,1.251c1.302,0.406,2.771,0.997,2.771,2.604v0.033c0,1.876-1.453,2.806-3.313,2.806
		C258.698,103.413,257.295,102.957,256.179,102.078z"/>
</g>
</svg>
