<?xml version="1.0" encoding="utf-8"?>
<!-- Generator: Adobe Illustrator 16.0.0, SVG Export Plug-In . SVG Version: 6.00 Build 0)  -->
<!DOCTYPE svg PUBLIC "-//W3C//DTD SVG 1.1//EN" "http://www.w3.org/Graphics/SVG/1.1/DTD/svg11.dtd">
<svg version="1.1"
	 id="svg3081" xmlns:dc="http://purl.org/dc/elements/1.1/" xmlns:cc="http://creativecommons.org/ns#" xmlns:rdf="http://www.w3.org/1999/02/22-rdf-syntax-ns#" xmlns:svg="http://www.w3.org/2000/svg" xmlns:sodipodi="http://sodipodi.sourceforge.net/DTD/sodipodi-0.dtd" xmlns:inkscape="http://www.inkscape.org/namespaces/inkscape" sodipodi:docname="bien.svg" inkscape:version="0.48.5 r10040"
	 xmlns="http://www.w3.org/2000/svg" xmlns:xlink="http://www.w3.org/1999/xlink" x="0px" y="0px" width="100px" height="100px"
	 viewBox="0 0 100 100" enable-background="new 0 0 100 100" xml:space="preserve">
<sodipodi:namedview  showgrid="false" inkscape:cy="114.69393" inkscape:cx="95.994782" inkscape:zoom="0.98994949" borderopacity="1.0" bordercolor="#666666" pagecolor="#ffffff" id="base" inkscape:window-maximized="1" inkscape:window-y="27" inkscape:current-layer="layer1" inkscape:window-x="0" inkscape:pageshadow="2" inkscape:document-units="px" inkscape:pageopacity="0.0" inkscape:window-height="702" inkscape:window-width="1366">
	</sodipodi:namedview>
<g id="layer1" transform="translate(0,-803.00231)" inkscape:label="Capa 1" inkscape:groupmode="layer">
	<path id="path18" inkscape:connector-curvature="0" fill="#C51E26" d="M100,819.649l-2.73,9.49c0,0-53.428,30.994-82.865,74.742
		l30.348-62.805L100,819.649"/>
	<path id="path22" inkscape:connector-curvature="0" fill="#C51E26" d="M0.001,821.621l1.377,6.887c0,0,56.541,35.559,85.722,75.791
		L45.98,839.308L0.001,821.621"/>
	<path id="path28" inkscape:connector-curvature="0" fill="#EC1D27" d="M64.307,844.325C84.104,827.557,100,819.65,100,819.65
		c-0.568-7.065-8.699-16.647-8.699-16.647c-15.408,3.271-31.068,15.834-41.795,26.166c-10.859-9.916-26.178-21.457-41.105-24.344
		c0,0-7.957,9.725-8.399,16.799c0,0,15.487,7.361,35.095,23.188c-34.017,44.064-20.691,59.072-20.691,59.072
		c10.576-18.609,23.16-33.936,35.383-46.18C62.568,869.893,75.87,885.34,87.1,904.301c0,0,13.264-15.473-22.549-59.686
		C64.551,844.614,64.465,844.51,64.307,844.325"/>
</g>
</svg>
