<?xml version="1.0" encoding="utf-8"?>
<!-- Generator: Adobe Illustrator 16.0.0, SVG Export Plug-In . SVG Version: 6.00 Build 0)  -->
<!DOCTYPE svg PUBLIC "-//W3C//DTD SVG 1.1//EN" "http://www.w3.org/Graphics/SVG/1.1/DTD/svg11.dtd">
<svg version="1.1" id="Capa_1" xmlns="http://www.w3.org/2000/svg" xmlns:xlink="http://www.w3.org/1999/xlink" x="0px" y="0px"
	 width="32.453px" height="60.185px" viewBox="0 0 32.453 60.185" enable-background="new 0 0 32.453 60.185" xml:space="preserve">
<g>
	<g>
		<ellipse fill="#E3E4E4" cx="16.226" cy="59.136" rx="10.338" ry="1.049"/>
		<ellipse fill="#E2E3E3" cx="16.226" cy="59.136" rx="10.311" ry="1.037"/>
		<ellipse fill="#E1E2E2" cx="16.226" cy="59.136" rx="10.284" ry="1.025"/>
		<ellipse fill="#E1E1E2" cx="16.226" cy="59.136" rx="10.257" ry="1.013"/>
		<ellipse fill="#E0E0E1" cx="16.226" cy="59.136" rx="10.23" ry="1.001"/>
		<ellipse fill="#DFDFE0" cx="16.226" cy="59.136" rx="10.202" ry="0.989"/>
		<ellipse fill="#DEDEDF" cx="16.226" cy="59.136" rx="10.175" ry="0.978"/>
		<ellipse fill="#DDDEDE" cx="16.227" cy="59.136" rx="10.148" ry="0.966"/>
		<ellipse fill="#DCDDDD" cx="16.226" cy="59.136" rx="10.121" ry="0.953"/>
		<ellipse fill="#DBDCDD" cx="16.226" cy="59.136" rx="10.094" ry="0.941"/>
		<ellipse fill="#DADBDC" cx="16.226" cy="59.136" rx="10.067" ry="0.93"/>
		<ellipse fill="#D9DADB" cx="16.226" cy="59.136" rx="10.04" ry="0.918"/>
		<ellipse fill="#D8D9DA" cx="16.226" cy="59.136" rx="10.012" ry="0.906"/>
		<ellipse fill="#D7D8D9" cx="16.226" cy="59.136" rx="9.985" ry="0.894"/>
		<ellipse fill="#D6D7D8" cx="16.226" cy="59.136" rx="9.958" ry="0.882"/>
		<ellipse fill="#D5D6D8" cx="16.226" cy="59.136" rx="9.931" ry="0.87"/>
		<ellipse fill="#D5D5D7" cx="16.227" cy="59.136" rx="9.904" ry="0.858"/>
		<ellipse fill="#D4D5D6" cx="16.226" cy="59.136" rx="9.877" ry="0.847"/>
		<ellipse fill="#D3D4D5" cx="16.226" cy="59.136" rx="9.85" ry="0.835"/>
		<ellipse fill="#D2D3D4" cx="16.226" cy="59.136" rx="9.823" ry="0.823"/>
		<ellipse fill="#D1D2D3" cx="16.226" cy="59.136" rx="9.796" ry="0.811"/>
		<ellipse fill="#D0D1D3" cx="16.226" cy="59.136" rx="9.769" ry="0.798"/>
		<ellipse fill="#CFD0D2" cx="16.226" cy="59.136" rx="9.741" ry="0.786"/>
		<ellipse fill="#CECFD1" cx="16.226" cy="59.136" rx="9.714" ry="0.774"/>
		<ellipse fill="#CDCED0" cx="16.226" cy="59.136" rx="9.687" ry="0.763"/>
		<ellipse fill="#CCCDCF" cx="16.226" cy="59.136" rx="9.66" ry="0.751"/>
		<ellipse fill="#CCCCCE" cx="16.226" cy="59.136" rx="9.633" ry="0.739"/>
		<ellipse fill="#CBCCCD" cx="16.226" cy="59.136" rx="9.605" ry="0.728"/>
		<ellipse fill="#CACBCC" cx="16.226" cy="59.136" rx="9.579" ry="0.715"/>
		<ellipse fill="#C9CACB" cx="16.226" cy="59.136" rx="9.551" ry="0.703"/>
		<ellipse fill="#C8C9CB" cx="16.226" cy="59.136" rx="9.524" ry="0.691"/>
		<ellipse fill="#C7C8CA" cx="16.226" cy="59.136" rx="9.497" ry="0.68"/>
		<ellipse fill="#C6C7C9" cx="16.226" cy="59.136" rx="9.47" ry="0.667"/>
		<ellipse fill="#C5C6C8" cx="16.226" cy="59.136" rx="9.443" ry="0.655"/>
		<ellipse fill="#C5C5C7" cx="16.226" cy="59.136" rx="9.416" ry="0.644"/>
		<ellipse fill="#C4C4C6" cx="16.226" cy="59.136" rx="9.389" ry="0.632"/>
		<ellipse fill="#C3C4C5" cx="16.226" cy="59.136" rx="9.362" ry="0.62"/>
		<ellipse fill="#C2C3C4" cx="16.226" cy="59.136" rx="9.335" ry="0.607"/>
		<ellipse fill="#C1C2C3" cx="16.226" cy="59.136" rx="9.307" ry="0.596"/>
		<ellipse fill="#C0C1C2" cx="16.226" cy="59.136" rx="9.28" ry="0.584"/>
		<ellipse fill="#BFC0C2" cx="16.226" cy="59.136" rx="9.253" ry="0.572"/>
		<ellipse fill="#BEBFC1" cx="16.226" cy="59.136" rx="9.226" ry="0.56"/>
		<ellipse fill="#BEBEC0" cx="16.226" cy="59.136" rx="9.199" ry="0.548"/>
		<ellipse fill="#BDBDBF" cx="16.226" cy="59.136" rx="9.172" ry="0.536"/>
		<ellipse fill="#BCBCBE" cx="16.226" cy="59.136" rx="9.145" ry="0.524"/>
	</g>
	<g>
		<linearGradient id="SVGID_1_" gradientUnits="userSpaceOnUse" x1="16.2246" y1="21.3633" x2="16.2246" y2="22.2783">
			<stop  offset="0" style="stop-color:#707172"/>
			<stop  offset="0.0656" style="stop-color:#606163"/>
			<stop  offset="0.1477" style="stop-color:#525354"/>
			<stop  offset="0.2446" style="stop-color:#48494A"/>
			<stop  offset="0.3646" style="stop-color:#414243"/>
			<stop  offset="0.5328" style="stop-color:#3E3E3F"/>
			<stop  offset="1" style="stop-color:#3C3C3E"/>
		</linearGradient>
		<rect x="3.345" y="21.363" fill="url(#SVGID_1_)" width="25.759" height="0.915"/>
		<path fill="#ABABAB" d="M32.453,23.351c0,0.842-0.684,1.523-1.525,1.523l0,0c-0.843,0-1.525-0.682-1.525-1.523v-3.203
			c0-0.843,0.683-1.526,1.525-1.526l0,0c0.842,0,1.525,0.684,1.525,1.526V23.351z"/>
		<path fill="#ABABAB" d="M3.05,23.351c0,0.842-0.684,1.523-1.525,1.523l0,0C0.684,24.874,0,24.192,0,23.351v-3.203
			c0-0.843,0.684-1.526,1.525-1.526l0,0c0.842,0,1.525,0.684,1.525,1.526V23.351z"/>
		<linearGradient id="SVGID_2_" gradientUnits="userSpaceOnUse" x1="16.2261" y1="17.5361" x2="16.2261" y2="44.4878">
			<stop  offset="0" style="stop-color:#3A3A3A"/>
			<stop  offset="0.277" style="stop-color:#2F2F2F"/>
			<stop  offset="0.7673" style="stop-color:#111111"/>
			<stop  offset="1" style="stop-color:#000000"/>
		</linearGradient>
		<path fill="url(#SVGID_2_)" d="M1.573,32.577V18.589c0-0.582,0.472-1.053,1.056-1.053l0,0c0.581,0,1.052,0.471,1.052,1.053l0,0
			v13.988c0.002,2.63,1.328,5.044,3.589,6.853l0,0c2.255,1.804,5.43,2.951,8.958,2.951l0,0c3.526,0,6.7-1.147,8.956-2.951l0,0
			c2.259-1.809,3.586-4.223,3.586-6.853l0,0V18.589c0-0.582,0.471-1.053,1.055-1.053l0,0c0.582,0,1.055,0.471,1.055,1.053l0,0
			v13.988c-0.047,6.775-6.727,11.9-14.651,11.91l0,0C8.301,44.478,1.622,39.353,1.573,32.577L1.573,32.577z"/>
		<linearGradient id="SVGID_3_" gradientUnits="userSpaceOnUse" x1="16.2261" y1="40.9551" x2="16.2261" y2="59.1357">
			<stop  offset="0.2418" style="stop-color:#141313"/>
			<stop  offset="0.8132" style="stop-color:#363636"/>
			<stop  offset="1" style="stop-color:#272727"/>
		</linearGradient>
		<path fill="url(#SVGID_3_)" d="M25.161,58.571l-2.751-5.28c-0.131-0.312-0.512-0.563-0.848-0.563h-3.755v-10.19
			c0-0.876-0.708-1.582-1.581-1.582c-0.875,0-1.583,0.706-1.583,1.582v10.19H10.89c-0.337,0-0.718,0.252-0.847,0.563l-2.753,5.28
			c-0.129,0.31,0.04,0.564,0.377,0.564h17.119C25.123,59.136,25.292,58.881,25.161,58.571z"/>
		<linearGradient id="SVGID_4_" gradientUnits="userSpaceOnUse" x1="5.4038" y1="10.9419" x2="27.1172" y2="10.9419">
			<stop  offset="0.0055" style="stop-color:#666668"/>
			<stop  offset="0.0625" style="stop-color:#7F7C7E"/>
			<stop  offset="0.1354" style="stop-color:#9C9A9A"/>
			<stop  offset="0.1959" style="stop-color:#AFAEAE"/>
			<stop  offset="0.2363" style="stop-color:#B6B6B6"/>
			<stop  offset="0.3665" style="stop-color:#D1D1D2"/>
			<stop  offset="0.518" style="stop-color:#ECECEC"/>
			<stop  offset="0.6044" style="stop-color:#F5F5F5"/>
			<stop  offset="0.6888" style="stop-color:#F2F2F2"/>
			<stop  offset="0.7796" style="stop-color:#E7E7E7"/>
			<stop  offset="0.8734" style="stop-color:#D3D5D6"/>
			<stop  offset="0.9686" style="stop-color:#B9BDBD"/>
			<stop  offset="1" style="stop-color:#AFB3B3"/>
		</linearGradient>
		<path fill="url(#SVGID_4_)" d="M27.117,10.992c0-5.997-4.859-10.856-10.855-10.856c-5.998,0-10.858,4.859-10.858,10.856v10.756
			h21.713V10.992z"/>
		<linearGradient id="SVGID_5_" gradientUnits="userSpaceOnUse" x1="5.4038" y1="31.2051" x2="27.1172" y2="31.2051">
			<stop  offset="0.2418" style="stop-color:#141313"/>
			<stop  offset="0.6484" style="stop-color:#444444"/>
			<stop  offset="0.8132" style="stop-color:#363636"/>
			<stop  offset="1" style="stop-color:#272727"/>
		</linearGradient>
		<path fill="url(#SVGID_5_)" d="M5.404,21.748v8.058c0,5.996,4.861,10.856,10.858,10.856c5.996,0,10.855-4.86,10.855-10.856v-8.058
			H5.404z"/>
		<linearGradient id="SVGID_6_" gradientUnits="userSpaceOnUse" x1="19.9609" y1="0.1357" x2="19.9609" y2="39.3381">
			<stop  offset="0" style="stop-color:#CBCFD3"/>
			<stop  offset="0.1106" style="stop-color:#BDBEC2"/>
			<stop  offset="0.3071" style="stop-color:#979496"/>
			<stop  offset="0.5666" style="stop-color:#636061"/>
			<stop  offset="0.8762" style="stop-color:#2E2D2D"/>
			<stop  offset="0.9" style="stop-color:#292929"/>
		</linearGradient>
		<path fill="url(#SVGID_6_)" d="M18.866,0.464L18.866,0.464c-0.003,0.016-0.007,0.032-0.007,0.049v15.77
			c0,0.608,0.494,1.102,1.102,1.102s1.102-0.493,1.102-1.102V1.266c-0.346-0.17-0.699-0.322-1.062-0.455
			c-0.007-0.002-0.013-0.004-0.02-0.007C19.619,0.672,19.246,0.558,18.866,0.464z"/>
		<linearGradient id="SVGID_7_" gradientUnits="userSpaceOnUse" x1="23.6602" y1="0.1362" x2="23.6602" y2="39.3377">
			<stop  offset="0" style="stop-color:#CBCFD3"/>
			<stop  offset="0.1106" style="stop-color:#BDBEC2"/>
			<stop  offset="0.3071" style="stop-color:#979496"/>
			<stop  offset="0.5666" style="stop-color:#636061"/>
			<stop  offset="0.8762" style="stop-color:#2E2D2D"/>
			<stop  offset="0.9" style="stop-color:#292929"/>
		</linearGradient>
		<path fill="url(#SVGID_7_)" d="M23.745,3.14c-0.02-0.019-0.04-0.036-0.06-0.054c-0.354-0.331-0.727-0.641-1.121-0.922
			c-0.002-0.001-0.004-0.003-0.005-0.004v14.122c0,0.608,0.493,1.102,1.1,1.102c0.609,0,1.103-0.493,1.103-1.102V4.249
			c-0.13-0.164-0.268-0.32-0.406-0.476c-0.055-0.061-0.109-0.121-0.164-0.18C24.046,3.438,23.898,3.286,23.745,3.14z"/>
		<linearGradient id="SVGID_8_" gradientUnits="userSpaceOnUse" x1="16.2612" y1="0.1357" x2="16.2612" y2="39.3378">
			<stop  offset="0" style="stop-color:#CBCFD3"/>
			<stop  offset="0.1106" style="stop-color:#BDBEC2"/>
			<stop  offset="0.3071" style="stop-color:#979496"/>
			<stop  offset="0.5666" style="stop-color:#636061"/>
			<stop  offset="0.8762" style="stop-color:#2E2D2D"/>
			<stop  offset="0.9" style="stop-color:#292929"/>
		</linearGradient>
		<path fill="url(#SVGID_8_)" d="M15.214,0.188c-0.032,0.104-0.054,0.21-0.054,0.324v15.77c0,0.608,0.493,1.102,1.1,1.102
			c0.609,0,1.102-0.493,1.102-1.102V0.513c0-0.114-0.022-0.221-0.054-0.324c-0.345-0.033-0.693-0.053-1.046-0.053
			C15.909,0.136,15.56,0.155,15.214,0.188z"/>
		<linearGradient id="SVGID_9_" gradientUnits="userSpaceOnUse" x1="12.561" y1="0.1367" x2="12.561" y2="39.3373">
			<stop  offset="0" style="stop-color:#CBCFD3"/>
			<stop  offset="0.1106" style="stop-color:#BDBEC2"/>
			<stop  offset="0.3071" style="stop-color:#979496"/>
			<stop  offset="0.5666" style="stop-color:#636061"/>
			<stop  offset="0.8762" style="stop-color:#2E2D2D"/>
			<stop  offset="0.9" style="stop-color:#292929"/>
		</linearGradient>
		<path fill="url(#SVGID_9_)" d="M11.463,1.266c-0.002,0-0.002,0-0.002,0l0,15.017c0,0.608,0.492,1.102,1.1,1.102
			c0.609,0,1.101-0.493,1.101-1.102V0.513c0-0.017-0.003-0.033-0.005-0.049c-0.379,0.094-0.752,0.208-1.115,0.341
			c-0.007,0.002-0.014,0.004-0.02,0.006C12.159,0.943,11.806,1.095,11.463,1.266z"/>
		<linearGradient id="SVGID_10_" gradientUnits="userSpaceOnUse" x1="8.8618" y1="0.1353" x2="8.8618" y2="39.3375">
			<stop  offset="0" style="stop-color:#CBCFD3"/>
			<stop  offset="0.1106" style="stop-color:#BDBEC2"/>
			<stop  offset="0.3071" style="stop-color:#979496"/>
			<stop  offset="0.5666" style="stop-color:#636061"/>
			<stop  offset="0.8762" style="stop-color:#2E2D2D"/>
			<stop  offset="0.9" style="stop-color:#292929"/>
		</linearGradient>
		<path fill="url(#SVGID_10_)" d="M8.331,3.594c-0.055,0.059-0.11,0.119-0.165,0.181C8.029,3.93,7.891,4.086,7.761,4.249l0,0v12.033
			c0,0.608,0.494,1.102,1.101,1.102c0.608,0,1.102-0.493,1.102-1.102V2.16C9.566,2.443,9.192,2.753,8.837,3.085
			C8.818,3.104,8.797,3.121,8.778,3.14C8.624,3.286,8.477,3.438,8.331,3.594z"/>
		<path fill="#C5C6C7" d="M8.331,3.594C8.477,3.438,8.624,3.286,8.778,3.14C8.624,3.286,8.477,3.438,8.331,3.594z"/>
		<path fill="#C5C6C7" d="M7.761,4.249c0.13-0.163,0.268-0.319,0.405-0.475C8.027,3.93,7.891,4.086,7.761,4.249z"/>
		<path fill="#C5C6C7" d="M8.862,17.655c0.756,0,1.373-0.616,1.373-1.373V2.16V1.964C9.736,2.296,9.273,2.677,8.837,3.085
			C9.192,2.753,9.566,2.443,9.963,2.16v14.122c0,0.608-0.494,1.102-1.102,1.102c-0.607,0-1.101-0.493-1.101-1.102V4.249
			C7.667,4.367,7.579,4.49,7.49,4.612v11.67C7.49,17.039,8.105,17.655,8.862,17.655z"/>
		<path fill="#C5C6C7" d="M11.463,1.266c0.343-0.171,0.696-0.322,1.059-0.455C12.159,0.943,11.806,1.095,11.463,1.266z"/>
		<path fill="#C5C6C7" d="M12.561,17.655c0.757,0,1.373-0.616,1.373-1.373V0.513c0-0.022-0.002-0.044-0.005-0.065L13.92,0.396
			C13.448,0.5,12.99,0.64,12.542,0.805c0.363-0.133,0.736-0.247,1.115-0.341c0.002,0.016,0.005,0.032,0.005,0.049v15.77
			c0,0.608-0.492,1.102-1.101,1.102c-0.608,0-1.1-0.493-1.1-1.102V1.266c-0.09,0.044-0.183,0.084-0.272,0.131v14.886
			C11.188,17.039,11.804,17.655,12.561,17.655z"/>
		<path fill="#C5C6C7" d="M14.889,16.282c0,0.757,0.616,1.373,1.372,1.373c0.758,0,1.372-0.616,1.372-1.373V0.513
			c0-0.092-0.016-0.188-0.037-0.287c-0.096-0.012-0.191-0.027-0.287-0.037c0.031,0.104,0.054,0.21,0.054,0.324v15.77
			c0,0.608-0.493,1.102-1.102,1.102c-0.607,0-1.1-0.493-1.1-1.102V0.513c0-0.114,0.022-0.221,0.054-0.324
			c-0.096,0.01-0.191,0.025-0.288,0.038c-0.023,0.099-0.038,0.194-0.038,0.286V16.282z"/>
		<path fill="#C5C6C7" d="M18.866,0.464c0.38,0.094,0.753,0.208,1.115,0.34C19.617,0.671,19.246,0.558,18.866,0.464z"/>
		<path fill="#C5C6C7" d="M18.588,0.513v15.77c0,0.757,0.617,1.373,1.373,1.373s1.373-0.616,1.373-1.373V1.396
			c-0.428-0.226-0.875-0.416-1.333-0.585c0.362,0.133,0.716,0.285,1.062,0.455v15.017c0,0.608-0.494,1.102-1.102,1.102
			s-1.102-0.493-1.102-1.102V0.513c0-0.017,0.004-0.033,0.006-0.05c-0.088-0.021-0.176-0.048-0.265-0.068l-0.007,0.053
			C18.59,0.469,18.588,0.491,18.588,0.513z"/>
		<path fill="#C5C6C7" d="M22.564,2.164c0.395,0.281,0.768,0.591,1.121,0.922C23.332,2.754,22.959,2.445,22.564,2.164z"/>
		<path fill="#C5C6C7" d="M23.745,3.14c0.153,0.146,0.301,0.298,0.446,0.454C24.046,3.438,23.898,3.286,23.745,3.14z"/>
		<path fill="#C5C6C7" d="M22.287,16.282c0,0.757,0.616,1.373,1.372,1.373c0.758,0,1.374-0.616,1.374-1.373V4.612
			c-0.213-0.291-0.438-0.571-0.678-0.839c0.139,0.155,0.276,0.312,0.406,0.476v12.033c0,0.608-0.493,1.102-1.103,1.102
			c-0.606,0-1.1-0.493-1.1-1.102V2.16c-0.091-0.064-0.179-0.135-0.272-0.196V2.16V16.282z"/>
		<linearGradient id="SVGID_11_" gradientUnits="userSpaceOnUse" x1="8.8608" y1="1.8965" x2="8.8608" y2="24.0909">
			<stop  offset="0.2418" style="stop-color:#141313"/>
			<stop  offset="0.6484" style="stop-color:#444444"/>
			<stop  offset="0.8132" style="stop-color:#363636"/>
			<stop  offset="1" style="stop-color:#272727"/>
		</linearGradient>
		<path fill="url(#SVGID_11_)" d="M8.862,17.519c-0.682,0-1.237-0.556-1.237-1.236V4.249V4.203l0.03-0.038
			c0.637-0.803,1.386-1.513,2.229-2.114l0.214-0.154V2.16v14.122C10.098,16.963,9.543,17.519,8.862,17.519L8.862,17.519z"/>
		<linearGradient id="SVGID_12_" gradientUnits="userSpaceOnUse" x1="12.561" y1="0.29" x2="12.561" y2="19.7197">
			<stop  offset="0.2418" style="stop-color:#141313"/>
			<stop  offset="0.6484" style="stop-color:#444444"/>
			<stop  offset="0.8132" style="stop-color:#363636"/>
			<stop  offset="1" style="stop-color:#272727"/>
		</linearGradient>
		<path fill="url(#SVGID_12_)" d="M12.561,17.519c-0.681,0-1.237-0.556-1.237-1.236V1.266V1.182l0.078-0.038
			c0.705-0.349,1.453-0.622,2.225-0.812l0.167-0.042l0.004,0.223v15.77C13.798,16.963,13.243,17.519,12.561,17.519L12.561,17.519z"
			/>
		<linearGradient id="SVGID_13_" gradientUnits="userSpaceOnUse" x1="16.2612" y1="0" x2="16.2612" y2="19.0004">
			<stop  offset="0.2418" style="stop-color:#141313"/>
			<stop  offset="0.6484" style="stop-color:#444444"/>
			<stop  offset="0.8132" style="stop-color:#363636"/>
			<stop  offset="1" style="stop-color:#272727"/>
		</linearGradient>
		<path fill="url(#SVGID_13_)" d="M16.261,17.519c-0.681,0-1.236-0.556-1.236-1.236V0.513c0-0.115,0.019-0.232,0.061-0.364
			l0.026-0.087l0.091-0.009C15.583,0.019,15.93,0,16.262,0c0.333,0,0.678,0.019,1.057,0.053l0.091,0.009l0.026,0.087
			c0.043,0.132,0.062,0.249,0.062,0.364v15.77C17.498,16.963,16.943,17.519,16.261,17.519L16.261,17.519z"/>
		<linearGradient id="SVGID_14_" gradientUnits="userSpaceOnUse" x1="18.7227" y1="8.9053" x2="21.1973" y2="8.9053">
			<stop  offset="0.2418" style="stop-color:#141313"/>
			<stop  offset="0.6484" style="stop-color:#444444"/>
			<stop  offset="0.8132" style="stop-color:#363636"/>
			<stop  offset="1" style="stop-color:#272727"/>
		</linearGradient>
		<path fill="url(#SVGID_14_)" d="M19.959,17.519c-0.68,0-1.236-0.556-1.236-1.236V0.513V0.292l0.176,0.04
			c0.767,0.189,1.515,0.463,2.223,0.812l0.076,0.038v0.084v15.017C21.197,16.963,20.643,17.519,19.959,17.519L19.959,17.519z"/>
		<linearGradient id="SVGID_15_" gradientUnits="userSpaceOnUse" x1="23.6602" y1="1.8955" x2="23.6602" y2="17.5186">
			<stop  offset="0.2418" style="stop-color:#141313"/>
			<stop  offset="0.6484" style="stop-color:#444444"/>
			<stop  offset="0.8132" style="stop-color:#363636"/>
			<stop  offset="1" style="stop-color:#272727"/>
		</linearGradient>
		<path fill="url(#SVGID_15_)" d="M23.659,17.519c-0.681,0-1.235-0.556-1.235-1.236V2.16V1.896l0.214,0.153
			c0.845,0.604,1.594,1.314,2.229,2.116l0.029,0.038v0.046v12.033C24.896,16.963,24.342,17.519,23.659,17.519L23.659,17.519z"/>
	</g>
</g>
</svg>
