<?xml version="1.0" encoding="utf-8"?>
<!-- Generator: Adobe Illustrator 16.0.0, SVG Export Plug-In . SVG Version: 6.00 Build 0)  -->
<!DOCTYPE svg PUBLIC "-//W3C//DTD SVG 1.1//EN" "http://www.w3.org/Graphics/SVG/1.1/DTD/svg11.dtd">
<svg version="1.1" id="Capa_1" xmlns="http://www.w3.org/2000/svg" xmlns:xlink="http://www.w3.org/1999/xlink" x="0px" y="0px"
	 width="47.875px" height="55px" viewBox="0 0 47.875 55" enable-background="new 0 0 47.875 55" xml:space="preserve">
<g>
	<path fill="#ECC400" d="M7.023,19.835h3.251v-4.864h0.173h1.985h26.359h2.188v2.533v2.331h1.064c2.733,0,4.891,1.986,4.891,4.518
		v19.482c0,2.505-2.157,4.69-4.891,4.69H5.756c-2.706,0-4.69-2.186-4.69-4.69V24.353c0-2.358,1.783-4.345,4.144-4.518V15.52h0.374
		v-4.346h0.172V7.03h0.171V3.605h0.375V7.03h0.173v4.144h0.172v4.346h0.375V19.835z M38.791,17.505L38.791,17.505H12.432v2.331
		h26.359V17.505z M36.805,25.073L36.805,25.073c-1.784,0-3.249,1.438-3.249,3.252c0,1.784,1.465,3.221,3.249,3.221
		c1.814,0,3.252-1.437,3.252-3.221C40.057,26.512,38.619,25.073,36.805,25.073L36.805,25.073z M34.476,23.979L34.476,23.979
		c0,0.173,0,0.173,0,0.374l0.545,0.72c0,0,0,0,0.175,0c0,0,0,0,0-0.173l-0.548-0.748C34.647,23.979,34.647,23.979,34.476,23.979
		L34.476,23.979z M32.663,25.792L32.663,25.792c0,0,0,0.173,0.171,0.173l0.722,0.375c0,0.172,0.198,0.172,0.198,0
		c0.175,0,0-0.202,0-0.202l-0.92-0.346C32.834,25.619,32.834,25.792,32.663,25.792L32.663,25.792z M32.114,28.123L32.114,28.123
		c0,0.202,0,0.202,0,0.202h0.922c0.173,0,0.173,0,0.173-0.202c0,0,0-0.173-0.173-0.173h-0.922V28.123L32.114,28.123z M32.663,30.656
		L32.663,30.656h0.171l0.722-0.547c0.198,0,0.198,0,0.198-0.173c-0.198,0-0.198,0-0.198,0l-0.893,0.373
		C32.663,30.481,32.663,30.481,32.663,30.656L32.663,30.656z M34.303,32.469L34.303,32.469c0.173,0,0.173,0,0.173-0.173l0.545-0.75
		c0-0.171,0-0.171,0-0.171c-0.2-0.172-0.2,0-0.2,0l-0.518,0.921C34.303,32.296,34.303,32.296,34.303,32.469L34.303,32.469z
		 M36.805,33.015L36.805,33.015L36.805,33.015v-1.094l0,0c-0.172,0-0.172,0-0.172,0v1.094
		C36.633,33.015,36.633,33.015,36.805,33.015L36.805,33.015z M39.166,32.469L39.166,32.469c0,0,0,0,0-0.173l-0.375-0.75
		c-0.172-0.171-0.172-0.171-0.172-0.171c-0.175,0-0.175,0.171-0.175,0.171l0.548,0.923H39.166L39.166,32.469z M40.979,30.857
		L40.979,30.857c0-0.201,0-0.201,0-0.201l-0.922-0.547h-0.171c0,0.2,0,0.2,0,0.2l0.892,0.548H40.979L40.979,30.857z M41.697,28.325
		L41.697,28.325h-0.2h-0.892h-0.175c0,0.172,0.175,0.172,0.175,0.172h0.892C41.497,28.497,41.697,28.497,41.697,28.325
		L41.697,28.325z M41.152,25.965L41.152,25.965c-0.174-0.173-0.174-0.173-0.174,0l-0.922,0.375v0.172c0,0.173,0,0.173,0.202,0.173
		l0.72-0.547C41.152,26.138,41.152,25.965,41.152,25.965L41.152,25.965z M39.339,24.152L39.339,24.152h-0.173l-0.547,0.921
		c0,0,0,0.173,0.172,0.173h0.201l0.347-0.893C39.511,24.353,39.339,24.152,39.339,24.152L39.339,24.152z M37.007,23.461
		L37.007,23.461c-0.202,0-0.202,0-0.202,0.172v0.893c0,0,0,0.173,0.202,0.173v-0.173v-0.893
		C37.007,23.461,37.007,23.461,37.007,23.461L37.007,23.461z M36.805,37.16L36.805,37.16c-1.784,0-3.249,1.437-3.249,3.222
		c0,1.641,1.465,3.252,3.249,3.252c1.814,0,3.252-1.611,3.252-3.252C40.057,38.597,38.619,37.16,36.805,37.16L36.805,37.16z
		 M34.476,36.066L34.476,36.066c0,0.171,0,0.171,0,0.171l0.545,0.923c0,0,0,0,0.175,0v-0.175l-0.548-0.748
		C34.647,36.066,34.647,36.066,34.476,36.066L34.476,36.066z M32.663,37.879L32.663,37.879c0,0,0,0.172,0.171,0.172l0.722,0.546
		c0,0,0.198,0,0.198-0.171c0.175,0,0-0.202,0-0.202l-0.92-0.519C32.834,37.705,32.834,37.705,32.663,37.879L32.663,37.879z
		 M32.114,40.209L32.114,40.209c0,0.173,0,0.173,0,0.173h0.922c0.173,0,0.173,0,0.173-0.173c0,0,0-0.173-0.173-0.173h-0.922V40.209
		L32.114,40.209z M32.663,42.568L32.663,42.568c0,0.173,0.171,0.173,0.171,0.173l0.722-0.548c0.198,0,0.198-0.171,0.198-0.171
		c-0.198,0-0.198,0-0.198,0l-0.893,0.373C32.663,42.568,32.663,42.568,32.663,42.568L32.663,42.568z M34.303,44.381L34.303,44.381
		c0.173,0.174,0.173,0,0.173,0l0.545-0.747c0-0.174,0-0.174,0-0.174c-0.2-0.172-0.2-0.172-0.2,0l-0.518,0.72
		C34.303,44.381,34.303,44.381,34.303,44.381L34.303,44.381z M36.805,45.101L36.805,45.101L36.805,45.101v-1.093v-0.173
		c-0.172,0-0.172,0.173-0.172,0.173v1.093C36.633,45.101,36.633,45.101,36.805,45.101L36.805,45.101z M39.166,44.555L39.166,44.555
		v-0.174l-0.375-0.747c-0.172-0.174-0.172-0.174-0.172-0.174c-0.175,0.174-0.175,0.174-0.175,0.174l0.548,0.921H39.166
		L39.166,44.555z M40.979,42.741L40.979,42.741c0,0,0,0,0-0.173l-0.922-0.375h-0.171v0.202l0.892,0.547
		C40.777,42.942,40.979,42.942,40.979,42.741L40.979,42.741z M41.697,40.382L41.697,40.382h-0.2h-0.892h-0.175
		c0,0.202,0.175,0.202,0.175,0.202h0.892C41.497,40.584,41.697,40.584,41.697,40.382L41.697,40.382z M41.152,38.051L41.152,38.051
		c-0.174,0-0.174-0.172-0.174,0l-0.922,0.375v0.171c0,0.174,0,0.174,0.202,0.174l0.72-0.547
		C41.152,38.224,41.152,38.051,41.152,38.051L41.152,38.051z M39.339,36.237L39.339,36.237h-0.173l-0.547,0.923
		c0,0,0,0.17,0.172,0.17h0.201l0.347-0.891C39.511,36.439,39.339,36.237,39.339,36.237L39.339,36.237z M37.007,35.52L37.007,35.52
		c-0.202,0-0.202,0-0.202,0.201v0.89c0,0.174,0,0.174,0.202,0.174c0,0,0,0,0-0.174v-0.89C37.007,35.52,37.007,35.52,37.007,35.52
		L37.007,35.52z M9.181,25.419L9.181,25.419c-0.721,0-1.266,0.546-1.266,1.093v2.704h4.144v-3.797H9.181z M7.915,30.481
		L7.915,30.481v2.706h4.144v-2.706H7.915z M7.915,34.626L7.915,34.626v2.704h4.144v-2.704H7.915z M7.915,38.597L7.915,38.597v2.533
		c0,0.721,0.545,1.063,1.266,1.063h2.878v-3.597H7.915z M13.526,29.216L13.526,29.216h2.704v-3.797h-2.704V29.216z M13.526,30.481
		L13.526,30.481v2.706h2.704v-2.706H13.526z M13.526,34.626L13.526,34.626v2.704h2.704v-2.704H13.526z M13.526,38.597L13.526,38.597
		v3.597h2.704v-3.597H13.526z M17.671,29.216L17.671,29.216h2.704v-3.797h-2.704V29.216z M17.671,30.481L17.671,30.481v2.706h2.704
		v-2.706H17.671z M17.671,34.626L17.671,34.626v2.704h2.704v-2.704H17.671z M17.671,38.597L17.671,38.597v3.597h2.704v-3.597H17.671
		z M21.64,29.216L21.64,29.216h4.344v-2.704c0-0.547-0.545-1.093-1.265-1.093h-3.08V29.216z M21.64,30.481L21.64,30.481v2.706h4.344
		v-2.706H21.64z M21.64,34.626L21.64,34.626v2.704h4.344v-2.704H21.64z M21.64,38.597L21.64,38.597v3.597h3.08
		c0.72,0,1.265-0.343,1.265-1.063v-2.533H21.64z"/>
</g>
</svg>
