<?xml version="1.0" encoding="utf-8"?>
<!-- Generator: Adobe Illustrator 16.0.0, SVG Export Plug-In . SVG Version: 6.00 Build 0)  -->
<!DOCTYPE svg PUBLIC "-//W3C//DTD SVG 1.1//EN" "http://www.w3.org/Graphics/SVG/1.1/DTD/svg11.dtd">
<svg version="1.1" id="Capa_1" xmlns="http://www.w3.org/2000/svg" xmlns:xlink="http://www.w3.org/1999/xlink" x="0px" y="0px"
	 width="47.875px" height="55px" viewBox="0 0 47.875 55" enable-background="new 0 0 47.875 55" xml:space="preserve">
<g>
	<path fill="#ECC400" d="M7.023,19.835h3.251v-4.864h0.173h1.985h26.359h2.188v2.533v2.331h1.064c2.732,0,4.891,1.986,4.891,4.518
		v19.482c0,2.505-2.156,4.69-4.891,4.69H5.756c-2.706,0-4.69-2.188-4.69-4.69V24.353c0-2.358,1.783-4.345,4.144-4.518V15.52h0.374
		v-4.346h0.172V7.03h0.171V3.605h0.375V7.03h0.173v4.144h0.172v4.346h0.375L7.023,19.835L7.023,19.835z M38.791,17.505
		L38.791,17.505H12.432v2.331h26.359V17.505z M36.805,25.073L36.805,25.073c-1.783,0-3.248,1.438-3.248,3.252
		c0,1.784,1.465,3.221,3.248,3.221c1.814,0,3.252-1.437,3.252-3.221C40.057,26.512,38.619,25.073,36.805,25.073L36.805,25.073z
		 M34.477,23.979L34.477,23.979c0,0.173,0,0.173,0,0.374l0.545,0.72c0,0,0,0,0.174,0c0,0,0,0,0-0.173l-0.547-0.748
		C34.646,23.979,34.646,23.979,34.477,23.979L34.477,23.979z M32.663,25.792L32.663,25.792c0,0,0,0.173,0.171,0.173l0.723,0.375
		c0,0.172,0.197,0.172,0.197,0c0.176,0,0-0.202,0-0.202l-0.92-0.346C32.834,25.619,32.834,25.792,32.663,25.792L32.663,25.792z
		 M32.113,28.123L32.113,28.123c0,0.202,0,0.202,0,0.202h0.923c0.173,0,0.173,0,0.173-0.202c0,0,0-0.173-0.173-0.173h-0.923V28.123
		L32.113,28.123z M32.663,30.656L32.663,30.656h0.171l0.723-0.547c0.197,0,0.197,0,0.197-0.174c-0.197,0-0.197,0-0.197,0
		l-0.894,0.373C32.663,30.48,32.663,30.48,32.663,30.656L32.663,30.656z M34.303,32.469L34.303,32.469c0.174,0,0.174,0,0.174-0.173
		l0.545-0.75c0-0.171,0-0.171,0-0.171c-0.201-0.172-0.201,0-0.201,0l-0.518,0.921C34.303,32.296,34.303,32.296,34.303,32.469
		L34.303,32.469z M36.805,33.016L36.805,33.016L36.805,33.016v-1.095l0,0c-0.172,0-0.172,0-0.172,0v1.095
		C36.633,33.016,36.633,33.016,36.805,33.016L36.805,33.016z M39.166,32.469L39.166,32.469c0,0,0,0,0-0.173l-0.375-0.75
		c-0.172-0.171-0.172-0.171-0.172-0.171c-0.176,0-0.176,0.171-0.176,0.171l0.549,0.923H39.166L39.166,32.469z M40.979,30.857
		L40.979,30.857c0-0.201,0-0.201,0-0.201l-0.922-0.547h-0.17c0,0.199,0,0.199,0,0.199l0.891,0.549H40.979L40.979,30.857z
		 M41.697,28.325L41.697,28.325h-0.2h-0.892H40.43c0,0.172,0.176,0.172,0.176,0.172h0.894
		C41.497,28.497,41.697,28.497,41.697,28.325L41.697,28.325z M41.152,25.965L41.152,25.965c-0.174-0.173-0.174-0.173-0.174,0
		l-0.922,0.375v0.172c0,0.173,0,0.173,0.199,0.173l0.723-0.547C41.152,26.138,41.152,25.965,41.152,25.965L41.152,25.965z
		 M39.339,24.152L39.339,24.152h-0.173l-0.547,0.921c0,0,0,0.173,0.172,0.173h0.201l0.347-0.893
		C39.512,24.353,39.339,24.152,39.339,24.152L39.339,24.152z M37.007,23.461L37.007,23.461c-0.202,0-0.202,0-0.202,0.172v0.893
		c0,0,0,0.173,0.202,0.173v-0.173v-0.893C37.007,23.461,37.007,23.461,37.007,23.461L37.007,23.461z M36.805,37.16L36.805,37.16
		c-1.783,0-3.248,1.438-3.248,3.222c0,1.642,1.465,3.252,3.248,3.252c1.814,0,3.252-1.61,3.252-3.252
		C40.057,38.598,38.619,37.16,36.805,37.16L36.805,37.16z M34.477,36.066L34.477,36.066c0,0.17,0,0.17,0,0.17l0.545,0.924
		c0,0,0,0,0.174,0v-0.176l-0.547-0.748C34.646,36.066,34.646,36.066,34.477,36.066L34.477,36.066z M32.663,37.879L32.663,37.879
		c0,0,0,0.172,0.171,0.172l0.723,0.547c0,0,0.197,0,0.197-0.172c0.176,0,0-0.201,0-0.201l-0.92-0.52
		C32.834,37.705,32.834,37.705,32.663,37.879L32.663,37.879z M32.113,40.209L32.113,40.209c0,0.173,0,0.173,0,0.173h0.923
		c0.173,0,0.173,0,0.173-0.173c0,0,0-0.173-0.173-0.173h-0.923V40.209L32.113,40.209z M32.663,42.568L32.663,42.568
		c0,0.173,0.171,0.173,0.171,0.173l0.723-0.548c0.197,0,0.197-0.172,0.197-0.172c-0.197,0-0.197,0-0.197,0l-0.894,0.373
		C32.663,42.568,32.663,42.568,32.663,42.568L32.663,42.568z M34.303,44.381L34.303,44.381c0.174,0.174,0.174,0,0.174,0l0.545-0.747
		c0-0.174,0-0.174,0-0.174c-0.201-0.172-0.201-0.172-0.201,0l-0.518,0.72C34.303,44.381,34.303,44.381,34.303,44.381L34.303,44.381z
		 M36.805,45.102L36.805,45.102L36.805,45.102v-1.094v-0.173c-0.172,0-0.172,0.173-0.172,0.173v1.094
		C36.633,45.102,36.633,45.102,36.805,45.102L36.805,45.102z M39.166,44.555L39.166,44.555v-0.174l-0.375-0.747
		c-0.172-0.174-0.172-0.174-0.172-0.174c-0.176,0.174-0.176,0.174-0.176,0.174l0.549,0.921H39.166L39.166,44.555z M40.979,42.741
		L40.979,42.741c0,0,0,0,0-0.173l-0.922-0.375h-0.17v0.201l0.891,0.547C40.777,42.941,40.979,42.941,40.979,42.741L40.979,42.741z
		 M41.697,40.382L41.697,40.382h-0.2h-0.892H40.43c0,0.202,0.176,0.202,0.176,0.202h0.894
		C41.497,40.584,41.697,40.584,41.697,40.382L41.697,40.382z M41.152,38.051L41.152,38.051c-0.174,0-0.174-0.172-0.174,0
		l-0.922,0.375v0.172c0,0.174,0,0.174,0.199,0.174l0.723-0.547C41.152,38.225,41.152,38.051,41.152,38.051L41.152,38.051z
		 M39.339,36.236L39.339,36.236h-0.173l-0.547,0.924c0,0,0,0.17,0.172,0.17h0.201l0.347-0.891
		C39.512,36.439,39.339,36.236,39.339,36.236L39.339,36.236z M37.007,35.52L37.007,35.52c-0.202,0-0.202,0-0.202,0.201v0.891
		c0,0.176,0,0.176,0.202,0.176c0,0,0,0,0-0.176v-0.891C37.007,35.52,37.007,35.52,37.007,35.52L37.007,35.52z M9.181,25.419
		L9.181,25.419c-0.721,0-1.266,0.546-1.266,1.093v2.704h4.144v-3.797H9.181z M7.915,30.48L7.915,30.48v2.707h4.144V30.48H7.915z
		 M7.915,34.626L7.915,34.626v2.704h4.144v-2.704H7.915z M7.915,38.598L7.915,38.598v2.532c0,0.722,0.545,1.063,1.266,1.063h2.878
		v-3.6H7.915V38.598z M13.526,29.216L13.526,29.216h2.704v-3.797h-2.704V29.216z M13.526,30.48L13.526,30.48v2.707h2.704V30.48
		H13.526z M13.526,34.626L13.526,34.626v2.704h2.704v-2.704H13.526z M13.526,38.598L13.526,38.598v3.596h2.704v-3.596H13.526z
		 M17.671,29.216L17.671,29.216h2.704v-3.797h-2.704V29.216z M17.671,30.48L17.671,30.48v2.707h2.704V30.48H17.671z M17.671,34.626
		L17.671,34.626v2.704h2.704v-2.704H17.671z M17.671,38.598L17.671,38.598v3.596h2.704v-3.596H17.671z M21.64,29.216L21.64,29.216
		h4.344v-2.704c0-0.547-0.545-1.093-1.268-1.093h-3.08L21.64,29.216L21.64,29.216z M21.64,30.48L21.64,30.48v2.707h4.344V30.48
		H21.64z M21.64,34.626L21.64,34.626v2.704h4.344v-2.704H21.64z M21.64,38.598L21.64,38.598v3.596h3.081
		c0.719,0,1.264-0.342,1.264-1.063v-2.533H21.64L21.64,38.598z"/>
</g>
<path fill="#FFFFFF" stroke="#211915" stroke-width="0.25" stroke-miterlimit="10" d="M35.432,39.854v2.641h-1.133
	c-0.833,0-1.508,0.675-1.508,1.508v7.543c0,0.833,0.675,1.508,1.508,1.508h12.067c0.834,0,1.509-0.675,1.509-1.508V44
	c0-0.833-0.675-1.508-1.509-1.508h-1.132v-2.641c0-2.707-2.194-4.901-4.901-4.901S35.432,37.145,35.432,39.854z M37.316,42.492
	v-2.641c0-1.666,1.35-3.018,3.017-3.018s3.017,1.352,3.017,3.018v2.641H37.316z M38.824,46.641c0-0.834,0.676-1.509,1.509-1.509
	s1.509,0.675,1.509,1.509c0,0.531-0.275,1-0.689,1.269c0,0,0.146,0.891,0.313,1.938c0,0.313-0.252,0.564-0.563,0.564H39.77
	c-0.313,0-0.564-0.253-0.564-0.564l0.313-1.938C39.1,47.641,38.824,47.172,38.824,46.641z"/>
</svg>
