<?xml version="1.0" encoding="utf-8"?>
<!-- Generator: Adobe Illustrator 16.0.0, SVG Export Plug-In . SVG Version: 6.00 Build 0)  -->
<!DOCTYPE svg PUBLIC "-//W3C//DTD SVG 1.1//EN" "http://www.w3.org/Graphics/SVG/1.1/DTD/svg11.dtd">
<svg version="1.1" id="Capa_1" xmlns="http://www.w3.org/2000/svg" xmlns:xlink="http://www.w3.org/1999/xlink" x="0px" y="0px"
	 width="55px" height="55px" viewBox="0 0 55 55" enable-background="new 0 0 55 55" xml:space="preserve">
<g>
	<g>
		
			<linearGradient id="SVGID_1_" gradientUnits="userSpaceOnUse" x1="-886.2393" y1="410.25" x2="-883.3401" y2="372.8524" gradientTransform="matrix(0.8336 0.1316 0.0424 -0.8977 751.2852 498.1301)">
			<stop  offset="0" style="stop-color:#D7D9DD"/>
			<stop  offset="0.0424" style="stop-color:#D9DADE"/>
			<stop  offset="0.5395" style="stop-color:#E6E3E8"/>
			<stop  offset="0.9096" style="stop-color:#EAE7EB"/>
			<stop  offset="1" style="stop-color:#A7B0BA"/>
		</linearGradient>
		<path fill="url(#SVGID_1_)" d="M53.655,13.722l-5.325-0.325l-4.821-0.294l-16.301-0.996L9.274,10.532c0,0-0.009,1.739-0.045,4.445
			l0,0c-0.131,9.33-0.61,30.181-2.285,31.037l44.745,2.747C51.688,48.761,55.407,48.351,53.655,13.722z"/>
		<path fill="#9FA8B7" d="M53.646,13.481l-26.447-1.615L9.056,10.274l-0.048,4.677c-0.259,18.472-1.092,30.29-2.173,30.842
			l0.118,0.461l44.747,2.75c0.434-0.047,3.891-1.413,2.178-35.273l-0.013-0.237L53.646,13.481z M27.211,12.347
			c0,0,25.831,1.577,26.234,1.602c0.544,10.86,0.551,18.319,0.31,23.43c-0.482,10.186-1.946,11.073-2.115,11.141
			c-0.074-0.003-43.347-2.662-44.246-2.717c0.769-1.583,1.265-7.05,1.584-13.802c0.251-5.295,0.392-11.381,0.47-16.998
			c0,0,0.041-3.789,0.045-4.21C9.917,10.83,27.211,12.347,27.211,12.347z"/>
		
			<linearGradient id="SVGID_2_" gradientUnits="userSpaceOnUse" x1="-885.3008" y1="411.1934" x2="-882.4018" y2="373.7972" gradientTransform="matrix(0.8336 0.1316 0.0424 -0.8977 749.5327 499.6633)">
			<stop  offset="0" style="stop-color:#D7D9DD"/>
			<stop  offset="0.0424" style="stop-color:#D9DADE"/>
			<stop  offset="0.5395" style="stop-color:#E6E3E8"/>
			<stop  offset="0.9096" style="stop-color:#EAE7EB"/>
			<stop  offset="1" style="stop-color:#A7B0BA"/>
		</linearGradient>
		<path fill="url(#SVGID_2_)" d="M52.725,14.534L47.4,14.209l-4.821-0.293l-16.301-0.997L8.345,11.347c0,0-0.008,1.737-0.045,4.442
			l-0.001,0c-0.13,9.332-0.609,30.181-2.285,31.037l44.747,2.748C50.76,49.574,54.478,49.163,52.725,14.534z"/>
		<path fill="#9FA8B7" d="M52.717,14.294L26.27,12.679L8.127,11.087l-0.049,4.675C7.819,34.236,6.987,46.055,5.905,46.606
			l0.118,0.459l44.745,2.75c0.434-0.047,3.892-1.411,2.178-35.27l-0.011-0.238L52.717,14.294z M26.283,13.159
			c0,0,25.832,1.578,26.234,1.602c0.545,10.861,0.553,18.318,0.31,23.431c-0.481,10.185-1.945,11.071-2.112,11.139
			c-0.078-0.002-43.349-2.66-44.248-2.715c0.769-1.583,1.264-7.051,1.584-13.801c0.251-5.298,0.392-11.383,0.47-17
			c0,0,0.041-3.788,0.044-4.208C8.987,11.642,26.283,13.159,26.283,13.159z"/>
		<polygon fill="#70787E" points="50.04,50.169 5.048,47.405 7.58,16.384 25.491,14.962 46.504,18.517 		"/>
		
			<linearGradient id="SVGID_3_" gradientUnits="userSpaceOnUse" x1="-975.8638" y1="260.0391" x2="-975.4146" y2="254.6497" gradientTransform="matrix(0.6811 0.1075 0.0347 -0.7336 682.521 309.2102)">
			<stop  offset="0" style="stop-color:#EBE9EC"/>
			<stop  offset="0.2301" style="stop-color:#E8E6EA"/>
			<stop  offset="0.4101" style="stop-color:#E0DFE3"/>
			<stop  offset="0.5731" style="stop-color:#D1D1D7"/>
			<stop  offset="0.7261" style="stop-color:#BDBEC6"/>
			<stop  offset="0.8707" style="stop-color:#A4A7B0"/>
			<stop  offset="1" style="stop-color:#89919A"/>
		</linearGradient>
		<path fill="url(#SVGID_3_)" d="M50.04,50.169c0,0,3.718-0.411,1.968-35.041L7.626,11.94c0,0,0.946,76.652-5.844,5.216l45.86-1.584
			L50.04,50.169z"/>
		<path fill="#9FA8B7" d="M52,14.889L7.402,11.685l0.002,0.234c0.02,1.594,0.032,3.198,0.042,4.799
			c-1.238,0.043-5.907,0.205-5.907,0.205l0.023,0.236c2.91,30.62,4.076,30.668,4.636,30.688c0.345,0.014,0.976,0.041,1.364-8.172
			c0.117-2.465,0.211-5.673,0.269-9.847c0.065-4.612,0.067-9.242,0.053-12.64c9.091-0.314,39.157-1.354,39.553-1.368
			c0.034,0.5,2.398,34.614,2.398,34.614l0.246-0.025c0.401-0.044,3.857-1.412,2.144-35.271l-0.012-0.233L52,14.889z M51.796,15.353
			c0.544,10.861,0.553,18.319,0.31,23.43c-0.385,8.154-1.4,10.345-1.876,10.932c-0.063-0.894-2.385-34.391-2.385-34.391
			s-30.761,1.065-39.963,1.382c-0.01-2.298-0.025-3.94-0.032-4.508C8.28,12.227,51.369,15.322,51.796,15.353z M7.449,17.203
			c0.042,8.444-0.061,16.732-0.333,22.478c-0.212,4.481-0.527,7.408-0.949,7.672c-0.531-0.403-1.76-4.93-4.143-29.962
			C2.076,17.388,6.279,17.242,7.449,17.203z"/>
		
			<linearGradient id="SVGID_4_" gradientUnits="userSpaceOnUse" x1="-884.5698" y1="411.8838" x2="-881.671" y2="374.4893" gradientTransform="matrix(0.8336 0.1316 0.0424 -0.8977 748.1763 500.7805)">
			<stop  offset="0" style="stop-color:#D7D9DD"/>
			<stop  offset="0.0424" style="stop-color:#D9DADE"/>
			<stop  offset="0.5395" style="stop-color:#E6E3E8"/>
			<stop  offset="0.9096" style="stop-color:#EAE7EB"/>
			<stop  offset="1" style="stop-color:#A7B0BA"/>
		</linearGradient>
		<path fill="url(#SVGID_4_)" d="M52.008,15.128l-5.326-0.326l-4.822-0.293l-16.301-0.997L7.626,11.94c0,0-0.008,1.737-0.046,4.444
			l0,0c-0.131,9.329-0.61,30.181-2.287,31.034l44.747,2.751C50.04,50.169,53.759,49.754,52.008,15.128z"/>
		<path fill="#9FA8B7" d="M51.998,14.888l-26.447-1.617l-18.143-1.59l-0.049,4.675C7.1,34.83,6.268,46.649,5.186,47.2l0.117,0.46
			l44.747,2.748c0.435-0.044,3.892-1.41,2.178-35.27l-0.012-0.236L51.998,14.888z M25.562,13.754c0,0,25.833,1.577,26.235,1.601
			c0.544,10.861,0.552,18.318,0.31,23.43c-0.482,10.186-1.946,11.072-2.113,11.14c-0.076-0.005-43.347-2.661-44.248-2.717
			c0.77-1.582,1.266-7.049,1.584-13.8c0.251-5.298,0.394-11.382,0.471-16.999c0,0,0.04-3.79,0.045-4.21
			C8.267,12.235,25.562,13.754,25.562,13.754z"/>
		
			<radialGradient id="SVGID_5_" cx="1985.8789" cy="220.6816" r="30.3828" gradientTransform="matrix(0.1798 0.0284 0.0485 -1.0256 -365.8541 206.2534)" gradientUnits="userSpaceOnUse">
			<stop  offset="0" style="stop-color:#EBE9EC"/>
			<stop  offset="0.2301" style="stop-color:#E8E6EA"/>
			<stop  offset="0.4101" style="stop-color:#E0DFE3"/>
			<stop  offset="0.5731" style="stop-color:#D1D1D7"/>
			<stop  offset="0.7261" style="stop-color:#BDBEC6"/>
			<stop  offset="0.8707" style="stop-color:#A4A7B0"/>
			<stop  offset="1" style="stop-color:#89919A"/>
		</radialGradient>
		<path fill="url(#SVGID_5_)" d="M7.558,16.379l-5.776,0.777c2.06,21.768,2.202,29.592,3.248,30.242l-0.001,0.001h0.006
			c0.082,0.052,0.164,0.057,0.241,0.018C6.945,46.562,7.428,25.71,7.558,16.379z"/>
		<path fill="#9FA8B7" d="M7.511,16.141l-5.97,0.802l0.021,0.216c0.695,7.346,1.162,12.996,1.539,17.534
			c0.814,9.835,1.06,12.431,1.833,12.91c0.156,0.094,0.313,0.104,0.451,0.031c1.627-0.832,2.201-17.443,2.395-31.229l0.004-0.302
			L7.511,16.141z M7.331,16.655c-0.093,6.404-0.253,12.007-0.47,16.599C6.458,41.776,5.865,46.84,5.166,47.196
			c-0.012,0.008-0.017,0.01-0.039-0.005c-0.581-0.358-0.938-4.67-1.586-12.495C3.17,30.202,2.706,24.61,2.023,17.369
			C2.365,17.323,6.853,16.72,7.331,16.655z"/>
		
			<radialGradient id="SVGID_6_" cx="1985.874" cy="220.6826" r="30.3842" gradientTransform="matrix(0.1798 0.0284 0.0485 -1.0256 -365.8541 206.2534)" gradientUnits="userSpaceOnUse">
			<stop  offset="0" style="stop-color:#EBE9EC"/>
			<stop  offset="0.2301" style="stop-color:#E8E6EA"/>
			<stop  offset="0.4101" style="stop-color:#E0DFE3"/>
			<stop  offset="0.5731" style="stop-color:#D1D1D7"/>
			<stop  offset="0.7261" style="stop-color:#BDBEC6"/>
			<stop  offset="0.8707" style="stop-color:#A4A7B0"/>
			<stop  offset="1" style="stop-color:#89919A"/>
		</radialGradient>
		<path fill="url(#SVGID_6_)" d="M7.558,16.379l-4.934,0.91c2.058,21.766,1.514,26.224,2.558,26.875l0,0.003l0.006,0.002
			c0.083,0.048,0.163,0.054,0.24,0.014C7.098,43.326,7.428,25.71,7.558,16.379z"/>
		<path fill="#9FA8B7" d="M7.502,16.141l-5.117,0.945l0.019,0.207c0.931,9.834,1.324,16.04,1.582,20.143
			c0.326,5.128,0.412,6.506,1.101,6.936c0.157,0.093,0.313,0.103,0.451,0.031c1.304-0.668,1.975-9.041,2.242-27.998l0.004-0.316
			L7.502,16.141z M7.333,16.668c-0.09,6.18-0.231,11.336-0.426,15.428c-0.356,7.53-0.886,11.507-1.588,11.866
			c-0.013,0.008-0.017,0.011-0.039-0.005c-0.458-0.283-0.574-2.107-0.852-6.509C4.17,33.369,3.78,27.212,2.863,17.494
			C3.182,17.435,6.848,16.758,7.333,16.668z"/>
		
			<radialGradient id="SVGID_7_" cx="2408.623" cy="215.4063" r="30.3812" gradientTransform="matrix(0.1611 0.0253 0.049 -1.0348 -396.0811 196.1221)" gradientUnits="userSpaceOnUse">
			<stop  offset="0" style="stop-color:#EBE9EC"/>
			<stop  offset="0.2301" style="stop-color:#E8E6EA"/>
			<stop  offset="0.4101" style="stop-color:#E0DFE3"/>
			<stop  offset="0.5731" style="stop-color:#D1D1D7"/>
			<stop  offset="0.7261" style="stop-color:#BDBEC6"/>
			<stop  offset="0.8707" style="stop-color:#A4A7B0"/>
			<stop  offset="1" style="stop-color:#89919A"/>
		</radialGradient>
		<path fill="url(#SVGID_7_)" d="M7.695,14.703L4.287,15.87c1.732,21.909,0.196,26.251,1.13,26.89v0.003h0.004
			c0.074,0.05,0.147,0.052,0.215,0.01C7.139,41.882,7.528,24.112,7.695,14.703z"/>
		<path fill="#9FA8B7" d="M7.611,14.471L4.052,15.69l0.014,0.177c1.044,13.212,0.901,19.901,0.825,23.496
			c-0.053,2.506-0.07,3.263,0.421,3.599c0.154,0.1,0.309,0.108,0.445,0.025c1.173-0.697,1.819-9.148,2.159-28.258l0.007-0.365
			L7.611,14.471z M5.474,42.545c0.021,0.005,0.041,0.015,0.044,0.014c0,0.001,0,0.001,0,0.001
			C5.509,42.558,5.495,42.552,5.474,42.545z M7.466,15.04c-0.113,6.218-0.267,11.407-0.462,15.528
			C6.645,38.155,6.148,42.173,5.52,42.557c-0.249-0.177-0.227-1.229-0.187-3.138C5.41,35.833,5.552,29.164,4.52,16.047
			C4.769,15.963,6.975,15.209,7.466,15.04z"/>
		<g>
			<path fill="#70787E" d="M12.169,16.742c0.022-0.83,0.25-1.396,0.683-1.697c0.437-0.297,1.007-0.427,1.716-0.378
				c0.396,0.026,0.699,0.131,0.9,0.315c0.202,0.181,0.381,0.414,0.54,0.697c0.054,0.093,0.107,0.189,0.158,0.291
				c0.052,0.102,0.107,0.205,0.166,0.309l1.288,3.48l0.107-3.851c0.006-0.186-0.036-0.35-0.123-0.48
				c-0.089-0.137-0.184-0.244-0.286-0.326c-0.061-0.045-0.115-0.088-0.167-0.119c-0.054-0.033-0.1-0.06-0.14-0.078l1.904,0.118
				c-0.407,0.081-0.669,0.2-0.789,0.367c-0.12,0.162-0.186,0.343-0.191,0.544l-0.119,4.309c0.042,0.128,0.087,0.263,0.135,0.399
				c0.046,0.143,0.097,0.281,0.156,0.422c0.149,0.387,0.349,0.748,0.602,1.083c0.25,0.335,0.603,0.515,1.061,0.545
				c0.077,0.006,0.164-0.007,0.262-0.036c0.1-0.03,0.199-0.075,0.301-0.13c0.073-0.037,0.139-0.081,0.205-0.13
				c0.064-0.05,0.127-0.101,0.19-0.157c-0.016,0.029-0.033,0.057-0.05,0.083c-0.021,0.026-0.04,0.052-0.059,0.079
				c-0.102,0.138-0.24,0.257-0.412,0.363c-0.175,0.11-0.422,0.153-0.751,0.129c-0.723-0.047-1.317-0.474-1.775-1.284
				c-0.46-0.808-0.864-1.688-1.215-2.641c-0.114-0.31-0.223-0.615-0.331-0.921c-0.111-0.303-0.217-0.59-0.325-0.866
				c-0.143-0.363-0.286-0.695-0.429-0.992c-0.146-0.296-0.3-0.541-0.46-0.727l-0.125,4.512c-0.008,0.244,0.055,0.438,0.184,0.586
				c0.129,0.147,0.276,0.271,0.44,0.37c0.015,0.006,0.031,0.017,0.048,0.031c0.018,0.012,0.036,0.023,0.057,0.031l-1.885-0.126
				c0.399-0.073,0.656-0.185,0.766-0.339c0.114-0.15,0.172-0.337,0.178-0.556l0.131-4.734c-0.015-0.007-0.028-0.018-0.038-0.034
				c-0.009-0.015-0.021-0.028-0.037-0.04c-0.082-0.095-0.172-0.169-0.268-0.219c-0.093-0.048-0.221-0.081-0.381-0.091
				c-0.521-0.035-0.885,0.12-1.1,0.457c-0.214,0.342-0.326,0.739-0.339,1.194c-0.019,0.674,0.095,1.185,0.338,1.529
				c0.246,0.343,0.544,0.629,0.896,0.854c-0.607-0.053-1.035-0.296-1.275-0.731c-0.244-0.433-0.356-0.9-0.342-1.405L12.169,16.742z"
				/>
			<path fill="#70787E" d="M18.511,19.209c0.019-0.696,0.203-1.235,0.555-1.616c0.35-0.382,0.754-0.56,1.213-0.529
				c0.089,0.006,0.172,0.021,0.246,0.045c0.075,0.02,0.148,0.06,0.216,0.111c0.079,0.049,0.161,0.122,0.243,0.211
				c0.083,0.086,0.18,0.201,0.286,0.338l-1.893,2.021c0.058,0.128,0.125,0.226,0.206,0.294c0.078,0.068,0.154,0.119,0.237,0.155
				c0.073,0.027,0.148,0.048,0.22,0.057c0.074,0.012,0.141,0.019,0.2,0.022c0.031,0.002,0.06,0.003,0.088,0.001
				c0.026-0.001,0.057-0.004,0.086-0.01c0.085-0.014,0.17-0.041,0.251-0.076c0.082-0.03,0.156-0.072,0.23-0.113
				c0.096-0.045,0.205-0.114,0.32-0.209c-0.204,0.341-0.433,0.596-0.681,0.758c-0.25,0.165-0.529,0.235-0.842,0.214
				c-0.34-0.023-0.599-0.137-0.768-0.349c-0.171-0.209-0.288-0.439-0.346-0.685c-0.031-0.115-0.052-0.227-0.063-0.337
				c-0.008-0.11-0.011-0.21-0.008-0.297L18.511,19.209z M19.397,17.949c-0.1,0.247-0.156,0.529-0.164,0.84
				c-0.004,0.136-0.001,0.273,0.014,0.413c0.014,0.136,0.037,0.265,0.068,0.388c0.042-0.043,0.104-0.109,0.189-0.192
				c0.087-0.083,0.176-0.18,0.27-0.285c0.042-0.04,0.083-0.083,0.12-0.13c0.039-0.046,0.075-0.094,0.107-0.14
				c0.079-0.101,0.144-0.2,0.199-0.295c0.049-0.099,0.08-0.185,0.083-0.26c0-0.036-0.002-0.081-0.005-0.134
				c-0.003-0.054-0.013-0.108-0.024-0.161c-0.023-0.097-0.068-0.184-0.131-0.262c-0.061-0.079-0.16-0.121-0.292-0.13
				C19.646,17.582,19.502,17.7,19.397,17.949z"/>
			<path fill="#70787E" d="M25.979,17.8c0.018-0.013,0.042-0.049,0.079-0.111c0.038-0.064,0.081-0.128,0.126-0.196
				c0.048-0.066,0.101-0.128,0.157-0.186c0.056-0.053,0.11-0.093,0.16-0.111c0.018-0.007,0.031-0.01,0.044-0.012
				c0.012-0.002,0.025-0.002,0.034-0.002c0.025,0.002,0.061,0.022,0.108,0.058c0.044,0.042,0.093,0.091,0.143,0.154
				c0.062,0.082,0.12,0.177,0.176,0.286c0.055,0.111,0.089,0.224,0.101,0.337c0.004,0.009,0.007,0.025,0.008,0.039
				c-0.001,0.017-0.002,0.032-0.002,0.05c-0.004,0.118-0.088,0.35-0.253,0.702c-0.161,0.346-0.343,0.72-0.538,1.123
				c-0.141,0.276-0.273,0.549-0.4,0.814c-0.125,0.271-0.224,0.491-0.293,0.668c-0.076-0.151-0.148-0.313-0.212-0.487
				c-0.065-0.173-0.133-0.349-0.197-0.525c-0.073-0.212-0.151-0.423-0.225-0.635c-0.075-0.214-0.146-0.413-0.217-0.602
				c-0.032-0.091-0.066-0.177-0.101-0.264c-0.037-0.083-0.073-0.167-0.111-0.246c-0.034,0.103-0.071,0.207-0.115,0.318
				c-0.043,0.105-0.087,0.21-0.135,0.314c-0.073,0.16-0.149,0.323-0.236,0.485c-0.085,0.164-0.167,0.328-0.246,0.496
				c-0.081,0.153-0.16,0.311-0.238,0.473c-0.077,0.162-0.152,0.325-0.221,0.49c-0.067-0.152-0.151-0.373-0.249-0.666
				c-0.101-0.291-0.208-0.598-0.32-0.919c-0.047-0.122-0.092-0.244-0.137-0.364c-0.044-0.122-0.09-0.241-0.137-0.355
				c-0.117-0.305-0.235-0.563-0.353-0.773c-0.118-0.206-0.228-0.317-0.329-0.323c-0.049-0.003-0.126,0.009-0.235,0.043
				c-0.105,0.031-0.226,0.098-0.361,0.202c0.029-0.052,0.068-0.113,0.118-0.179c0.054-0.066,0.111-0.136,0.174-0.21
				c0.083-0.093,0.177-0.186,0.279-0.269c0.104-0.085,0.207-0.146,0.315-0.18c0.037-0.013,0.071-0.024,0.107-0.034
				c0.034-0.006,0.072-0.006,0.108-0.005c0.089,0.006,0.168,0.048,0.234,0.127c0.068,0.079,0.136,0.184,0.204,0.319
				c0.117,0.251,0.24,0.587,0.376,1.007c0.134,0.421,0.319,0.896,0.555,1.425c0.023-0.03,0.068-0.126,0.142-0.284
				c0.071-0.152,0.152-0.324,0.228-0.516c0.008-0.012,0.011-0.024,0.017-0.032c0.006-0.014,0.011-0.027,0.015-0.038
				c0.076-0.171,0.145-0.335,0.211-0.49c0.063-0.157,0.105-0.268,0.129-0.336c-0.011-0.019-0.021-0.037-0.028-0.052
				c-0.01-0.015-0.018-0.03-0.021-0.052l-0.008-0.007l0-0.012c-0.032-0.065-0.072-0.128-0.115-0.192
				c-0.042-0.061-0.116-0.116-0.221-0.158c0.069-0.12,0.131-0.215,0.19-0.287c0.045-0.059,0.098-0.113,0.159-0.163
				c0.059-0.052,0.117-0.085,0.172-0.102c0.01,0.001,0.021,0,0.031-0.002c0.01-0.002,0.019-0.002,0.029-0.001
				c0.1,0.006,0.206,0.124,0.312,0.354c0.107,0.228,0.214,0.497,0.322,0.799c0.013,0.05,0.03,0.098,0.048,0.15
				c0.019,0.051,0.04,0.105,0.056,0.159c0.102,0.302,0.204,0.589,0.304,0.855c0.102,0.267,0.197,0.447,0.283,0.542
				c0.032-0.039,0.067-0.094,0.104-0.169c0.037-0.073,0.076-0.157,0.121-0.25c0.021-0.04,0.04-0.079,0.056-0.118
				c0.016-0.043,0.033-0.084,0.05-0.123c0.058-0.142,0.107-0.272,0.153-0.399c0.043-0.126,0.066-0.221,0.068-0.279
				c0.001-0.054-0.003-0.109-0.013-0.167c-0.013-0.056-0.026-0.11-0.047-0.166c-0.045-0.139-0.113-0.277-0.202-0.408
				c-0.091-0.133-0.188-0.238-0.293-0.318L25.979,17.8z"/>
			<path fill="#70787E" d="M28.51,17.587c0.06,0.008,0.116,0.02,0.17,0.036c0.049,0.017,0.102,0.032,0.151,0.046
				c0.011,0,0.022,0.003,0.03,0.007c0.011,0.005,0.021,0.01,0.031,0.017c0.038,0.014,0.08,0.025,0.115,0.036
				c0.037,0.005,0.08,0.011,0.127,0.015c0.055,0.004,0.117,0,0.187-0.019c0.07-0.015,0.149-0.041,0.238-0.075
				c-0.103,0.162-0.173,0.323-0.21,0.474c-0.041,0.151-0.07,0.273-0.092,0.364c-0.008,0.015-0.012,0.023-0.013,0.031
				c-0.005,0.009-0.005,0.018-0.005,0.023c-0.063-0.086-0.123-0.166-0.182-0.233c-0.059-0.068-0.116-0.127-0.168-0.171
				c-0.09-0.069-0.179-0.123-0.27-0.156c-0.09-0.034-0.193-0.053-0.309-0.06c-0.195-0.014-0.329,0.021-0.404,0.102
				c-0.07,0.08-0.109,0.177-0.114,0.29c-0.002,0.093,0.038,0.177,0.112,0.252c0.075,0.073,0.176,0.144,0.293,0.211
				c0.076,0.039,0.152,0.081,0.23,0.125c0.082,0.044,0.162,0.089,0.246,0.136c0.22,0.133,0.418,0.301,0.6,0.503
				s0.27,0.477,0.258,0.826c-0.012,0.419-0.117,0.701-0.322,0.846c-0.203,0.143-0.425,0.221-0.66,0.234
				c-0.063,0.003-0.123,0.003-0.187,0.001c-0.062-0.001-0.124-0.005-0.185-0.009c-0.381-0.025-0.625-0.122-0.725-0.292
				c-0.103-0.17-0.144-0.584-0.132-1.25c0.011,0.056,0.029,0.111,0.051,0.171c0.022,0.055,0.043,0.111,0.068,0.167
				c0.1,0.225,0.24,0.437,0.421,0.63c0.181,0.199,0.408,0.303,0.669,0.322c0.181,0.012,0.314-0.025,0.399-0.11
				c0.085-0.086,0.132-0.222,0.138-0.405c0.006-0.123-0.039-0.229-0.127-0.311c-0.09-0.083-0.197-0.165-0.327-0.247
				c-0.06-0.031-0.121-0.066-0.188-0.109c-0.068-0.042-0.133-0.081-0.199-0.118c-0.211-0.134-0.408-0.304-0.58-0.506
				c-0.172-0.206-0.255-0.495-0.245-0.875c0.012-0.408,0.129-0.667,0.358-0.775c0.228-0.108,0.477-0.157,0.748-0.139V17.587z"/>
			<path fill="#70787E" d="M29.524,18.697c0.005,0.006,0.04-0.045,0.108-0.15c0.071-0.103,0.155-0.212,0.259-0.331
				c0.067-0.08,0.142-0.153,0.214-0.223c0.075-0.066,0.154-0.128,0.228-0.175c0.052-0.024,0.101-0.046,0.148-0.061
				c0.045-0.016,0.09-0.021,0.136-0.018c0.084,0.007,0.14,0.053,0.16,0.14c0.026,0.091,0.031,0.357,0.019,0.814
				c0.002-0.005,0.009-0.015,0.016-0.021c0.006-0.009,0.01-0.015,0.017-0.023c0.032-0.044,0.069-0.088,0.104-0.136
				c0.034-0.05,0.071-0.1,0.105-0.151c0.101-0.141,0.217-0.268,0.351-0.386c0.135-0.114,0.304-0.164,0.51-0.15
				c0.046,0.003,0.105,0.027,0.183,0.079c0.076,0.049,0.156,0.119,0.24,0.216c0.122,0.148,0.231,0.354,0.331,0.616
				c0.096,0.259,0.142,0.587,0.131,0.978c-0.011,0.384-0.106,0.711-0.286,0.979c-0.181,0.271-0.378,0.487-0.59,0.651
				c-0.152,0.113-0.3,0.198-0.441,0.25c-0.14,0.052-0.244,0.078-0.315,0.071c-0.021-0.001-0.04-0.007-0.063-0.017
				c-0.022-0.013-0.044-0.024-0.065-0.036c-0.023-0.008-0.046-0.022-0.071-0.046c-0.026-0.021-0.052-0.041-0.075-0.063
				c-0.035-0.028-0.065-0.06-0.091-0.089c-0.027-0.028-0.047-0.049-0.062-0.063l-0.055,1.924c-0.003,0.181,0.021,0.317,0.085,0.415
				c0.058,0.097,0.126,0.189,0.197,0.271l0.008,0.008l0.008,0c0.045,0.055,0.086,0.106,0.126,0.162
				c0.037,0.053,0.07,0.116,0.099,0.183c-0.01-0.005-0.019-0.015-0.032-0.024c-0.013-0.008-0.026-0.016-0.042-0.025
				c-0.008-0.005-0.02-0.013-0.032-0.019c-0.015-0.008-0.027-0.017-0.033-0.03c-0.096-0.059-0.19-0.112-0.288-0.163
				c-0.097-0.053-0.2-0.082-0.305-0.089c-0.165-0.01-0.316,0.02-0.455,0.1c-0.14,0.076-0.27,0.161-0.394,0.251
				c-0.03,0.029-0.063,0.054-0.101,0.077c-0.034,0.025-0.072,0.052-0.109,0.079c0.025-0.058,0.052-0.111,0.087-0.158
				c0.032-0.049,0.066-0.092,0.098-0.131c0.014-0.019,0.028-0.033,0.044-0.048c0.012-0.013,0.023-0.026,0.033-0.035
				c0.075-0.083,0.142-0.181,0.205-0.29c0.063-0.107,0.099-0.257,0.103-0.444l0.13-4.656c0-0.055-0.011-0.093-0.033-0.12
				c-0.026-0.024-0.056-0.038-0.097-0.042c-0.021-0.001-0.045,0-0.069,0.003c-0.024,0.005-0.052,0.008-0.076,0.012
				c-0.027,0.012-0.051,0.022-0.071,0.032c-0.018,0.007-0.043,0.018-0.063,0.021c-0.041,0.022-0.096,0.051-0.156,0.087
				L29.524,18.697z M30.778,19.243l-0.033,1.269c-0.002,0.01,0,0.02-0.002,0.029c0,0.009-0.002,0.019-0.002,0.025
				c0.004,0.148,0.056,0.287,0.155,0.419c0.096,0.132,0.22,0.202,0.371,0.212c0.196,0.012,0.354-0.079,0.479-0.275
				c0.125-0.198,0.211-0.417,0.255-0.664c0.013-0.059,0.022-0.119,0.029-0.185c0.005-0.064,0.013-0.127,0.013-0.186
				c0.002-0.065,0.003-0.133,0.003-0.2c-0.003-0.066-0.005-0.138-0.016-0.209c-0.012-0.21-0.055-0.402-0.122-0.581
				c-0.068-0.182-0.187-0.277-0.351-0.287c-0.009-0.002-0.011-0.002-0.013-0.002c-0.005,0.002-0.005,0.001-0.012-0.001
				c-0.102,0.003-0.201,0.035-0.3,0.1c-0.102,0.07-0.191,0.144-0.268,0.227c-0.058,0.061-0.104,0.124-0.138,0.183
				c-0.033,0.063-0.051,0.104-0.053,0.135L30.778,19.243z"/>
			<path fill="#70787E" d="M35.254,18.096l0.653,0.043l-0.09,3.279c0.005,0.047,0.015,0.08,0.033,0.101
				c0.018,0.018,0.036,0.025,0.063,0.02c0.051,0.004,0.116-0.016,0.199-0.061c0.08-0.046,0.173-0.097,0.275-0.154
				c-0.016,0.033-0.034,0.069-0.057,0.105c-0.02,0.039-0.045,0.074-0.071,0.105c-0.062,0.087-0.139,0.167-0.225,0.245
				c-0.088,0.076-0.177,0.129-0.271,0.158c-0.031,0.012-0.059,0.02-0.087,0.023c-0.029,0.001-0.055,0.004-0.079,0.002
				c-0.021-0.001-0.052-0.013-0.097-0.036c-0.046-0.019-0.094-0.051-0.141-0.098c-0.064-0.061-0.122-0.143-0.176-0.245
				c-0.05-0.102-0.076-0.223-0.073-0.365l0.015-0.489c-0.043,0.052-0.111,0.129-0.203,0.232c-0.095,0.104-0.199,0.208-0.313,0.321
				c-0.043,0.044-0.082,0.085-0.122,0.125c-0.043,0.037-0.086,0.074-0.132,0.106c-0.11,0.101-0.217,0.18-0.322,0.24
				c-0.102,0.061-0.195,0.091-0.269,0.084c-0.012,0.001-0.021,0-0.029,0c-0.01,0-0.022-0.006-0.03-0.012
				c-0.148-0.033-0.281-0.167-0.4-0.395c-0.119-0.23-0.17-0.543-0.16-0.929c0.023-0.828,0.233-1.447,0.636-1.853
				c0.402-0.405,0.891-0.588,1.472-0.549V18.096z M34.292,18.75c-0.228,0.294-0.358,0.622-0.391,0.988
				c-0.008,0.025-0.01,0.047-0.008,0.072c-0.003,0.022-0.004,0.046-0.004,0.068c-0.008,0.309,0.03,0.529,0.115,0.662
				s0.191,0.202,0.32,0.203c0.063,0.003,0.127-0.004,0.196-0.021c0.067-0.022,0.137-0.05,0.206-0.086
				c0.072-0.034,0.145-0.083,0.215-0.134c0.068-0.054,0.135-0.114,0.194-0.174l0.057-1.987
				C34.816,18.321,34.515,18.456,34.292,18.75z"/>
			<path fill="#70787E" d="M36.285,19.148c0.003,0.006,0.04-0.042,0.107-0.148c0.071-0.105,0.157-0.216,0.26-0.333
				c0.069-0.081,0.142-0.152,0.215-0.223c0.075-0.066,0.15-0.128,0.229-0.173c0.051-0.027,0.101-0.046,0.146-0.063
				c0.046-0.014,0.089-0.02,0.135-0.018c0.084,0.006,0.141,0.053,0.16,0.139c0.025,0.089,0.031,0.358,0.018,0.815
				c0.004-0.006,0.012-0.014,0.016-0.022c0.004-0.007,0.008-0.014,0.015-0.023c0.037-0.043,0.072-0.088,0.106-0.134
				c0.035-0.05,0.071-0.099,0.105-0.152c0.1-0.14,0.218-0.267,0.351-0.386c0.135-0.113,0.304-0.163,0.511-0.149
				c0.045,0.001,0.107,0.027,0.183,0.079c0.075,0.05,0.158,0.118,0.239,0.217c0.123,0.147,0.232,0.354,0.33,0.613
				c0.1,0.262,0.141,0.589,0.13,0.98c-0.01,0.384-0.107,0.71-0.287,0.979c-0.182,0.27-0.377,0.487-0.586,0.652
				c-0.154,0.112-0.302,0.197-0.441,0.25c-0.139,0.051-0.246,0.076-0.315,0.072c-0.02-0.002-0.043-0.008-0.063-0.019
				c-0.022-0.011-0.045-0.024-0.064-0.035c-0.026-0.009-0.049-0.023-0.072-0.047c-0.027-0.021-0.05-0.039-0.075-0.06
				c-0.034-0.033-0.065-0.062-0.092-0.091c-0.027-0.028-0.048-0.05-0.062-0.062l-0.054,1.923c-0.004,0.177,0.021,0.317,0.083,0.415
				c0.058,0.097,0.126,0.188,0.201,0.27l0.005,0.009l0.009,0c0.044,0.051,0.086,0.105,0.123,0.16
				c0.039,0.057,0.074,0.119,0.101,0.184c-0.008-0.004-0.019-0.015-0.031-0.023c-0.012-0.009-0.024-0.017-0.044-0.026
				c-0.007-0.003-0.019-0.012-0.031-0.018c-0.012-0.008-0.023-0.016-0.031-0.029c-0.099-0.058-0.191-0.112-0.289-0.164
				c-0.098-0.049-0.198-0.081-0.304-0.09c-0.168-0.01-0.315,0.023-0.457,0.101c-0.138,0.073-0.269,0.158-0.391,0.25
				c-0.034,0.027-0.063,0.055-0.102,0.078c-0.036,0.026-0.072,0.053-0.109,0.078c0.024-0.059,0.051-0.111,0.084-0.157
				c0.037-0.05,0.067-0.092,0.101-0.132c0.016-0.018,0.028-0.031,0.042-0.045c0.015-0.015,0.023-0.027,0.035-0.038
				c0.073-0.083,0.143-0.18,0.205-0.29c0.062-0.107,0.099-0.257,0.104-0.443l0.129-4.657c0-0.054-0.013-0.093-0.037-0.118
				c-0.023-0.026-0.055-0.038-0.094-0.043c-0.021-0.001-0.044,0.001-0.068,0.004c-0.027,0.004-0.053,0.006-0.075,0.011
				c-0.025,0.011-0.05,0.021-0.07,0.032c-0.021,0.009-0.045,0.019-0.069,0.022c-0.041,0.021-0.091,0.05-0.153,0.086L36.285,19.148z
				 M37.541,19.695l-0.036,1.268c0,0.012-0.002,0.022-0.002,0.03c-0.001,0.01-0.002,0.018,0,0.024
				c0.005,0.148,0.056,0.288,0.153,0.418c0.096,0.131,0.22,0.203,0.371,0.212c0.196,0.013,0.354-0.079,0.479-0.274
				c0.125-0.199,0.21-0.418,0.255-0.664c0.011-0.059,0.022-0.119,0.028-0.185c0.007-0.064,0.015-0.13,0.015-0.186
				c0.002-0.067,0.003-0.133,0.002-0.199c-0.002-0.068-0.006-0.141-0.013-0.209c-0.016-0.209-0.058-0.402-0.126-0.581
				c-0.066-0.181-0.186-0.278-0.352-0.286c-0.004-0.003-0.009-0.003-0.011-0.003c-0.002,0-0.007,0-0.011,0
				c-0.1,0.002-0.204,0.035-0.303,0.098c-0.1,0.071-0.188,0.144-0.267,0.229c-0.057,0.063-0.103,0.124-0.136,0.184
				c-0.034,0.06-0.053,0.103-0.054,0.133L37.541,19.695z"/>
			<path fill="#70787E" d="M39.946,20.644c0.02-0.697,0.205-1.236,0.555-1.618c0.35-0.382,0.754-0.56,1.213-0.528
				c0.092,0.006,0.173,0.02,0.246,0.043c0.074,0.022,0.148,0.061,0.218,0.112c0.08,0.051,0.159,0.123,0.242,0.211
				c0.083,0.087,0.18,0.201,0.286,0.338l-1.893,2.024c0.059,0.128,0.125,0.224,0.205,0.292c0.077,0.069,0.159,0.119,0.238,0.154
				c0.076,0.029,0.146,0.048,0.22,0.059c0.075,0.012,0.141,0.02,0.2,0.023c0.028,0.001,0.061,0.003,0.087,0.001
				c0.025-0.002,0.057-0.005,0.086-0.011c0.086-0.014,0.171-0.04,0.252-0.076c0.081-0.03,0.158-0.071,0.229-0.113
				c0.097-0.046,0.207-0.114,0.325-0.209c-0.206,0.341-0.436,0.596-0.683,0.759c-0.25,0.163-0.528,0.235-0.843,0.214
				c-0.342-0.021-0.597-0.137-0.77-0.347c-0.17-0.21-0.284-0.44-0.343-0.685c-0.033-0.115-0.052-0.229-0.063-0.338
				c-0.011-0.11-0.013-0.211-0.01-0.298V20.644z M40.834,19.383c-0.101,0.246-0.158,0.528-0.167,0.837
				c-0.004,0.139,0.002,0.275,0.016,0.413c0.016,0.137,0.037,0.265,0.07,0.387c0.041-0.042,0.104-0.107,0.189-0.192
				c0.084-0.083,0.175-0.177,0.268-0.284c0.041-0.04,0.083-0.082,0.123-0.129c0.038-0.047,0.073-0.094,0.103-0.142
				c0.081-0.098,0.146-0.199,0.197-0.296c0.054-0.097,0.083-0.182,0.085-0.26c0.001-0.034-0.002-0.08-0.005-0.133
				c-0.003-0.052-0.013-0.109-0.024-0.161c-0.023-0.097-0.067-0.185-0.131-0.263c-0.063-0.079-0.16-0.121-0.291-0.128
				C41.081,19.016,40.939,19.134,40.834,19.383z"/>
			<path fill="#70787E" d="M42.775,19.573c0.029-0.046,0.064-0.104,0.102-0.167c0.037-0.067,0.08-0.133,0.133-0.201
				c0.04-0.052,0.083-0.102,0.122-0.148c0.039-0.047,0.081-0.094,0.13-0.137c0.081-0.09,0.163-0.163,0.241-0.218
				c0.08-0.059,0.145-0.085,0.188-0.082c0.166,0.011,0.257,0.124,0.281,0.338c0.021,0.214,0.022,0.508,0.008,0.88
				c-0.002,0.041-0.002,0.083-0.003,0.13c-0.003,0.043-0.005,0.087-0.005,0.128c0.048-0.069,0.096-0.144,0.149-0.224
				c0.049-0.077,0.101-0.158,0.153-0.236c0.151-0.235,0.312-0.446,0.479-0.638c0.17-0.196,0.361-0.285,0.573-0.27
				c0.144,0.009,0.254,0.077,0.321,0.203c0.07,0.127,0.102,0.267,0.099,0.419c-0.003,0.107-0.04,0.221-0.108,0.344
				c-0.068,0.123-0.154,0.246-0.253,0.37c-0.039,0.057-0.087,0.114-0.136,0.169c-0.05,0.055-0.1,0.109-0.153,0.156
				c-0.041,0.047-0.083,0.09-0.124,0.134c-0.041,0.047-0.082,0.088-0.118,0.125c0.007-0.009,0.012-0.022,0.017-0.038
				c0.005-0.012,0.012-0.029,0.016-0.047c0.017-0.05,0.033-0.112,0.051-0.188c0.018-0.069,0.032-0.146,0.045-0.222
				c0.001-0.028,0.003-0.057,0.005-0.083c0.004-0.028,0.006-0.056,0.006-0.087c0.003-0.116-0.012-0.221-0.044-0.308
				c-0.033-0.086-0.096-0.136-0.192-0.144c-0.04-0.003-0.091,0.022-0.152,0.071c-0.063,0.05-0.124,0.111-0.188,0.185
				c-0.025,0.027-0.05,0.058-0.073,0.088c-0.024,0.031-0.048,0.06-0.074,0.086c-0.084,0.109-0.188,0.255-0.308,0.443l-0.048,1.65
				c0,0.005-0.021,0.03-0.069,0.08c-0.048,0.045-0.106,0.098-0.18,0.149c-0.065,0.052-0.138,0.091-0.217,0.127
				c-0.078,0.037-0.16,0.061-0.247,0.064l0.081-2.938c0.003-0.039-0.009-0.081-0.032-0.122c-0.024-0.04-0.062-0.062-0.113-0.066
				c-0.046-0.002-0.098,0.013-0.158,0.049c-0.061,0.034-0.129,0.091-0.201,0.179L42.775,19.573z"/>
			<path fill="#70787E" d="M47.19,18.837c0.063,0.007,0.114,0.02,0.17,0.035c0.051,0.018,0.102,0.033,0.152,0.048
				c0.01,0,0.019,0.002,0.031,0.006c0.009,0.003,0.02,0.01,0.029,0.016c0.038,0.015,0.077,0.024,0.117,0.035
				c0.036,0.007,0.077,0.013,0.125,0.015c0.054,0.003,0.117,0,0.187-0.018c0.071-0.017,0.15-0.041,0.238-0.078
				c-0.102,0.165-0.171,0.326-0.21,0.477c-0.041,0.15-0.071,0.272-0.093,0.366c-0.005,0.012-0.013,0.021-0.015,0.028
				c-0.001,0.008-0.003,0.018-0.004,0.024c-0.063-0.086-0.123-0.167-0.181-0.233c-0.059-0.071-0.116-0.128-0.17-0.171
				c-0.088-0.07-0.175-0.123-0.267-0.157c-0.09-0.034-0.192-0.054-0.309-0.061c-0.195-0.013-0.328,0.023-0.405,0.103
				c-0.069,0.082-0.107,0.178-0.11,0.292c-0.004,0.095,0.032,0.175,0.108,0.251c0.076,0.072,0.175,0.143,0.293,0.21
				c0.074,0.041,0.153,0.083,0.231,0.126c0.079,0.044,0.16,0.087,0.247,0.139c0.218,0.132,0.416,0.299,0.599,0.501
				c0.181,0.202,0.269,0.478,0.257,0.825c-0.012,0.42-0.117,0.703-0.322,0.847c-0.202,0.144-0.423,0.221-0.661,0.235
				c-0.06,0.004-0.121,0.003-0.185,0.002c-0.062-0.003-0.125-0.006-0.184-0.009c-0.384-0.027-0.625-0.123-0.725-0.292
				c-0.101-0.169-0.146-0.584-0.131-1.252c0.011,0.056,0.03,0.112,0.053,0.174c0.018,0.054,0.038,0.112,0.063,0.167
				c0.102,0.225,0.241,0.436,0.422,0.63c0.179,0.197,0.406,0.304,0.672,0.322c0.181,0.013,0.313-0.024,0.399-0.109
				c0.088-0.088,0.132-0.223,0.137-0.406c0.005-0.125-0.039-0.228-0.127-0.311c-0.09-0.083-0.198-0.165-0.326-0.246
				c-0.061-0.031-0.123-0.067-0.193-0.108c-0.063-0.042-0.131-0.082-0.195-0.119c-0.213-0.135-0.408-0.303-0.58-0.506
				c-0.173-0.205-0.252-0.495-0.243-0.876c0.011-0.406,0.13-0.666,0.357-0.774c0.225-0.11,0.476-0.157,0.747-0.138V18.837z"/>
		</g>
		<g>
			<polygon fill="#6E777D" points="10.367,40.488 10.354,40.009 28.135,41.303 28.146,41.782 			"/>
			<polygon fill="#6E777D" points="31.057,41.836 31.043,41.354 48.819,42.563 48.834,43.045 			"/>
			<polygon fill="#6E777D" points="10.497,37.79 10.483,37.311 28.261,38.55 28.275,39.03 			"/>
			<polygon fill="#6E777D" points="31.184,39.072 31.17,38.594 48.949,39.886 48.961,40.366 			"/>
			<polygon fill="#6E777D" points="10.626,35.068 10.612,34.588 28.391,35.828 28.404,36.308 			"/>
			<polygon fill="#6E777D" points="31.314,36.367 31.301,35.887 49.079,37.138 49.093,37.617 			"/>
			<polygon fill="#6E777D" points="10.756,32.337 10.743,31.857 28.521,33.107 28.535,33.586 			"/>
			<polygon fill="#6E777D" points="31.446,33.657 31.431,33.176 49.21,34.406 49.225,34.889 			"/>
			<polygon fill="#6E777D" points="10.885,29.625 10.872,29.145 28.65,30.375 28.663,30.856 			"/>
			<polygon fill="#6E777D" points="31.571,30.927 31.558,30.447 49.336,31.688 49.349,32.167 			"/>
			<polygon fill="#6E777D" points="11.013,26.883 11,26.405 28.781,27.667 28.793,28.145 			"/>
			<polygon fill="#6E777D" points="31.703,28.208 31.69,27.728 49.467,28.959 49.48,29.439 			"/>
		</g>
	</g>
</g>
</svg>
