<?xml version="1.0" encoding="utf-8"?>
<!-- Generator: Adobe Illustrator 16.0.0, SVG Export Plug-In . SVG Version: 6.00 Build 0)  -->
<!DOCTYPE svg PUBLIC "-//W3C//DTD SVG 1.1//EN" "http://www.w3.org/Graphics/SVG/1.1/DTD/svg11.dtd">
<svg version="1.1" id="Capa_1" xmlns="http://www.w3.org/2000/svg" xmlns:xlink="http://www.w3.org/1999/xlink" x="0px" y="0px"
	 width="47.875px" height="55px" viewBox="0 0 47.875 55" enable-background="new 0 0 47.875 55" xml:space="preserve">
<g>
	<path fill-rule="evenodd" clip-rule="evenodd" fill="#ECC400" d="M37.51,6.152v3.593L6.491,20.34L1,16.749v21.587l5.491-3.591
		l3.375,1.113l-0.89,4.525c-0.522,2.909,0.89,5.855,3.007,6.537l8.33,2.695c0.353,0.216,0.719,0.216,1.072,0.216
		c1.948,0,3.544-1.581,4.065-4.061l0.891-4.274l11.168,4.061v3.627l8.512,3.591v-50L37.51,6.152z M22.614,44.874
		c-0.169,0.897-0.889,1.581-1.582,1.365l-8.343-2.73c-0.706-0.216-1.229-1.328-1.045-2.228l1.045-4.49L23.688,40.6L22.614,44.874z
		 M37.862,35.211L6.491,27.562v-3.629L37.51,13.372L37.862,35.211z M43.185,27.562h-2.837V9.745h2.837V27.562z"/>
</g>
</svg>
