<?xml version="1.0" encoding="utf-8"?>
<!-- Generator: Adobe Illustrator 16.0.0, SVG Export Plug-In . SVG Version: 6.00 Build 0)  -->
<!DOCTYPE svg PUBLIC "-//W3C//DTD SVG 1.1//EN" "http://www.w3.org/Graphics/SVG/1.1/DTD/svg11.dtd">
<svg version="1.1" id="Capa_1" xmlns="http://www.w3.org/2000/svg" xmlns:xlink="http://www.w3.org/1999/xlink" x="0px" y="0px"
	 width="47.875px" height="55px" viewBox="0 0 47.875 55" enable-background="new 0 0 47.875 55" xml:space="preserve">
<g>
	<path fill="#ECC400" d="M37.51,7.079v3.276L6.491,20.013L1,16.74v19.68l5.491-3.273l3.375,1.017l-0.89,4.125
		c-0.522,2.649,0.89,5.338,3.007,5.961l8.33,2.457c0.353,0.192,0.719,0.192,1.072,0.192c1.948,0,3.545-1.438,4.065-3.698
		l0.891-3.896l11.168,3.7v3.31l8.513,3.272V4L37.51,7.079z M22.614,42.381c-0.169,0.818-0.889,1.441-1.582,1.244l-8.343-2.49
		c-0.706-0.195-1.229-1.209-1.045-2.029l1.045-4.094l10.999,3.471L22.614,42.381z M37.861,33.57l-31.37-6.973v-3.308l31.019-9.628
		L37.861,33.57z M43.186,26.597h-2.838V10.354h2.838V26.597z"/>
</g>
<path fill="#FFFFFF" stroke="#211915" stroke-width="0.25" stroke-miterlimit="10" d="M35.432,39.854v2.641h-1.133
	c-0.833,0-1.508,0.675-1.508,1.508v7.543c0,0.833,0.675,1.508,1.508,1.508h12.067c0.834,0,1.509-0.675,1.509-1.508V44
	c0-0.833-0.675-1.508-1.509-1.508h-1.132v-2.641c0-2.707-2.194-4.901-4.901-4.901S35.432,37.145,35.432,39.854z M37.316,42.492
	v-2.641c0-1.666,1.35-3.018,3.017-3.018s3.017,1.352,3.017,3.018v2.641H37.316z M38.824,46.641c0-0.834,0.676-1.509,1.509-1.509
	s1.509,0.675,1.509,1.509c0,0.531-0.275,1-0.689,1.269c0,0,0.146,0.891,0.313,1.938c0,0.313-0.252,0.564-0.563,0.564H39.77
	c-0.313,0-0.564-0.253-0.564-0.564l0.313-1.938C39.1,47.641,38.824,47.172,38.824,46.641z"/>
</svg>
