<?xml version="1.0" encoding="utf-8"?>
<!-- Generator: Adobe Illustrator 16.0.0, SVG Export Plug-In . SVG Version: 6.00 Build 0)  -->
<!DOCTYPE svg PUBLIC "-//W3C//DTD SVG 1.1//EN" "http://www.w3.org/Graphics/SVG/1.1/DTD/svg11.dtd">
<svg version="1.1" id="Capa_1" xmlns="http://www.w3.org/2000/svg" xmlns:xlink="http://www.w3.org/1999/xlink" x="0px" y="0px"
	 width="47.875px" height="55px" viewBox="0 0 47.875 55" enable-background="new 0 0 47.875 55" xml:space="preserve">
<g>
	<path fill="#ECC400" d="M37.51,7.079v3.276L6.491,20.013L1,16.74v19.68l5.491-3.273l3.375,1.015l-0.89,4.125
		c-0.522,2.651,0.89,5.338,3.007,5.961l8.33,2.457c0.353,0.194,0.719,0.194,1.072,0.194c1.948,0,3.545-1.44,4.065-3.7l0.891-3.896
		l11.168,3.701v3.308l8.513,3.274V4L37.51,7.079z M22.614,42.381c-0.169,0.818-0.889,1.441-1.582,1.244l-8.343-2.49
		c-0.706-0.195-1.229-1.209-1.045-2.029l1.045-4.094l10.999,3.471L22.614,42.381z M37.861,33.57l-31.37-6.973v-3.308l31.019-9.628
		L37.861,33.57z M43.186,26.597h-2.838V10.354h2.838V26.597z"/>
</g>
</svg>
