<?xml version="1.0" encoding="utf-8"?>
<!-- Generator: Adobe Illustrator 16.0.0, SVG Export Plug-In . SVG Version: 6.00 Build 0)  -->
<!DOCTYPE svg PUBLIC "-//W3C//DTD SVG 1.1//EN" "http://www.w3.org/Graphics/SVG/1.1/DTD/svg11.dtd">
<svg version="1.1" id="Capa_1" xmlns="http://www.w3.org/2000/svg" xmlns:xlink="http://www.w3.org/1999/xlink" x="0px" y="0px"
	 width="47.875px" height="55px" viewBox="0 0 47.875 55" enable-background="new 0 0 47.875 55" xml:space="preserve">
<g>
	<path fill="#ECC400" d="M37.51,7.079v3.276L6.491,20.013L1,16.74v19.68l5.491-3.273l3.375,1.015l-0.89,4.125
		c-0.522,2.651,0.89,5.338,3.007,5.961l8.33,2.457c0.353,0.194,0.719,0.194,1.072,0.194c1.948,0,3.545-1.44,4.065-3.7l0.891-3.896
		l11.168,3.701v3.308l8.513,3.274V4L37.51,7.079z M22.614,42.381c-0.169,0.818-0.889,1.441-1.582,1.244l-8.343-2.49
		c-0.706-0.195-1.229-1.209-1.045-2.029l1.045-4.094l10.999,3.471L22.614,42.381z M37.861,33.57l-31.37-6.973v-3.308l31.019-9.628
		L37.861,33.57z M43.186,26.597h-2.838V10.354h2.838V26.597z"/>
</g>
<path fill="#010101" d="M35.431,39.853v2.64h-1.132c-0.833,0-1.508,0.675-1.508,1.508v7.543c0,0.833,0.675,1.508,1.508,1.508h12.067
	c0.834,0,1.509-0.675,1.509-1.508V44c0-0.833-0.675-1.508-1.509-1.508h-1.131v-2.64c0-2.708-2.195-4.902-4.902-4.902
	S35.431,37.145,35.431,39.853z M37.316,42.492v-2.64c0-1.667,1.35-3.017,3.017-3.017s3.017,1.35,3.017,3.017v2.64H37.316z
	 M38.824,46.641c0-0.834,0.676-1.509,1.509-1.509s1.509,0.675,1.509,1.509c0,0.531-0.275,0.999-0.69,1.267
	c0,0,0.147,0.891,0.313,1.938c0,0.313-0.252,0.565-0.565,0.565h-1.131c-0.313,0-0.565-0.253-0.565-0.565l0.313-1.938
	C39.1,47.64,38.824,47.172,38.824,46.641z"/>
</svg>
