<?xml version="1.0" encoding="utf-8"?>
<!-- Generator: Adobe Illustrator 16.0.0, SVG Export Plug-In . SVG Version: 6.00 Build 0)  -->
<!DOCTYPE svg PUBLIC "-//W3C//DTD SVG 1.1//EN" "http://www.w3.org/Graphics/SVG/1.1/DTD/svg11.dtd">
<svg version="1.1" id="Capa_1" xmlns="http://www.w3.org/2000/svg" xmlns:xlink="http://www.w3.org/1999/xlink" x="0px" y="0px"
	 width="47.875px" height="55px" viewBox="0 0 47.875 55" enable-background="new 0 0 47.875 55" xml:space="preserve">
<g>
	<path fill="#ECC400" d="M38.244,41.479c0,2.181-1.832,4.188-4.041,4.188H7.954c-2.004,0-3.663-2.007-3.663-4.188V22.527
		c0-2.18,1.658-4.186,3.663-4.186h26.249c2.209,0,4.041,2.006,4.041,4.186V41.479z M40.975,24.155L40.975,24.155h3.459
		c0.553,0,0.9,0.378,0.9,0.931v3.633c0,0.377-0.348,0.727-0.9,0.727h-3.459c-0.551,0-0.93-0.35-0.93-0.727v-3.633
		C40.045,24.533,40.424,24.155,40.975,24.155L40.975,24.155z M41.875,36.74L41.875,36.74h1.629c0.205,0,0.379,0.379,0.379,0.554
		v1.628c0,0.203-0.174,0.378-0.379,0.378h-1.629c-0.172,0-0.377-0.175-0.377-0.378v-1.628C41.498,37.119,41.703,36.74,41.875,36.74
		L41.875,36.74z M41.875,33.631L41.875,33.631h1.629c0.205,0,0.379,0.203,0.379,0.377v1.833c0,0.175-0.174,0.351-0.379,0.351h-1.629
		c-0.172,0-0.377-0.176-0.377-0.351v-1.833C41.498,33.834,41.703,33.631,41.875,33.631L41.875,33.631z M41.875,30.549L41.875,30.549
		h1.629c0.205,0,0.379,0.176,0.379,0.381v1.627c0,0.174-0.174,0.551-0.379,0.551h-1.629c-0.172,0-0.377-0.377-0.377-0.551V30.93
		C41.498,30.725,41.703,30.549,41.875,30.549L41.875,30.549z M42.982,15.23L42.982,15.23H26.908c-1.279,0-1.629-0.9-0.902-1.802
		l3.836-4.563c0.727-0.902,1.455-1.628,1.455-1.628h0.172c1.107,0,1.834-0.93,1.834-1.833c0-1.104-0.727-2.005-1.834-2.005
		c-1.074,0-2.004,0.901-2.004,1.832c0,0.173,0,0.347,0.203,0.347c0,0.175-0.551,1.105-1.279,2.006l-4.767,5.639
		c-0.728,0.931-1.454,1.656-1.628,1.656c-0.173,0-1.104-0.726-1.831-1.656l-4.738-5.639c-0.728-0.901-1.279-1.831-1.279-2.006
		c0,0,0-0.174,0-0.347c0-0.931-0.728-1.832-1.831-1.832c-1.077,0-1.803,0.901-1.803,1.832c0,1.076,0.726,2.005,1.803,2.005h0.202
		c0,0,0.728,0.726,1.454,1.454l3.633,4.737c0.931,0.901,0.552,1.802-0.728,1.802H4.844c-2.181,0-4.012,1.279-4.012,3.488v26.598
		c0,2.181,1.831,3.459,4.012,3.459h38.138c2.18,0,4.186-1.278,4.186-3.459V18.719C47.168,16.509,45.162,15.23,42.982,15.23
		L42.982,15.23z"/>
</g>
<path fill="#010101" d="M35.431,39.853v2.64h-1.132c-0.833,0-1.508,0.675-1.508,1.508v7.543c0,0.833,0.675,1.508,1.508,1.508h12.067
	c0.834,0,1.509-0.675,1.509-1.508V44c0-0.833-0.675-1.508-1.509-1.508h-1.131v-2.64c0-2.708-2.195-4.902-4.902-4.902
	S35.431,37.145,35.431,39.853z M37.316,42.492v-2.64c0-1.667,1.35-3.017,3.017-3.017s3.017,1.35,3.017,3.017v2.64H37.316z
	 M38.824,46.641c0-0.834,0.676-1.509,1.509-1.509s1.509,0.675,1.509,1.509c0,0.531-0.275,0.999-0.69,1.267
	c0,0,0.147,0.891,0.313,1.938c0,0.313-0.252,0.565-0.565,0.565h-1.131c-0.313,0-0.565-0.253-0.565-0.565l0.313-1.938
	C39.1,47.64,38.824,47.172,38.824,46.641z"/>
</svg>
