<?xml version="1.0" encoding="utf-8"?>
<!-- Generator: Adobe Illustrator 16.0.0, SVG Export Plug-In . SVG Version: 6.00 Build 0)  -->
<!DOCTYPE svg PUBLIC "-//W3C//DTD SVG 1.1//EN" "http://www.w3.org/Graphics/SVG/1.1/DTD/svg11.dtd">
<svg version="1.1" id="Capa_1" xmlns="http://www.w3.org/2000/svg" xmlns:xlink="http://www.w3.org/1999/xlink" x="0px" y="0px"
	 width="55px" height="55px" viewBox="0 0 55 55" enable-background="new 0 0 55 55" xml:space="preserve">
<path fill-rule="evenodd" clip-rule="evenodd" fill="#CACACA" d="M32.184,5.744l0.06,0.052c0.013,0.012,0.034,0.011,0.047-0.003
	l3.174-3.606c0.011-0.014,0.01-0.036-0.004-0.048L35.4,2.087c-0.013-0.012-0.034-0.012-0.046,0.002L32.18,5.696
	C32.168,5.71,32.17,5.732,32.184,5.744"/>
<path fill-rule="evenodd" clip-rule="evenodd" fill="#979797" d="M29.88,8.33l0.085,0.075c0.02,0.017,0.051,0.015,0.067-0.005
	l3.131-3.56c0.017-0.019,0.015-0.05-0.004-0.067l-0.085-0.075c-0.02-0.017-0.051-0.015-0.068,0.005l-3.129,3.559
	C29.858,8.282,29.861,8.313,29.88,8.33"/>
<path fill-rule="evenodd" clip-rule="evenodd" fill="#AE772D" d="M29.279,8.972l0.114,0.101c0.025,0.023,0.068,0.021,0.091-0.006
	l1.436-1.623c0.022-0.027,0.021-0.068-0.006-0.091L30.8,7.252c-0.025-0.023-0.067-0.021-0.091,0.006l-1.435,1.623
	C29.251,8.908,29.252,8.949,29.279,8.972"/>
<path fill-rule="evenodd" clip-rule="evenodd" fill="#CACACA" d="M35.408,1.921c0.121,0,0.219,0.097,0.219,0.218
	c0,0.12-0.098,0.217-0.219,0.217c-0.119,0-0.217-0.097-0.217-0.217C35.191,2.019,35.289,1.921,35.408,1.921"/>
<path fill-rule="evenodd" clip-rule="evenodd" fill="#CACACA" d="M35.274,2.218c0.04,0,0.073,0.032,0.073,0.072
	c0,0.041-0.033,0.073-0.073,0.073S35.202,2.33,35.202,2.29C35.202,2.25,35.234,2.218,35.274,2.218"/>
<path fill-rule="evenodd" clip-rule="evenodd" fill="#CACACA" d="M22.817,5.744l-0.059,0.052c-0.013,0.012-0.035,0.011-0.047-0.003
	l-3.173-3.606c-0.012-0.014-0.01-0.036,0.004-0.048l0.059-0.052c0.013-0.012,0.035-0.012,0.046,0.002l3.173,3.606
	C22.833,5.71,22.832,5.732,22.817,5.744"/>
<path fill-rule="evenodd" clip-rule="evenodd" fill="#979797" d="M25.121,8.33l-0.084,0.075c-0.02,0.017-0.05,0.015-0.068-0.005
	l-3.129-3.56c-0.018-0.019-0.015-0.05,0.004-0.067l0.085-0.075c0.019-0.017,0.05-0.015,0.068,0.005l3.129,3.559
	C25.143,8.282,25.14,8.313,25.121,8.33"/>
<path fill-rule="evenodd" clip-rule="evenodd" fill="#AE772D" d="M25.722,8.972l-0.114,0.101c-0.025,0.023-0.068,0.021-0.091-0.006
	l-1.435-1.623c-0.023-0.027-0.022-0.068,0.005-0.091l0.115-0.101c0.025-0.023,0.068-0.021,0.091,0.006l1.435,1.623
	C25.75,8.908,25.749,8.949,25.722,8.972"/>
<path fill-rule="evenodd" clip-rule="evenodd" fill="#CACACA" d="M19.592,1.921c-0.12,0-0.217,0.097-0.217,0.218
	c0,0.12,0.098,0.217,0.217,0.217c0.121,0,0.218-0.097,0.218-0.217C19.81,2.019,19.712,1.921,19.592,1.921"/>
<path fill-rule="evenodd" clip-rule="evenodd" fill="#CACACA" d="M19.727,2.218c-0.041,0-0.073,0.032-0.073,0.072
	c0,0.041,0.032,0.073,0.073,0.073c0.04,0,0.072-0.032,0.072-0.073C19.798,2.25,19.766,2.218,19.727,2.218"/>
<path fill-rule="evenodd" clip-rule="evenodd" fill="#CACACA" d="M17.87,40.382l-0.763,4.862c-0.017,0.108,0.114,0.238,0.224,0.238
	h1.905c0.132,0,0.269-0.132,0.299-0.26l0.947-4.057L17.87,40.382z"/>
<g opacity="0.73">
	<g>
		<defs>
			<rect id="SVGID_1_" x="17.45" y="40.382" width="1.928" height="4.956"/>
		</defs>
		<clipPath id="SVGID_2_">
			<use xlink:href="#SVGID_1_"  overflow="visible"/>
		</clipPath>
		<path clip-path="url(#SVGID_2_)" fill-rule="evenodd" clip-rule="evenodd" fill="#FFFFFF" d="M18.096,40.382L17.453,45.1
			c-0.015,0.107,0.086,0.238,0.168,0.238h0.749c0.099,0,0.199-0.132,0.225-0.261l0.784-3.911L18.096,40.382z"/>
	</g>
</g>
<path fill-rule="evenodd" clip-rule="evenodd" fill="#CACACA" d="M35.254,40.382l0.765,4.862c0.017,0.108-0.116,0.238-0.224,0.238
	H33.89c-0.132,0-0.269-0.132-0.299-0.26l-0.948-4.057L35.254,40.382z"/>
<g opacity="0.73">
	<g>
		<defs>
			<rect id="SVGID_3_" x="33.001" y="40.356" width="1.776" height="5.032"/>
		</defs>
		<clipPath id="SVGID_4_">
			<use xlink:href="#SVGID_3_"  overflow="visible"/>
		</clipPath>
		<path clip-path="url(#SVGID_4_)" fill-rule="evenodd" clip-rule="evenodd" fill="#FFFFFF" d="M34.406,40.356l0.37,4.793
			c0.009,0.107-0.086,0.241-0.17,0.239l-0.598-0.026c-0.1-0.004-0.2-0.132-0.226-0.261l-0.784-3.911L34.406,40.356z"/>
	</g>
</g>
<path fill-rule="evenodd" clip-rule="evenodd" fill="#D68D34" d="M6.558,9.071c15.94-1.34,26.08-1.257,41.88,0.008
	c2.64,0.211,3.625,1.48,3.808,3.002c1.293,10.904,0.876,20.149-0.302,30.923c-0.112,1.025-1.896,2.892-2.922,3.002
	c-15.765,1.698-26.168,2.213-41.667,0.394c-2.642-0.309-3.924-1.414-4.129-3.002c-1.393-10.763-1.757-20.802-0.471-31.49
	C3.002,9.841,4.563,9.238,6.558,9.071"/>
<path fill-rule="evenodd" clip-rule="evenodd" fill="#AE772D" d="M6.558,9.071c15.94-1.34,26.08-1.257,41.88,0.008
	c2.64,0.211,3.625,1.48,3.808,3.002c1.293,10.904,0.876,14.411-0.302,25.185c-0.112,1.025-1.896,2.892-2.922,3.002
	c-15.765,1.698-26.168,2.212-41.667,0.395c-2.642-0.311-3.924-1.416-4.129-3.004C1.832,26.896,1.468,22.595,2.754,11.907
	C3.002,9.841,4.563,9.238,6.558,9.071"/>
<path fill-rule="evenodd" clip-rule="evenodd" fill="#AE772D" d="M6.841,10.784c15.335-1.199,26.182-1.048,41.166,0.153
	c2.505,0.2,3.44,1.403,3.609,2.847c1.229,10.342,1.195,18.604,0.077,28.821c-0.106,0.973-1.798,2.743-2.77,2.847
	c-14.952,1.611-26.772,1.954-41.472,0.229c-2.506-0.294-3.722-1.341-3.917-2.847C2.214,32.625,2.014,23.61,3.233,13.474
	C3.469,11.514,4.949,10.932,6.841,10.784"/>
<path fill-rule="evenodd" clip-rule="evenodd" fill="#FFFFFF" d="M6.841,10.029c15.335-1.198,26.182-1.047,41.166,0.153
	c2.505,0.2,3.44,1.402,3.609,2.847c1.229,10.341,1.195,18.602,0.077,28.82c-0.106,0.973-1.798,2.743-2.77,2.848
	c-14.952,1.61-26.772,1.953-41.472,0.229c-2.506-0.294-3.722-1.343-3.917-2.848C2.214,31.87,2.014,22.855,3.233,12.719
	C3.469,10.759,4.949,10.177,6.841,10.029"/>
<defs>
	<filter id="Adobe_OpacityMaskFilter" filterUnits="userSpaceOnUse" x="2.422" y="9.202" width="50.113" height="36.869">
		<feColorMatrix  type="matrix" values="1 0 0 0 0  0 1 0 0 0  0 0 1 0 0  0 0 0 1 0"/>
	</filter>
</defs>
<mask maskUnits="userSpaceOnUse" x="2.422" y="9.202" width="50.113" height="36.869" id="SVGID_5_">
	<g filter="url(#Adobe_OpacityMaskFilter)">
		<g>
			<defs>
				<rect id="SVGID_6_" x="2.422" y="9.202" width="50.113" height="36.869"/>
			</defs>
			<clipPath id="SVGID_7_">
				<use xlink:href="#SVGID_6_"  overflow="visible"/>
			</clipPath>
			<rect x="2.014" y="8.831" clip-path="url(#SVGID_7_)" width="50.831" height="37.819"/>
			<g enable-background="new    ">
				<g>
					<defs>
						<rect id="SVGID_8_" x="2.014" y="8.831" width="50.831" height="37.819"/>
					</defs>
					<clipPath id="SVGID_9_" clip-path="url(#SVGID_7_)">
						<use xlink:href="#SVGID_8_"  overflow="visible"/>
					</clipPath>
					<rect x="2.426" y="3.199" clip-path="url(#SVGID_9_)" width="25.935" height="42.872"/>
					<g>
						<defs>
							<rect id="SVGID_10_" x="21.559" y="3.199" width="68.039" height="42.872"/>
						</defs>
						<clipPath id="SVGID_11_" clip-path="url(#SVGID_9_)">
							<use xlink:href="#SVGID_10_"  overflow="visible"/>
						</clipPath>
						<g clip-path="url(#SVGID_11_)">
							
								<image overflow="visible" width="256" height="1" xlink:href="4E864EC4.jpg"  transform="matrix(-0.2658 0 0 -42.872 89.5977 46.0713)">
							</image>
						</g>
					</g>
				</g>
			</g>
		</g>
	</g>
</mask>
<g mask="url(#SVGID_5_)">
	<g>
		<defs>
			<rect id="SVGID_12_" x="2.422" y="9.202" width="50.113" height="36.869"/>
		</defs>
		<clipPath id="SVGID_13_">
			<use xlink:href="#SVGID_12_"  overflow="visible"/>
		</clipPath>
		<path clip-path="url(#SVGID_13_)" fill-rule="evenodd" clip-rule="evenodd" d="M6.841,10.029
			c15.335-1.198,26.182-1.047,41.166,0.153c2.505,0.2,3.44,1.402,3.609,2.847c1.229,10.341,1.195,18.602,0.077,28.82
			c-0.106,0.973-1.798,2.743-2.77,2.848c-14.952,1.61-26.772,1.953-41.472,0.229c-2.506-0.294-3.722-1.343-3.917-2.848
			C2.214,31.87,2.014,22.855,3.233,12.719C3.469,10.759,4.949,10.177,6.841,10.029"/>
	</g>
</g>
<path fill-rule="evenodd" clip-rule="evenodd" fill="#4E4E4E" d="M48.381,16.924c1.79,0,3.241,1.451,3.241,3.242
	c0,1.79-1.451,3.241-3.241,3.241c-1.791,0-3.243-1.451-3.243-3.241C45.138,18.375,46.59,16.924,48.381,16.924"/>
<path fill-rule="evenodd" clip-rule="evenodd" fill="#FFFFFF" d="M8.985,15.043c11.316-0.71,22.477-0.645,33.521,0
	c0.726,0.042,1.296,0.595,1.322,1.321c0.263,7.584,0.277,15.169,0,22.754c-0.027,0.726-0.595,1.32-1.322,1.32H8.985
	c-0.726,0-1.258-0.598-1.32-1.32c-0.647-7.585-0.708-15.17,0-22.754C7.732,15.64,8.26,15.088,8.985,15.043"/>
<path fill-rule="evenodd" clip-rule="evenodd" fill="#6E775E" d="M8.465,14.653c11.316-0.709,22.476-0.644,33.522,0
	c0.726,0.042,1.295,0.595,1.32,1.321c0.264,7.584,0.278,15.169,0,22.754c-0.027,0.726-0.594,1.32-1.32,1.32H8.465
	c-0.726,0-1.258-0.596-1.321-1.32c-0.646-7.585-0.707-15.169,0-22.754C7.213,15.25,7.741,14.699,8.465,14.653"/>
<path fill-rule="evenodd" clip-rule="evenodd" fill="#CACACA" d="M48.381,17.153c1.663,0,3.013,1.349,3.013,3.013
	c0,1.663-1.35,3.011-3.013,3.011c-1.664,0-3.013-1.348-3.013-3.011C45.368,18.502,46.717,17.153,48.381,17.153"/>
<defs>
	<filter id="Adobe_OpacityMaskFilter_1_" filterUnits="userSpaceOnUse" x="45.368" y="17.153" width="6.025" height="6.024">
		<feColorMatrix  type="matrix" values="1 0 0 0 0  0 1 0 0 0  0 0 1 0 0  0 0 0 1 0"/>
	</filter>
</defs>
<mask maskUnits="userSpaceOnUse" x="45.368" y="17.153" width="6.025" height="6.024" id="SVGID_14_">
	<g filter="url(#Adobe_OpacityMaskFilter_1_)">
		<rect x="45.368" y="17.153" width="6.025" height="6.024"/>
		<g enable-background="new    ">
			<g>
				<defs>
					<rect id="SVGID_15_" x="45.368" y="17.153" width="6.025" height="6.024"/>
				</defs>
				<clipPath id="SVGID_16_">
					<use xlink:href="#SVGID_15_"  overflow="visible"/>
				</clipPath>
				<g>
					<defs>
						<rect id="SVGID_17_" x="45.368" y="15.502" width="11.996" height="7.675"/>
					</defs>
					<clipPath id="SVGID_18_" clip-path="url(#SVGID_16_)">
						<use xlink:href="#SVGID_17_"  overflow="visible"/>
					</clipPath>
					
						<rect x="44.805" y="15.775" transform="matrix(0.926 -0.3776 0.3776 0.926 -4.7593 18.9059)" clip-path="url(#SVGID_18_)" width="2.074" height="11.635"/>
				</g>
				<g>
					<defs>
						<polygon id="SVGID_19_" points="45.369,15.502 45.368,15.502 45.368,20.952 45.898,22.25 46.276,23.177 57.364,23.177 
							57.364,17.729 56.688,16.07 56.457,15.502 						"/>
					</defs>
					<clipPath id="SVGID_20_" clip-path="url(#SVGID_16_)">
						<use xlink:href="#SVGID_19_"  overflow="visible"/>
					</clipPath>
					<g>
						<defs>
							
								<rect id="SVGID_21_" x="45.204" y="13.522" transform="matrix(0.926 -0.3775 0.3775 0.926 -3.5001 20.8225)" width="12.325" height="11.635"/>
						</defs>
						<clipPath id="SVGID_22_" clip-path="url(#SVGID_20_)">
							<use xlink:href="#SVGID_21_"  overflow="visible"/>
						</clipPath>
						<g transform="matrix(1 0 0 1 0 -1.907349e-006)" clip-path="url(#SVGID_22_)">
							
								<image overflow="visible" width="256" height="1" xlink:href="4E864EC5.jpg"  transform="matrix(-0.0446 0.0182 -4.3922 -10.7739 59.2676 22.4009)">
							</image>
						</g>
					</g>
				</g>
			</g>
		</g>
	</g>
</mask>
<g mask="url(#SVGID_14_)">
	<g>
		<defs>
			<rect id="SVGID_23_" x="45.368" y="17.153" width="6.025" height="6.024"/>
		</defs>
		<clipPath id="SVGID_24_">
			<use xlink:href="#SVGID_23_"  overflow="visible"/>
		</clipPath>
		<path clip-path="url(#SVGID_24_)" fill-rule="evenodd" clip-rule="evenodd" d="M48.381,17.153c1.663,0,3.013,1.349,3.013,3.013
			c0,1.663-1.35,3.011-3.013,3.011c-1.664,0-3.013-1.348-3.013-3.011C45.368,18.502,46.717,17.153,48.381,17.153"/>
	</g>
</g>
<defs>
	<filter id="Adobe_OpacityMaskFilter_2_" filterUnits="userSpaceOnUse" x="45.372" y="17.502" width="3.075" height="3.008">
		<feColorMatrix  type="matrix" values="1 0 0 0 0  0 1 0 0 0  0 0 1 0 0  0 0 0 1 0"/>
	</filter>
</defs>
<mask maskUnits="userSpaceOnUse" x="45.372" y="17.502" width="3.075" height="3.008" id="SVGID_25_">
	<g filter="url(#Adobe_OpacityMaskFilter_2_)">
		<rect x="45.372" y="17.502" width="3.075" height="3.008"/>
		<g enable-background="new    ">
			<g>
				<defs>
					<rect id="SVGID_26_" x="45.372" y="17.502" width="3.075" height="3.008"/>
				</defs>
				<clipPath id="SVGID_27_">
					<use xlink:href="#SVGID_26_"  overflow="visible"/>
				</clipPath>
				<g>
					<defs>
						
							<rect id="SVGID_28_" x="44.764" y="16.865" transform="matrix(0.7628 0.6467 -0.6467 0.7628 23.4193 -25.8261)" width="4.29" height="4.283"/>
					</defs>
					<clipPath id="SVGID_29_" clip-path="url(#SVGID_27_)">
						<use xlink:href="#SVGID_28_"  overflow="visible"/>
					</clipPath>
					<g transform="matrix(1 0 -2.980232e-008 1 -3.814697e-006 0)" clip-path="url(#SVGID_29_)">
						
							<image overflow="visible" width="256" height="256" xlink:href="4E864EC3.jpg"  transform="matrix(-0.0128 -0.0108 0.0108 -0.0128 47.1611 22.0269)">
						</image>
					</g>
				</g>
			</g>
		</g>
	</g>
</mask>
<g mask="url(#SVGID_25_)">
	<g>
		<defs>
			<rect id="SVGID_30_" x="45.372" y="17.502" width="3.075" height="3.008"/>
		</defs>
		<clipPath id="SVGID_31_">
			<use xlink:href="#SVGID_30_"  overflow="visible"/>
		</clipPath>
		<path clip-path="url(#SVGID_31_)" fill-rule="evenodd" clip-rule="evenodd" fill="#FFFFFF" d="M45.372,20.017
			c0.053-1.092,0.688-2.031,1.601-2.514l1.381,2.726l0.094,0.282L45.372,20.017z"/>
	</g>
</g>
<path fill-rule="evenodd" clip-rule="evenodd" fill="#4E4E4E" d="M48.381,18.073c1.156,0,2.093,0.937,2.093,2.093
	c0,1.155-0.937,2.091-2.093,2.091c-1.155,0-2.092-0.937-2.092-2.091C46.289,19.009,47.226,18.073,48.381,18.073"/>
<path fill-rule="evenodd" clip-rule="evenodd" fill="#CACACA" d="M48.381,18.441c0.952,0,1.724,0.772,1.724,1.724
	s-0.771,1.725-1.724,1.725s-1.725-0.772-1.725-1.725S47.429,18.441,48.381,18.441"/>
<defs>
	<filter id="Adobe_OpacityMaskFilter_3_" filterUnits="userSpaceOnUse" x="46.656" y="18.44" width="3.448" height="3.449">
		<feColorMatrix  type="matrix" values="1 0 0 0 0  0 1 0 0 0  0 0 1 0 0  0 0 0 1 0"/>
	</filter>
</defs>
<mask maskUnits="userSpaceOnUse" x="46.656" y="18.44" width="3.448" height="3.449" id="SVGID_32_">
	<g filter="url(#Adobe_OpacityMaskFilter_3_)">
		<rect x="46.656" y="18.441" width="3.448" height="3.449"/>
		<g enable-background="new    ">
			<g>
				<defs>
					<rect id="SVGID_33_" x="46.656" y="18.441" width="3.448" height="3.449"/>
				</defs>
				<clipPath id="SVGID_34_">
					<use xlink:href="#SVGID_33_"  overflow="visible"/>
				</clipPath>
				<g>
					<defs>
						<rect id="SVGID_35_" x="46.656" y="17.496" width="6.865" height="4.394"/>
					</defs>
					<clipPath id="SVGID_36_" clip-path="url(#SVGID_34_)">
						<use xlink:href="#SVGID_35_"  overflow="visible"/>
					</clipPath>
					
						<rect x="46.333" y="17.651" transform="matrix(0.926 -0.3774 0.3774 0.926 -4.448 19.2623)" clip-path="url(#SVGID_36_)" width="1.186" height="6.659"/>
				</g>
				<g>
					<defs>
						<polygon id="SVGID_37_" points="46.656,17.496 46.656,20.614 47.157,21.846 47.176,21.89 53.521,21.89 53.521,21.89 
							53.521,18.771 53.411,18.499 53.004,17.496 						"/>
					</defs>
					<clipPath id="SVGID_38_" clip-path="url(#SVGID_34_)">
						<use xlink:href="#SVGID_37_"  overflow="visible"/>
					</clipPath>
					<g>
						<defs>
							
								<rect id="SVGID_39_" x="46.563" y="16.363" transform="matrix(0.9262 -0.3771 0.3771 0.9262 -3.7282 20.3435)" width="7.054" height="6.66"/>
						</defs>
						<clipPath id="SVGID_40_" clip-path="url(#SVGID_38_)">
							<use xlink:href="#SVGID_39_"  overflow="visible"/>
						</clipPath>
						<g transform="matrix(1 0 2.980232e-008 1 0 1.907349e-006)" clip-path="url(#SVGID_40_)">
							
								<image overflow="visible" width="256" height="1" xlink:href="4E864ECC.jpg"  transform="matrix(-0.0255 0.0104 -2.5117 -6.1671 54.6123 21.4458)">
							</image>
						</g>
					</g>
				</g>
			</g>
		</g>
	</g>
</mask>
<g mask="url(#SVGID_32_)">
	<g>
		<defs>
			<rect id="SVGID_41_" x="46.656" y="18.44" width="3.448" height="3.449"/>
		</defs>
		<clipPath id="SVGID_42_">
			<use xlink:href="#SVGID_41_"  overflow="visible"/>
		</clipPath>
		<path clip-path="url(#SVGID_42_)" fill-rule="evenodd" clip-rule="evenodd" d="M48.381,18.441c0.952,0,1.724,0.772,1.724,1.724
			s-0.771,1.725-1.724,1.725s-1.725-0.772-1.725-1.725S47.429,18.441,48.381,18.441"/>
	</g>
</g>
<defs>
	<filter id="Adobe_OpacityMaskFilter_4_" filterUnits="userSpaceOnUse" x="46.656" y="18.773" width="3.418" height="2.997">
		<feColorMatrix  type="matrix" values="1 0 0 0 0  0 1 0 0 0  0 0 1 0 0  0 0 0 1 0"/>
	</filter>
</defs>
<mask maskUnits="userSpaceOnUse" x="46.656" y="18.773" width="3.418" height="2.997" id="SVGID_43_">
	<g filter="url(#Adobe_OpacityMaskFilter_4_)">
		<rect x="46.656" y="18.773" width="3.418" height="2.997"/>
		<g enable-background="new    ">
			<g>
				<defs>
					<polygon id="SVGID_44_" points="46.658,18.773 46.658,18.773 46.656,18.773 46.656,21.769 46.658,21.77 50.074,21.77 
						50.074,18.773 50.074,18.773 					"/>
				</defs>
				<clipPath id="SVGID_45_">
					<use xlink:href="#SVGID_44_"  overflow="visible"/>
				</clipPath>
				<g>
					<defs>
						
							<rect id="SVGID_46_" x="46.39" y="18.46" transform="matrix(-0.9795 0.2013 -0.2013 -0.9795 99.8222 30.3905)" width="3.951" height="3.623"/>
					</defs>
					<clipPath id="SVGID_47_" clip-path="url(#SVGID_45_)">
						<use xlink:href="#SVGID_46_"  overflow="visible"/>
					</clipPath>
					<g transform="matrix(1 0 0 1 -3.814697e-006 0)" clip-path="url(#SVGID_47_)">
						
							<image overflow="visible" width="256" height="256" xlink:href="4E864ECF.jpg"  transform="matrix(0.0151 -0.0031 0.0028 0.0139 46.0674 18.8945)">
						</image>
					</g>
				</g>
			</g>
		</g>
	</g>
</mask>
<g mask="url(#SVGID_43_)">
	<g>
		<defs>
			<rect id="SVGID_48_" x="46.656" y="18.773" width="3.418" height="2.997"/>
		</defs>
		<clipPath id="SVGID_49_">
			<use xlink:href="#SVGID_48_"  overflow="visible"/>
		</clipPath>
		<path clip-path="url(#SVGID_49_)" fill-rule="evenodd" clip-rule="evenodd" fill="#FFFFFF" d="M50.074,20.491
			c-0.112,0.585-0.519,1.065-1.061,1.279l-0.566-1.259l-1.791-0.397c0.017-0.55,0.291-1.036,0.707-1.34l0.99,1.456L50.074,20.491z"
			/>
	</g>
</g>
<path fill-rule="evenodd" clip-rule="evenodd" fill="#4E4E4E" d="M48.285,17.739h0.19c0.101,0,0.182,0.081,0.182,0.181v4.49
	c0,0.1-0.081,0.181-0.182,0.181h-0.19c-0.099,0-0.181-0.081-0.181-0.181v-4.49C48.104,17.82,48.187,17.739,48.285,17.739"/>
<defs>
	<filter id="Adobe_OpacityMaskFilter_5_" filterUnits="userSpaceOnUse" x="48.211" y="17.83" width="0.251" height="3.408">
		<feColorMatrix  type="matrix" values="1 0 0 0 0  0 1 0 0 0  0 0 1 0 0  0 0 0 1 0"/>
	</filter>
</defs>
<mask maskUnits="userSpaceOnUse" x="48.211" y="17.83" width="0.251" height="3.408" id="SVGID_50_">
	<g filter="url(#Adobe_OpacityMaskFilter_5_)">
		<rect x="48.211" y="17.83" width="0.251" height="3.408"/>
		<g enable-background="new    ">
			<g>
				<defs>
					<rect id="SVGID_51_" x="48.211" y="17.83" width="0.251" height="3.408"/>
				</defs>
				<clipPath id="SVGID_52_">
					<use xlink:href="#SVGID_51_"  overflow="visible"/>
				</clipPath>
				<rect x="48.036" y="17.83" clip-path="url(#SVGID_52_)" fill="#FFFFFF" width="0.426" height="1.597"/>
				<rect x="48.036" y="21.162" clip-path="url(#SVGID_52_)" width="0.426" height="1.597"/>
				<g>
					<defs>
						<rect id="SVGID_53_" x="48.036" y="19.209" width="0.426" height="2.169"/>
					</defs>
					<clipPath id="SVGID_54_" clip-path="url(#SVGID_52_)">
						<use xlink:href="#SVGID_53_"  overflow="visible"/>
					</clipPath>
					<g clip-path="url(#SVGID_54_)">
						
							<image overflow="visible" width="256" height="1" xlink:href="4E864ECD.jpg"  transform="matrix(0 0.0085 -0.4242 0 48.4619 19.2095)">
						</image>
					</g>
				</g>
			</g>
		</g>
	</g>
</mask>
<g mask="url(#SVGID_50_)">
	<g>
		<defs>
			<rect id="SVGID_55_" x="48.211" y="17.83" width="0.251" height="3.408"/>
		</defs>
		<clipPath id="SVGID_56_">
			<use xlink:href="#SVGID_55_"  overflow="visible"/>
		</clipPath>
		<path clip-path="url(#SVGID_56_)" fill-rule="evenodd" clip-rule="evenodd" fill="#C5C5C5" d="M48.292,17.83h0.087
			c0.045,0,0.083,0.037,0.083,0.082v3.245c0,0.045-0.038,0.082-0.083,0.082h-0.087c-0.045,0-0.081-0.037-0.081-0.082v-3.245
			C48.211,17.867,48.247,17.83,48.292,17.83"/>
	</g>
</g>
<path fill-rule="evenodd" clip-rule="evenodd" fill="#4E4E4E" d="M48.381,24.472c1.79,0,3.241,1.451,3.241,3.242
	c0,1.789-1.451,3.241-3.241,3.241c-1.791,0-3.243-1.452-3.243-3.241C45.138,25.923,46.59,24.472,48.381,24.472"/>
<path fill-rule="evenodd" clip-rule="evenodd" fill="#CACACA" d="M48.381,24.702c1.663,0,3.013,1.348,3.013,3.012
	c0,1.664-1.35,3.012-3.013,3.012c-1.664,0-3.013-1.348-3.013-3.012C45.368,26.05,46.717,24.702,48.381,24.702"/>
<defs>
	<filter id="Adobe_OpacityMaskFilter_6_" filterUnits="userSpaceOnUse" x="45.368" y="24.702" width="6.025" height="6.023">
		<feColorMatrix  type="matrix" values="1 0 0 0 0  0 1 0 0 0  0 0 1 0 0  0 0 0 1 0"/>
	</filter>
</defs>
<mask maskUnits="userSpaceOnUse" x="45.368" y="24.702" width="6.025" height="6.023" id="SVGID_57_">
	<g filter="url(#Adobe_OpacityMaskFilter_6_)">
		<rect x="45.368" y="24.702" width="6.025" height="6.023"/>
		<g enable-background="new    ">
			<g>
				<defs>
					<rect id="SVGID_58_" x="45.368" y="24.702" width="6.025" height="6.023"/>
				</defs>
				<clipPath id="SVGID_59_">
					<use xlink:href="#SVGID_58_"  overflow="visible"/>
				</clipPath>
				<g>
					<defs>
						<rect id="SVGID_60_" x="45.368" y="23.051" width="11.996" height="7.674"/>
					</defs>
					<clipPath id="SVGID_61_" clip-path="url(#SVGID_59_)">
						<use xlink:href="#SVGID_60_"  overflow="visible"/>
					</clipPath>
					
						<rect x="44.805" y="23.324" transform="matrix(0.926 -0.3775 0.3775 0.926 -7.6088 19.4622)" clip-path="url(#SVGID_61_)" width="2.073" height="11.634"/>
				</g>
				<g>
					<defs>
						<polygon id="SVGID_62_" points="45.368,23.051 45.368,23.051 45.368,28.5 46.276,30.726 57.364,30.726 57.364,30.726 
							57.364,25.278 57.35,25.244 56.457,23.051 						"/>
					</defs>
					<clipPath id="SVGID_63_" clip-path="url(#SVGID_59_)">
						<use xlink:href="#SVGID_62_"  overflow="visible"/>
					</clipPath>
					<g>
						<defs>
							
								<rect id="SVGID_64_" x="45.204" y="21.071" transform="matrix(0.926 -0.3775 0.3775 0.926 -6.3499 21.3789)" width="12.325" height="11.635"/>
						</defs>
						<clipPath id="SVGID_65_" clip-path="url(#SVGID_63_)">
							<use xlink:href="#SVGID_64_"  overflow="visible"/>
						</clipPath>
						<g transform="matrix(1 0 0 1 7.629395e-006 0)" clip-path="url(#SVGID_65_)">
							
								<image overflow="visible" width="256" height="1" xlink:href="4E864EC2.jpg"  transform="matrix(-0.0446 0.0182 -4.3921 -10.7739 59.2676 29.9492)">
							</image>
						</g>
					</g>
				</g>
			</g>
		</g>
	</g>
</mask>
<g mask="url(#SVGID_57_)">
	<g>
		<defs>
			<rect id="SVGID_66_" x="45.368" y="24.702" width="6.025" height="6.023"/>
		</defs>
		<clipPath id="SVGID_67_">
			<use xlink:href="#SVGID_66_"  overflow="visible"/>
		</clipPath>
		<path clip-path="url(#SVGID_67_)" fill-rule="evenodd" clip-rule="evenodd" d="M48.381,24.702c1.663,0,3.013,1.348,3.013,3.012
			c0,1.664-1.35,3.012-3.013,3.012c-1.664,0-3.013-1.348-3.013-3.012C45.368,26.05,46.717,24.702,48.381,24.702"/>
	</g>
</g>
<defs>
	<filter id="Adobe_OpacityMaskFilter_7_" filterUnits="userSpaceOnUse" x="45.372" y="25.051" width="3.075" height="3.008">
		<feColorMatrix  type="matrix" values="1 0 0 0 0  0 1 0 0 0  0 0 1 0 0  0 0 0 1 0"/>
	</filter>
</defs>
<mask maskUnits="userSpaceOnUse" x="45.372" y="25.051" width="3.075" height="3.008" id="SVGID_68_">
	<g filter="url(#Adobe_OpacityMaskFilter_7_)">
		<rect x="45.372" y="25.051" width="3.075" height="3.008"/>
		<g enable-background="new    ">
			<g>
				<defs>
					<rect id="SVGID_69_" x="45.372" y="25.052" width="3.075" height="3.007"/>
				</defs>
				<clipPath id="SVGID_70_">
					<use xlink:href="#SVGID_69_"  overflow="visible"/>
				</clipPath>
				<g>
					<defs>
						
							<rect id="SVGID_71_" x="44.764" y="24.413" transform="matrix(0.7628 0.6466 -0.6466 0.7628 28.2966 -24.0337)" width="4.29" height="4.283"/>
					</defs>
					<clipPath id="SVGID_72_" clip-path="url(#SVGID_70_)">
						<use xlink:href="#SVGID_71_"  overflow="visible"/>
					</clipPath>
					<g transform="matrix(1 2.980232e-008 0 1 -3.814697e-006 -3.814697e-006)" clip-path="url(#SVGID_72_)">
						
							<image overflow="visible" width="256" height="256" xlink:href="4E864EC6.jpg"  transform="matrix(-0.0128 -0.0108 0.0108 -0.0128 47.1611 29.5752)">
						</image>
					</g>
				</g>
			</g>
		</g>
	</g>
</mask>
<g mask="url(#SVGID_68_)">
	<g>
		<defs>
			<rect id="SVGID_73_" x="45.372" y="25.051" width="3.075" height="3.008"/>
		</defs>
		<clipPath id="SVGID_74_">
			<use xlink:href="#SVGID_73_"  overflow="visible"/>
		</clipPath>
		<path clip-path="url(#SVGID_74_)" fill-rule="evenodd" clip-rule="evenodd" fill="#FFFFFF" d="M45.372,27.566
			c0.053-1.092,0.688-2.031,1.601-2.515l1.381,2.727l0.094,0.281L45.372,27.566z"/>
	</g>
</g>
<path fill-rule="evenodd" clip-rule="evenodd" fill="#4E4E4E" d="M48.381,25.622c1.156,0,2.093,0.937,2.093,2.092
	s-0.937,2.092-2.093,2.092c-1.155,0-2.092-0.937-2.092-2.092S47.226,25.622,48.381,25.622"/>
<path fill-rule="evenodd" clip-rule="evenodd" fill="#CACACA" d="M48.381,25.989c0.952,0,1.724,0.772,1.724,1.725
	s-0.771,1.725-1.724,1.725s-1.725-0.772-1.725-1.725S47.429,25.989,48.381,25.989"/>
<defs>
	<filter id="Adobe_OpacityMaskFilter_8_" filterUnits="userSpaceOnUse" x="46.656" y="25.989" width="3.448" height="3.448">
		<feColorMatrix  type="matrix" values="1 0 0 0 0  0 1 0 0 0  0 0 1 0 0  0 0 0 1 0"/>
	</filter>
</defs>
<mask maskUnits="userSpaceOnUse" x="46.656" y="25.989" width="3.448" height="3.448" id="SVGID_75_">
	<g filter="url(#Adobe_OpacityMaskFilter_8_)">
		<rect x="46.656" y="25.989" width="3.448" height="3.449"/>
		<g enable-background="new    ">
			<g>
				<defs>
					<rect id="SVGID_76_" x="46.656" y="25.989" width="3.448" height="3.449"/>
				</defs>
				<clipPath id="SVGID_77_">
					<use xlink:href="#SVGID_76_"  overflow="visible"/>
				</clipPath>
				<g>
					<defs>
						<rect id="SVGID_78_" x="46.656" y="25.044" width="6.865" height="4.394"/>
					</defs>
					<clipPath id="SVGID_79_" clip-path="url(#SVGID_77_)">
						<use xlink:href="#SVGID_78_"  overflow="visible"/>
					</clipPath>
					
						<rect x="46.333" y="25.2" transform="matrix(0.926 -0.3774 0.3774 0.926 -7.2969 19.8206)" clip-path="url(#SVGID_79_)" width="1.186" height="6.659"/>
				</g>
				<g>
					<defs>
						<polygon id="SVGID_80_" points="46.656,25.044 46.656,28.162 47.157,29.395 47.176,29.438 53.521,29.438 53.521,26.32 
							53.004,25.044 						"/>
					</defs>
					<clipPath id="SVGID_81_" clip-path="url(#SVGID_77_)">
						<use xlink:href="#SVGID_80_"  overflow="visible"/>
					</clipPath>
					<g>
						<defs>
							
								<rect id="SVGID_82_" x="46.563" y="23.912" transform="matrix(0.9261 -0.3772 0.3772 0.9261 -6.5756 20.908)" width="7.054" height="6.659"/>
						</defs>
						<clipPath id="SVGID_83_" clip-path="url(#SVGID_81_)">
							<use xlink:href="#SVGID_82_"  overflow="visible"/>
						</clipPath>
						<g transform="matrix(1 2.980232e-008 0 1 0 0)" clip-path="url(#SVGID_83_)">
							
								<image overflow="visible" width="256" height="1" xlink:href="4E864EC7.jpg"  transform="matrix(-0.0255 0.0104 -2.5117 -6.1671 54.6123 28.9941)">
							</image>
						</g>
					</g>
				</g>
			</g>
		</g>
	</g>
</mask>
<g mask="url(#SVGID_75_)">
	<g>
		<defs>
			<rect id="SVGID_84_" x="46.656" y="25.989" width="3.448" height="3.449"/>
		</defs>
		<clipPath id="SVGID_85_">
			<use xlink:href="#SVGID_84_"  overflow="visible"/>
		</clipPath>
		<path clip-path="url(#SVGID_85_)" fill-rule="evenodd" clip-rule="evenodd" d="M48.381,25.989c0.952,0,1.724,0.772,1.724,1.725
			s-0.771,1.725-1.724,1.725s-1.725-0.772-1.725-1.725S47.429,25.989,48.381,25.989"/>
	</g>
</g>
<defs>
	<filter id="Adobe_OpacityMaskFilter_9_" filterUnits="userSpaceOnUse" x="46.656" y="26.321" width="3.418" height="2.997">
		<feColorMatrix  type="matrix" values="1 0 0 0 0  0 1 0 0 0  0 0 1 0 0  0 0 0 1 0"/>
	</filter>
</defs>
<mask maskUnits="userSpaceOnUse" x="46.656" y="26.321" width="3.418" height="2.997" id="SVGID_86_">
	<g filter="url(#Adobe_OpacityMaskFilter_9_)">
		<rect x="46.656" y="26.321" width="3.418" height="2.997"/>
		<g enable-background="new    ">
			<g>
				<defs>
					<polygon id="SVGID_87_" points="46.656,26.321 46.656,29.318 50.074,29.318 50.074,26.322 50.074,26.321 					"/>
				</defs>
				<clipPath id="SVGID_88_">
					<use xlink:href="#SVGID_87_"  overflow="visible"/>
				</clipPath>
				<g>
					<defs>
						
							<rect id="SVGID_89_" x="46.389" y="26.008" transform="matrix(-0.9796 0.2012 -0.2012 -0.9796 101.3378 45.3403)" width="3.951" height="3.624"/>
					</defs>
					<clipPath id="SVGID_90_" clip-path="url(#SVGID_88_)">
						<use xlink:href="#SVGID_89_"  overflow="visible"/>
					</clipPath>
					<g transform="matrix(1 -1.490116e-008 0 1 0 0)" clip-path="url(#SVGID_90_)">
						
							<image overflow="visible" width="256" height="256" xlink:href="596962A3.jpg"  transform="matrix(0.0151 -0.0031 0.0028 0.0139 46.0674 26.4429)">
						</image>
					</g>
				</g>
			</g>
		</g>
	</g>
</mask>
<g mask="url(#SVGID_86_)">
	<g>
		<defs>
			<rect id="SVGID_91_" x="46.656" y="26.321" width="3.418" height="2.997"/>
		</defs>
		<clipPath id="SVGID_92_">
			<use xlink:href="#SVGID_91_"  overflow="visible"/>
		</clipPath>
		<path clip-path="url(#SVGID_92_)" fill-rule="evenodd" clip-rule="evenodd" fill="#FFFFFF" d="M50.074,28.039
			c-0.112,0.584-0.519,1.064-1.061,1.279l-0.566-1.26l-1.791-0.397c0.017-0.551,0.291-1.036,0.707-1.34l0.99,1.457L50.074,28.039z"
			/>
	</g>
</g>
<path fill-rule="evenodd" clip-rule="evenodd" fill="#4E4E4E" d="M48.285,25.288h0.19c0.101,0,0.182,0.081,0.182,0.181v4.491
	c0,0.099-0.081,0.18-0.182,0.18h-0.19c-0.099,0-0.181-0.081-0.181-0.18v-4.491C48.104,25.369,48.187,25.288,48.285,25.288"/>
<defs>
	<filter id="Adobe_OpacityMaskFilter_10_" filterUnits="userSpaceOnUse" x="48.211" y="25.378" width="0.251" height="3.409">
		<feColorMatrix  type="matrix" values="1 0 0 0 0  0 1 0 0 0  0 0 1 0 0  0 0 0 1 0"/>
	</filter>
</defs>
<mask maskUnits="userSpaceOnUse" x="48.211" y="25.378" width="0.251" height="3.409" id="SVGID_93_">
	<g filter="url(#Adobe_OpacityMaskFilter_10_)">
		<rect x="48.211" y="25.378" width="0.251" height="3.409"/>
		<g enable-background="new    ">
			<g>
				<defs>
					<rect id="SVGID_94_" x="48.211" y="25.378" width="0.251" height="3.409"/>
				</defs>
				<clipPath id="SVGID_95_">
					<use xlink:href="#SVGID_94_"  overflow="visible"/>
				</clipPath>
				<rect x="48.036" y="25.378" clip-path="url(#SVGID_95_)" fill="#FFFFFF" width="0.426" height="1.597"/>
				<rect x="48.036" y="28.711" clip-path="url(#SVGID_95_)" width="0.426" height="1.597"/>
				<g>
					<defs>
						<rect id="SVGID_96_" x="48.036" y="26.758" width="0.426" height="2.168"/>
					</defs>
					<clipPath id="SVGID_97_" clip-path="url(#SVGID_95_)">
						<use xlink:href="#SVGID_96_"  overflow="visible"/>
					</clipPath>
					<g clip-path="url(#SVGID_97_)">
						
							<image overflow="visible" width="256" height="1" xlink:href="596962A1.jpg"  transform="matrix(0 0.0085 -0.4242 0 48.4619 26.7583)">
						</image>
					</g>
				</g>
			</g>
		</g>
	</g>
</mask>
<g mask="url(#SVGID_93_)">
	<g>
		<defs>
			<rect id="SVGID_98_" x="48.211" y="25.378" width="0.251" height="3.409"/>
		</defs>
		<clipPath id="SVGID_99_">
			<use xlink:href="#SVGID_98_"  overflow="visible"/>
		</clipPath>
		<path clip-path="url(#SVGID_99_)" fill-rule="evenodd" clip-rule="evenodd" fill="#C5C5C5" d="M48.292,25.378h0.087
			c0.045,0,0.083,0.037,0.083,0.082v3.245c0,0.045-0.038,0.082-0.083,0.082h-0.087c-0.045,0-0.081-0.037-0.081-0.082V25.46
			C48.211,25.415,48.247,25.378,48.292,25.378"/>
	</g>
</g>
<defs>
	<filter id="Adobe_OpacityMaskFilter_11_" filterUnits="userSpaceOnUse" x="6.637" y="14.145" width="36.874" height="25.903">
		<feColorMatrix  type="matrix" values="1 0 0 0 0  0 1 0 0 0  0 0 1 0 0  0 0 0 1 0"/>
	</filter>
</defs>
<mask maskUnits="userSpaceOnUse" x="6.637" y="14.145" width="36.874" height="25.903" id="SVGID_100_">
	<g filter="url(#Adobe_OpacityMaskFilter_11_)">
		<g>
			<defs>
				<rect id="SVGID_101_" x="6.637" y="14.145" width="36.874" height="25.903"/>
			</defs>
			<clipPath id="SVGID_102_">
				<use xlink:href="#SVGID_101_"  overflow="visible"/>
			</clipPath>
			<rect x="6.438" y="13.942" clip-path="url(#SVGID_102_)" width="37.148" height="26.105"/>
			<g enable-background="new    ">
				<g>
					<defs>
						<rect id="SVGID_103_" x="6.438" y="13.942" width="37.148" height="26.105"/>
					</defs>
					<clipPath id="SVGID_104_" clip-path="url(#SVGID_102_)">
						<use xlink:href="#SVGID_103_"  overflow="visible"/>
					</clipPath>
					<g>
						<defs>
							<rect id="SVGID_105_" x="6.637" y="13.435" width="45.04" height="26.613"/>
						</defs>
						<clipPath id="SVGID_106_" clip-path="url(#SVGID_104_)">
							<use xlink:href="#SVGID_105_"  overflow="visible"/>
						</clipPath>
						
							<rect x="42.859" y="13.362" transform="matrix(-0.9493 -0.3143 0.3143 -0.9493 83.7159 79.6404)" clip-path="url(#SVGID_106_)" fill="#FFFFFF" width="10.836" height="39.421"/>
						
							<rect x="4.618" y="0.701" transform="matrix(0.9493 0.3143 -0.3143 0.9493 6.9247 -2.1202)" clip-path="url(#SVGID_106_)" width="10.836" height="39.421"/>
					</g>
					<g>
						<defs>
							<polygon id="SVGID_107_" points="14.175,13.435 6.943,35.279 6.637,36.207 6.637,40.048 44.138,40.048 51.677,17.277 
								51.677,13.435 51.677,13.435 							"/>
						</defs>
						<clipPath id="SVGID_108_" clip-path="url(#SVGID_104_)">
							<use xlink:href="#SVGID_107_"  overflow="visible"/>
						</clipPath>
						<g>
							<defs>
								
									<rect id="SVGID_109_" x="10.753" y="7.032" transform="matrix(0.9493 0.3143 -0.3143 0.9493 9.8822 -7.8086)" width="36.808" height="39.42"/>
							</defs>
							<clipPath id="SVGID_110_" clip-path="url(#SVGID_108_)">
								<use xlink:href="#SVGID_109_"  overflow="visible"/>
							</clipPath>
							<g transform="matrix(1 0 0 1 0 -3.814697e-006)" clip-path="url(#SVGID_110_)">
								
									<image overflow="visible" width="256" height="1" xlink:href="596962A7.jpg"  transform="matrix(-0.1365 -0.0452 12.39 -37.4228 40.4326 51.2373)">
								</image>
							</g>
						</g>
					</g>
				</g>
			</g>
		</g>
	</g>
</mask>
<g mask="url(#SVGID_100_)">
	<g>
		<defs>
			<rect id="SVGID_111_" x="6.637" y="14.145" width="36.874" height="25.903"/>
		</defs>
		<clipPath id="SVGID_112_">
			<use xlink:href="#SVGID_111_"  overflow="visible"/>
		</clipPath>
		<path clip-path="url(#SVGID_112_)" fill-rule="evenodd" clip-rule="evenodd" d="M8.465,14.653c11.316-0.709,22.476-0.644,33.522,0
			c0.726,0.042,1.295,0.595,1.32,1.321c0.264,7.584,0.278,15.169,0,22.754c-0.027,0.726-0.594,1.32-1.32,1.32H8.465
			c-0.726,0-1.258-0.596-1.321-1.32c-0.646-7.585-0.707-15.169,0-22.754C7.213,15.25,7.741,14.699,8.465,14.653"/>
	</g>
</g>
<defs>
	<filter id="Adobe_OpacityMaskFilter_12_" filterUnits="userSpaceOnUse" x="6.637" y="14.145" width="36.874" height="25.903">
		<feColorMatrix  type="matrix" values="1 0 0 0 0  0 1 0 0 0  0 0 1 0 0  0 0 0 1 0"/>
	</filter>
</defs>
<mask maskUnits="userSpaceOnUse" x="6.637" y="14.145" width="36.874" height="25.903" id="SVGID_113_">
	<g filter="url(#Adobe_OpacityMaskFilter_12_)">
		<g>
			<defs>
				<rect id="SVGID_114_" x="6.637" y="14.145" width="36.874" height="25.903"/>
			</defs>
			<clipPath id="SVGID_115_">
				<use xlink:href="#SVGID_114_"  overflow="visible"/>
			</clipPath>
			<rect x="6.438" y="13.942" clip-path="url(#SVGID_115_)" width="37.148" height="26.105"/>
			<g enable-background="new    ">
				<g>
					<defs>
						<rect id="SVGID_116_" x="6.438" y="13.942" width="37.148" height="26.105"/>
					</defs>
					<clipPath id="SVGID_117_" clip-path="url(#SVGID_115_)">
						<use xlink:href="#SVGID_116_"  overflow="visible"/>
					</clipPath>
					<g>
						<defs>
							<rect id="SVGID_118_" x="-42.385" y="-34.523" width="85.896" height="74.571"/>
						</defs>
						<clipPath id="SVGID_119_" clip-path="url(#SVGID_117_)">
							<use xlink:href="#SVGID_118_"  overflow="visible"/>
						</clipPath>
						
							<rect x="-41.413" y="-84.302" transform="matrix(0.6397 0.7686 -0.7686 0.6397 -29.9441 9.0009)" clip-path="url(#SVGID_119_)" fill="#FFFFFF" width="33.68" height="113.726"/>
						
							<rect x="8.859" y="-23.899" transform="matrix(-0.6397 -0.7686 0.7686 -0.6397 16.8003 73.8032)" clip-path="url(#SVGID_119_)" width="33.679" height="113.726"/>
					</g>
					<g>
						<defs>
							<polygon id="SVGID_120_" points="1.49,-34.523 -25.438,-12.113 -42.385,1.992 -42.385,40.048 -42.385,40.048 -0.363,40.048 
								43.511,3.534 43.511,-34.523 43.511,-34.523 							"/>
						</defs>
						<clipPath id="SVGID_121_" clip-path="url(#SVGID_117_)">
							<use xlink:href="#SVGID_120_"  overflow="visible"/>
						</clipPath>
						<g>
							<defs>
								
									<rect id="SVGID_122_" x="-27.504" y="-54.1" transform="matrix(-0.6397 -0.7686 0.7686 -0.6397 -1.2004 4.9617)" width="56.133" height="113.725"/>
							</defs>
							<clipPath id="SVGID_123_" clip-path="url(#SVGID_121_)">
								<use xlink:href="#SVGID_122_"  overflow="visible"/>
							</clipPath>
							<g transform="matrix(1 -2.980232e-008 0 1 1.907349e-006 0)" clip-path="url(#SVGID_123_)">
								
									<image overflow="visible" width="256" height="1" xlink:href="596962A2.jpg"  transform="matrix(0.1403 0.1685 -87.4125 72.7497 26.3154 -55.1851)">
								</image>
							</g>
						</g>
					</g>
				</g>
			</g>
		</g>
	</g>
</mask>
<g mask="url(#SVGID_113_)">
	<g>
		<defs>
			<rect id="SVGID_124_" x="6.637" y="14.145" width="36.874" height="25.903"/>
		</defs>
		<clipPath id="SVGID_125_">
			<use xlink:href="#SVGID_124_"  overflow="visible"/>
		</clipPath>
		<path clip-path="url(#SVGID_125_)" fill-rule="evenodd" clip-rule="evenodd" fill="#FFFFFF" d="M8.465,14.653
			c11.316-0.709,22.476-0.644,33.522,0c0.726,0.042,1.295,0.595,1.32,1.321c0.264,7.584,0.278,15.169,0,22.754
			c-0.027,0.726-0.594,1.32-1.32,1.32H8.465c-0.726,0-1.258-0.596-1.321-1.32c-0.646-7.585-0.707-15.169,0-22.754
			C7.213,15.25,7.741,14.699,8.465,14.653"/>
	</g>
</g>
</svg>
